<?xml version="1.0" encoding="utf-8"?>
<!-- Generator: Adobe Illustrator 21.1.0, SVG Export Plug-In . SVG Version: 6.00 Build 0)  -->
<svg version="1.1" id="Слой_1" xmlns="http://www.w3.org/2000/svg" xmlns:xlink="http://www.w3.org/1999/xlink" x="0px" y="0px"
	 viewBox="0 0 800 600" style="enable-background:new 0 0 800 600;" xml:space="preserve">
<style type="text/css">
	.st0{fill:#EEF7FF;}
	.st1{fill:#C0DEF9;}
	.st2{fill:none;stroke:#EEF7FF;stroke-width:2;stroke-linecap:round;stroke-linejoin:round;stroke-miterlimit:10;}
	.st3{fill:#63A2E7;}
	.st4{fill:#01004E;}
	.st5{fill:#70B2ED;}
	.st6{fill:#030038;}
	.st7{fill:#FFBEAE;}
	.st8{fill:#599CD8;}
	.st9{fill:#FCAD99;}
	.st10{fill:#F9988C;}
	.st11{fill:#FEFEFD;}
	.st12{fill:#EAE1DA;}
	.st13{fill:#FFFFFF;}
	.st14{fill:#83B5FE;}
	.st15{fill:#FFF2DF;}
	.st16{fill:none;stroke:#FFFFFF;stroke-miterlimit:10;}
	.st17{fill:none;stroke:#F79FAD;stroke-linecap:round;stroke-miterlimit:10;}
	.st18{fill:none;stroke:#DB8282;stroke-linecap:round;stroke-miterlimit:10;}
	.st19{fill:#9ACAE8;}
	.st20{fill:#AEB9C1;}
	.st21{fill:#FEAC00;}
	.st22{fill:#81C0EF;}
	.st23{fill:#DDD5C7;}
	.st24{fill:#D3D9DD;}
	.st25{fill:none;stroke:#BAC3CC;stroke-linecap:round;stroke-miterlimit:10;}
	.st26{fill:#FC8772;}
	.st27{fill:#FFEFE1;}
	.st28{fill:#88C1ED;}
	.st29{fill:none;stroke:#030038;stroke-width:2;stroke-miterlimit:10;}
	.st30{fill:none;stroke:#EAE9EE;stroke-width:3;stroke-miterlimit:10;}
	.st31{fill:#EAE9EE;}
	.st32{fill:#BAC3CC;}
	.st33{fill:none;stroke:#266C9B;stroke-width:0.9286;stroke-miterlimit:10;}
	.st34{fill:#E2D2C7;}
	.st35{fill:#67679B;}
	.st36{fill:none;stroke:#67679B;stroke-width:0.8468;stroke-linecap:round;stroke-linejoin:round;stroke-miterlimit:10;}
	.st37{fill:none;stroke:#EEF7FF;stroke-width:2;stroke-miterlimit:10;}
	.st38{fill:#A3653B;}
	.st39{fill:#FFDCA2;}
	.st40{fill:#EAC083;}
	.st41{fill:none;stroke:#F2CA91;stroke-linecap:round;stroke-linejoin:round;stroke-miterlimit:10;}
	.st42{fill:#D3915B;}
	.st43{fill:#6F4E2F;}
	.st44{fill:#E85336;}
	.st45{fill:#CC3117;}
	.st46{fill:none;stroke:#EAC083;stroke-width:1.7352;stroke-linecap:round;stroke-linejoin:round;stroke-miterlimit:10;}
	.st47{fill:#BA2C0F;}
	.st48{fill:none;stroke:#BA2C0F;stroke-width:0.5361;stroke-miterlimit:10;}
	.st49{fill:none;stroke:#6F4E2F;stroke-width:0.5361;stroke-linecap:round;stroke-linejoin:round;stroke-miterlimit:10;}
	.st50{fill:#F2CA91;}
	.st51{fill:none;stroke:#6F4E2F;stroke-width:1.0715;stroke-miterlimit:10;}
	.st52{fill:none;stroke:#8BB9EF;stroke-width:5;stroke-linecap:round;stroke-linejoin:round;stroke-miterlimit:10;}
</style>
<g>
	<path class="st0" d="M244.5,497.5c0,0-169-153-154-275c17.3-140.8,241.2-75.5,321-92c87-18,196-89,246-39s14.4,132.2,18,163
		c8,69,33,59,36,91c3.3,34.8-41,124-117,150L244.5,497.5z"/>
	<path class="st0" d="M705.5,215.5c0,0-12-7-16,17s2,72,19,74s-7-38-2-70C706.5,236.5,713.5,218.5,705.5,215.5z"/>
	<path class="st0" d="M233.5,497.5c0,0-177-145-153-284c0,0-49,122,137,283L233.5,497.5z"/>
</g>
<g>
	<circle class="st1" cx="185" cy="320" r="38.5"/>
	<circle class="st1" cx="250.5" cy="163.5" r="46"/>
	<circle class="st1" cx="541.5" cy="90.5" r="38"/>
	<circle class="st1" cx="609" cy="232" r="54.5"/>
	<circle class="st1" cx="297" cy="209" r="9.5"/>
	<circle class="st1" cx="503.5" cy="136.5" r="10"/>
	<circle class="st1" cx="546" cy="271" r="8.5"/>
	<circle class="st1" cx="241" cy="334" r="11.5"/>
	<circle class="st1" cx="264" cy="340" r="5.5"/>
</g>
<g>
	<polygon class="st2" points="179.2,346.1 159.5,326.6 184.5,301.5 199.9,305.1 204.2,321 	"/>
	<circle class="st2" cx="192.6" cy="312.8" r="3.5"/>
	<line class="st2" x1="171.2" y1="326.2" x2="189.1" y2="324.2"/>
	<circle class="st2" cx="179.1" cy="318.2" r="3.5"/>
	<circle class="st2" cx="181.1" cy="332.1" r="3.5"/>
	<line class="st2" x1="195.6" y1="309.8" x2="206" y2="299.3"/>
</g>
<path class="st2" d="M543.7,69.5l4.7,9.6c0.4,0.8,1.2,1.4,2.1,1.5l10.6,1.5c2.2,0.3,3.1,3.1,1.5,4.7l-7.6,7.5
	c-0.6,0.6-0.9,1.5-0.8,2.4l1.8,10.5c0.4,2.2-2,3.9-4,2.9l-9.5-5c-0.8-0.4-1.8-0.4-2.5,0l-9.5,5c-2,1.1-4.4-0.6-4-2.9l1.8-10.5
	c0.2-0.9-0.1-1.8-0.8-2.4l-7.6-7.5c-1.6-1.6-0.7-4.3,1.5-4.7l10.6-1.5c0.9-0.1,1.7-0.7,2.1-1.5l4.7-9.6
	C539.8,67.5,542.7,67.5,543.7,69.5z"/>
<g>
	<path class="st2" d="M634.8,236.6H625v-33.3c0-2.7,2.2-4.9,4.9-4.9l0,0c2.7,0,4.9,2.2,4.9,4.9V236.6z"/>
	<path class="st2" d="M625,236.6V265c0,0,11.8,2.8,9.7-22.9l-2.1-0.7v-5.1L625,236.6z"/>
	<line class="st2" x1="625.3" y1="232.2" x2="634.5" y2="232.2"/>
	<line class="st2" x1="625.5" y1="227.4" x2="634.1" y2="227.4"/>
	<line class="st2" x1="634.8" y1="222.5" x2="629.9" y2="222.5"/>
	<line class="st2" x1="629.9" y1="247.7" x2="629.9" y2="254.6"/>
	<line class="st2" x1="596.6" y1="252.6" x2="601" y2="250.5"/>
	<path class="st2" d="M614,257.1c0,1.7-1.4,3.1-3.1,3.1s-3.1-1.4-3.1-3.1c0-1.7,1.4-3.1,3.1-3.1"/>
	<path class="st2" d="M594.2,209.5l3.8-10.3c0,0,5.5,1.4,4.9,7.6L597,223"/>
	<path class="st2" d="M591.3,223l-10.1,28.2c-4.6-2-7.3-0.5-8.9,1.6c-2.4,3.1-1.7,7.8,1.5,10c1.9,1.4,3.9,1.3,5.5,0.7
		c2.3-0.8,4-2.6,4.8-4.9l10-27.8"/>
	<line class="st2" x1="591.7" y1="252.6" x2="587.3" y2="250.5"/>
	<path class="st2" d="M574.4,257.1c0,1.7,1.4,3.1,3.1,3.1s3.1-1.4,3.1-3.1c0-1.7-1.4-3.1-3.1-3.1"/>
	<path class="st2" d="M607,251.2l-10.4-29.1l1.4-2.1l-7.6-20.8c0,0-5.5,1.4-4.9,7.6l18.6,51.8c0.8,2.3,2.6,4.1,4.8,4.9
		c1.6,0.6,3.6,0.6,5.5-0.7c3.2-2.3,3.9-6.9,1.5-10C614.4,250.7,611.6,249.2,607,251.2z"/>
</g>
<g>
	<path class="st3" d="M541,382c0,0,3,8.5-9,8.3s-1-21.3-1-21.3L541,382z"/>
	<path class="st3" d="M280,377c0,0-5,8,25,3l-9-18C296,362,280,374,280,377z"/>
	<path class="st4" d="M368.5,138.5c0,0-2,7-6,13s-14,10-6,22s-15,1-15,35s142,28,141,1s-29-25-22-48s-43-49-43-49L368.5,138.5z"/>
	<path class="st5" d="M541.5,382.5c-9.1-8.8-26.3-13.9-47.4-16.8c-18.1-2.5-39-3.5-59.9-3.7c-32.7-0.4-65.5,1-87.7,0.5
		c-53-1-66.5,14.5-66.5,14.5c2-81,16.5-137.5,20.5-150.5c3-9.8,28.8-17.4,41.3-20.5c4-1,6.7-1.5,6.7-1.5l35.6,0.3l55.2,0.5l25.2,0.2
		c0,0,7,0.4,16.5,2.7c6.2,1.5,13.4,3.8,20.5,7.3c9.7,4.8,20.5,52.7,28.4,95.9c1.5,8.2,2.9,16.2,4.2,23.7
		C538.6,361.9,541.5,382.5,541.5,382.5z"/>
	<path class="st6" d="M440.5,152.5c0,0-2,14,2,19s17,18,13,29s-39-1-39-1l7-42L440.5,152.5z"/>
	<path class="st6" d="M380,148c0,0-1,11-6,20s-2,10-3,18s-14,15-14,15l44-3l0.8-30.3L380,148z"/>
	<path class="st7" d="M378.5,144.5c-1.9-0.2-3.6-0.5-5.2-1c-17.2-4.6-16.3-20.5-12.1-26.8c0.7-1.1,1.5-1.9,2.3-2.3c6-3,11,3,11,3
		L378.5,144.5z"/>
	<polygon class="st8" points="339,280 334,340 344,347 	"/>
	<polygon class="st8" points="457,277.5 498,288 495,306 480,337 449,310 	"/>
	<path class="st8" d="M385,304c0,0-2,55-46.5,57.5L365,367l22.5-13l4-45.5L385,304z"/>
	<path class="st8" d="M361.5,269l9-8h-12l-16.7-55c4-1,6.7-1.5,6.7-1.5l35.6,0.3L408.5,344L361.5,269z"/>
	<path class="st8" d="M466.5,261.4h-11l8,6.1l-46,78.5l21.8-140.7l25.2,0.2c0,0,7,0.4,16.5,2.7L466.5,261.4z"/>
	<path class="st7" d="M448.8,144c-0.3,0.1-0.5,0.2-0.8,0.3c-1.3,0.5-2.8,0.9-4.4,1.2c0,0,0,0-0.1,0l0.1-0.8l3.9-24.2
		c0,0,5.5-10.1,10.3-4.8c0.2,0.2,0.4,0.5,0.7,0.8c0.1,0.1,0.2,0.3,0.3,0.4C462.9,123.4,461.6,138.7,448.8,144z"/>
	<polygon class="st5" points="409.5,390.5 406.5,497.5 297.5,498.5 309.4,419.5 311.5,405.5 382.5,394.6 	"/>
	<polygon class="st5" points="520.5,496.5 427.5,497.3 406.5,497.5 409.5,390.5 466.6,394 504.3,396.4 506.5,396.5 508.2,408.4 	"/>
	<path class="st8" d="M382.5,394.6L362,408c-30.4,11.4-45.6,12.4-52.6,11.5l2.1-14L382.5,394.6z"/>
	<polygon class="st8" points="406,497 412,410 417,410 422.3,497.7 	"/>
	<path class="st8" d="M508.2,408.4c-19,0.7-41.2-3.4-41.2-3.4l-0.4-11l37.7,2.3l2.2,0.1L508.2,408.4z"/>
	<polygon class="st7" points="439.5,193.5 425.9,290 421.5,321.5 402.5,323.5 395.1,275 382.5,192.5 389.5,190.5 390.5,168.5 
		416.8,166.6 431.5,165.5 431.7,170 432,177.8 432.5,191.5 434.1,192 	"/>
	<polygon class="st8" points="366,396 362,408 462.5,431 473,394 382,387 	"/>
	<path class="st9" d="M439.5,193.5L425.9,290L398,271.5c25.6-9.7,33.8-58.3,36.1-79.5L439.5,193.5z"/>
	<path class="st10" d="M431.7,170l-14.9-3.4l-26.3,1.9l-1,22l-7,2l12.6,82.5l6.9,2c-13-80-4-92-4-92c19.8,2.9,29.4-2.3,34-7.1
		L431.7,170z"/>
	<path class="st11" d="M439.6,223l-8.3,29.1l-0.1,0.5l-7.6,26.6l-2.2,7.8l-14.2,50L388,223.8c0,0,14.5,10.3,39.3,4.2
		c1.2-0.3,2.4-0.6,3.7-1c2.6-0.8,1.6-0.9,4.1-2c0.1,0,0.3-0.1,0.4-0.2C436.8,224.3,438.2,223.6,439.6,223z"/>
	<path class="st9" d="M458.8,116.9c-3.6,3.5-8.9,11.2-10,27.1c-0.3,0.1-0.5,0.2-0.8,0.3c-1.3,0.5-2.8,0.9-4.4,1.2l0.1-0.8l3.9-24.2
		c0,0,5.5-10.1,10.3-4.8c0.2,0.2,0.4,0.5,0.7,0.8C458.6,116.6,458.7,116.8,458.8,116.9z"/>
	<path class="st12" d="M435.1,225l-3.9,27.6l-7.6,26.6l-2.2,7.8L398,271.5c14.9-5.7,23.9-24.5,29.3-43.5c1.2-0.3,2.4-0.6,3.7-1
		C433.6,226.2,432.6,226.1,435.1,225z"/>
	<path class="st9" d="M378.5,144.5c-1.9-0.2-3.6-0.5-5.2-1c-2.7-16-8.1-23.4-12.1-26.8c0.7-1.1,1.5-1.9,2.3-2.3c6-3,11,3,11,3
		L378.5,144.5z"/>
	<path class="st7" d="M449.5,120.6c0,0.3,0,0.6,0,0.9c-2,39-20,60-40,58c-19.9-2-31.9-11.9-37.9-64.5c0-0.2,0-0.3-0.1-0.5
		c-6-53,30-51,30-51C436.2,52.6,451.3,82,449.5,120.6z"/>
	<g>
		<ellipse class="st13" cx="393" cy="126" rx="4.5" ry="7"/>
		<ellipse class="st4" cx="392.9" cy="127.7" rx="3" ry="5.2"/>
	</g>
	<polygon class="st14" points="386,191.3 345.5,203.5 362.5,259.5 374.5,259.5 365.5,267.5 412.5,342.5 	"/>
	<polygon class="st14" points="436.5,190.5 476.5,205.5 461.5,259.5 450.5,259.5 458.5,265.5 412.5,342.5 	"/>
	<path class="st3" d="M436,280c0,0-1-14,11-14s11,12,11,12l-2.5,8L436,280z"/>
	<polygon class="st15" points="492.5,291.5 491.1,297.2 479.3,346.1 470.1,384 464.9,405.3 459.5,427.5 366.5,405.5 374.2,373 
		379.5,350.3 399,267.5 	"/>
	<line class="st16" x1="407.5" y1="125.5" x2="415.5" y2="125.5"/>
	<g>
		<path class="st4" d="M399,107c-1.3-0.4-2.5-0.5-3.7-0.5c-1.2,0-2.3,0.3-3.5,0.6c-1.1,0.3-2.2,0.8-3.4,1.3
			c-0.5,0.3-1.1,0.5-1.7,0.8c-0.6,0.3-1.1,0.6-1.8,0.8c0.4-0.6,0.8-1.1,1.2-1.6c0.5-0.5,1-0.9,1.5-1.4c1.1-0.8,2.3-1.5,3.6-1.9
			c1.3-0.4,2.8-0.5,4.2-0.2C396.9,105.2,398.2,105.9,399,107z"/>
	</g>
	<path class="st17" d="M408.5,143.5c0,0,2.5,4.5,6,0"/>
	<path class="st18" d="M406.5,157.5c0,0,4,4,9,0"/>
	<path class="st17" d="M409.5,163.5c0,0,2,2,4,0"/>
	<path class="st4" d="M449.5,120.6c-2.8-1.2-8.6-3.4-18-6.1c-14-4-33-14-33-39c0,0-1.8,29-26.9,39.5c0-0.2,0-0.3-0.1-0.5
		c-6-53,30-51,30-51C436.2,52.6,451.3,82,449.5,120.6z"/>
	<g>
		<path class="st4" d="M391.5,62.5c-3.5,1.3-6.7,3.1-9.6,5.4c-2.9,2.2-5.4,4.9-7.3,7.9c-1,1.5-1.9,3.1-2.6,4.7
			c-0.4,0.8-0.7,1.7-1,2.5c-0.3,0.9-0.6,1.7-0.8,2.6c-1,3.5-1.5,7.2-1.7,10.9c-0.5-3.7-0.5-7.5,0.2-11.3c0.7-3.7,2.1-7.4,4.2-10.6
			c2.1-3.2,4.9-6,8.1-8.1C384.2,64.5,387.8,63,391.5,62.5z"/>
	</g>
	<g>
		<path class="st4" d="M450.5,90.5c0.9,1.6,1.5,3.3,2,5c0.5,1.7,0.8,3.5,0.9,5.3c0.2,1.8,0.2,3.6,0,5.4c-0.1,1.8-0.4,3.6-1,5.3
			c-0.3-1.8-0.4-3.5-0.6-5.3l-0.5-5.2C451.1,97.5,450.8,94.1,450.5,90.5z"/>
	</g>
	<path class="st19" d="M352.5,482.5c-5.3,0.4-9.4-1.1-12.5-3.6c-13.5-11.4-7.5-45.4-7.5-45.4h42
		C377.5,442.5,381.5,480.5,352.5,482.5z"/>
	<path class="st19" d="M464.5,483.5c-4.1-0.4-7.5-1.4-10.3-3c-19.6-11-9.7-47-9.7-47l41-1c0,0,0.6,2.7,1.2,6.8
		C488.6,453.7,490.2,485.8,464.5,483.5z"/>
	<polygon class="st13" points="481.9,302 478.5,315.6 469,355.1 454.4,415 377.1,396.7 383,371.6 388.2,349.9 404.2,282 	"/>
	<path class="st20" d="M470.1,384l-5.2,21.4c-31.4-1.8-87.8-8.6-87.8-8.6l2.4-17.2L470.1,384z"/>
	<path class="st21" d="M419.5,282.5l49,13l1-4l-16-5c0,0,8-16-4-19s-12,15-12,15l-17-4L419.5,282.5z"/>
	<path class="st7" d="M538.7,380.1c0,2.5-0.2,5.3-1,8.1c-0.9,3.2-2.5,6.5-5.3,9.3c-7.2,7.2-88.9,1.9-133.8-1.6
		c-5.3-0.4-10.2-0.8-14.3-1.2c-3.3-0.3-6.1-0.5-8.4-0.7c-4.1-0.4-6.5-0.6-6.5-0.6l6.1-2.3l1.4-0.5l3.9-1.5l69.8-26.8
		c15.3,0.5,30.2,1.5,43.5,3.4C513.2,368.3,529.2,372.8,538.7,380.1z"/>
	<circle class="st22" cx="447.5" cy="275.5" r="4"/>
	<path class="st8" d="M534.1,335.1c-20.7,1.6-13.7,14.3-33.1,26.9c-1.8,1.1-4.1,2.4-6.9,3.7c-18.1-2.5-39-3.5-59.9-3.7l41.8-10
		l18-42l35.9,1.4C531.4,319.6,532.8,327.6,534.1,335.1z"/>
	<g>
		<path class="st4" d="M349.5,167.5c1.2,0.8,2.2,2,2.9,3.3c0.7,1.3,1.2,2.9,1.1,4.5c-0.1,0.4-0.1,0.8-0.2,1.2
			c-0.1,0.4-0.3,0.8-0.4,1.1l-0.6,1c-0.2,0.3-0.5,0.6-0.8,0.9c-0.5,0.6-1.2,0.9-1.9,1.3c-0.7,0.3-1.4,0.5-2.1,0.7
			c0.5-0.6,1-1,1.5-1.5l0.7-0.8c0.2-0.2,0.4-0.5,0.6-0.8l0.3-0.4c0.1-0.1,0.2-0.2,0.2-0.4l0.4-0.8l0.2-0.9c0.1-0.3,0.1-0.6,0.1-0.9
			c0.1-1.2-0.1-2.5-0.5-3.7C350.6,170.1,350.1,168.8,349.5,167.5z"/>
	</g>
	<g>
		<path class="st4" d="M461.5,166.5c-0.4,1.1-0.3,2.2,0,3.2c0.4,1,1,1.9,1.7,2.7c1.5,1.6,3.4,2.7,5.3,3.7c1,0.5,2,0.9,3,1.3
			c1,0.4,2.1,0.8,3.1,1.1c2.2,0.7,4.3,1.8,6.2,3.4c1.8,1.5,3.3,3.4,4.4,5.5c1.1,2.1,1.8,4.3,2.1,6.6c0.7,4.5,0.4,9.2-0.9,13.5
			c0.4-4.5,0.3-8.9-0.7-13.2c-1-4.2-3-8.2-6.3-10.9c-1.6-1.4-3.5-2.4-5.5-3.1c-2.1-0.8-4.2-1.7-6.2-2.9c-2-1.1-3.9-2.5-5.3-4.4
			c-0.7-1-1.3-2-1.5-3.2C460.8,168.7,460.9,167.5,461.5,166.5z"/>
	</g>
	<g>
		<ellipse class="st13" cx="429" cy="126" rx="4.5" ry="7"/>
		<ellipse class="st4" cx="428.9" cy="127.7" rx="3" ry="5.2"/>
	</g>
	<circle class="st16" cx="393" cy="126" r="14.5"/>
	<path class="st23" d="M491.1,297.2l-11.9,48.9L464,359.5L374.2,373l5.3-22.7c17.4-0.7,67.5-3.6,79-11.8
		C467.8,331.9,482.4,310.7,491.1,297.2z"/>
	<path class="st24" d="M478.5,315.6l-9.6,39.5l-5,4.4l-81,12.1l5.1-21.8c21.6-1.2,60.4-4.3,70.3-11.4
		C464.1,334.5,471.6,325.3,478.5,315.6z"/>
	<g>
		<line class="st25" x1="399" y1="338" x2="460" y2="354"/>
		<line class="st25" x1="397" y1="348" x2="458" y2="364"/>
		<line class="st25" x1="402" y1="328" x2="463" y2="344"/>
		<line class="st25" x1="409" y1="298" x2="470" y2="314"/>
		<line class="st25" x1="407" y1="308" x2="468" y2="324"/>
		<line class="st25" x1="404" y1="318" x2="465" y2="334"/>
	</g>
	<circle class="st16" cx="430" cy="126" r="14.5"/>
	<path class="st7" d="M505.5,314.5c0,0,30,2,32,6s-31,2-31,2s21.4,2.7,24.6,5.5c0.2,0.2,0.3,0.3,0.4,0.5c1,3-25,1-25,1s-10,26-31,32
		c0,0-6.6,2.9-17.6,7.3c-34.6,13.9-112.3,43-159.4,43.7c0,0-8.2-6.1-11.8-20.6c-1.4-5.8-1.6-10.3-0.8-18.9c0,0,4.7-4.2,21.3-7.5
		c2.1-0.4,4.3-0.8,6.7-1.2c0,0,16.5-2.1,38.8-4.9c31.2-3.9,73.6-9.3,97.8-12.5c9.1-1.2,15.6-2.1,17.9-2.4c0,0,29-47,32-47s34-3,36,0
		s-28,6-31,10c0,0,34,0,34,3S505.5,314.5,505.5,314.5z"/>
	<path class="st8" d="M520.5,496.5l-93,0.8c59.4-26,76-100.8,76-100.8l0.8-0.1l2.2,0.1L520.5,496.5z"/>
	<path class="st9" d="M537.8,388.3c-0.9,3.2-2.5,6.5-5.3,9.3c-8.8,8.8-127.3-0.9-156.5-3.4l-0.4-2.9l-0.1-0.7c0.5,0,1,0.1,1.5,0.1
		C497.3,400.7,530,391.7,537.8,388.3z"/>
	<path class="st10" d="M494.1,365.7c-22,10.2-72.5,24.2-95.5,30.3c-5.3-0.4-10.2-0.8-14.3-1.2l-3.5-5.6L470,360
		C485.3,360.5,480.8,363.8,494.1,365.7z"/>
	<path class="st9" d="M506.5,329.5c0,0-10,26-31,32c0,0-115,50-177,51c0,0-8.2-6.1-11.8-20.6c8.2,3.3,47.9,12.7,183.3-35.9
		c0,0,16,0,31-28h30.1c0.2,0.2,0.3,0.3,0.4,0.5C532.5,331.5,506.5,329.5,506.5,329.5z"/>
	<path class="st3" d="M353,360c0,0-6.1-19.7-11.1-23.8c-5-4-38.3-12.1-45.4-10.1c-7.1,2,32.3,15.1,32.3,15.1s-32.3-4-33.3,0
		c-1,4,31.3,7.1,31.3,7.1s-28.2,0-28.2,4c0,4,32.3,5,32.3,5s-27.2,4-25.2,7.1C307.6,367.5,325.8,367.1,353,360z"/>
	<path class="st26" d="M353,360c-23.6,6.1-40.4,7.3-45.7,5.5c2.1-0.4,4.3-0.8,6.7-1.2c0,0,16.5-2.1,38.8-4.9
		C352.9,359.8,353,360,353,360z"/>
	<path class="st27" d="M539.5,310.5c-1.5,4.5-34,4-34,4s32.5,1,32.5,6.5c0,4.3-15.8,3.2-25,2.3c7.2,1,18.1,2.9,19,5.4
		c0,0.1,0.1,0.2,0.1,0.3c0,3.3-17,1.5-23.2,0.8c-1.3-0.2-2.6,0.6-3,1.8c-2.5,6.5-11.3,26.4-28.8,31.4c0,0-10,4.6-21,9
		c-0.2-2.1-0.7-5.9-1.7-10.2c-1.3-5.5-3.3-11.9-6.3-16.8c1.3-0.2,2.7-0.4,4.1-0.5c4.6-0.6,9.4-1.1,11.9-1.5c3-0.4,5.4-1.5,7-4
		c7.1-11.3,23-38,29.5-41.5c2.6-1.4,35.5-6,36,0c0.5,4.9-22.5,5.8-29.3,8.9c-0.5,0.2-0.3,0.9,0.3,0.9
		C514.5,306.5,541.5,304.4,539.5,310.5z"/>
	<path class="st27" d="M357,358.8c0,0.1,0,0.2-0.1,0.2c-26.7,6.9-44.7,7.4-47.1,4.6c0,0-0.1-0.1-0.1-0.1c-0.2-0.3,0.1-0.5,0.1-0.8
		c-0.7-3.6,23.5-6.1,25-6.3c-1.7,0.1-33.7,2.4-32.2-5.1c0.6-3.2,18.7-3.9,25.6-4c0.2,0,0.2-0.3,0-0.3c-7.6-0.9-29.3-3.7-30.2-7
		c-2-7.9,32.7,0,34.7,0.3c-2-0.6-37.6-8.3-32.2-15.1c2.2-2.7,40.3,6.1,45.4,10.1c0,0,0.1,0.1,0.1,0.1c0.4,0.3,0.7,0.7,1.1,1.1
		C351.6,342,356.4,357.1,357,358.8z"/>
	<path class="st28" d="M464.5,483.5c-4.1-0.4-7.5-1.4-10.3-3c14.4-12.3,24.9-27.3,32.5-41.2C488.6,453.7,490.2,485.8,464.5,483.5z"
		/>
	<path class="st28" d="M352.5,482.5c-5.3,0.4-9.4-1.1-12.5-3.6c25.8-6.8,31.5-35.3,32.7-45.4h1.8
		C377.5,442.5,381.5,480.5,352.5,482.5z"/>
	<g>
		<g>
			<path class="st29" d="M441.5,240.5c0,0-1-43-8-53"/>
			<path class="st29" d="M381.5,188.5c0,0-9,0-14,66"/>
			<path class="st29" d="M352.7,321.9c-4.9-0.2-8.6-4.4-8.4-9.3l1.9-39.6c0.5-10.7,9.7-19.1,20.4-18.5h0
				c10.7,0.5,19.1,9.7,18.5,20.4l-1.9,39.6c-0.2,4.9-4.4,8.6-9.3,8.4"/>
			<path class="st30" d="M384.1,298.9l-0.8,15.6c-0.2,4.9-4.4,8.6-9.3,8.4"/>
			<path class="st30" d="M352.7,321.9c-4.9-0.2-8.6-4.4-8.4-9.3l0.8-15.9"/>
			
				<ellipse transform="matrix(4.847723e-02 -0.9988 0.9988 4.847723e-02 31.4842 677.7509)" class="st6" cx="371.5" cy="322.4" rx="3.5" ry="3.5"/>
			
				<ellipse transform="matrix(4.847723e-02 -0.9988 0.9988 4.847723e-02 17.003 661.0955)" class="st6" cx="355.5" cy="321.6" rx="3.5" ry="3.5"/>
		</g>
		<g>
			<circle class="st31" cx="441.5" cy="250.5" r="12"/>
			<circle class="st32" cx="441.5" cy="250.5" r="5.5"/>
		</g>
	</g>
	<circle class="st9" cx="392" cy="151" r="8"/>
	<circle class="st9" cx="430" cy="151" r="8"/>
	<g>
		<path class="st33" d="M398.7,71.5c0,0,7.4,0,13,19.5c5.6,19.5,26,16.7,26,16.7"/>
		<path class="st33" d="M409.9,73.4c0,0,7.4,3.7,8.4,9.3c0.9,5.6,12.1,13.9,12.1,13.9"/>
		<path class="st33" d="M426.6,76.1c0,0,11.1,9.3,12.1,18.6c0.9,9.3,8.4,15.8,8.4,15.8"/>
		<path class="st33" d="M390.4,84.5c0,0-0.9,8.4-7.4,13"/>
		<path class="st33" d="M391.3,71.5c0,0-13.9,11.1-15.8,30.6"/>
	</g>
	<path class="st34" d="M357,358.8c0,0.1,0,0.2-0.1,0.2c-26.7,6.9-44.7,7.4-47.1,4.6l0.3-0.6c0,0,45,5.6,36-27.6
		c0.4,0.3,0.7,0.7,1.1,1.1C351.6,342,356.4,357.1,357,358.8z"/>
	<path class="st34" d="M532,329c-0.1,3.2-17,1.5-23.2,0.8c-1.3-0.2-2.6,0.6-3,1.8c-2.5,6.5-11.3,26.4-28.8,31.4c0,0-10,4.6-21,9
		c-0.2-2.1-0.7-5.9-1.7-10.2c1.4,0.2,30,3,47.8-33.6c1.2-2.4,3.8-3.8,6.5-3.3l23,3.8C531.8,328.8,531.9,328.9,532,329z"/>
	<g>
		<path class="st35" d="M413.7,382.4c-0.1-0.2-0.2-0.4-0.4-0.4l-7.8-2.3c-0.1-0.5-0.3-1.3-0.7-2.3c-0.1-0.3-0.2-0.5-0.4-0.8v0
			c-0.1-0.1-0.1-0.2-0.2-0.3c-0.2-0.3-0.4-0.7-0.7-1c-0.9-1.1-2.1-2.2-3.8-3h0c-0.7-0.3-1.6-0.6-2.5-0.8c-1.3-0.3-2.8-0.5-4.6-0.5
			c0,0-3.5,0.6-5.5-0.7c-0.2-0.1-0.5-0.2-0.7-0.1c-0.2,0.1-3.3,1.7-5.7,4.5c0,0-0.1,0.1-0.1,0.1c-0.3,0.4-0.6,0.8-0.9,1.2
			c-0.1,0.1-0.1,0.2-0.2,0.3v0c-0.5,0.8-0.9,1.6-1.1,2.5c-0.5,1.8-0.3,3.7,0.4,5.5c0,0.1,0.1,0.1,0.1,0.2c0.1,0.3,0.2,0.5,0.3,0.8
			c0.2,0.4,0.4,0.8,0.7,1.2c0.1,0.1,0.1,0.2,0.2,0.3c1.6,2.2,3.3,3.9,5,5.1c1.1,0.8,2.3,1.4,3.4,1.8c0.7-0.2,1.4-0.4,2.1-0.7
			c-2.9-0.8-6.4-2.8-9.3-7c-0.4-0.6-0.8-1.2-1-1.8c0-0.1-0.1-0.2-0.1-0.2c-0.7-1.6-0.8-3.3-0.4-4.8c0.1-0.5,0.3-0.9,0.5-1.3
			c0-0.1,0-0.1,0.1-0.2v0c0,0,0-0.1,0.1-0.1v0c0.1-0.3,0.3-0.5,0.4-0.8c0,0,0,0,0,0c0.1-0.1,0.2-0.3,0.3-0.4l0,0
			c1.2-1.7,2.8-3.1,4.1-3.9c0.6-0.4,1.2-0.7,1.5-0.9c2.4,1.4,6,0.8,6,0.8c1.5,0,2.7,0.1,3.8,0.3c0,0,0,0,0,0c0.2,0,0.4,0.1,0.6,0.2
			c0,0,0,0,0,0c3.1,0.8,4.8,2.4,5.8,3.9c0.2,0.3,0.4,0.6,0.5,0.9c0.6,1.3,0.7,2.4,0.7,2.5c0,0.3,0.2,0.5,0.5,0.6l7.3,2.1l-2.7,3.9
			c0.7-0.3,1.5-0.5,2.2-0.8l2.2-3.1C413.7,382.9,413.8,382.6,413.7,382.4z"/>
		<path class="st35" d="M396.5,372.8c-0.1-0.1-0.2-0.2-0.3-0.4c-0.1-0.4,0.2-0.7,0.5-0.8l10-2.1c0.3-0.1,0.5,0,0.7,0.3
			c0.2,0.2,0.2,0.5,0.1,0.7l-3.2,6.3c-0.2,0.3-0.6,0.5-0.9,0.3c-0.3-0.1-0.5-0.6-0.3-0.9l2.6-5l-8.6,1.8
			C396.8,373,396.6,372.9,396.5,372.8z"/>
		<path class="st35" d="M374.9,398.1c-0.6,0.2-1.1,0.3-1.7,0.5c-1-0.8-1.4-1.8-1.5-3c0-0.5,0.1-1.1,0.2-1.6c0.1-0.4,0.3-0.8,0.5-1.2
			c0.4-0.8,1-1.6,1.6-2.4c0.6-0.7,1.2-1.3,1.8-1.9c1.4-1.3,2.7-2.4,3.4-2.9c0.2-0.2,0.4-0.3,0.4-0.3c0.3-0.2,0.7-0.1,1,0.2
			c0.2,0.3,0.1,0.7-0.2,1c-0.2,0.1-0.3,0.2-0.5,0.4c-2.3,1.7-6.9,5.8-6.8,8.8c0,1,0.5,1.8,1.5,2.4C374.7,398,374.8,398,374.9,398.1z
			"/>
		<path class="st35" d="M369.5,392.5c-1.7-1.2-2.8-2.6-3.3-4.3c-0.9-3.5,1.5-6.7,1.6-6.9c0.2-0.3,0.5-0.3,0.8-0.2
			c4.1,1.9,6.5,4.1,7.1,6.4c0.5,1.9-0.4,3.1-0.4,3.2c-0.2,0.3-0.6,0.4-0.9,0.2c-0.3-0.2-0.4-0.6-0.2-0.9c0,0,0.5-0.9,0.2-2.1
			c-0.4-1.3-1.7-3.2-5.8-5.2c-0.6,0.9-1.6,3-1,5.3c0.5,2,2.2,3.6,5.1,4.8c0.3,0.2,0.5,0.5,0.4,0.9c-0.1,0.3-0.5,0.5-0.9,0.4
			C371.1,393.6,370.2,393.1,369.5,392.5z"/>
		<path class="st35" d="M373.3,386.1c-0.1,0-0.1-0.1-0.2-0.1c-3.4-4.6,2.4-13,2.6-13.4c0.1-0.2,0.4-0.3,0.7-0.3
			c0.1,0,2.7,0.4,3.8,2.1c0.6,0.9,0.7,1.9,0.4,3c-0.1,0.4-0.5,0.6-0.8,0.5c-0.4-0.1-0.6-0.5-0.5-0.8c0.2-0.8,0.1-1.4-0.2-1.9
			c-0.6-0.9-1.8-1.3-2.5-1.5c-1,1.6-4.9,8.1-2.4,11.4c0.2,0.3,0.2,0.7-0.1,0.9C373.8,386.2,373.5,386.2,373.3,386.1z"/>
		<path class="st35" d="M396.4,376.9c0-0.6-0.4-1.2-0.9-1.5c-1-0.7-2.3-0.4-3,0.5c-0.5,0.7-0.5,1.7,0,2.4c0,0,0,0,0,0
			c0.1,0.2,0.3,0.4,0.6,0.6c1,0.7,2.3,0.4,3-0.5C396.3,377.9,396.4,377.4,396.4,376.9z M395.3,377.8c-0.4,0.5-1.2,0.7-1.7,0.3
			c-0.1,0-0.1-0.1-0.2-0.2c-0.4-0.4-0.5-1.1-0.1-1.6c0.4-0.6,1.2-0.7,1.7-0.3c0.4,0.3,0.6,0.7,0.5,1.1
			C395.5,377.4,395.4,377.6,395.3,377.8z"/>
		<path class="st35" d="M387.6,387.2c-0.2-0.1-0.4-0.4-0.3-0.7c1-3.8-0.4-6.9-0.4-7c-0.1-0.3,0-0.6,0.2-0.8c0.2-0.2,0.5-0.1,0.6,0.2
			c0.1,0.1,1.6,3.5,0.5,7.8C388.1,387.1,387.9,387.3,387.6,387.2z"/>
		<path class="st35" d="M394,384c-0.2,0.1-0.5,0-0.7-0.2c-2.1-3.3-5.3-4.5-5.3-4.5c-0.3-0.1-0.5-0.4-0.4-0.7c0-0.3,0.3-0.4,0.5-0.3
			c0.1,0.1,3.6,1.3,6,5C394.2,383.6,394.2,383.9,394,384z"/>
		<path class="st36" d="M387.7,379c0,0,3.8,3.4,4.7,8.2"/>
	</g>
</g>
<g>
	
		<rect x="240.7" y="136.3" transform="matrix(0.7071 0.7071 -0.7071 0.7071 176.3181 -131.3915)" class="st37" width="12.1" height="21.7"/>
	
		<rect x="253.9" y="132.7" transform="matrix(0.7071 0.7071 -0.7071 0.7071 171.7157 -141.9806)" class="st37" width="6.6" height="7.3"/>
	
		<rect x="256.5" y="129.9" transform="matrix(0.7071 0.7071 -0.7071 0.7071 169.9607 -146.2176)" class="st37" width="9.9" height="4.4"/>
	
		<rect x="227.7" y="154.3" transform="matrix(0.7071 0.7071 -0.7071 0.7071 180.1528 -122.0249)" class="st37" width="19.4" height="4.4"/>
	<circle class="st37" cx="258.9" cy="167.9" r="3.8"/>
	<path class="st37" d="M270.9,194.5h-44.4v-1.6c0-3.9,3.2-7.2,7.2-7.2h30.1c3.9,0,7.2,3.2,7.2,7.2V194.5z"/>
	<path class="st37" d="M262.4,185.7c0.2-0.7,0.3-1.5,0.3-2.3c0-4.5-3.1-8.2-7-8.2s-7,3.7-7,8.2c0,0.8,0.1,1.6,0.3,2.3H262.4z"/>
	<path class="st37" d="M249.1,180.2h-15.3v-0.3c0-2.4,2-4.4,4.4-4.4h18"/>
	<path class="st37" d="M251.3,151.5c0,0,12.6,10.2,7.5,24.7"/>
	<path class="st37" d="M256.2,146.6c0,0,18.6,14.9,6.3,38.9"/>
</g>
<g>
	<path class="st38" d="M557.3,374.6c0,0-12.8,10.6-10.8,21.3c0.6,3.4,13.3,2.2,16.5-5.9C566.2,382,557.3,374.6,557.3,374.6z"/>
	<path class="st39" d="M654,487.1c0.2-0.2,0.4-0.4,0.7-0.7c0.7-0.8,1.6-2,1.8-3.3l4.6-5.4l1.4-1.7c-1.6-4-3.8-7-3.8-7l-0.5,0.7
		l-4.2,6.3c0.9,1.4,1.5,2.6,1.8,3.8C656.9,483.7,655.1,486.1,654,487.1z"/>
	<path class="st39" d="M653.4,487.6c0.1-0.1,0.3-0.2,0.5-0.4C653.7,487.4,653.5,487.5,653.4,487.6z"/>
	<path class="st40" d="M561.7,460.8c0,0-24.1,7.1-1.8,26.6c0,0-7.7-2.3-10.2,6.3c0,0,11.4,2.2,18.9-1.6
		C576,488.1,574.2,464,561.7,460.8z"/>
	<path class="st39" d="M563.4,432.7c-12,34.1,9.1,51.6,9.1,51.6c20.3,9.2,32.8,2.7,38-1.3c1.8-1.4,2.7-2.5,2.7-2.5
		c0.9,0.3,1.7,0.7,2.6,1c41.7,15.6,41.8-7.1,41.8-7.1c8.9-30.9-12.4-58.5-21.4-68.5c-2.3-2.6-3.9-4-3.9-4c0.3-5,0.1-9.7-0.6-14
		c-0.2-1.5-0.5-2.9-0.9-4.3c-0.1-0.4-0.2-0.8-0.3-1.1c-0.9-3.3-1.9-6.3-3.2-9.1c-6.3-14.2-16.2-21.6-16.2-21.6
		c-44.2-15.4-48.8,1.9-48.8,1.9c-2.1,3.6-3.9,7.1-5.3,10.4c-2.8,6.2-4.5,11.8-5.3,16.8c-5,27.9,15,38.2,15,38.2
		c-2.6,4.4-1.6,7-1.1,7.8c0.1,0.2,0.2,0.3,0.2,0.3c-0.5,1.2-1,2.4-1.4,3.5C563.9,431.3,563.6,432,563.4,432.7z"/>
	<g>
		<path class="st41" d="M578.6,388.8c0,0,0.8-15.9-8.8-16.6"/>
		<path class="st41" d="M583.1,388.7c0,0-1.9-12.3,10.2-16.9"/>
	</g>
	<path class="st40" d="M568.3,491.2c20.3,9.2,36.1,1.2,41.2-2.8l-1.7-7.5c0,0-30.5,12.4-45.3-46.5
		C550.5,468.5,568.3,491.2,568.3,491.2z"/>
	<path class="st39" d="M580.9,459.1c0,0-5.7,21.3-3.3,34.7c0,0-6.9,6-17.7-0.3c0,0,3.3-5.7,8.1-5.8c0,0-6.6-32.3-2-50.1
		C566,437.7,578.1,449.5,580.9,459.1z"/>
	<path class="st42" d="M569.2,396.7c6.5-6.4,8-9,13.2-8c5.2,1,5.8,4,10.1,8.3c2.4,2.4,5.8,5.1,4.2,9.6c-1.7,4.6-9.2,6.4-11.4-0.4
		c-6.3,7.1-9,2.2-10.7-0.4c-1.6,3.7-3.4,4.6-7,3.4C567.6,409.3,562.1,403.6,569.2,396.7z"/>
	<path class="st43" d="M583.4,393.1c0,0-2.9-2.8-5.5-0.3c-2.9,2.8,2.6,3.6,2.6,3.6S584.9,395.7,583.4,393.1z"/>
	<path class="st40" d="M567.8,420.4c0,0,14.8,18,32.6,0.5C600.4,421,583.5,428.8,567.8,420.4z"/>
	<path class="st40" d="M551.4,381.7c37.1-32.7,77.1,11.8,77.1,11.8l4-3.9c-0.2-1.5-0.5-2.9-0.9-4.3c-0.9-3.7-2.1-7.1-3.5-10.2
		L589.1,358l-31.3,7.8C555.1,372,552.2,376.7,551.4,381.7z"/>
	<path class="st40" d="M617.3,382.3c0,0-5.8,17.4-4,20c1.8,2.6,8.7,4.2,13.9-1.1C632.3,396,617.3,382.3,617.3,382.3z"/>
	<path class="st40" d="M615.5,472.7l-10.3,16c-1,1.6-0.3,3.7,1.5,4.3c25.3,8.2,38.9,1.1,45.9-6.9c3.9-4.4,6.3-9.8,7.2-15.6
		c5.6-32.7-20.5-61.4-25.7-66.7c-0.6-0.6-1-0.6-1-1.4c0.3-5.6-0.2-10.8-1.2-15.5c-0.2-0.9-0.9-1.7-1.8-2.1l-2.1-0.8
		c-2.2-0.9-4.5,1.2-3.8,3.5c1.5,5,2.6,12.3-0.7,19.4c-1.4,2.9,2.2,5.5,4.5,3.4c0.1-0.1,0.1-0.1,0.2-0.2c1.2-1.2,3.2-1,4.2,0.3
		c5.3,6.9,18.2,25.2,18,39.6c0,2.2-2.5,3.6-4.4,2.4c-7.7-4.8-25.3-11.8-30.3,19.2C615.9,472,615.7,472.4,615.5,472.7z"/>
	<path class="st38" d="M622.4,375.5c0,0-8.5,22.3-5.7,24.4s13.4-0.1,15.2-8.6C633.8,382.8,622.4,375.5,622.4,375.5z"/>
	<path class="st44" d="M632.3,398.6c0,0-41.1,35.4-65.6,20.2c0,0,12.6,28.4,66.6-15.8L632.3,398.6z"/>
	<path class="st44" d="M551.3,380.8c0.2,0.9,0.4,0.8,0.9,0c3-4.8,11.7-12.3,28.3-13.4c16-1,32.6,6.6,42.9,17.5
		c5.2,5.5,8.7,12,9.7,18.6c0,0,6.4-1.2,1.9-15c0,0,0,0,0.1-0.1c0.2-0.5,1.3-2.7,1.3-5.9c0-2.4,0-9.7-1.8-13c0,0,0,0,0-0.1
		c0.5-4.1-0.2-7.6-1.6-10.6c0.8-0.4,1.7-1.1,2.4-2.1c0.7-1.1,1.1-2.6,0.7-4.6c-1-5.4-12-20.8-36-17c-2.3,0.4-4.7,0.9-7.3,1.7
		c-0.1-0.1-0.3-0.2-0.4-0.2c-4.9-2.7-10.5-3-15.2-2.1c-4.3,0.8-8,2.4-10,4c-4.1,3.2-3.3,10.1-2.9,12.6c-2.3,2-3.9,4.2-4.9,6.2
		c0,0,0,0,0,0c-0.5,1.1-1,2.1-1.3,3c0,0.1-0.1,0.2-0.1,0.3c-2.3,1.8-4.2,4.7-6,10.4C550.5,375.7,550.4,377.3,551.3,380.8z"/>
	<path class="st21" d="M571.2,363.5c0,0,15.5-3.4,26.6,0.7l2.6-10.1c0,0-13.4-5.9-26.7,0.3L571.2,363.5z"/>
	<path class="st39" d="M597.9,454c0,0,6.3,25.1,2.1,32.7c0,0-6,2.2-7,8.2c0,0,10.6,3.3,17.3-1.9c0,0,8.3-18.4,5.3-34.4L597.9,454z"
		/>
	<path class="st39" d="M620.5,495.9c0,0,8.9,1.8,17.9-0.2c0.1,0,0.1,0,0.1,0c6.3-1.4,12.7-4.6,16.1-11.6c0.8-1.6,1.3-3.1,1.7-4.6
		c3.4-14.8-12.3-26.1-12.3-26.1s-3.2-1.7-7.3-2.1c-5.4-0.5-12.4,1.2-16.1,11.6c-6.5,17.9,10.3,23.4,11.2,23.7
		C631.1,486.5,620.4,485.5,620.5,495.9z"/>
	<path class="st40" d="M564.2,431.2c5.2,3.6,10.5,4.1,10.5,4.1c-5.9-2-9.2-7.9-9.2-7.9l0,0c0.1,0.2,0.2,0.3,0.2,0.3
		C565.1,428.9,564.6,430.1,564.2,431.2z"/>
	<path class="st45" d="M619.7,357.2c0,0,9.2,13.4,3.7,27.7c5.2,5.5,8.7,12,9.7,18.6c0,0,6.4-1.2,1.9-15c0,0,0,0,0.1-0.1
		c0.2-0.5,1.3-2.7,1.3-5.9c0-2.4,0-9.7-1.8-13c0,0,0,0,0-0.1c0.5-4.1-0.2-7.6-1.6-10.6c0.8-0.4,1.7-1.1,2.4-2.1
		c0.7-1.1,1.1-2.6,0.7-4.6c-1-5.4-12-20.8-36-17C607.2,338.1,630.4,349.1,619.7,357.2z"/>
	<path class="st46" d="M597.9,454c0,0,6.3,25.1,2.1,32.7c0,0-6,2.2-7,8.2"/>
	<path class="st47" d="M616.3,368.7c13.5,6.8,18.5,19.5,18.5,19.5l0.2,0.2c0.2-0.5,1.3-2.7,1.3-5.9
		C626,371.2,616.7,368.8,616.3,368.7z"/>
	<path class="st48" d="M634.3,369.8c0,0-26.8-34.4-69.7-18.4"/>
	<path class="st49" d="M585.3,406.2c0,0-4.8-0.5-5-9.6c0,0-0.7,8.3-5.7,9.2"/>
	<path class="st47" d="M558.1,360.2c1-0.7,4.3-2.6,8.4-3.4c1-0.2,2.1-0.3,3.3-0.4c0,0-0.7-0.1-2.1,0c-1.8,0-4.6,0.2-8.3,0.8
		c0,0,0,0,0,0C558.8,358.2,558.4,359.2,558.1,360.2z"/>
	<path class="st47" d="M606.8,346c12.6,2.7,20.2,8.5,24.6,13.5c1-0.3,2.8-1.1,3.9-2.8C623.3,345.6,606.8,346,606.8,346z"/>
	<path class="st50" d="M638.3,495.7l0.2,0.1c0.1,0,0.1,0,0.1,0c6.3-1.4,12.7-4.6,16.1-11.6c0.8-1.6,1.3-3.1,1.7-4.6l-8-5.7
		C648.3,473.8,633.5,472.3,638.3,495.7z"/>
	<path class="st50" d="M638.6,495.7c6.3-1.4,12.7-4.6,16.1-11.6c8.4-17-10.6-30.7-10.6-30.7s-3.2-1.7-7.3-2.1
		C643.2,459,654.5,477.2,638.6,495.7z"/>
	<path class="st39" d="M644.2,492.4c0.8,0.8,1.6,1.4,2.6,1.9c6.6,3.4,16.3-0.9,17.5-7.7c0.6-3.4-0.4-7.3-1.7-10.5l-1.4,1.7l-4.6,5.4
		c0.2-1,0.1-2.1-0.6-3.2c-0.5-0.8-1.2-1.6-2.3-2.3C646.6,472.5,637.9,486,644.2,492.4z"/>
	<path class="st46" d="M650.3,486c0,0,7.4,2.2,6-5.3c-1-5.5-8.5-4.8-11.6-1.5c-3.4,3.5-4,8.8,0.7,14.2"/>
	<path class="st40" d="M646.8,494.2c6.6,3.4,16.3-0.9,17.5-7.7c0.6-3.4-0.4-7.3-1.7-10.5c-1.6-4-3.8-7-3.8-7l-0.5,0.7
		c0.7,1.5,2.1,4.5,2.8,7.9C662.5,484.6,661.2,493.1,646.8,494.2z"/>
	<path class="st47" d="M577.2,334.3c11.8,2.7,20.7,8.6,20.7,8.6c0-1.8-2.3-4.1-5.4-6.5C587.5,333.7,581.9,333.5,577.2,334.3z"/>
	<g>
		<path class="st42" d="M593.8,371.1c0.8,0.1,1.4,0.2,2,0.4c0.6,0.2,1.2,0.4,1.8,0.6c1.2,0.4,2.3,1,3.4,1.7c0.8,0.5,1,1.6,0.5,2.4
			c-0.5,0.7-1.4,1-2.2,0.6l0,0c-0.9-0.4-1.9-0.8-2.8-1c-0.5-0.1-1-0.2-1.5-0.3c-0.5-0.1-1-0.1-1.4-0.1c-1.2,0-2.2-0.9-2.3-2.1
			c0-1.2,0.9-2.2,2.1-2.3C593.5,371.1,593.7,371.1,593.8,371.1L593.8,371.1z"/>
	</g>
	<g>
		<path class="st42" d="M569.1,375.7c-0.3,0-0.9,0.1-1.4,0.2c-0.5,0.1-1,0.2-1.5,0.4c-1,0.3-1.9,0.7-2.8,1.2l0,0
			c-0.8,0.5-1.9,0.2-2.4-0.7c-0.4-0.8-0.2-1.7,0.5-2.2c1-0.8,2.1-1.4,3.3-1.9c0.6-0.3,1.2-0.5,1.8-0.7c0.6-0.2,1.2-0.4,2-0.5l0,0
			c1.2-0.2,2.3,0.6,2.5,1.8c0.2,1.2-0.6,2.3-1.8,2.5C569.3,375.7,569.2,375.7,569.1,375.7z"/>
	</g>
	<g>
		<path class="st38" d="M587,386.8c1.1,4.6,6.4,8.9,11.2,7.8c4.9-1.1,8-5.8,6.9-10.3c-1.1-4.6-5.9-7.3-10.7-6.2
			C589.5,379.3,586,382.3,587,386.8z"/>
		
			<ellipse transform="matrix(0.9738 -0.2274 0.2274 0.9738 -72.0652 145.5116)" class="st13" cx="595.4" cy="385.5" rx="6.6" ry="6.2"/>
		
			<ellipse transform="matrix(0.9738 -0.2274 0.2274 0.9738 -72.0224 145.1437)" class="st43" cx="593.8" cy="385.1" rx="5.3" ry="5"/>
		
			<ellipse transform="matrix(0.9738 -0.2274 0.2274 0.9738 -71.4337 144.7265)" class="st13" cx="592.3" cy="382.3" rx="1.9" ry="1.8"/>
	</g>
	<g>
		<path class="st38" d="M574.3,385.2c-0.4,4.5-4.5,9.5-9,9.1c-4.5-0.4-7.8-4.3-7.5-8.8c0.4-4.5,4.3-7.8,8.8-7.5
			C571.1,378.4,574.7,380.7,574.3,385.2z"/>
		
			<ellipse transform="matrix(8.139049e-02 -0.9967 0.9967 8.139049e-02 135.8734 917.9731)" class="st13" cx="565.9" cy="385.3" rx="6" ry="6"/>
		
			<ellipse transform="matrix(8.139049e-02 -0.9967 0.9967 8.139049e-02 136.0778 915.8171)" class="st43" cx="564.9" cy="384.1" rx="4.8" ry="4.8"/>
		
			<ellipse transform="matrix(8.139049e-02 -0.9967 0.9967 8.139049e-02 136.7013 911.7859)" class="st13" cx="563" cy="381.7" rx="1.8" ry="1.8"/>
	</g>
	<g>
		
			<ellipse transform="matrix(0.999 -4.533220e-02 4.533220e-02 0.999 -19.0394 26.7704)" class="st21" cx="580.7" cy="433.2" rx="3.1" ry="3.1"/>
		<line class="st51" x1="580.4" y1="426.9" x2="580.4" y2="430.1"/>
	</g>
</g>
<line class="st52" x1="145" y1="496" x2="708" y2="496"/>
</svg>
