<?xml version="1.0" encoding="utf-8"?>
<!-- Generator: Adobe Illustrator 21.1.0, SVG Export Plug-In . SVG Version: 6.00 Build 0)  -->
<svg version="1.1" id="Слой_1" xmlns="http://www.w3.org/2000/svg" xmlns:xlink="http://www.w3.org/1999/xlink" x="0px" y="0px"
	 viewBox="0 0 800 600" style="enable-background:new 0 0 800 600;" xml:space="preserve">
<style type="text/css">
	.st0{fill:#EEF7FF;}
	.st1{fill:#2968B7;}
	.st2{fill:#2B82CF;}
	.st3{fill:#FFB0AC;}
	.st4{fill:#6F4E2F;}
	.st5{fill:#FEB0AD;}
	.st6{fill:#F9988C;}
	.st7{fill:#FFFFFF;}
	.st8{fill:#01004E;}
	.st9{fill:none;stroke:#01004E;stroke-width:0.6857;stroke-miterlimit:10;}
	.st10{fill:#342D7A;}
	.st11{fill:none;stroke:#F59895;stroke-width:0.5914;stroke-miterlimit:10;}
	.st12{fill:#FFDCA2;}
	.st13{fill:#DDB176;}
	.st14{fill:#E85336;}
	.st15{fill:#CC3117;}
	.st16{fill:none;stroke:#F2CA91;stroke-width:0.6329;stroke-linecap:round;stroke-linejoin:round;stroke-miterlimit:10;}
	.st17{fill:#D3915B;}
	.st18{fill:#FEAC00;}
	.st19{fill:#BA2C0F;}
	.st20{fill:none;stroke:#BA2C0F;stroke-width:0.3911;stroke-miterlimit:10;}
	.st21{fill:none;stroke:#6F4E2F;stroke-width:0.3911;stroke-linecap:round;stroke-linejoin:round;stroke-miterlimit:10;}
	.st22{fill:#EAC083;}
	.st23{fill:#FFEFE1;}
	.st24{fill:#22205B;}
	.st25{fill:none;stroke:#D8AD73;stroke-width:1.5196;stroke-linecap:round;stroke-linejoin:round;stroke-miterlimit:10;}
	.st26{fill:#E2D2C7;}
	.st27{fill:none;stroke:#6F4E2F;stroke-width:1.0383;stroke-miterlimit:10;}
	.st28{fill:#A3653B;}
	.st29{fill:#FFAFAD;}
	.st30{fill:#3174BC;}
	.st31{fill:#F4A4A2;}
	.st32{fill:#F4A39D;}
	.st33{fill:#ED8880;}
	.st34{fill:#FEB0AC;}
	.st35{fill:none;stroke:#22205B;stroke-width:0.7273;stroke-miterlimit:10;}
	.st36{fill:#762522;}
	.st37{fill:#C7E5FF;}
	.st38{fill:#9ECAE5;}
	.st39{fill:#FEFDFC;}
	.st40{fill:#FEFEFD;}
	.st41{fill:#332B78;}
	.st42{fill:#9ACAE8;}
	.st43{fill:#63A2E7;}
	.st44{fill:#70B2ED;}
	.st45{fill:#030038;}
	.st46{fill:#FFBEAE;}
	.st47{fill:#599CD8;}
	.st48{fill:#FCAD99;}
	.st49{fill:#83B5FE;}
	.st50{fill:#FFF2DF;}
	.st51{fill:none;stroke:#F79FAD;stroke-width:0.8408;stroke-linecap:round;stroke-miterlimit:10;}
	.st52{fill:none;stroke:#DB8282;stroke-width:0.8408;stroke-linecap:round;stroke-miterlimit:10;}
	.st53{fill:#AEB9C1;}
	.st54{fill:#81C0EF;}
	.st55{fill:#DDD5C7;}
	.st56{fill:#D3D9DD;}
	.st57{fill:none;stroke:#BAC3CC;stroke-width:0.8408;stroke-linecap:round;stroke-miterlimit:10;}
	.st58{fill:#FC8772;}
	.st59{fill:#88C1ED;}
	.st60{fill:none;stroke:#030038;stroke-width:1.6816;stroke-miterlimit:10;}
	.st61{fill:none;stroke:#EAE9EE;stroke-width:2.5223;stroke-miterlimit:10;}
	.st62{fill:#EAE9EE;}
	.st63{fill:#BAC3CC;}
	.st64{fill:none;stroke:#266C9B;stroke-width:0.7807;stroke-miterlimit:10;}
	.st65{fill:#67679B;}
	.st66{fill:none;stroke:#67679B;stroke-width:0.8468;stroke-linecap:round;stroke-linejoin:round;stroke-miterlimit:10;}
	.st67{fill:none;stroke:#8BB9EF;stroke-width:5.8855;stroke-linecap:round;stroke-miterlimit:10;}
	.st68{fill:none;stroke:#EEF7FF;stroke-width:1.0263;stroke-linecap:round;stroke-linejoin:round;stroke-miterlimit:10;}
	.st69{fill:none;stroke:#EEF7FF;stroke-width:1.8914;stroke-linecap:round;stroke-linejoin:round;stroke-miterlimit:10;}
	.st70{fill:none;stroke:#EEF7FF;stroke-width:1.7788;stroke-miterlimit:10;}
	.st71{fill:none;stroke:#FFFFFF;stroke-width:0.8408;stroke-miterlimit:10;}
</style>
<g>
	<path class="st0" d="M578.9,546.6c0,0,144.1-45.9,130.5-205.7S589.3,169.7,535,186.4s-116.2,57.6-234.9-23
		c-83.1-56.5-156.8,22.8-172.7,55.8c-28.7,59.5,15.7,78.9-33.9,120.1C33,389.5,126.1,562.8,234.3,547.7L578.9,546.6z"/>
</g>
<path class="st1" d="M525.6,453.2c0,0,0,16.3,17.7-2.1c17.7-18.4-9.9-31.9-9.9-31.9L525.6,453.2z"/>
<path class="st2" d="M665.6,457.4c0,0,2.8-23.9-6.4-36.3c-2.9-4-7.1-6.8-12.9-7.3l4.6,54.5l6.5,77.7l-82-0.3l-5.8,0l-90.8-0.3
	l8-89.2l3.2-35.3l1-11.6c0,0-26.9,0.7-42,39.2c0,0-3.4-84.5,15.3-130.5c3.3-8.2,10-14.7,18.3-17.8l33.8-13l25.7-6.3l56.8,4l18,7.5
	l3,1.5l34.1,17.2c5.8,2.9,10,8.2,11.7,14.5C673.1,354,691.8,435.8,665.6,457.4z"/>
<path class="st3" d="M538.5,281l36.9,38.2l25-33.2c-3.3-1.4-5-4.7-5.7-8.2c-1.2-5.6,0-11.8,0-11.8l-25.2-8.2l-17.4-5.6
	c-0.4,2.9-0.9,5.5-1.5,7.8c-0.9,3.8-2,7-3.2,9.5C543.4,279.1,538.5,281,538.5,281z"/>
<path class="st1" d="M539.1,431.6c0,0-6.7,26.1,11.8,26.9c0,0,6.7,28.6,13.5,30.3c6.7,1.7,32.8,2.3,39.1-6.4c6.3-8.7,1.9-47,1.9-47
	l-66.2-7.1V431.6z"/>
<path class="st1" d="M576.1,369.4c0,0,5.9-37.8,26.9-44.6c21-6.7,42.9,15.1,42.9,15.1l-34.6,66.8l-45.1-20.4L576.1,369.4z"/>
<path class="st4" d="M653.4,362.7c0,0,5.9,9.2,1.7,16c-4.2,6.7-8.4-3.4-8.4-3.4L653.4,362.7z"/>
<path class="st5" d="M542.6,240.3c1.5,0.7,3.3,1,5.4,1c0.6,0,1.3-0.1,1.9-0.1c18.3-2.4,0-26,0-26s-0.4-0.8-1.1-1.7
	c-1.8-2.3-5.5-5.6-10.1-1.9c-0.2,0.1-0.3,0.3-0.5,0.5C533.1,217.3,532.2,235.8,542.6,240.3z"/>
<path class="st6" d="M547.6,269.6c18.3,23.3,40.8,12.1,47.2,8.2c-1.2-5.6,0-11.8,0-11.8l-25.2-8.2l-18.9,2.2
	C549.8,263.8,548.7,267,547.6,269.6z"/>
<path class="st6" d="M538.2,212.1c1.5,2.7,4.4,10.2,4.4,28.2c1.5,0.7,3.3,1,5.4,1l0.8-27.9c-1.8-2.3-5.5-5.6-10.1-1.9
	C538.5,211.7,538.3,211.9,538.2,212.1z"/>
<polygon class="st1" points="638.4,351.8 646.2,420.9 620,424.1 "/>
<path class="st5" d="M605.1,243.7c0.5,1.6,1.4,2.9,2.8,3.4c1.2,0.4,2.6,0.2,3.9-0.5c7.5-4.1,15.8-23.6,10.8-30.8
	c-0.2-0.2-0.3-0.4-0.5-0.7c-6-6.5-10.7-0.4-12,1.7c-0.3,0.4-0.4,0.7-0.4,0.7S602.7,235.8,605.1,243.7z"/>
<path class="st6" d="M605.1,243.7c0.5,1.6,1.4,2.9,2.8,3.4c1.2,0.4,2.6,0.2,3.9-0.5c0.8-18.5,7.1-27.2,10.8-30.8
	c-0.2-0.2-0.3-0.4-0.5-0.7c-6-6.5-10.7-0.4-12,1.7L605.1,243.7z"/>
<path class="st3" d="M576,274.2c19.1,1.1,35.8-20.6,37.3-48.4c0.2-3.5,0.3-7,0.3-10.4c0-1.6-0.3-3.1-0.1-4.7
	c2.3-21.2-8.3-41.7-32.6-41.8c-25-0.1-35.9,19.5-35.6,41.2c0,0.9-0.2,1.7-0.3,2.6c-0.3,3-0.6,6.1-0.8,9.3
	C542.7,249.8,557,273.1,576,274.2z"/>
<g>
	<ellipse transform="matrix(0.1611 -0.9869 0.9869 0.1611 279.1313 775.9466)" class="st7" cx="596" cy="223.8" rx="7.3" ry="4.7"/>
	
		<ellipse transform="matrix(0.1611 -0.9869 0.9869 0.1611 276.752 776.7186)" class="st8" cx="595.2" cy="225.6" rx="5.4" ry="3.1"/>
</g>
<path class="st6" d="M546,212.7c0.1-0.1,0.3-0.1,0.5-0.2c0.3-0.2,0.5-0.3,0.8-0.5c7.5,3,14.6-4.2,14.6-4.2
	c12.4,8.4,17.6-4.1,17.6-4.1c8.1,9.4,17.3-0.3,17.3-0.3c5.7,3.8,10.5,6.1,14.5,7.2c-0.1,1.9,0.2,4.9,2.8,4.9c0.2,0,0.3,0,0.5,0
	c0-1.6,0-3.1-0.1-4.7c-0.9-20.9-7.7-37-32-37.1c-25-0.1-33.4,14.9-36.2,36.5C546.2,211,546.1,211.8,546,212.7z"/>
<g>
	
		<ellipse transform="matrix(6.272148e-02 -0.998 0.998 6.272148e-02 310.9729 775.1559)" class="st7" cx="568.2" cy="222" rx="7.3" ry="4.7"/>
	
		<ellipse transform="matrix(6.272148e-02 -0.998 0.998 6.272148e-02 308.6619 776.2773)" class="st8" cx="567.6" cy="223.8" rx="5.4" ry="3.1"/>
</g>
<path class="st9" d="M590.6,232.3l11.6,1c4.5,0.4,8.5-3,8.9-7.5l0.2-2c0.4-4.5-3-8.5-7.5-8.9l-11.6-1c-4.5-0.4-8.5,3-8.9,7.5l-0.2,2
	C582.8,227.9,586.1,231.9,590.6,232.3z"/>
<path class="st9" d="M558.7,230l11.6,1c4.5,0.4,8.5-3,8.9-7.5l0.2-2c0.4-4.5-3-8.5-7.5-8.9l-11.6-1c-4.5-0.4-8.5,3-8.9,7.5l-0.2,2
	C550.8,225.6,554.2,229.6,558.7,230z"/>
<line class="st9" x1="583" y1="223.4" x2="579.5" y2="223.4"/>
<path class="st10" d="M539,201c1.3,2.6,2.8,4.5,4.2,6c-0.4,1.8-0.8,5.4,3.2,3.2c0.3-0.2,0.5-0.3,0.8-0.5c7.5,3,14.6-4.2,14.6-4.2
	c8.7,5.8,13.8,1.5,16.2-1.7c1-1.3,1.5-2.5,1.5-2.5c8.1,9.4,17.3-0.3,17.3-0.3c5.7,3.8,10.5,6.1,14.5,7.2c-0.1,1.9,0.2,4.9,2.8,4.9
	c2.5,0,4.1-2.5,4.9-4.2c10.1-1.4,11.8-13.1,8.6-19.8c-4.4-9.2-15.3-6.6-17-6c22.8-7.2,5.2-17.8,5.2-17.8c-1.9-1-3.9-1.9-5.8-2.5
	c-22.9-7.5-48,10.7-48,10.7c-22.6-10.3-17.9,18.1-17.9,18.1S533.6,190.5,539,201z"/>
<polygon class="st1" points="569.5,545.6 575.3,545.7 577.4,345.4 "/>
<path class="st11" d="M584.5,242.6c0,0-4.7,3.5-8.9-0.6"/>
<path class="st10" d="M544.4,233.8c0.5,15.1,4.8,43.7,30.9,44.6c9.7,0.3,16.8-3.2,21.9-8.4c12.6-12.9,13.5-35.9,13.5-35.9
	s-5.9,16-12.1,16.9c-5,0.7-2.1-6.2-7.4-6.2c-5.3,0-7.7,4.7-24.2-1.8c0,0-3.5-1.8-5.3,1.8c-1.8,3.5-10.1,6.5-17.1-20.1
	C544.6,224.6,544.2,228.3,544.4,233.8z"/>
<polygon class="st1" points="496.6,344.7 490.2,415.6 502.3,410.6 "/>
<g>
	<path class="st7" d="M589.2,253.6c-1.2,1.8-2.9,3.2-4.9,4.2c-2,1-4.3,1.4-6.6,1.1c-2.2-0.4-4.3-1.4-6-2.8c-0.9-0.7-1.6-1.5-2.3-2.3
		c-0.6-0.9-1.3-1.7-1.8-2.6c0.8,0.7,1.6,1.4,2.4,2.1l1.3,0.9c0.4,0.3,0.8,0.7,1.2,0.9c0.4,0.2,0.9,0.5,1.3,0.8
		c0.4,0.3,0.9,0.4,1.4,0.6c0.5,0.2,0.9,0.4,1.4,0.5c0.5,0.1,0.9,0.3,1.4,0.3c1.9,0.3,3.9,0,5.8-0.6
		C585.7,255.9,587.5,254.9,589.2,253.6z"/>
</g>
<path class="st1" d="M487.8,389.6c0,0,36,23.1,89.1-24.4l1.7,23.5l-84.8,25.4L487.8,389.6z"/>
<path class="st1" d="M486.7,456.1c22.7-1.1,51.2-21.4,72.3-31.3c22.7-10.6,48.9-9.2,48.9-9.2l9.9-18.4l-29.8-7.1l-98.2,30.8
	L486.7,456.1z"/>
<polygon class="st1" points="516.4,287 577.4,345.4 619.9,293.7 601.5,286.6 575.3,324.8 539.1,283 "/>
<polygon class="st2" points="616.9,292.2 577.4,339.7 520.9,285.3 520.7,285.1 540.9,278.8 575.3,319.2 598.9,284.7 "/>
<path class="st1" d="M650.8,468.3l-4.6-54.5c5.8,0.5,10,3.3,12.9,7.3l-19.4-6.9l-25.5-26.2C614.3,387.9,575.6,425.9,650.8,468.3z"/>
<path class="st12" d="M641.2,430.6c-4.4,6.6-71.4,0.6-74.4-12.5c-0.7-3,0.4-7,2.4-11.5c6.3-14.1,22.3-32.8,25-35.9
	c0.3-0.3,0.4-0.4,0.4-0.4l13.5,6.5l30.8,14.7c0,0,0,0.2,0.1,0.4c0,0.1,0,0.2,0.1,0.3c0.2,0.9,0.5,2.4,0.8,4.5
	C641.5,406.2,644.5,425.7,641.2,430.6z"/>
<path class="st12" d="M654.3,363.5c0,24.4-15.2,28.3-15.2,28.3s0,0-0.1,0.1c-1.2,1-11.2,6.9-25.4-1.4c-4.6-2.7-9.4-7.2-14.2-14.5
	l-5.2-5.1c0-0.1,0-0.1,0-0.2c0.3-2.3,0.7-4.4,1.2-6.4c0.3-1.1,0.7-2.3,1-3.3c0.4-1,0.7-2,1.2-2.9c0.1-0.3,0.2-0.5,0.4-0.8
	c1-2.2,2.2-4.3,3.5-6.1c6.4-9.4,14.5-13.4,14.5-13.4c33.7-5.2,34.7,7.7,34.7,7.7c1,2.9,1.8,5.6,2.5,8.2
	C654.3,358.5,654.3,359.8,654.3,363.5z"/>
<path class="st13" d="M654.8,367c-22.3-28.3-56.9-1.6-56.9-1.6l-2.4-3.3c0.4-1,0.8-2,1.2-3c1.1-2.6,2.4-4.8,3.8-6.9l30.3-7.2
	l21.4,9.7C653.5,359.6,654.9,363.3,654.8,367z"/>
<path class="st13" d="M612.2,392.1c-0.1,0.5-0.4-2.2-0.8-1.7c-5.6,5.8,5,24.3-1.7,23.5c-6.2-0.7-33.6-7-40.5-7.4
	c6.3-14.1,22.3-32.8,25-35.9c0.3-2.3,0.7-4.4,1.2-6.4l10.9-5c0,0-1.7,5,0.8,8.4c2,2.7,3.5,7.7,0.9,9c-0.6,0.3-1.5,0.4-2.6,0.3
	c-5.9-0.8-4.2,2.5-1.7,3.4C606.3,381.2,613.1,387.9,612.2,392.1z"/>
<path class="st14" d="M640,395.5c-30.3,12.6-45.4-25.2-45.4-25.2l6.6,3.4c17.5,28.8,36.1,19.5,37.8,18.6
	C639.2,393.1,639.6,393.4,640,395.5z"/>
<path class="st4" d="M609.7,350.1c0,0-8.3,12.5-4.2,18.5c2.4,3.6,1.5,5,0,5.9c-2.1,1.3-5,0.8-13.5-6.3
	C592.1,368.2,596.3,350.9,609.7,350.1z"/>
<path class="st14" d="M655,366.4c-0.3,0.6-0.4,0.5-0.6-0.1c-1.5-3.8-6.8-10.4-18.6-13.3c-11.4-2.8-24.3,0.4-33.1,7
	c-4.4,3.3-6.5,5.7-8.1,10.3c0,0-5.7,0.1-0.7-9.3c0,0,0,0,0-0.1c-0.1-0.4-0.6-2.1-0.1-4.4c0.3-1.7,1.3-6.9,3-9.1c0,0,0,0,0,0
	c0.2-3,1.1-5.5,2.5-7.4c-0.5-0.4-1.1-1-1.4-1.8c-0.4-0.9-0.4-2,0.1-3.4c1.4-3.7,11.3-13.4,28-7.5c1.6,0.6,3.3,1.3,5,2.1
	c0.1,0,0.2-0.1,0.3-0.1c3.9-1.3,7.9-0.7,11.2,0.5c3,1.1,5.4,2.8,6.7,4.2c2.5,2.8,1.1,7.7,0.4,9.4c1.4,1.7,2.2,3.5,2.7,5.1
	c0,0,0,0,0,0c0.2,0.8,0.4,1.6,0.5,2.3c0,0.1,0,0.2,0,0.2c1.4,1.6,2.4,3.9,2.9,8.2C656.3,362.9,656.1,364.1,655,366.4z"/>
<path class="st15" d="M609,340.5c0,0-8.3,8.4-6.3,19.4c-4.4,3.3-6.5,5.7-8.1,10.3c0,0-5.7,0.1-0.7-9.3c0,0,0,0,0-0.1
	c-0.1-0.4-0.6-2.1-0.1-4.4c0.3-1.7,1.3-6.9,3-9.1c0,0,0,0,0,0c0.2-3,1.1-5.5,2.5-7.4c-0.5-0.4-1.1-1-1.4-1.8c-0.4-0.9-0.4-2,0.1-3.4
	c1.4-3.7,11.3-13.4,28-7.5C620.5,328.5,602.4,333.3,609,340.5z"/>
<g>
	<path class="st16" d="M634.3,368.6c0,0,1.5-11.5,8.5-10.7"/>
	<path class="st16" d="M631.1,368c0,0,3-8.6-5.1-13.4"/>
</g>
<path class="st17" d="M640,375.5c-3.9-5.4-4.5-7.5-8.4-7.4c-3.9,0.1-4.7,2.1-8.4,4.6c-2.1,1.4-4.8,2.9-4.3,6.3
	c0.6,3.5,5.7,5.8,8.2,1.2c3.6,5.9,6.2,2.7,7.7,1.1c0.6,2.8,1.8,3.8,4.5,3.4C639.6,384.7,644.2,381.4,640,375.5z"/>
<path class="st4" d="M630.3,371.1c0,0,2.5-1.6,4,0.5c1.7,2.4-2.4,2.3-2.4,2.3S628.9,372.7,630.3,371.1z"/>
<path class="st18" d="M643,351.4c0,0-10.7-4.5-19.2-3l-0.5-7.6c0,0,10.4-2.4,19.1,3.7L643,351.4z"/>
<path class="st19" d="M609.9,349.2c-10.6,3.1-15.9,11.6-15.9,11.6l-0.2,0.1c-0.1-0.4-0.6-2.1-0.1-4.4
	C602.6,349.7,609.6,349.3,609.9,349.2z"/>
<path class="st20" d="M596.9,347.6c0,0,23.8-21.2,52.5-4.1"/>
<path class="st21" d="M626.5,377.8c0,0,5,4.2,5.6-3.8c0,0-1.4,6.3,4.5,5.5"/>
<path class="st19" d="M652.8,350.7c-0.7-0.6-2.8-2.5-5.6-3.6c-0.7-0.3-1.5-0.5-2.3-0.7c0,0,0.5,0.1,1.5,0.2c1.3,0.3,3.3,0.8,5.8,1.7
	c0,0,0,0,0,0C652.6,349.2,652.7,350,652.8,350.7z"/>
<path class="st19" d="M619.7,334.2c-9.4,0.3-15.6,3.5-19.4,6.5c-0.6-0.3-1.9-1.1-2.4-2.5C608,331.7,619.7,334.2,619.7,334.2z"/>
<path class="st19" d="M642.5,329.7c-8.8,0.4-15.9,3.5-15.9,3.5c0.2-1.3,2.2-2.7,4.8-3.9C635.2,327.9,639.2,328.5,642.5,329.7z"/>
<g>
	<path class="st17" d="M623.7,357c-0.2-0.1-0.7-0.1-1-0.1c-0.4,0-0.7,0-1.1,0c-0.7,0-1.5,0.2-2.2,0.3l0,0c-0.7,0.2-1.4-0.2-1.6-0.9
		c-0.2-0.6,0.2-1.3,0.7-1.5c0.9-0.4,1.8-0.6,2.7-0.8c0.5-0.1,0.9-0.1,1.4-0.2c0.5,0,0.9-0.1,1.5,0l0,0c0.9,0.1,1.5,0.8,1.5,1.7
		c-0.1,0.9-0.8,1.5-1.7,1.5C623.8,357.1,623.7,357,623.7,357z"/>
</g>
<g>
	<path class="st17" d="M645.5,358.3c0.6,0.2,0.9,0.4,1.3,0.6c0.4,0.2,0.8,0.5,1.2,0.7c0.8,0.5,1.5,1.1,2.1,1.8
		c0.5,0.5,0.5,1.3-0.1,1.8c-0.5,0.4-1.2,0.5-1.7,0.1l0,0c-0.6-0.5-1.2-0.9-1.8-1.2c-0.3-0.2-0.7-0.3-1-0.5c-0.3-0.1-0.7-0.3-1-0.3
		c-0.9-0.2-1.4-1-1.2-1.9s1-1.4,1.9-1.2C645.3,358.2,645.3,358.2,645.5,358.3L645.5,358.3z"/>
</g>
<path class="st1" d="M635.3,488.6l-42.5,0.7c0,0-2.8,43.4,22.6,41.5S635.3,488.6,635.3,488.6z"/>
<path class="st3" d="M462,450.8c7.9,1,16.6,0,25.4-2.3c27.4-7.2,55.9-26.4,64.1-32.2c1.5-1.1,2.3-1.7,2.3-1.7l-3.5-20.2
	c-6.8,1.9-40.7,10.1-60.3,14.7c-3.3,0.8-6.3,1.5-8.6,2c0,0,0,0,0,0c-7.3,2.8-17.6,9.2-26.3,24.1c-0.3,0.5-0.6,1-0.9,1.5
	C452.6,446.4,462,450.8,462,450.8z"/>
<path class="st12" d="M619.4,491.7c-4.8,0.8-15.9-2.8-19.4-8.6c-4.9-8-6.7-16.8-6.7-16.8s-2.3-2.6-4.4-6.6
	c-3.4-6.3-6.4-16.2,0.4-24.9c11.1-14.1,17.1,5.5,17.1,5.5s8.7,11.7,0.8,27.1c0,0,1.4,9.2,3.6,11.9c2.2,2.7,8,3.5,10.6,9.6
	C622.1,490.5,621.2,491.4,619.4,491.7z"/>
<path class="st22" d="M621.5,442.8c0,0-0.2,0.4-0.7,1c-0.7,0.9-2,2.4-3.7,4.1c-5.7,5.5-16.5,13.2-31.7,11.2
	c-0.6-0.1-1.2-0.2-1.8-0.3c-0.3-0.1-0.6-0.1-0.9-0.2c-0.1,0-0.1,0-0.2,0c-1-0.2-1.9-0.4-2.8-0.7c-6.8-2-11.4-5.4-14.4-9.3
	c-2.5-3.1-3.9-6.5-4.8-9.5c0-0.1,0-0.1-0.1-0.2c-0.2-0.7-0.4-1.4-0.5-2c-0.2-0.9-0.3-1.8-0.4-2.6c-0.2-1.3-0.2-2.5-0.2-3.2
	c0-0.7,0-1.1,0-1.1s-3.5-1.4,9.7-5.5c0.5-0.2,1-0.3,1.6-0.5c2.8-0.8,6.4-0.7,10.3,0.1h0C597.8,427.4,621.5,442.8,621.5,442.8z"/>
<path class="st12" d="M585.1,494.7c-5.9-0.2-15.3-4.2-17.9-10.1c-4-9.3-4.4-18.7-4.4-18.7s-2.6-4.7-4.3-11c-2.2-8.3-3-19.3,5.6-26
	c15-11.9,18.7,7,18.7,7s6.9,16.5-4.8,30.4c0,0-0.2,9.7,1.8,13c2,3.3,8.3,5.4,10.1,12.2C590.6,493.8,588.4,494.8,585.1,494.7z"/>
<path class="st22" d="M634.5,399.8c0,0-5.5,9.9-12.2,8.3l5.9,8.4l20.2,3.4L634.5,399.8z"/>
<path class="st12" d="M565.2,448.6c-0.2,0.7-0.4,1.4-0.7,2c-0.1,0.1-0.1,0.3-0.2,0.4c-1,2.1-3.4,3-6,3c-6.1,0-13.7-4.9-10.8-13.1
	c0.7-1.8,1.4-3.3,2.3-4.5c0.2-0.3,0.4-0.6,0.6-0.8c2.9-3.6,6.5-4.4,8.8-4.4c1.3-0.1,2.2,0.1,2.2,0.1c0,0.1,0,0.2-0.1,0.3
	c-0.4,2.3-0.9,4.1-1.4,5.4c-0.4,0.9-0.8,1.6-1.1,2.1c0.6-0.1,1.1-0.1,1.6-0.1c0.4,0,0.9,0.1,1.3,0.2
	C565.4,440.1,566.4,444.3,565.2,448.6z"/>
<polygon class="st13" points="642.1,412.2 624.3,410.6 628.2,417.3 646.8,418.6 "/>
<path class="st13" d="M621.5,442.8c0,0-0.2,0.4-0.7,1c-0.7,0.9-2,2.4-3.7,4.1c-5.8-2.2-17.8-6.5-30.3-8.4c-1-0.2-2-0.3-3-0.4
	c-8.2-0.8-15.7,0.2-22.2,0.1c-0.4,0-0.8,0-1.2,0c-0.6,0-1.1-0.1-1.7-0.1c0,0,0,0-0.1,0c-0.3,0-0.7-0.1-1-0.1c-3-0.3-5.6-1.1-7.9-2.6
	c3-4.3,7-5.2,9.4-5.3c0-0.7,0-1.1,0-1.1s-3.5-1.4,9.7-5.5c4.5-0.3,8.7-0.4,11.9-0.4h0C597.8,427.4,621.5,442.8,621.5,442.8z"/>
<path class="st3" d="M590.6,432.8c44.7,25,67.8,23.5,67.8,23.5c9.1-1.5,8.7-2.2,8.8-11.4c0.2-12.7-4.7-27-4.7-27l-63.7-7.4
	C598.9,410.4,590.3,432.6,590.6,432.8z"/>
<path class="st23" d="M595.8,436.3c0,0-18.1-2.9-29.8-0.4c-11.8,2.5-26.1-10.9-26.1-10.9l21-32.8c0,0,10.1,9.2,49.6,18.1
	L595.8,436.3z"/>
<path class="st6" d="M462,450.8c7.9,1,16.6,0,25.4-2.3c27.4-7.2,55.9-26.4,64.1-32.2l-3.8-2.2c0,0-70.3,43.5-92.5,21.2
	c-0.3,0.5-0.6,1-0.9,1.5C452.6,446.4,462,450.8,462,450.8z"/>
<path class="st1" d="M541.3,489.3l-42.5-1.4c0,0-5,43.2,20.6,42.5C544.8,529.7,541.3,489.3,541.3,489.3z"/>
<path class="st24" d="M544.4,233.8c0.5,15.1,4.8,43.7,30.9,44.6c9.7,0.3,16.8-3.2,21.9-8.4C587,273.7,555,281,544.4,233.8z"/>
<path class="st24" d="M582.1,184.1C582.1,184.1,582.1,184.1,582.1,184.1C582.1,184.1,582.1,184.1,582.1,184.1z"/>
<path class="st24" d="M539,201c1.3,2.6,2.8,4.5,4.2,6c-0.4,1.8-0.8,5.4,3.2,3.2c0.3-0.2,0.5-0.3,0.8-0.5c7.5,3,14.6-4.2,14.6-4.2
	c8.7,5.8,13.8,1.5,16.2-1.7c-3.5,0.3-12.1,0.4-14.4-6.1c-2.9-8,18.2-13.3,19.5-13.6c-11.2,1.7-8.8-5.3-8.8-5.3
	c8.5-15.2,26.3-16.5,35.8-16c-22.9-7.5-48,10.7-48,10.7c-22.6-10.3-17.9,18.1-17.9,18.1S533.6,190.5,539,201z"/>
<path class="st2" d="M666,457.7c0,0,8.4-31.1-18.9-42l-2.1-15.6l23.5,0.4l5,26.1L666,457.7z"/>
<path class="st12" d="M631.6,427.3c-0.3,1.2-0.8,1.8-1.6,2c-5.5,1.7-22.2-18.9-20.3-27.9c1-4.6,2.9-5.9,4.8-6
	c2.3-0.1,4.4,1.8,4.4,1.8S633.8,417.8,631.6,427.3z"/>
<path class="st12" d="M659.3,424.2c0,2.5-0.4,4.1-1,5.1c-3.3,5.2-14.4-9.7-20.3-16.6c-6.7-8-5-12.2-2.3-14.3c1.9-1.5,4.2-2,4.2-2
	S659.3,414,659.3,424.2z"/>
<path class="st22" d="M585.1,494.7c-5.9-0.2-15.3-4.2-17.9-10.1c-4-9.3-4.4-18.7-4.4-18.7s-2.6-4.7-4.3-11l2.6-2.2
	c0,0,3.2,5.9,4.8,13.5C567.6,473.3,568.4,488.9,585.1,494.7z"/>
<path class="st22" d="M564.5,450.6c-0.1,0.1-0.1,0.3-0.2,0.4c-1,2.1-3.4,3-6,3c-6.1,0-13.7-4.9-10.8-13.1c0.7-1.8,1.4-3.3,2.3-4.5
	c0.2-0.3,0.4-0.6,0.6-0.8c-1.4,4.8-4.7,20.2,13.9,13.8L564.5,450.6z"/>
<path class="st25" d="M552.5,442.6c0,0,2.5-5,7.6-3.4c6.1,2,5.9,5.9,4.2,10.1c-1.7,4.2-5.9,5-5.9,5"/>
<path class="st13" d="M630,429.3c-5.5,1.7-23.9-20.6-22-29.6c1-4.6,0.8-6.7,2.5-7.6C609.2,394.1,607.3,408.5,630,429.3z"/>
<path class="st22" d="M658.3,429.2c-3.3,5.2-14.4-9.7-20.3-16.6c-6.7-8-5-12.2-2.3-14.3C636,402.9,638.7,415,658.3,429.2z"/>
<g>
	<path class="st23" d="M576.1,376.2c0,0,22.2,2.4,28.5,6.5c6.3,4.2-15,4.4-27.6,3.6c0,0,31.8,2,32.5,7.6c0.7,5.4-30.7,1.6-32.6,1.4
		c1.7,0.2,29.1,4.2,29.1,6.9c0,2.7-29.6,0.8-31.2,0.7c1.3,0.2,20.8,3.5,21.5,5.6v0c0.6,2.1-24.3,2.1-24.3,2.1s-15.3,9.7-22.3,11.8
		c0,0-4.8-1-7.6-7c-2-4.2-3-10.9-0.7-21.5L576.1,376.2z"/>
	<path class="st26" d="M542,415.3c2.8,6,7.6,7,7.6,7c7-2.1,22.3-11.8,22.3-11.8s25,0,24.3-2.1c-2.9-0.6-24.2-4.7-29.4-2.1
		C563.6,408,551.7,412.1,542,415.3z"/>
</g>
<g>
	
		<ellipse transform="matrix(0.9982 -6.060703e-02 6.060703e-02 0.9982 -23.3139 38.9843)" class="st18" cx="631" cy="403.8" rx="3" ry="3"/>
	<line class="st27" x1="630.7" y1="397.7" x2="631" y2="400.8"/>
</g>
<g>
	<path class="st28" d="M628.3,364.4c-0.7,3.4-4.6,6.7-8.3,6c-3.6-0.8-6-4.2-5.3-7.6s4.3-5.5,7.9-4.7
		C626.4,358.8,629.1,361,628.3,364.4z"/>
	<g>
		
			<ellipse transform="matrix(0.2116 -0.9774 0.9774 0.2116 133.9883 894.4678)" class="st7" cx="621.4" cy="364.2" rx="4.6" ry="4.9"/>
		
			<ellipse transform="matrix(0.2116 -0.9774 0.9774 0.2116 133.4186 894.6106)" class="st4" cx="621.2" cy="364.6" rx="3.7" ry="4"/>
		
			<ellipse transform="matrix(0.2116 -0.9774 0.9774 0.2116 134.6931 890.5941)" class="st7" cx="619.3" cy="361.8" rx="1.4" ry="1.5"/>
	</g>
</g>
<g>
	<path class="st2" d="M334.4,302.7c-1.8-4.3-5.3-7.7-9.5-9.6c-9.2-4-18.7-7.1-28.3-9.4c-1.6-0.4-3.2-0.7-4.8-1.1
		c-5.9-1.2-11.8-2.1-17.7-2.8c-0.3,0-0.6-0.1-0.9-0.1c-17.2-1.9-34-1.7-49.3-0.4c-0.2,0-0.4,0-0.7,0.1c-6.8,0.6-13.2,1.4-19.3,2.3
		c-1.9,0.3-3.8,0.6-5.6,0.9c-9.6,1.6-18,3.4-24.8,5.1c-10.7,2.7-19.6,10.2-24,20.4l-11.5,26.6l33.2,53.5c0.1,2.9,0.3,5.9,0.4,8.9
		c0.9,25.9,0.1,55.8-4,88.7c-2.4,19-5.8,39-10.6,59.9l1.3,0l12.4,0l69.5,0.3l1.1,0l6.5,0l3.7,0l49,0.2l37.7,0.2
		c0,0-2.2-34.2-4.2-78.4c-0.2-4.8-0.4-9.8-0.6-14.8c22.3,3.4,31.1-4.6,31.1-4.6C375.6,404.3,344.2,325.6,334.4,302.7z"/>
	<path class="st29" d="M278.9,242c-1.3,0.1-2.6,0-4.2-0.3l2.2-21.1c0,0,6.5-5.1,10.9-0.7l0,0C291.9,224,292.8,241.3,278.9,242z"/>
	<path class="st29" d="M219.5,239.5c-0.8,0.8-1.9,1.3-3.1,1.3c-5.9,0.2-14.5-8.8-11.4-17.3c0.8-2.4,2.1-3.9,3.4-4.7
		c4.4-2.8,10.4,1.1,10.4,1.1L219.5,239.5z"/>
	<polygon class="st30" points="298.7,409.1 300.8,341.4 319.6,415.6 	"/>
	<path class="st30" d="M249.5,396.8l-1.8,149.3l-6.5,0l-1.1,0c4-74.4-64.8-37.9-64.8-37.9l-7.6-22.3l-15.9-46.6l19.8-42l0.2-0.1
		l33.8-10L249.5,396.8z"/>
	<polygon class="st31" points="273.1,283.9 247.4,330.1 224.8,284.9 225.3,255.5 270.4,249.7 271.1,261.7 271.4,267 271.5,268.3 
		271.9,273.2 	"/>
	<path class="st32" d="M287.9,219.9c-2,0.7-7.2,4.3-9,22c-1.3,0.1-2.6,0-4.2-0.3l2.2-21.1C277,220.6,283.5,215.5,287.9,219.9
		L287.9,219.9z"/>
	<path class="st32" d="M219.5,239.5c-0.8,0.8-1.9,1.3-3.1,1.3c-0.3-16.5-4.7-21-8-22c4.4-2.8,10.4,1.1,10.4,1.1L219.5,239.5z"/>
	<path class="st33" d="M271.5,268.3c-5.3,5.1-13.6,11.2-24.8,11.2c-10.2,0-17.8-8.2-21.4-13.3v-7.7c9.1,0.1,36.2,0.6,45.8,3.3
		l0.3,5.2L271.5,268.3z"/>
	<path class="st34" d="M216.6,215.5c0,0-1.5,59.6,30.5,60.4c31.3,0.7,32.7-48,32-61.1c-0.7-13.1-8.7-34.9-8.7-34.9l-50.9-1.5
		L216.6,215.5z"/>
	<path class="st24" d="M212.2,187.2c0,0-3.6,21.8,6.5,32.7c0,0-2.2-5.8,2.2-10.9c4.4-5.1,4.4-15.3,4.4-15.3L212.2,187.2z"/>
	<path class="st35" d="M239.9,203.9c0,0-7.3-1.5-10.9,2.9"/>
	<path class="st35" d="M256.6,203.9c0,0,6.5-0.7,10.9,2.2"/>
	<g>
		<path class="st36" d="M237,252.6c0.9,0.4,1.9,0.8,2.9,1.2c1,0.4,1.9,0.7,2.9,0.9c2,0.5,4,0.8,6,0.8c2,0.1,4-0.3,6-0.9l1.4-0.5
			l1.4-0.7c0.2-0.1,0.5-0.2,0.7-0.3l0.6-0.4c0.4-0.3,0.9-0.6,1.3-0.8c-1.5,1.4-3.2,2.7-5.2,3.4c-2,0.7-4.1,1.2-6.2,1.1
			c-2.1,0-4.2-0.4-6.2-1.1C240.6,254.7,238.7,253.8,237,252.6z"/>
	</g>
	<path class="st35" d="M245,245.4c0,0,4.4,2.2,7.3,0"/>
	<polygon class="st1" points="254.7,546.1 244.5,546.1 249.2,418.3 	"/>
	<path class="st30" d="M333.9,468.1c-28.9-7.2-103.9-60-103.9-60l-7.2-21.6l109.3,38c0.3,9.3,0.7,18.4,1.1,27.4
		C333.4,457.4,333.6,462.8,333.9,468.1z"/>
	<polygon class="st37" points="248.1,483.6 181.1,499.5 163.3,503.7 112.3,515.8 89.8,421 137,409.8 177.2,400.3 195.3,396 
		225.7,388.8 229.6,405.5 	"/>
	<path class="st30" d="M296.6,283.7l-47.9,63.8l-50.4-64.9c1.8-0.3,3.7-0.6,5.6-0.9c6-0.9,12.5-1.7,19.3-2.3l25.5,39.2l25.4-38.7
		c5.9,0.7,11.8,1.6,17.7,2.8C293.4,283,295,283.4,296.6,283.7z"/>
	<polygon class="st37" points="241.9,330.1 241.9,330.7 241.3,373.4 232.6,376.3 205.7,369 205.7,369 205.7,368.8 204.2,353.8 
		202.6,336.6 202.1,330.5 202.1,330.5 	"/>
	<path class="st38" d="M241.9,330.7l-0.6,42.6l-8.7,2.9l-26.9-7.3l-0.1-0.2l-1.4-15c3,2.1,21,14.1,28.4,6.4
		c8.1-8.4,5.6-29.4,5.6-29.4H241.9z"/>
	<path class="st38" d="M181.1,499.5l-17.8,4.2l-38.5-85.5l12.2-8.4l40.2-9.5c-4.4,11.9-12,33.2-12,39.8
		C165.1,447.5,176.7,485.4,181.1,499.5z"/>
	<polygon class="st38" points="240,336.6 202.6,336.6 202.1,330.5 238.3,330.7 	"/>
	<path class="st38" d="M229.6,405.5c-11.9,3.8-27.7-5.2-34.4-9.6l30.4-7.2L229.6,405.5z"/>
	<path class="st3" d="M330.4,439.5c-0.2,6-2.6,10.4-9.1,9.6c-18.5-2.1-89.4-48.9-89.4-48.9c-31.9,1.2-35.9-13.1-36.3-17.6
		c0-0.3-0.1-0.6-0.1-0.8v0c0-0.3,0-0.5,0-0.5c-4.4-4.4,0.7-9.5,0.7-9.5c-2.9-8.7,2.9-8.7,2.9-8.7c-2.9-8,4.4-6.5,4.4-6.5
		c43.6,32.7,37.8,1.4,37.8,1.4c13.1,6.5,5.1,18.2,5.1,18.2l78,35.9C324.4,412.2,330.8,428.5,330.4,439.5z"/>
	<path class="st2" d="M291.8,282.7l-43.3,58.7l-44.5-59.7c6.2-0.9,12.9-1.7,19.9-2.3l24.6,38.4l24.7-38
		C279.3,280.4,285.6,281.4,291.8,282.7z"/>
	<rect x="197.7" y="328.3" class="st39" width="49.5" height="4.4"/>
	<rect x="202.1" y="321.7" class="st40" width="40.7" height="7.3"/>
	<path class="st1" d="M104.8,458.4c0,0,0,4.1,27.7-2.1s22.6-12.3,22.6-12.3l-30.8-9.2L104.8,458.4z"/>
	<path class="st3" d="M176.6,519.9l-5.3,11.7l-5,10.9c-30.8-19.5-57.5-87.2-57.5-87.2s2.9-3.1,7.2-7.1c9.1-8.4,24.5-20.4,30.7-13.4
		C156.1,445,176.6,519.9,176.6,519.9z"/>
	<path class="st32" d="M171.3,531.6l-5,10.9c-11.7-7.4-22.7-21.7-32-36.6c-6.1-9.9-11.5-20.1-15.7-28.6c-6.2-12.7-9.8-22-9.8-22
		s2.9-3.1,7.2-7.1l4.8-1.5C120.9,446.7,131.2,495.9,171.3,531.6z"/>
	<g>
		<path class="st41" d="M285,197.6c0,5.7-0.7,19.3-6.2,21.9c0,0-1.8-20-6.9-25.8c-0.2-0.2-0.4-0.5-0.6-0.7c-3.9-5.4,3.5-9.5,3.5-9.5
			l10.2,11.6C285,195.2,285,196.1,285,197.6z"/>
		<path class="st10" d="M283.5,188.6c0,0,3.3,5.8,1.5,9c-0.6,1-1.7,1.7-3.7,1.9c-8,0.7-9.5-7.3-9.5-7.3s-0.2,0.3-0.6,0.7
			c-1.8,2.2-8,8.3-16.4,3.3c-1.8-1-3.6-2.6-5.5-4.7c0,0-20.4,18.2-39.3,1.5s2.9-40,25.5-37.8c7.2,0.7,13.6,3.1,19,6
			c11.7,6.3,18.8,15.1,18.8,15.1s6.5-5.8,11.6-2.2C290.1,177.7,290.1,188.6,283.5,188.6z"/>
	</g>
	<path class="st2" d="M138.1,334.7l-41.9,97.2c0,0,2.4,14.1,8.6,26.5c0,0,9.6-16.1,49.9-14.7l-4.8-10.9l24.1-37.9c0,0,0-0.7,0-2.1"
		/>
	<path class="st30" d="M300.3,546.3c14.1-33.1,6-92,6-92l26.8-2.5c2.2,51.8,4.9,94.6,4.9,94.6L300.3,546.3z"/>
	<g>
		<ellipse class="st7" cx="232.8" cy="225.2" rx="3.8" ry="5.9"/>
		<ellipse class="st8" cx="232.7" cy="226.7" rx="2.5" ry="4.4"/>
	</g>
	<g>
		<ellipse class="st7" cx="263.1" cy="225.2" rx="3.8" ry="5.9"/>
		<ellipse class="st8" cx="263" cy="226.7" rx="2.5" ry="4.4"/>
	</g>
	<polygon class="st7" points="182.8,415.7 208.8,408.9 222.3,468.6 196.2,474.5 	"/>
	<ellipse class="st32" cx="229" cy="248.4" rx="7.6" ry="8.4"/>
	<ellipse class="st32" cx="267.7" cy="248.4" rx="7.6" ry="8.4"/>
	<path class="st30" d="M170.6,545.8l-12.4,0c2-2,15.6-16.5,19.5-36.8C177.7,509,184.1,524.9,170.6,545.8z"/>
	<circle class="st42" cx="301.3" cy="200.3" r="3.6"/>
	<path class="st24" d="M283.5,188.6c0,0,9.1,19.3-4.7,30.9c0,0-1.8-20-6.9-25.8c-0.2-0.2-0.4-0.5-0.6-0.7c-1.8,2.2-8,8.3-16.4,3.3
		c17.5-5.7-0.3-20.1-0.3-20.1c6-3.8,3.6-10-0.1-15c11.7,6.3,18.8,15.1,18.8,15.1s6.5-5.8,11.6-2.2
		C290.1,177.7,290.1,188.6,283.5,188.6z"/>
	<path class="st32" d="M330.4,439.5c-0.2,6-2.6,10.4-9.1,9.6c-18.5-2.1-89.4-48.9-89.4-48.9c-31.9,1.2-35.9-13.1-36.3-17.6
		c0-0.3-0.1-0.6-0.1-0.8c2.3,2.5,13.9,13.4,38.6,9.8C234.1,391.7,303,434.8,330.4,439.5z"/>
</g>
<g>
	<path class="st28" d="M637.7,367.6c0.3,3.2,3.3,6.7,6.5,6.4c3.2-0.3,5.5-3.2,5.2-6.4c-0.3-3.2-3.2-5.5-6.4-5.2
		C639.9,362.7,637.4,364.4,637.7,367.6z"/>
	<g>
		
			<ellipse transform="matrix(0.9952 -9.758255e-02 9.758255e-02 0.9952 -32.8522 64.5701)" class="st7" cx="643.7" cy="368.1" rx="4.3" ry="4.3"/>
		
			<ellipse transform="matrix(0.9952 -9.758255e-02 9.758255e-02 0.9952 -32.8915 64.5845)" class="st4" cx="643.8" cy="368.6" rx="3.4" ry="3.4"/>
		
			<ellipse transform="matrix(0.9952 -9.758255e-02 9.758255e-02 0.9952 -32.6658 64.5074)" class="st7" cx="643.1" cy="366.2" rx="1.2" ry="1.2"/>
	</g>
</g>
<path class="st22" d="M619.4,491.7c-4.8,0.8-15.9-2.8-19.4-8.6c-4.9-8-6.7-16.8-6.7-16.8s-2.3-2.6-4.4-6.6l2.3-3.6
	c6.7,8.4,10.9,22.7,14.3,26.9C607.9,485.9,615.3,489.7,619.4,491.7z"/>
<g>
	<path class="st43" d="M300,449.7c0,0-2.5,7.1,7.6,6.9s0.8-17.9,0.8-17.9L300,449.7z"/>
	<path class="st43" d="M519.5,445.5c0,0,4.2,6.7-21,2.5l7.6-15.1C506,432.9,519.5,443,519.5,445.5z"/>
	<path class="st8" d="M445.1,245c0,0,1.7,5.9,5,10.9c3.4,5,11.8,8.4,5,18.5s12.6,0.8,12.6,29.4s-119.4,23.5-118.5,0.8
		c0.8-22.7,24.4-21,18.5-40.4c-5.9-19.3,36.2-41.2,36.2-41.2L445.1,245z"/>
	<path class="st44" d="M299.6,450.1c7.6-7.4,22.1-11.7,39.8-14.2c15.2-2.1,32.8-2.9,50.4-3.1c27.5-0.3,55,0.8,73.7,0.5
		c44.6-0.8,55.9,12.2,55.9,12.2c-1.7-68.1-13.9-115.6-17.2-126.5c-2.5-8.3-24.3-14.6-34.7-17.2c-3.4-0.8-5.6-1.3-5.6-1.3l-29.9,0.3
		l-46.4,0.4l-21.2,0.2c0,0-5.9,0.3-13.9,2.2c-5.2,1.3-11.3,3.2-17.2,6.2c-8.1,4.1-17.2,44.3-23.9,80.6c-1.3,6.9-2.4,13.6-3.5,19.9
		C302,432.8,299.6,450.1,299.6,450.1z"/>
	<path class="st45" d="M384.5,256.8c0,0,1.7,11.8-1.7,16c-3.4,4.2-14.3,15.1-10.9,24.4c3.4,9.2,32.8-0.8,32.8-0.8l-5.9-35.3
		L384.5,256.8z"/>
	<path class="st45" d="M435.4,253c0,0,0.8,9.2,5,16.8c4.2,7.6,1.7,8.4,2.5,15.1c0.8,6.7,11.8,12.6,11.8,12.6l-37-2.5l-0.6-25.4
		L435.4,253z"/>
	<path class="st46" d="M436.7,250c1.6-0.2,3-0.5,4.3-0.8c14.4-3.9,13.7-17.2,10.2-22.5c-0.6-0.9-1.3-1.6-1.9-1.9
		c-5-2.5-9.2,2.5-9.2,2.5L436.7,250z"/>
	<polygon class="st47" points="469.9,364 474.1,414.4 465.7,420.3 	"/>
	<polygon class="st47" points="370.7,361.9 336.2,370.7 338.7,385.8 351.3,411.9 377.4,389.2 	"/>
	<path class="st47" d="M431.2,384.1c0,0,1.7,46.2,39.1,48.3l-22.3,4.6l-18.9-10.9l-3.4-38.3L431.2,384.1z"/>
	<path class="st47" d="M451,354.7l-7.6-6.7h10.1l14-46.2c-3.4-0.8-5.6-1.3-5.6-1.3l-29.9,0.3l-20.5,117L451,354.7z"/>
	<path class="st47" d="M362.7,348.3h9.2l-6.7,5.1l38.7,66l-18.3-118.3l-21.2,0.2c0,0-5.9,0.3-13.9,2.2L362.7,348.3z"/>
	<path class="st46" d="M377.6,249.6c0.2,0.1,0.4,0.2,0.7,0.3c1.1,0.4,2.4,0.7,3.7,1c0,0,0,0,0.1,0l-0.1-0.7l-3.3-20.3
		c0,0-4.6-8.5-8.7-4c-0.2,0.2-0.4,0.4-0.6,0.7c-0.1,0.1-0.2,0.2-0.2,0.4C365.7,232.3,366.8,245.1,377.6,249.6z"/>
	<polygon class="st44" points="410.6,456.9 413.1,546.8 504.8,547.7 494.8,481.3 493,469.5 433.3,460.3 	"/>
	<polygon class="st44" points="317.3,546 395.5,546.7 413.1,546.8 410.6,456.9 362.6,459.8 330.9,461.8 329.1,461.9 327.7,471.9 	
		"/>
	<path class="st47" d="M433.3,460.3l17.2,11.2c25.6,9.6,38.3,10.4,44.2,9.7l-1.8-11.8L433.3,460.3z"/>
	<polygon class="st47" points="413.5,546.4 408.5,473.3 404.3,473.3 399.8,547 	"/>
	<path class="st47" d="M327.7,471.9c16,0.6,34.6-2.8,34.6-2.8l0.3-9.2l-31.7,2l-1.8,0.1L327.7,471.9z"/>
	<polygon class="st46" points="385.4,291.2 396.8,372.3 400.5,398.9 416.5,400.5 422.7,359.8 433.3,290.4 427.4,288.7 426.6,270.2 
		404.5,268.6 392.1,267.7 392,271.5 391.7,278.1 391.3,289.5 389.9,289.9 	"/>
	<polygon class="st47" points="447.2,461.5 450.5,471.6 366,490.9 357.2,459.8 433.7,453.9 	"/>
	<path class="st6" d="M392,271.5l12.5-2.9l22.1,1.6l0.8,18.5l5.9,1.7l-10.6,69.4l-5.8,1.7c10.9-67.3,3.4-77.4,3.4-77.4
		c-16.6,2.4-24.7-1.9-28.6-6L392,271.5z"/>
	<path class="st48" d="M369.2,226.8c3,2.9,7.5,9.4,8.4,22.8c0.2,0.1,0.4,0.2,0.7,0.3c1.1,0.4,2.4,0.7,3.7,1l-0.1-0.7l-3.3-20.3
		c0,0-4.6-8.5-8.7-4c-0.2,0.2-0.4,0.4-0.6,0.7C369.3,226.6,369.2,226.7,369.2,226.8z"/>
	<path class="st40" d="M433.2,312.6l-7.1,24.9l-6.6,23.2l-14,49.4l-16.4-96.8c0,0,10.2,10.4,33.3,3.5c2.3-0.7,4.8-1.6,7.3-2.6
		C430.8,313.7,432,313.2,433.2,312.6z"/>
	<path class="st48" d="M436.7,250c1.6-0.2,3-0.5,4.3-0.8c2.3-13.5,6.8-19.7,10.2-22.5c-0.6-0.9-1.3-1.6-1.9-1.9
		c-5-2.5-9.2,2.5-9.2,2.5L436.7,250z"/>
	<path class="st26" d="M429.7,314.2l-3.6,23.3l-3.4,22.2l-3.2,0.9l-2.6,0.7c3.1-19.1,4.7-33.7,5.4-44.6
		C424.7,316.1,427.1,315.3,429.7,314.2z"/>
	<path class="st46" d="M376.9,230c0,0.2,0,0.5,0,0.7c1.7,32.8,16.8,50.4,33.6,48.8c16.8-1.7,26.8-10,31.9-54.2c0-0.1,0-0.3,0.1-0.4
		c5-44.6-25.2-42.9-25.2-42.9C388.1,172.7,375.5,197.5,376.9,230z"/>
	<g>
		<ellipse class="st7" cx="424.5" cy="234.5" rx="3.8" ry="5.9"/>
		<ellipse class="st8" cx="424.6" cy="235.9" rx="2.5" ry="4.4"/>
	</g>
	<polygon class="st49" points="430.4,289.4 464.4,299.6 450.1,346.7 440,346.7 447.6,353.4 408.1,416.5 	"/>
	<polygon class="st49" points="387.9,288.7 354.3,301.3 366.9,346.7 376.1,346.7 369.4,351.8 408.1,416.5 	"/>
	<path class="st43" d="M388.3,364c0,0,0.8-11.8-9.2-11.8s-9.2,10.1-9.2,10.1l2.1,6.7L388.3,364z"/>
	<polygon class="st50" points="340.8,373.6 342,378.4 352,419.5 359.7,451.4 364,469.4 368.6,488 446.8,469.5 440.3,442.1 
		435.8,423 419.4,353.4 	"/>
	<g>
		<path class="st8" d="M419.4,218.5c0.7-0.9,1.8-1.5,3-1.7c1.2-0.3,2.4-0.1,3.5,0.2c1.1,0.3,2.1,0.9,3.1,1.6
			c0.4,0.4,0.9,0.7,1.2,1.1c0.4,0.4,0.7,0.9,1,1.4c-0.5-0.2-1-0.5-1.5-0.7c-0.5-0.2-1-0.4-1.4-0.7c-1-0.4-1.9-0.8-2.8-1.1
			C423.5,218,421.6,217.8,419.4,218.5z"/>
	</g>
	<path class="st51" d="M411.4,249.2c0,0-2.1,3.8-5,0"/>
	<path class="st52" d="M413.1,261c0,0-3.4,3.4-7.6,0"/>
	<path class="st51" d="M410.6,266c0,0-1.7,1.7-3.4,0"/>
	<path class="st8" d="M376.9,230c2.3-1,7.2-2.9,15.2-5.1c11.8-3.4,27.7-11.8,27.7-32.8c0,0,1.5,24.3,22.7,33.2c0-0.1,0-0.3,0.1-0.4
		c5-44.6-25.2-42.9-25.2-42.9C388.1,172.7,375.5,197.5,376.9,230z"/>
	<g>
		<path class="st8" d="M425.7,181.1c3.1,0.4,6.1,1.7,8.8,3.4c2.7,1.8,5.1,4.1,6.8,6.8l0.3,0.5l0.3,0.5l0.6,1.1l0.6,1.1
			c0.2,0.4,0.3,0.7,0.4,1.1c0.3,0.8,0.6,1.5,0.8,2.3c0.2,0.8,0.4,1.6,0.5,2.3c0.1,0.4,0.2,0.8,0.2,1.2l0.1,1.2l0.2,2.4
			c0,1.6-0.1,3.2-0.3,4.7c-0.2-1.6-0.3-3.1-0.5-4.6l-0.4-2.3l-0.2-1.1c-0.1-0.4-0.2-0.7-0.3-1.1c-0.2-0.7-0.4-1.5-0.6-2.2
			c-0.3-0.7-0.6-1.4-0.9-2.1c-0.2-0.3-0.3-0.7-0.4-1l-0.5-1l-0.5-1l-0.3-0.5l-0.3-0.5l-1.3-1.9l-1.5-1.7c-0.5-0.6-1.1-1.1-1.6-1.6
			c-0.5-0.5-1.2-1-1.7-1.5C431.4,183.7,428.7,182.2,425.7,181.1z"/>
	</g>
	<g>
		<path class="st8" d="M376.1,204.6c-0.1,1.5-0.2,3-0.4,4.5c-0.1,1.5-0.3,2.9-0.4,4.4l-0.4,4.4c-0.1,1.5-0.2,2.9-0.5,4.5
			c-0.5-1.5-0.7-3-0.8-4.5c-0.1-1.5-0.1-3,0-4.5c0.1-1.5,0.4-3,0.8-4.5C374.9,207.4,375.4,206,376.1,204.6z"/>
	</g>
	<path class="st42" d="M458.5,534.2c4.5,0.3,7.9-0.9,10.5-3.1c11.4-9.6,6.3-38.1,6.3-38.1H440C437.5,500.6,434.1,532.5,458.5,534.2z
		"/>
	<path class="st42" d="M364.4,535.1c3.5-0.3,6.3-1.2,8.7-2.5c16.5-9.2,8.1-39.5,8.1-39.5l-34.5-0.8c0,0-0.5,2.2-1,5.7
		C344.1,510,342.8,537,364.4,535.1z"/>
	<polygon class="st7" points="349.8,382.4 352.6,393.9 360.6,427.1 372.8,477.5 437.8,462.1 432.9,441 428.5,422.7 415.1,365.6 	"/>
	<path class="st53" d="M359.7,451.4l4.4,18c26.4-1.5,73.8-7.3,73.8-7.3l-2-14.5L359.7,451.4z"/>
	<path class="st18" d="M402.2,366.1L361,377l-0.8-3.4l13.5-4.2c0,0-6.7-13.5,3.4-16s10.1,12.6,10.1,12.6l14.3-3.4L402.2,366.1z"/>
	<path class="st46" d="M301.9,448.2c0,2.1,0.1,4.5,0.8,6.8c0.7,2.7,2.1,5.4,4.4,7.8c6.1,6.1,74.8,1.6,112.5-1.3
		c4.5-0.4,8.6-0.7,12-1c2.8-0.2,5.1-0.4,7.1-0.6c3.5-0.3,5.4-0.5,5.4-0.5l-5.1-2l-1.2-0.5l-3.3-1.3L376,433.2
		c-12.8,0.4-25.3,1.3-36.6,2.8C323.4,438.2,310,442,301.9,448.2z"/>
	<circle class="st54" cx="378.7" cy="360.2" r="3.4"/>
	<path class="st47" d="M305.8,410.3c17.4,1.4,11.5,12,27.8,22.6c1.5,1,3.4,2,5.8,3.1c15.2-2.1,32.8-2.9,50.4-3.1l-35.2-8.4
		l-15.1-35.3l-30.2,1.2C308.1,397.2,306.9,404,305.8,410.3z"/>
	<g>
		<path class="st8" d="M461.1,269.4c-0.5,1.1-0.9,2.2-1.3,3.3c-0.3,1.1-0.5,2.1-0.4,3.1c0,0.5,0.2,1,0.3,1.5
			c0.1,0.2,0.2,0.5,0.3,0.7c0.1,0.2,0.3,0.4,0.4,0.7c0.3,0.5,0.7,0.8,1.1,1.3c0.4,0.4,0.9,0.8,1.3,1.3c-0.6-0.1-1.2-0.3-1.8-0.6
			c-0.5-0.3-1.1-0.6-1.6-1.1c-0.5-0.4-0.9-1-1.2-1.6c-0.1-0.3-0.2-0.6-0.3-1c-0.1-0.3-0.1-0.7-0.2-1c-0.1-1.4,0.3-2.7,0.9-3.8
			C459.2,271,460,270.1,461.1,269.4z"/>
	</g>
	<g>
		<path class="st8" d="M366.9,268.5c0.5,0.8,0.6,1.9,0.4,2.8c-0.2,1-0.7,1.9-1.2,2.7c-1.2,1.6-2.8,2.8-4.5,3.7
			c-1.7,1-3.4,1.7-5.2,2.4c-1.7,0.6-3.3,1.5-4.6,2.6c-2.8,2.2-4.5,5.6-5.3,9.1c-0.4,1.8-0.6,3.6-0.7,5.5c-0.1,1.9,0,3.7,0.2,5.6
			c-1-3.6-1.4-7.5-0.7-11.3c0.3-1.9,0.9-3.8,1.8-5.6c0.9-1.8,2.2-3.3,3.7-4.6c1.5-1.3,3.3-2.2,5.2-2.8c0.9-0.3,1.7-0.6,2.6-1
			c0.8-0.4,1.7-0.7,2.5-1.1c1.6-0.8,3.2-1.8,4.5-3.1c0.6-0.7,1.1-1.4,1.4-2.3C367.1,270.4,367.2,269.4,366.9,268.5z"/>
	</g>
	<g>
		<ellipse class="st7" cx="394.2" cy="234.5" rx="3.8" ry="5.9"/>
		<ellipse class="st8" cx="394.3" cy="235.9" rx="2.5" ry="4.4"/>
	</g>
	<path class="st55" d="M342,378.4l10,41.1l12.8,11.3l75.5,11.3l-4.5-19.1c-14.7-0.6-56.7-3-66.4-9.9
		C361.6,407.6,349.3,389.8,342,378.4z"/>
	<path class="st56" d="M352.6,393.9l8.1,33.2l4.2,3.7l68.1,10.2l-4.3-18.3c-18.1-1-50.8-3.6-59.1-9.6
		C364.7,409.8,358.4,402,352.6,393.9z"/>
	<g>
		<line class="st57" x1="419.4" y1="412.7" x2="368.1" y2="426.2"/>
		<line class="st57" x1="421.1" y1="421.1" x2="369.8" y2="434.6"/>
		<line class="st57" x1="416.9" y1="404.3" x2="365.6" y2="417.8"/>
		<line class="st57" x1="411" y1="379.1" x2="359.7" y2="392.5"/>
		<line class="st57" x1="412.7" y1="387.5" x2="361.4" y2="401"/>
		<line class="st57" x1="415.2" y1="395.9" x2="363.9" y2="409.4"/>
	</g>
	<path class="st46" d="M329.9,393c0,0-25.2,1.7-26.9,5c-1.7,3.4,26.1,1.7,26.1,1.7s-18,2.2-20.7,4.6c-0.2,0.1-0.3,0.3-0.3,0.4
		c-0.8,2.5,21,0.8,21,0.8s8.4,21.9,26.1,26.9c0,0,5.6,2.4,14.8,6.1c29.1,11.7,94.4,36.1,134,36.8c0,0,6.9-5.2,9.9-17.3
		c1.2-4.8,1.3-8.7,0.6-15.9c0,0-4-3.5-17.9-6.3c-1.7-0.4-3.6-0.7-5.7-1c0,0-13.9-1.7-32.6-4.1c-26.2-3.3-61.9-7.9-82.2-10.5
		c-7.6-1-13.1-1.7-15.1-2c0,0-24.4-39.5-26.9-39.5s-28.6-2.5-30.3,0c-1.7,2.5,23.5,5,26.1,8.4c0,0-28.6,0-28.6,2.5
		S329.9,393,329.9,393z"/>
	<path class="st47" d="M317.3,546l78.2,0.7c-49.9-21.8-63.9-84.8-63.9-84.8l-0.7-0.1l-1.8,0.1L317.3,546z"/>
	<path class="st48" d="M302.7,455c0.7,2.7,2.1,5.4,4.4,7.8c7.4,7.4,107.1-0.8,131.6-2.9l0.3-2.4l0.1-0.6c-0.4,0-0.8,0.1-1.2,0.1
		C336.8,465.5,309.3,457.9,302.7,455z"/>
	<path class="st6" d="M339.5,436c18.5,8.6,61,20.3,80.3,25.5c4.5-0.4,8.6-0.7,12-1l3-4.8l-74.9-24.5
		C346.9,431.6,350.7,434.4,339.5,436z"/>
	<path class="st48" d="M513.8,458c-3,12.2-9.9,17.3-9.9,17.3c-17.3-0.3-39.6-5.1-61.6-11.5c-0.8-0.2-1.6-0.4-2.4-0.7
		c-7.7-2.3-15.3-4.7-22.6-7.1c-0.6-0.2-1.2-0.4-1.8-0.6c-4.4-1.5-8.7-3-12.9-4.5c-0.5-0.2-0.9-0.3-1.4-0.5
		c-26.4-9.5-46.2-18.1-46.2-18.1c-17.6-5-26.1-26.9-26.1-26.9s-21.9,1.7-21-0.8c0-0.2,0.2-0.3,0.3-0.4h25.3
		c12.6,23.5,26.1,23.5,26.1,23.5c15.4,5.5,29.3,10.2,41.9,14c0.5,0.1,0.9,0.3,1.4,0.4c1.9,0.6,3.8,1.1,5.6,1.7
		c0.4,0.1,0.9,0.3,1.3,0.4c0.5,0.1,0.9,0.3,1.3,0.4c0.9,0.3,1.8,0.5,2.7,0.8c0.4,0.1,0.7,0.2,1.1,0.3c0.1,0,0.1,0,0.2,0.1
		c2.4,0.7,4.7,1.3,7,2c0.3,0.1,0.6,0.2,0.9,0.3c0.6,0.2,1.2,0.3,1.7,0.5c0.4,0.1,0.8,0.2,1.2,0.3c0.3,0.1,0.7,0.2,1,0.3
		c3.8,1,7.5,1.9,11,2.8c0.1,0,0.2,0,0.3,0.1c0.3,0.1,0.7,0.2,1,0.3c0.3,0.1,0.6,0.1,0.9,0.2C490.8,464.5,509,460,513.8,458z"/>
	<path class="st43" d="M458.1,431.2c0,0,5.1-16.6,9.3-20c4.2-3.4,32.2-10.2,38.2-8.5c5.9,1.7-27.1,12.7-27.1,12.7s27.1-3.4,28,0
		c0.8,3.4-26.3,5.9-26.3,5.9s23.7,0,23.7,3.4c0,3.4-27.1,4.2-27.1,4.2s22.9,3.4,21.2,5.9C496.3,437.5,481,437.2,458.1,431.2z"/>
	<path class="st58" d="M458.1,431.2c19.8,5.1,33.9,6.1,38.5,4.6c-1.7-0.4-3.6-0.7-5.7-1c0,0-13.9-1.7-32.6-4.1
		C458.2,431,458.1,431.2,458.1,431.2z"/>
	<path class="st23" d="M301.3,389.6c1.3,3.8,28.6,3.4,28.6,3.4s-27.3,0.8-27.3,5.5c0,3.6,13.3,2.7,21.1,1.9
		c-6.1,0.8-15.2,2.4-16,4.5c0,0.1-0.1,0.2-0.1,0.3c0,2.7,14.3,1.3,19.5,0.7c1.1-0.1,2.1,0.5,2.5,1.5c2.1,5.5,9.5,22.2,24.2,26.4
		c0,0,8.4,3.9,17.7,7.6c0.2-1.8,0.6-5,1.4-8.6c1.1-4.6,2.8-10,5.3-14.1c-1.1-0.1-2.3-0.3-3.5-0.4c-3.8-0.5-7.9-1-10-1.2
		c-2.5-0.3-4.6-1.2-5.9-3.4c-5.9-9.5-19.3-31.9-24.8-34.9c-2.2-1.2-29.8-5.1-30.3,0c-0.4,4.2,18.9,4.9,24.7,7.5
		c0.4,0.2,0.2,0.8-0.2,0.7C322.3,386.2,299.6,384.5,301.3,389.6z"/>
	<path class="st23" d="M454.8,430.2c0,0.1,0,0.2,0.1,0.2c22.5,5.8,37.6,6.3,39.6,3.8c0,0,0.1-0.1,0.1-0.1c0.1-0.2-0.1-0.4-0.1-0.7
		c0.6-3-19.8-5.1-21.1-5.3c1.4,0.1,28.3,2,27.1-4.3c-0.5-2.7-15.8-3.2-21.5-3.4c-0.2,0-0.2-0.3,0-0.3c6.4-0.8,24.7-3.1,25.4-5.9
		c1.7-6.7-27.5,0-29.2,0.2c1.6-0.5,31.6-7,27.1-12.7c-1.8-2.3-33.9,5.1-38.2,8.5c0,0-0.1,0.1-0.1,0.1c-0.3,0.3-0.6,0.6-0.9,1
		C459.3,416.1,455.2,428.8,454.8,430.2z"/>
	<path class="st59" d="M364.4,535.1c3.5-0.3,6.3-1.2,8.7-2.5c-12.1-10.3-20.9-22.9-27.3-34.6C344.1,510,342.8,537,364.4,535.1z"/>
	<path class="st59" d="M458.5,534.2c4.5,0.3,7.9-0.9,10.5-3.1c-21.7-5.7-26.5-29.7-27.5-38.1H440
		C437.5,500.6,434.1,532.5,458.5,534.2z"/>
	<g>
		<g>
			<path class="st60" d="M383.7,330.7c0,0,0.8-36.2,6.7-44.6"/>
			<path class="st60" d="M434.1,287c0,0,7.6,0,11.8,55.5"/>
			<path class="st60" d="M458.3,399.2c4.1-0.2,7.3-3.7,7.1-7.8l-1.6-33.3c-0.4-9-8.2-16-17.2-15.6h0c-9,0.4-16,8.2-15.6,17.2
				l1.6,33.3c0.2,4.1,3.7,7.3,7.8,7.1"/>
			<path class="st61" d="M432,379.9l0.6,13.2c0.2,4.1,3.7,7.3,7.8,7.1"/>
			<path class="st61" d="M458.3,399.2c4.1-0.2,7.3-3.7,7.1-7.8l-0.6-13.4"/>
			
				<ellipse transform="matrix(0.9988 -4.847723e-02 4.847723e-02 0.9988 -18.8495 21.9251)" class="st45" cx="442.6" cy="399.6" rx="2.9" ry="2.9"/>
			
				<ellipse transform="matrix(0.9988 -4.847723e-02 4.847723e-02 0.9988 -18.8041 22.5758)" class="st45" cx="456" cy="399" rx="2.9" ry="2.9"/>
		</g>
		<g>
			<circle class="st62" cx="383.7" cy="339.2" r="10.1"/>
			<circle class="st63" cx="383.7" cy="339.2" r="4.6"/>
		</g>
	</g>
	<circle class="st48" cx="425.3" cy="255.5" r="6.7"/>
	<circle class="st48" cx="393.4" cy="255.5" r="6.7"/>
	<g>
		<path class="st64" d="M419.7,188.7c0,0-6.2,0-10.9,16.4c-4.7,16.4-21.9,14.1-21.9,14.1"/>
		<path class="st64" d="M410.3,190.2c0,0-6.2,3.1-7,7.8c-0.8,4.7-10.1,11.7-10.1,11.7"/>
		<path class="st64" d="M396.3,192.6c0,0-9.4,7.8-10.1,15.6c-0.8,7.8-7,13.3-7,13.3"/>
		<path class="st64" d="M426.7,199.6c0,0,0.8,7,6.2,10.9"/>
		<path class="st64" d="M425.9,188.7c0,0,11.7,9.4,13.3,25.8"/>
	</g>
	<path class="st26" d="M454.8,430.2c0,0.1,0,0.2,0.1,0.2c22.5,5.8,37.6,6.3,39.6,3.8l-0.3-0.5c0,0-37.9,4.7-30.3-23.2
		c-0.3,0.3-0.6,0.6-0.9,1C459.3,416.1,455.2,428.8,454.8,430.2z"/>
	<path class="st26" d="M307.6,405.2c0.1,2.7,14.3,1.3,19.5,0.6c1.1-0.1,2.1,0.5,2.5,1.5c2.1,5.5,9.5,22.2,24.2,26.4
		c0,0,8.4,3.9,17.7,7.6c0.2-1.8,0.6-5,1.4-8.6c-1.2,0.1-25.3,2.5-40.2-28.3c-1-2-3.2-3.2-5.5-2.8l-19.4,3.2
		C307.8,405,307.7,405,307.6,405.2z"/>
	<g>
		<path class="st65" d="M443.2,462.7l-4.8-6.6c0.2-0.5,0.6-1.2,0.8-2.3c0.1-0.3,0.1-0.6,0.2-0.9l0,0c0-0.1,0-0.2,0-0.3
			c0-0.1,0-0.2,0-0.3c0-0.3,0-0.6,0-0.9v0c0-1.4-0.3-3-1.3-4.7l0,0c-0.4-0.7-0.9-1.5-1.5-2.2c-0.9-1.1-2-2.1-3.4-3.2
			c0,0-3.2-1.6-3.9-3.9c-0.1-0.2-0.3-0.4-0.5-0.5c-0.2,0-3.7-0.7-7.2,0.1c0,0-0.1,0-0.1,0h0c-0.5,0.1-1,0.2-1.5,0.4
			c-0.1,0-0.2,0.1-0.3,0.1c0,0,0,0,0,0c-0.8,0.3-1.7,0.8-2.4,1.3c-1.5,1.2-2.5,2.7-3,4.6c0,0.1,0,0.2-0.1,0.2
			c-0.1,0.3-0.1,0.5-0.2,0.8v0c0,0.3-0.1,0.5-0.1,0.9c0,0.2,0,0.3,0,0.5c0,0.1,0,0.2,0,0.4c-0.1,2.7,0.3,5.1,0.9,7.1
			c0.2,0.7,0.5,1.4,0.8,2c0.6,0.2,1.2,0.4,1.8,0.6c-1.3-2.3-2.3-5.5-2.1-9.6l0-0.5c0-0.5,0.1-1,0.2-1.5c0-0.1,0-0.2,0.1-0.2
			c0.4-1.7,1.3-3.1,2.6-4.1c0.4-0.3,0.8-0.5,1.2-0.8c0.1,0,0.1-0.1,0.2-0.1h0c0,0,0.1,0,0.1,0l0,0c0.3-0.1,0.5-0.2,0.8-0.3
			c0,0,0,0,0,0c0.1-0.1,0.3-0.1,0.4-0.2l0,0c2-0.6,4.1-0.7,5.6-0.6c0.8,0,1.4,0.1,1.7,0.2c1.1,2.6,4.3,4.3,4.4,4.3
			c1.2,0.9,2.1,1.8,2.8,2.6c0,0,0,0,0,0c0.2,0.1,0.3,0.3,0.4,0.5l0,0v0c1.9,2.4,2.3,4.6,2.2,6.4c0,0.1,0,0.2,0,0.3
			c0,0.4-0.1,0.7-0.2,1.1c-0.3,1.4-0.9,2.3-0.9,2.4c-0.2,0.2-0.1,0.5,0,0.8l4.5,6.2l-1.6,0.5c0.8,0.2,1.6,0.5,2.4,0.7l0.6-0.2
			c0.2-0.1,0.4-0.2,0.4-0.4C443.4,463.1,443.3,462.9,443.2,462.7z"/>
		<path class="st65" d="M435.5,445.2c-0.1-0.2,0-0.3,0-0.5c0.2-0.3,0.6-0.5,0.9-0.3l9.2,4.4c0.2,0.1,0.4,0.4,0.4,0.6
			c0,0.3-0.2,0.5-0.4,0.6l-6.4,3c-0.3,0.2-0.7,0-0.9-0.3c-0.2-0.3,0-0.7,0.3-0.9l5.1-2.4l-7.9-3.8
			C435.7,445.5,435.6,445.4,435.5,445.2z"/>
		<path class="st65" d="M415.2,445.4c0,0.2-0.1,0.3-0.2,0.4c-0.1,0.1-0.3,0.2-0.5,0.2c-0.2,0-0.4,0-0.6,0c-2.9,0-9,0.4-10.8,2.9
			c-0.5,0.6-0.6,1.3-0.5,2.1c-0.5-0.2-0.9-0.3-1.4-0.5c0-0.9,0.3-1.7,0.8-2.4c0.3-0.4,0.7-0.8,1.2-1.1c0.4-0.3,0.8-0.5,1.2-0.7h0
			c0.8-0.4,1.8-0.7,2.7-0.9h0c0.9-0.2,1.7-0.3,2.5-0.4h0c0.6-0.1,1.1-0.1,1.6-0.2c1.2-0.1,2.2-0.1,2.8-0.1c0.3,0,0.5,0,0.5,0
			C415,444.8,415.2,445.1,415.2,445.4z"/>
		<path class="st65" d="M402.1,444.4c-0.6-2-0.6-3.8,0-5.4c1.4-3.4,5.3-4.5,5.4-4.5c0.3-0.1,0.6,0.1,0.8,0.3c2.1,4,2.6,7.2,1.7,9.4
			c-0.7,1.8-2.2,2.3-2.2,2.3c-0.4,0.1-0.7-0.1-0.9-0.4c-0.1-0.4,0.1-0.7,0.4-0.9c0.1,0,0.9-0.3,1.4-1.5c0.5-1.2,0.6-3.5-1.4-7.7
			c-1,0.4-3.1,1.4-4,3.5c-0.8,1.9-0.4,4.2,1.1,7c0.2,0.3,0.1,0.7-0.3,0.9c-0.3,0.2-0.7,0.1-0.9-0.3
			C402.8,446.2,402.4,445.3,402.1,444.4z"/>
		<path class="st65" d="M409.1,441.6c0-0.1,0-0.1,0-0.2c0.1-5.7,9.8-8.9,10.2-9c0.2-0.1,0.5,0,0.7,0.2c0.1,0.1,1.9,1.9,1.7,4
			c-0.1,1-0.6,1.9-1.6,2.6c-0.3,0.2-0.7,0.2-0.9-0.1c-0.2-0.3-0.2-0.7,0.1-0.9c0.6-0.5,1-1,1-1.6c0.1-1.1-0.7-2.2-1.1-2.7
			c-1.8,0.7-8.8,3.5-8.9,7.6c0,0.4-0.3,0.7-0.7,0.7C409.4,442,409.1,441.9,409.1,441.6z"/>
		<path class="st65" d="M433.2,446.5c-0.4-1.1-1.6-1.8-2.7-1.4c-0.8,0.3-1.4,1-1.5,1.9c0,0,0,0,0,0c0,0.3,0,0.5,0.1,0.8
			c0.4,1.1,1.6,1.8,2.7,1.4c0.5-0.2,0.9-0.5,1.2-0.9C433.3,447.8,433.4,447.2,433.2,446.5z M432,448c-0.1,0.2-0.3,0.3-0.5,0.4
			c-0.6,0.2-1.4-0.2-1.5-0.8c0-0.1,0-0.2-0.1-0.3c-0.1-0.6,0.3-1.1,0.9-1.3c0.6-0.2,1.3,0.2,1.5,0.8
			C432.5,447.3,432.3,447.7,432,448z"/>
		<path class="st65" d="M419.7,451.2c-0.2-0.2-0.1-0.5,0.2-0.7c3.1-2.4,3.9-5.7,3.9-5.8c0.1-0.3,0.3-0.5,0.6-0.5
			c0.3,0,0.5,0.2,0.4,0.5c0,0.2-0.9,3.8-4.4,6.5C420.2,451.4,419.9,451.4,419.7,451.2z"/>
		<path class="st65" d="M426.7,452.6c-0.2,0-0.4-0.3-0.4-0.6c0.4-3.9-1.5-6.8-1.5-6.8c-0.2-0.2-0.1-0.6,0.1-0.8
			c0.2-0.2,0.5-0.2,0.6,0.1c0.1,0.1,2.1,3.2,1.7,7.6C427.2,452.4,426.9,452.6,426.7,452.6z"/>
		<path class="st66" d="M424.8,444.8c0,0,1,5.1-1.2,9.3"/>
	</g>
</g>
<line class="st67" x1="92.6" y1="545.3" x2="715.7" y2="545.3"/>
<circle class="st42" cx="521.4" cy="99.2" r="43.1"/>
<circle class="st42" cx="409.1" cy="122.3" r="34.4"/>
<circle class="st42" cx="297.2" cy="96.6" r="43.6"/>
<g>
	<path class="st68" d="M540.8,102.4h-7.3V77.3c0-2,1.6-3.7,3.7-3.7l0,0c2,0,3.7,1.6,3.7,3.7V102.4z"/>
	<path class="st68" d="M533.4,102.4v21.4c0,0,8.9,2.1,7.3-17.3l-1.6-0.5v-3.8L533.4,102.4z"/>
	<line class="st68" x1="533.6" y1="99.1" x2="540.6" y2="99.1"/>
	<line class="st68" x1="533.8" y1="95.5" x2="540.2" y2="95.5"/>
	<line class="st68" x1="540.8" y1="91.8" x2="537.1" y2="91.8"/>
	<line class="st68" x1="537.1" y1="110.8" x2="537.1" y2="116"/>
	<line class="st68" x1="512" y1="114.5" x2="515.3" y2="112.9"/>
	<path class="st68" d="M525.1,117.9c0,1.3-1.1,2.4-2.4,2.4c-1.3,0-2.4-1.1-2.4-2.4c0-1.3,1.1-2.4,2.4-2.4"/>
	<path class="st68" d="M510.1,82l2.8-7.8c0,0,4.2,1,3.7,5.8l-4.4,12.2"/>
	<path class="st68" d="M508,92.2l-7.6,21.2c-3.5-1.5-5.5-0.4-6.7,1.2c-1.8,2.4-1.3,5.8,1.1,7.6c1.5,1,2.9,1,4.1,0.6
		c1.7-0.6,3-2,3.7-3.7l7.5-20.9"/>
	<line class="st68" x1="508.3" y1="114.5" x2="505" y2="112.9"/>
	<path class="st68" d="M495.2,117.9c0,1.3,1.1,2.4,2.4,2.4s2.4-1.1,2.4-2.4c0-1.3-1.1-2.4-2.4-2.4"/>
	<path class="st68" d="M519.8,113.4l-7.8-22l1-1.6l-5.8-15.7c0,0-4.2,1-3.7,5.8l14,39c0.6,1.7,1.9,3.1,3.7,3.7
		c1.2,0.4,2.7,0.5,4.1-0.6c2.4-1.7,2.9-5.2,1.1-7.6C525.4,113,523.3,111.9,519.8,113.4z"/>
</g>
<g>
	<polygon class="st69" points="405.1,145.5 386.5,127 410.1,103.3 424.7,106.7 428.7,121.7 	"/>
	<circle class="st69" cx="417.8" cy="113.9" r="3.3"/>
	<line class="st69" x1="397.5" y1="126.6" x2="414.5" y2="124.7"/>
	<circle class="st69" cx="405.1" cy="119.1" r="3.3"/>
	<circle class="st69" cx="406.9" cy="132.3" r="3.3"/>
	<line class="st69" x1="420.6" y1="111.1" x2="430.5" y2="101.2"/>
</g>
<g>
	
		<rect x="288.3" y="73.6" transform="matrix(0.7071 0.7071 -0.7071 0.7071 144.8648 -183.2801)" class="st70" width="10.8" height="19.3"/>
	
		<rect x="300.1" y="70.3" transform="matrix(0.7071 0.7071 -0.7071 0.7071 140.7713 -192.6983)" class="st70" width="5.9" height="6.5"/>
	
		<rect x="302.4" y="67.9" transform="matrix(0.7071 0.7071 -0.7071 0.7071 139.2103 -196.4668)" class="st70" width="8.8" height="3.9"/>
	
		<rect x="276.7" y="89.6" transform="matrix(0.7071 0.7071 -0.7071 0.7071 148.2754 -174.9492)" class="st70" width="17.3" height="3.9"/>
	<circle class="st70" cx="304.5" cy="101.7" r="3.4"/>
	<path class="st70" d="M315.2,125.4h-39.5v-1.4c0-3.5,2.9-6.4,6.4-6.4h26.8c3.5,0,6.4,2.9,6.4,6.4V125.4z"/>
	<path class="st70" d="M307.6,117.6c0.2-0.7,0.3-1.4,0.3-2.1c0-4-2.8-7.3-6.2-7.3s-6.2,3.3-6.2,7.3c0,0.7,0.1,1.4,0.3,2.1H307.6z"/>
	<path class="st70" d="M295.8,112.6h-13.6v-0.3c0-2.1,1.8-3.9,3.9-3.9h16"/>
	<path class="st70" d="M297.7,87.1c0,0,11.2,9.1,6.6,22"/>
	<path class="st70" d="M302,82.7c0,0,16.5,13.3,5.6,34.6"/>
</g>
<circle class="st42" cx="492.2" cy="159.2" r="8.7"/>
<circle class="st42" cx="305.4" cy="163.3" r="8.7"/>
<circle class="st42" cx="388" cy="170" r="5.1"/>
<circle class="st42" cx="518.4" cy="182.3" r="5.1"/>
<line class="st71" x1="405.1" y1="235.1" x2="411.8" y2="235.1"/>
<circle class="st71" cx="392.9" cy="235.5" r="12.2"/>
<circle class="st71" cx="424" cy="235.5" r="12.2"/>
<polygon class="st30" points="170.8,400.6 192,355.7 180.7,396.8 "/>
</svg>
