<?xml version="1.0" encoding="utf-8"?>
<!-- Generator: Adobe Illustrator 21.1.0, SVG Export Plug-In . SVG Version: 6.00 Build 0)  -->
<svg version="1.1" id="Слой_2" xmlns="http://www.w3.org/2000/svg" xmlns:xlink="http://www.w3.org/1999/xlink" x="0px" y="0px"
	 viewBox="0 0 800 600" style="enable-background:new 0 0 800 600;" xml:space="preserve">
<style type="text/css">
	.st0{fill:#3080C1;}
	.st1{fill:#ADADAD;}
	.st2{fill:#D6E4F2;}
	.st3{fill:none;stroke:#3080C1;stroke-width:2.3557;stroke-linecap:round;stroke-miterlimit:10;}
	.st4{fill:#FC99A6;}
	.st5{fill:#EA8193;}
	.st6{fill:#EEF7FF;}
	.st7{fill:#5699E8;}
	.st8{fill:#6BACED;}
</style>
<g>
	<path class="st0" d="M339,371.7c0,0-71.4-2.1-64.7-80.2s-4.3,13.3,75.3,39.4L339,371.7z"/>
	<path class="st1" d="M299,327.6l-38.2,11.7c-10.3,3.2-21.2-2.6-24.3-12.9l-29.3-95.3c-3.2-10.3,2.6-21.2,12.9-24.3l38.2-11.7
		c10.3-3.2,21.2,2.6,24.3,12.9l29.3,95.3C315,313.6,309.2,324.4,299,327.6z"/>
	
		<rect x="231.6" y="218.1" transform="matrix(0.956 -0.2935 0.2935 0.956 -66.999 87.9435)" class="st2" width="55.9" height="98.2"/>
	<path class="st0" d="M309.6,259.5c0,0-15.7-10.5-26.2,0c-10.5,10.5-15.7,31.4,7.8,28.8S309.6,259.5,309.6,259.5z"/>
	<g>
		<path class="st3" d="M351,214.4c0,0-15.2-8.6-19.7-7.3c-10.1,3-52.8-11.6-69.1-18.8"/>
		<path class="st3" d="M347.4,224.3c0,0-9.8-3.6-23.1-4.1c-13.3-0.4-29.8-4.3-29.8-4.3"/>
		<path class="st3" d="M344.9,231.9c0,0-21.1,1.5-37.7,1c-16.6-0.5-46.7,5.2-63.2,4.6"/>
	</g>
	<g>
		<path class="st4" d="M438.8,301.4c6.7,20.8-20,27.2-48.7,14.8c-7.1-3-14.3-7.2-21.2-12.6c-34.7-27.2-1.9-19.8-1.9-19.8
			s31.8-27.3,51.9-29.6c5.4-0.7,10,0.5,12.9,4.6C445.3,277.6,434.3,287.3,438.8,301.4z"/>
		
			<ellipse transform="matrix(0.9788 -0.2046 0.2046 0.9788 -52.5788 79.0132)" class="st5" cx="355.8" cy="293.7" rx="17.4" ry="20.6"/>
		<path class="st4" d="M343.6,303.1c-1.1,1.4-2.4,2.9-3.8,4.5c-26.3,30.2-66.4,36.9-68.7,15.9c-0.2-1.2-0.2-2.4,0-3.8
			c1.2-13.8-11.7-20.4-2.8-40.4c8.9-20,68.9,9.8,68.9,9.8S364.5,277,343.6,303.1z"/>
		<path class="st5" d="M343.6,303.1c-1.1,1.4-2.4,2.9-3.8,4.5c-26.3,30.2-66.4,36.9-68.7,15.9c11.2,5.8,40.9,14.6,66.1-33.5
			L343.6,303.1z"/>
		<path class="st4" d="M370,290.8c2.3,11.1-3.4,21.7-12.9,23.7s-18.9-5.4-21.3-16.6c-0.4-1.7-0.5-3.3-0.5-4.9c0-3.3,0.7-6.4,1.9-9.2
			c2.2-4.9,6.3-8.5,11.4-9.6c5.1-1.1,10.3,0.6,14.3,4.2c2.9,2.6,5.2,6.2,6.5,10.4C369.7,289.4,369.8,290.1,370,290.8z"/>
		<path class="st5" d="M438.8,301.4c6.7,20.8-20,27.2-48.7,14.8c25.3,6.2,38.1-2.7,36-12.9c-2.5-12.2-2.5-12.2,0-28.6
			c1.6-10.6-3.4-17.2-7.1-20.5c5.4-0.7,10,0.5,12.9,4.6C445.3,277.6,434.3,287.3,438.8,301.4z"/>
		
			<ellipse transform="matrix(0.9788 -0.2046 0.2046 0.9788 -58.3487 66.0444)" class="st6" cx="290.2" cy="315.1" rx="5.8" ry="6.2"/>
		
			<ellipse transform="matrix(0.9788 -0.2046 0.2046 0.9788 -55.0525 69.8626)" class="st6" cx="310.3" cy="301.1" rx="5.8" ry="6.2"/>
		<ellipse transform="matrix(0.9788 -0.2046 0.2046 0.9788 -53.1625 64.04)" class="st6" cx="283.1" cy="289.1" rx="5.8" ry="6.2"/>
		
			<ellipse transform="matrix(0.9788 -0.2046 0.2046 0.9788 -54.3474 78.9504)" class="st6" cx="354.6" cy="302.3" rx="5.8" ry="6.2"/>
		<path class="st6" d="M369.5,288.8c-0.7,0.7-1.6,1.1-2.6,1.3c-3.1,0.7-6.3-1.6-7-4.9c-0.6-2.8,0.8-5.6,3.1-6.8
			C365.9,281,368.2,284.6,369.5,288.8z"/>
		<path class="st6" d="M345.7,288.2c0.7,3.4-1.3,6.6-4.4,7.3c-2.3,0.5-4.6-0.6-5.9-2.5c0-3.3,0.7-6.4,1.9-9.2
			c0.4-0.2,0.9-0.4,1.4-0.5C341.9,282.6,345,284.8,345.7,288.2z"/>
	</g>
	<path class="st0" d="M343.5,100c0,0,2.4,30.6-11.8,43.6l28.3-13C360,130.6,355.3,104.7,343.5,100z"/>
	<path class="st0" d="M328,403.4c0,0-5.1,0.4,1.9,18.5c7.1,18.1,4.7,41.9,4.7,41.9s-18.8,3.3-23.6,16.9l44.8,1.1
		c0,0,11.8-35.1,9.4-44.1C362.9,428.6,328,403.4,328,403.4z"/>
	<path class="st7" d="M557.9,488.7c0,0-37.5,1.6-82.2,1.2c-4.3,0-8.6-0.1-13-0.2c-10.5-0.2-21.3-0.5-32-1
		c-17.4-0.9-34.4-2.1-49.5-4.1c-28.6-3.7-47.3-42.4-59.2-90.4c-3.5-14.3-6.4-29.3-8.8-44.5c-0.6-3.6-1.1-7.1-1.6-10.6
		c-1-7.2-2-14.5-2.8-21.7c-0.3-2.1-0.5-4.2-0.7-6.3c-0.4-3.7-0.8-7.4-1.1-11c-3.6-38.3-4.3-72.8-3.5-91.8c1-24.3,9.2-42.9,21.1-56.8
		c17-19.8,41.6-29.9,63.7-32.7c5.6-0.7,11.4-0.8,17.1-0.4c51.2,4.1,101.2,54.3,105.4,137c1.5,28.8,8.3,46.8,17.7,59.1c0,0,0,0,0,0.1
		c0.8,1,1.6,2.1,2.5,3c3.6,4.1,7.5,7.6,11.5,10.5C613,379.8,557.9,488.7,557.9,488.7z"/>
	<path class="st0" d="M442.4,104.7c0,0-9.4,14.1-21.2,18.8l14.1,7.1C435.4,130.6,447.2,125.9,442.4,104.7z"/>
	<path class="st7" d="M442.4,104.7c0,0,15.3,24.7,13,41.2l-25.9-9.4C429.5,136.5,442.4,118.8,442.4,104.7z"/>
	<path class="st0" d="M557.9,488.7c0,0-37.5,1.6-82.2,1.2c-4.3,0-8.6-0.1-13-0.2c-10.5-0.2-21.3-0.5-32-1
		c-17.4-0.9-34.4-2.1-49.5-4.1c-28.6-3.7-47.3-42.4-59.2-90.4c-3.5-14.3-6.4-29.3-8.8-44.5c-0.6-3.6-1.1-7.1-1.6-10.6
		c16.3,32.8,66,110.2,165.4,95.7c108.6-15.8,65.1-98.3,51.5-120.2c4.3,5.5,9,9.9,14,13.6C613,379.8,557.9,488.7,557.9,488.7z"/>
	<path class="st7" d="M343.5,100c0,0,23.5,8.5,25.7,23.6c0.1,0.8,0.2,1.5,0.2,2.3c0,16.5-18.8,9.4-18.8,9.4S357.6,121.2,343.5,100z"
		/>
	<path class="st7" d="M503.2,486.3c0,0,0.3,0.1,1.1,0.2c3.9,0.6,20.3,2.2,78.3,2.2c29.3,0,52.2-0.8,67.2-3.3
		c21-3.5,26.5-10.2,12.3-22.6c-15.7-13.7-61.9-14.6-92.8-13.6c0,0,0,0,0,0c-17.1,0.6-29.4,1.8-29.4,1.8l-36.4,35.1L503.2,486.3z"/>
	<path class="st0" d="M503.4,486.1l0.9,0.4c3.9,0.6,20.3,2.2,78.3,2.2c29.3,0,52.2-0.8,67.2-3.3C626.1,486,547,487,544.4,471
		c-1.5-9.1,11.2-16.5,24.8-21.8c-17.1,0.6-29.4,1.8-29.4,1.8L503.4,486.1z"/>
	<path class="st8" d="M531,317.6c-82.6-4.6-67.3-93.4-103.7-141.8c-30.5-40.6-81.5-30.8-102.7-24.3c17-19.8,41.6-29.9,63.7-32.7
		c5.6-0.7,11.4-0.8,17.1-0.4c51.2,4.1,101.2,54.3,105.4,137c1.5,28.8,8.3,46.8,17.7,59.1c0,0,0,0,0,0.1
		C529.3,315.6,530.1,316.6,531,317.6z"/>
	<path class="st0" d="M253.4,209.1l-21.3,6.6c-0.9,0.3-1.9-0.2-2.2-1.2l0,0c-0.3-0.9,0.2-1.9,1.2-2.2l21.3-6.6
		c0.9-0.3,1.9,0.2,2.2,1.2v0C254.8,207.8,254.3,208.8,253.4,209.1z"/>
</g>
</svg>
