<?xml version="1.0" encoding="utf-8"?>
<!-- Generator: Adobe Illustrator 21.1.0, SVG Export Plug-In . SVG Version: 6.00 Build 0)  -->
<svg version="1.1" id="Слой_2" xmlns="http://www.w3.org/2000/svg" xmlns:xlink="http://www.w3.org/1999/xlink" x="0px" y="0px"
	 viewBox="0 0 800 600" style="enable-background:new 0 0 800 600;" xml:space="preserve">
<style type="text/css">
	.st0{fill:#FFEEF2;}
	.st1{fill:url(#SVGID_1_);}
	.st2{fill:#5097EA;}
	.st3{fill:url(#SVGID_2_);}
	.st4{fill:url(#SVGID_3_);}
	.st5{fill:url(#SVGID_4_);}
	.st6{fill:#FFFFFF;}
	.st7{fill:url(#SVGID_5_);}
	.st8{fill:url(#SVGID_6_);}
	.st9{fill:url(#SVGID_7_);}
	.st10{fill:none;stroke:#000000;stroke-width:1.3113;stroke-miterlimit:10;}
	.st11{fill:#FC99A6;}
	.st12{fill:none;stroke:#FFFFFF;stroke-width:1.3113;stroke-miterlimit:10;}
	.st13{fill:none;stroke:#8EBEEF;stroke-width:5.2003;stroke-linecap:round;stroke-linejoin:round;stroke-miterlimit:10;}
	.st14{fill:#5699E8;}
	.st15{fill:#3080C1;}
	.st16{fill:#70ABE5;}
	.st17{fill:#3281E1;}
	.st18{fill:none;stroke:#3080C1;stroke-width:2.2516;stroke-linecap:round;stroke-linejoin:round;stroke-miterlimit:10;}
	.st19{fill:#FFFBEA;}
	.st20{fill:#0A4599;}
	.st21{fill:none;stroke:#FFFFFF;stroke-width:0.7505;stroke-linecap:round;stroke-linejoin:round;stroke-miterlimit:10;}
	.st22{fill:none;stroke:#FFFFFF;stroke-width:0.7505;stroke-linecap:round;stroke-miterlimit:10;}
	.st23{fill:#EA8193;}
	.st24{fill:#EEF7FF;}
	.st25{fill:#A3653B;}
	.st26{fill:#FFDCA2;}
	.st27{fill:#EAC083;}
	.st28{fill:none;stroke:#F2CA91;stroke-width:0.6852;stroke-linecap:round;stroke-linejoin:round;stroke-miterlimit:10;}
	.st29{fill:#D3915B;}
	.st30{fill:#6F4E2F;}
	.st31{fill:#E85336;}
	.st32{fill:#FEAC00;}
	.st33{fill:#CC3117;}
	.st34{fill:none;stroke:#EAC083;stroke-width:1.3703;stroke-linecap:round;stroke-linejoin:round;stroke-miterlimit:10;}
	.st35{fill:#BA2C0F;}
	.st36{fill:none;stroke:#BA2C0F;stroke-width:0.4234;stroke-miterlimit:10;}
	.st37{fill:none;stroke:#6F4E2F;stroke-width:0.4234;stroke-linecap:round;stroke-linejoin:round;stroke-miterlimit:10;}
	.st38{fill:#F2CA91;}
	.st39{fill:none;stroke:#6F4E2F;stroke-width:0.8462;stroke-miterlimit:10;}
</style>
<path class="st0" d="M139.1,477.4c0,0-63.4-80.1-20.8-162.2s160.2-66.6,203.9-106.1s132.1-90.5,221.5-47.8s193.5,199.7,67.6,316.2
	H139.1z"/>
<linearGradient id="SVGID_1_" gradientUnits="userSpaceOnUse" x1="387.628" y1="176.3093" x2="388.6681" y2="475.8471">
	<stop  offset="0" style="stop-color:#94E5FF"/>
	<stop  offset="1" style="stop-color:#71A8EB"/>
</linearGradient>
<path class="st1" d="M449.7,304.7c-0.4-4.2-0.9-8.3-1.4-12.4c-0.8-6.1-1.8-12-3-17.7c-1.3-6.8-2.9-13.2-4.7-19.4
	c-11.3-39.1-30.6-64.9-52.5-64.9c-34.7,0-62.9,64.7-62.9,144.6s28.2,144.6,62.9,144.6c31.7,0,57.9-53.8,62.3-123.8
	c0.4-5.4,0.6-11,0.6-16.6c0-1.4,0-2.8,0-4.2C451.1,324.6,450.6,314.5,449.7,304.7z M388.2,451.4c-22.7,0-41.1-52.4-41.1-117
	s18.4-117,41.1-117c19.1,0,35.2,37.3,39.8,87.7c0.5,5.9,0.9,12,1.1,18.3c0.1,3.6,0.2,7.3,0.2,11C429.3,399,410.9,451.4,388.2,451.4z
	"/>
<path class="st2" d="M438.6,314.1c0,5.2-3.7,9.4-8.3,9.4c-0.4,0-0.8,0-1.2-0.1c-0.2-6.2-0.6-12.3-1.1-18.3c0.7-0.2,1.5-0.4,2.3-0.4
	C434.9,304.8,438.6,309,438.6,314.1z"/>
<path class="st2" d="M449.7,304.7c-0.2,0-0.5,0-0.7,0c-3.4,0-6.2-2.8-6.2-6.2c0-3.2,2.4-5.9,5.5-6.2
	C448.9,296.4,449.3,300.5,449.7,304.7z"/>
<path class="st2" d="M445.4,274.6c-5.5-0.3-9.9-4.8-9.9-10.4c0-3.8,2.1-7.2,5.2-9C442.5,261.4,444,267.8,445.4,274.6z"/>
<circle class="st2" cx="431.3" cy="288.1" r="2.1"/>
<path class="st2" d="M451.1,339.1c-0.1,5.6-0.3,11.1-0.6,16.6c-0.1,0-0.3,0-0.4,0c-4.6,0-8.3-3.7-8.3-8.3c0-4.6,3.7-8.3,8.3-8.3
	C450.4,339.1,450.7,339.1,451.1,339.1z"/>
<g>
	<linearGradient id="SVGID_2_" gradientUnits="userSpaceOnUse" x1="224.8891" y1="171.1107" x2="224.8891" y2="499.7702">
		<stop  offset="0" style="stop-color:#94E5FF"/>
		<stop  offset="1" style="stop-color:#71A8EB"/>
	</linearGradient>
	<polygon class="st3" points="236.8,189.3 236.8,477.4 212.9,477.4 212.9,240.3 	"/>
	<linearGradient id="SVGID_3_" gradientUnits="userSpaceOnUse" x1="118.1728" y1="439.473" x2="306.5339" y2="439.473">
		<stop  offset="0" style="stop-color:#94E5FF"/>
		<stop  offset="1" style="stop-color:#71A8EB"/>
	</linearGradient>
	<path class="st4" d="M118.3,450.4h188.3v-21.8H127.6C127.6,428.5,117,451.7,118.3,450.4z"/>
	<linearGradient id="SVGID_4_" gradientUnits="userSpaceOnUse" x1="93.3213" y1="319.8395" x2="236.8498" y2="319.8395">
		<stop  offset="0" style="stop-color:#94E5FF"/>
		<stop  offset="1" style="stop-color:#71A8EB"/>
	</linearGradient>
	<path class="st5" d="M236.8,189.3l-25.6,56.3l-1.4,3.1c0,0,0,0,0,0c0,0,0,0,0,0c0,0,0,0,0,0l-4.4,9.7l-1,2.1l-48.3,106.3l-0.9,2.1
		v0l-9,19.8l-0.8,1.8l-27.2,59.8h-25l14.4-32.1c0,0,0,0,0,0l2.7-5.9c0,0,0,0,0,0l18.5-41.1l1.2-2.7l17.4-38.7l1.1-2.5v0l31.5-69.9
		c0,0,0,0,0,0c0,0,0,0,0,0v0l1.3-2.9l11.4-25.4l1.3-2.8v0l16.7-37H236.8z"/>
	<g>
		<path class="st6" d="M146.3,388.8l-0.8,1.8c-5.9,3.2-13.7,14.4-20.2,23.7c-3.8,5.5-7.2,10.2-9.6,12.6c-5.6,5.6-7.4,18.4-7.9,23.5
			h-1.3c0.5-5.1,2.3-18.4,8.3-24.4c2.3-2.3,5.6-7,9.4-12.4C131.5,403,139.8,391.2,146.3,388.8z"/>
		<path class="st6" d="M156.2,366.9l-0.9,2.1v0c-3.3,2-7.4,4.7-11.6,8.1c-5.2,4.2-8.9,9.4-12.1,14.1c-3.3,4.7-6.1,8.8-9.8,10.9
			c-3.4,1.9-9,9.2-13.9,16.2l2.7-5.9c0,0,0,0,0,0c3.9-5.2,7.9-9.8,10.6-11.4c3.5-2,6.2-5.9,9.4-10.5c3.3-4.7,7-10.1,12.3-14.4
			C147.8,372,152.6,369,156.2,366.9z"/>
		<path class="st6" d="M193.8,245.5c-0.7,8.8-3.5,38.7-11.5,51.3c-3,4.7-5.4,9.7-8.3,15.5c-3.9,8.1-8.4,17.2-15.7,28.2
			c-8.4,12.6-21.7,24.4-29.4,30.7l1.2-2.7c7.8-6.5,19.4-17.3,27.1-28.7c7.3-10.9,11.7-20,15.6-28c2.8-5.8,5.3-10.9,8.3-15.7
			c7.9-12.3,10.7-41.9,11.3-50.7c0.4-5.8,0.5-11.6,0.4-16.3l1.3-2.8C194.3,231.5,194.4,238.5,193.8,245.5z"/>
		<path class="st6" d="M179.2,277.9c-1.6,4.7-4.4,9.4-6.9,13.6c-2.6,4.2-5,8.3-5.5,11.3c-1,6.3-13.3,23.3-19.2,27l1.1-2.5v0
			c5.9-5.2,15.9-19.4,16.8-24.7c0.6-3.3,3-7.4,5.7-11.8c2.5-4.1,5.3-8.8,6.8-13.3c1.7-5.2,2.2-13.6,2.2-20.1c0,0,0,0,0,0
			c0,0,0,0,0,0v0l1.3-2.9C181.6,261.1,181.3,271.7,179.2,277.9z"/>
		<path class="st6" d="M210.4,209.3c-4.2,10.4-8.3,24.8-7.2,34c0.6,5.4,1.6,11.3,2.3,15.1l-1,2.1c-0.7-3.7-1.9-10.7-2.6-17.1
			c-1-9.4,3.1-24.1,7.3-34.6c2.8-7,5.2-15.1,6.4-19.5h1.4C215.8,193.7,213.3,202,210.4,209.3z"/>
		<path class="st6" d="M229.7,189.3c-5.6,3.8-11.5,9.5-12,16.7c-0.5,7.3-2.1,11.6-3.5,15.3c-1.4,3.9-2.8,7.5-2.8,13.7
			c0,3.6-0.1,7.2-0.2,10.5l-1.4,3.1c0.2-4.1,0.3-8.9,0.3-13.6c0-6.5,1.4-10.2,2.8-14.2c1.4-3.9,2.9-7.9,3.4-15
			c0.5-7.1,5.6-12.7,11-16.6H229.7z"/>
	</g>
</g>
<g>
	<linearGradient id="SVGID_5_" gradientUnits="userSpaceOnUse" x1="587.8705" y1="171.1107" x2="587.8705" y2="499.7702">
		<stop  offset="0" style="stop-color:#94E5FF"/>
		<stop  offset="1" style="stop-color:#71A8EB"/>
	</linearGradient>
	<polygon class="st7" points="599.8,189.3 599.8,477.4 575.9,477.4 575.9,240.3 	"/>
	<linearGradient id="SVGID_6_" gradientUnits="userSpaceOnUse" x1="481.1543" y1="439.473" x2="669.5154" y2="439.473">
		<stop  offset="0" style="stop-color:#94E5FF"/>
		<stop  offset="1" style="stop-color:#71A8EB"/>
	</linearGradient>
	<path class="st8" d="M481.3,450.4h188.3v-21.8H490.6C490.6,428.5,480,451.7,481.3,450.4z"/>
	<linearGradient id="SVGID_7_" gradientUnits="userSpaceOnUse" x1="456.3028" y1="319.8395" x2="599.8313" y2="319.8395">
		<stop  offset="0" style="stop-color:#94E5FF"/>
		<stop  offset="1" style="stop-color:#71A8EB"/>
	</linearGradient>
	<path class="st9" d="M599.8,189.3l-25.6,56.3l-1.4,3.1c0,0,0,0,0,0c0,0,0,0,0,0c0,0,0,0,0,0l-4.4,9.7l-1,2.1l-48.3,106.3l-0.9,2.1
		v0l-9,19.8l-0.8,1.8l-27.2,59.8h-25l14.4-32.1c0,0,0,0,0,0l2.7-5.9c0,0,0,0,0,0l18.5-41.1l1.2-2.7l17.4-38.7l1.1-2.5v0l31.5-69.9
		c0,0,0,0,0,0c0,0,0,0,0,0v0l1.3-2.9l11.4-25.4l1.3-2.8v0l16.7-37H599.8z"/>
	<g>
		<path class="st6" d="M509.2,388.8l-0.8,1.8c-5.9,3.2-13.7,14.4-20.2,23.7c-3.8,5.5-7.2,10.2-9.6,12.6c-5.6,5.6-7.4,18.4-7.9,23.5
			h-1.3c0.5-5.1,2.3-18.4,8.3-24.4c2.3-2.3,5.6-7,9.4-12.4C494.5,403,502.8,391.2,509.2,388.8z"/>
		<path class="st6" d="M519.2,366.9l-0.9,2.1v0c-3.3,2-7.4,4.7-11.6,8.1c-5.2,4.2-8.9,9.4-12.1,14.1c-3.3,4.7-6.1,8.8-9.8,10.9
			c-3.4,1.9-9,9.2-13.9,16.2l2.7-5.9c0,0,0,0,0,0c3.9-5.2,7.9-9.8,10.6-11.4c3.5-2,6.2-5.9,9.4-10.5c3.3-4.7,7-10.1,12.3-14.4
			C510.8,372,515.6,369,519.2,366.9z"/>
		<path class="st6" d="M556.8,245.5c-0.7,8.8-3.5,38.7-11.5,51.3c-3,4.7-5.4,9.7-8.3,15.5c-3.9,8.1-8.4,17.2-15.7,28.2
			c-8.4,12.6-21.7,24.4-29.4,30.7l1.2-2.7c7.8-6.5,19.4-17.3,27.1-28.7c7.3-10.9,11.7-20,15.6-28c2.8-5.8,5.3-10.9,8.3-15.7
			c7.9-12.3,10.7-41.9,11.3-50.7c0.4-5.8,0.5-11.6,0.4-16.3l1.3-2.8C557.3,231.5,557.3,238.5,556.8,245.5z"/>
		<path class="st6" d="M542.2,277.9c-1.6,4.7-4.4,9.4-6.9,13.6c-2.6,4.2-5,8.3-5.5,11.3c-1,6.3-13.3,23.3-19.2,27l1.1-2.5v0
			c5.9-5.2,15.9-19.4,16.8-24.7c0.6-3.3,3-7.4,5.7-11.8c2.5-4.1,5.3-8.8,6.8-13.3c1.7-5.2,2.2-13.6,2.2-20.1c0,0,0,0,0,0
			c0,0,0,0,0,0v0l1.3-2.9C544.6,261.1,544.3,271.7,542.2,277.9z"/>
		<path class="st6" d="M573.4,209.3c-4.2,10.4-8.3,24.8-7.2,34c0.6,5.4,1.6,11.3,2.3,15.1l-1,2.1c-0.7-3.7-1.9-10.7-2.6-17.1
			c-1-9.4,3.1-24.1,7.3-34.6c2.8-7,5.2-15.1,6.4-19.5h1.4C578.7,193.7,576.3,202,573.4,209.3z"/>
		<path class="st6" d="M592.7,189.3c-5.6,3.8-11.5,9.5-12,16.7c-0.5,7.3-2.1,11.6-3.5,15.3c-1.4,3.9-2.8,7.5-2.8,13.7
			c0,3.6-0.1,7.2-0.2,10.5l-1.4,3.1c0.2-4.1,0.3-8.9,0.3-13.6c0-6.5,1.4-10.2,2.8-14.2c1.4-3.9,2.9-7.9,3.4-15
			c0.5-7.1,5.6-12.7,11-16.6H592.7z"/>
	</g>
</g>
<g>
	<path class="st11" d="M661.2,477.4c0,0,8.3-8.3,8.3-18.7s11.4-14.6,7.3-21.8c-4.2-7.3-5.2-13.5,2.1-20.8
		c7.3-7.3-14.6-22.9-4.2-33.3c10.4-10.4,26-8.3,28.1,2.1c2.1,10.4-6.2,19.8-2.1,27c4.2,7.3-9.4,18.7-7.3,23.9
		C695.5,441,695.5,462.8,661.2,477.4z"/>
	<path class="st11" d="M661.2,477.4c0,0-1-19.8-10.4-29.1c-9.4-9.4-19.8-25-5.2-33.3s30.9,11.1,26.9,36.2
		C668.5,476.4,661.2,477.4,661.2,477.4z"/>
	<g>
		<path class="st12" d="M661.2,477.4c33.3-27,28.1-101.9,28.1-101.9"/>
		<line class="st12" x1="689.8" y1="386.8" x2="695.3" y2="377"/>
		<line class="st12" x1="689.4" y1="398.5" x2="674.7" y2="382.8"/>
		<line class="st12" x1="688.1" y1="415.2" x2="699.9" y2="404.1"/>
		<line class="st12" x1="685.6" y1="428.7" x2="701.2" y2="416.2"/>
		<line class="st12" x1="686.7" y1="421.1" x2="678.9" y2="410.8"/>
		<line class="st12" x1="673.8" y1="424.9" x2="683.2" y2="440.1"/>
		<line class="st12" x1="681.1" y1="447.4" x2="694" y2="440.1"/>
		<line class="st12" x1="675.9" y1="457.8" x2="691.9" y2="451.9"/>
		<line class="st12" x1="679" y1="451.9" x2="675.6" y2="445"/>
		<path class="st12" d="M645.6,415c0,0,30.5,24.6,16.8,60.2"/>
		<path class="st12" d="M661.4,435.6c0,0-14.7-0.5-22.5-6.9"/>
		<path class="st12" d="M656.9,427c0,0,1.6-10.9-1.7-13.5"/>
		<path class="st12" d="M664.1,442.9c0,0,6.9-10.7,4.3-20.6"/>
		<path class="st12" d="M666.6,453.7c0,0,5-4,6.6-13.5"/>
		<path class="st12" d="M665.9,451.6c0,0-7.8-5.7-16.6-5.5"/>
		<path class="st12" d="M665.4,462.8c0,0-4.5-3.1-7.5-2.6"/>
	</g>
</g>
<line class="st13" x1="723.1" y1="477.9" x2="747" y2="477.9"/>
<g>
	<path class="st14" d="M153,475.2c0,0-0.1,0-0.3,0.1c-1,0.2-5,0.7-19.2,0.7c-7.2,0-12.8-0.3-16.5-1.1c-5.2-1.1-6.5-3.3-3-7.2
		c3.9-4.4,15.2-4.7,22.8-4.3c0,0,0,0,0,0c4.2,0.2,7.2,0.6,7.2,0.6L153,475.2L153,475.2z"/>
	<path class="st15" d="M216.1,352.1c0,0-0.8,9.8,3.8,13.9l-9-4.1C210.8,361.9,212.3,353.6,216.1,352.1z"/>
	<path class="st15" d="M225.1,432.4c0,0-0.8,18-3,24s-1.5,16.5-1.5,16.5s6-1.5,7.5,3l-14.3,0.4c0,0-3.8-11.6-3-14.6
		S225.1,432.4,225.1,432.4z"/>
	<path class="st14" d="M147.8,475.9c0,0,11.9,0.5,26.2,0.4c1.4,0,2.7,0,4.1-0.1c3.4-0.1,6.8-0.2,10.2-0.3c5.5-0.3,11-0.7,15.8-1.3
		c9.1-1.2,15.1-13.5,18.9-28.8c1.9-7.8,3.3-16.3,4.2-24.5c0.1-0.7,0.1-1.3,0.2-2c0.1-1.2,0.2-2.3,0.3-3.5
		c1.1-12.2,1.4-23.2,1.1-29.2c-0.7-18.8-15.1-27-27-28.5c-1.8-0.2-3.6-0.3-5.4-0.1c-16.3,1.3-32.2,17.3-33.6,43.6
		c-0.7,13.4-5.1,19.2-10.1,23.2c-1.8,1.4-3.7,2.6-5.5,3.8c-4.1,2.7-7.7,5.4-9.1,11.4C134.3,455.7,147.8,475.9,147.8,475.9z"/>
	<path class="st16" d="M196.4,358c-6.7,2.1-16.7,4.2-24.2,19.3c-8.4,16.8-4.5,45-19.5,47.5c5-3.9,9.4-9.8,10.1-23.2
		C164.1,375.3,180.1,359.3,196.4,358z"/>
	<path class="st17" d="M227.4,419.4c-2.7,25-9.2,53.4-23.3,55.3c-7.7,1-17.1,1.5-26,1.6l-0.7-16.5
		C208.9,464.8,222,437.9,227.4,419.4z"/>
	<path class="st15" d="M222.9,445.8c-3.8,15.3-9.7,27.6-18.9,28.8c-4.8,0.6-10.2,1-15.8,1.3l-3.6-3.6
		C206.6,472.6,217.6,458.1,222.9,445.8z"/>
	<path class="st14" d="M193.4,475.4c0.6-7.3-10.3-5.1-10.3-5.1c10.5-15.4,1.5-32.6,1.5-32.6l-15.4-0.4l7.1,39L193.4,475.4z"/>
	<path class="st14" d="M208.6,451.9l-4.5,21c0,0,7.5-3.8,9,3l-16.5,0.9l-1.5-20.5C195.1,456.4,196.6,445.2,208.6,451.9z"/>
	<path class="st18" d="M184.5,437.7c0,0,9,17.3-1.5,32.6c0,0,10.9-2.3,10.3,5.1"/>
	<path class="st15" d="M184.5,353.6c0,0,3,4.5,6.8,6l-4.5,2.3C186.8,361.9,183,360.4,184.5,353.6z"/>
	<path class="st14" d="M184.5,353.6c0,0-4.9,7.9-4.1,13.1l8.3-3C188.7,363.7,184.5,358.1,184.5,353.6z"/>
	<path class="st17" d="M183.4,372c0,0,2.3-6.8,9-6s8.3,5.3,18.8,0.8s14.3,6.5,15,9.3c0.8,2.8-1.8,13.1-10.5,10.3
		c-6.8-2.3-6-6.8-17.3,0.8C189.1,393.3,176.7,380.3,183.4,372z"/>
	<path class="st14" d="M216.1,352.1c0,0-7.5,2.7-8.2,7.5c0,0.2-0.1,0.5-0.1,0.7c0,5.3,6,3,6,3S211.6,358.9,216.1,352.1z"/>
	<ellipse class="st19" cx="192.4" cy="377.3" rx="8.6" ry="9.4"/>
	
		<ellipse transform="matrix(0.9953 -9.729116e-02 9.729116e-02 0.9953 -35.5639 22.9156)" class="st19" cx="217.2" cy="376.1" rx="7.1" ry="9"/>
	<circle class="st20" cx="196.9" cy="373.4" r="1.9"/>
	<circle class="st20" cx="220.2" cy="371.2" r="1.9"/>
	<path class="st11" d="M205.6,385.1c0,0,3.8-1.5,5.3,0s-2.3,3-2.3,3S204.8,387.4,205.6,385.1z"/>
	<polyline class="st21" points="207.1,390.4 208.6,388.1 210.8,390.4 	"/>
	<path class="st15" d="M153,475.1l-0.2,0.1c-1,0.2-5,0.7-19.2,0.7c-7.2,0-12.8-0.3-16.5-1.1c5.8,0.2,25.2,0.5,25.9-4.6
		c0.4-2.9-2.8-5.3-6.1-6.9c4.2,0.2,7.2,0.6,7.2,0.6L153,475.1z"/>
	<path class="st17" d="M182.7,412.9c0.8,2.5,0.8,6.7,0.8,6.7c7.5,9.2,20-3.3,20-3.3c6.7,5,10-0.8,10-0.8c5.9,4.5,10.7,5.7,13.6,5.9
		c0.1-0.7,0.1-1.3,0.2-2c0.1-1.2,0.2-2.3,0.3-3.5l-2.5-5.4c0,0-36.7-4.2-40-5C181.9,404.6,181.9,410.4,182.7,412.9z"/>
	<path class="st17" d="M174,476.3c-14.3,0.1-26.2-0.4-26.2-0.4s-13.5-20.3-9.8-36c1.4-5.9,5.1-8.7,9.1-11.4
		c-1.5,7.2-3.3,19.5,1.4,24.1c6.8,6.8,9.8-7.5,17.3,5.3C171.3,467.3,167.9,473.8,174,476.3z"/>
	<g>
		<path class="st22" d="M213.7,388.6c0,0,4.8-2.7,6.3-2.3c3.2,1,16.8-3.7,22-6"/>
		<path class="st22" d="M214.8,391.7c0,0,3.1-1.2,7.4-1.3c4.2-0.1,9.5-1.4,9.5-1.4"/>
		<path class="st22" d="M215.6,394.2c0,0,6.7,0.5,12,0.3c5.3-0.2,14.9,1.6,20.2,1.5"/>
		<path class="st22" d="M201.1,391.1c0,0-3.2-2-6.4-0.9c-3.1,1.2-6.4-0.9-10.6-0.7c-4.2,0.1-14.9-2.7-14.9-2.7"/>
		<path class="st22" d="M200.1,393.2c0,0-6.4-0.9-9.5,0.3s-6.3,0.2-6.3,0.2"/>
		<path class="st22" d="M199.1,396.4c0,0-6.3,1.3-12.7,1.5c-6.3,0.2-12.5,4.6-20,3.8"/>
	</g>
	<g>
		<path class="st11" d="M184.7,416.8c-0.8,5.8,7.1,6.2,14.5,1.5c1.8-1.1,3.7-2.6,5.3-4.3c8.4-8.8-0.5-5.3-0.5-5.3
			s-10.4-5.6-16.2-5.3c-1.6,0.1-2.8,0.6-3.4,1.8C181.6,410.8,185.2,412.8,184.7,416.8z"/>
		
			<ellipse transform="matrix(2.396984e-02 -0.9997 0.9997 2.396984e-02 -207.9088 608.5657)" class="st23" cx="207.7" cy="410.8" rx="5.5" ry="5"/>
		<path class="st11" d="M211.6,412.6c0.4,0.3,0.8,0.6,1.3,1c9,6.7,20.7,6.5,20.2,0.9c0-0.3-0.1-0.7-0.2-1c-1.1-3.6,2.2-5.9-1.3-10.8
			c-3.6-4.8-18.9,5.9-18.9,5.9S204.4,406.8,211.6,412.6z"/>
		<path class="st23" d="M211.6,412.6c0.4,0.3,0.8,0.6,1.3,1c9,6.7,20.7,6.5,20.2,0.9c-2.9,2.1-10.8,5.8-20.4-5.6L211.6,412.6z"/>
		<path class="st11" d="M203.5,410.7c-0.1,3,2.1,5.6,4.9,5.6s5.1-2.3,5.1-5.4c0-0.5,0-0.9-0.1-1.3c-0.2-0.9-0.5-1.7-1-2.3
			c-0.9-1.2-2.2-1.9-3.7-2c-1.5,0-2.9,0.7-3.8,1.8c-0.7,0.8-1.2,1.9-1.3,3C203.6,410.3,203.6,410.5,203.5,410.7z"/>
		<path class="st23" d="M184.7,416.8c-0.8,5.8,7.1,6.2,14.5,1.5c-6.8,2.9-10.9,1.1-10.8-1.7c0.1-3.3,0.1-3.3-1.5-7.5
			c-1-2.7,0-4.7,0.9-5.7c-1.6,0.1-2.8,0.6-3.4,1.8C181.6,410.8,185.2,412.8,184.7,416.8z"/>
		
			<ellipse transform="matrix(2.396984e-02 -0.9997 0.9997 2.396984e-02 -183.4807 625.589)" class="st24" cx="228.6" cy="406.8" rx="1.7" ry="1.7"/>
		
			<ellipse transform="matrix(2.396984e-02 -0.9997 0.9997 2.396984e-02 -192.6777 629.3766)" class="st24" cx="226" cy="413.4" rx="1.7" ry="1.7"/>
		
			<ellipse transform="matrix(2.396984e-02 -0.9997 0.9997 2.396984e-02 -193.9678 619.4459)" class="st24" cx="220.3" cy="409.1" rx="1.7" ry="1.7"/>
		
			<ellipse transform="matrix(2.396984e-02 -0.9997 0.9997 2.396984e-02 -227.8082 598.4597)" class="st24" cx="192.6" cy="415.9" rx="1.7" ry="1.7"/>
		
			<ellipse transform="matrix(2.396984e-02 -0.9997 0.9997 2.396984e-02 -220.9312 590.4701)" class="st24" cx="191.9" cy="408.4" rx="1.7" ry="1.7"/>
		
			<ellipse transform="matrix(2.396984e-02 -0.9997 0.9997 2.396984e-02 -217.9958 600.4601)" class="st24" cx="198.5" cy="411.9" rx="1.7" ry="1.7"/>
		
			<ellipse transform="matrix(2.396984e-02 -0.9997 0.9997 2.396984e-02 -209.3315 611.4799)" class="st24" cx="208.5" cy="412.9" rx="1.7" ry="1.7"/>
		<path class="st24" d="M203.6,410.1c0.2,0.1,0.5,0.2,0.8,0.2c0.9,0,1.7-0.7,1.7-1.6c0-0.8-0.5-1.4-1.2-1.6
			C204.2,407.9,203.7,408.9,203.6,410.1z"/>
		<path class="st24" d="M210.3,408.8c0,0.9,0.7,1.7,1.6,1.7c0.7,0,1.3-0.4,1.5-0.9c-0.2-0.9-0.5-1.7-1-2.3c-0.1,0-0.3-0.1-0.4-0.1
			C211,407.2,210.3,407.9,210.3,408.8z"/>
	</g>
</g>
<g>
	<path class="st25" d="M415.7,382.6c0,0-10.1,8.5-8.4,16.9c0.5,2.7,10.5,1.7,13-4.7C422.8,388.3,415.7,382.6,415.7,382.6z"/>
	<path class="st26" d="M492.8,470.8c0.2-0.1,0.3-0.3,0.5-0.5c0.6-0.6,1.2-1.6,1.4-2.6l3.6-4.3l1.1-1.3c-1.3-3.1-3-5.5-3-5.5
		l-0.4,0.6l-3.2,5c0.7,1.1,1.2,2.1,1.4,3C495.1,468.1,493.6,470,492.8,470.8z"/>
	<path class="st26" d="M492.3,471.2c0.1-0.1,0.2-0.2,0.4-0.3C492.5,471.1,492.4,471.2,492.3,471.2z"/>
	<path class="st27" d="M419.7,450.6c0,0-19,5.7-1.3,21c0,0-6.1-1.8-8,5.1c0,0,9,1.7,14.9-1.4C431.2,472.1,429.6,453.1,419.7,450.6z"
		/>
	<path class="st26" d="M420.9,428.4c-9.3,27,7.5,40.7,7.5,40.7c16.1,7.1,25.9,1.9,30-1.3c1.4-1.1,2.1-2,2.1-2c0.7,0.3,1.4,0.5,2,0.8
		c33,12.1,33-5.8,33-5.8c6.8-24.4-10.1-46.1-17.3-54c-1.9-2-3.1-3.1-3.1-3.1c0.2-4,0-7.6-0.6-11c-0.2-1.2-0.4-2.3-0.7-3.4
		c-0.1-0.3-0.2-0.6-0.2-0.9c-0.7-2.6-1.6-5-2.6-7.1c-5.1-11.2-12.9-17-12.9-17c-35-11.9-38.5,1.8-38.5,1.8c-1.6,2.9-3,5.6-4.2,8.2
		c-2.1,4.9-3.5,9.3-4.1,13.3c-3.8,22.1,12,30.1,12,30.1c-2,3.5-1.2,5.5-0.8,6.2c0.1,0.1,0.1,0.2,0.1,0.2c-0.4,0.9-0.8,1.9-1.1,2.8
		C421.2,427.3,421,427.9,420.9,428.4z"/>
	<g>
		<path class="st28" d="M432.6,393.7c0,0,0.5-12.5-7-13"/>
		<path class="st28" d="M436.2,393.6c0,0-1.6-9.7,8-13.4"/>
	</g>
	<path class="st27" d="M425.1,474.6c16.1,7.1,28.5,0.7,32.5-2.5l-1.4-5.9c0,0-24,10-36-36.4C410.9,456.8,425.1,474.6,425.1,474.6z"
		/>
	<path class="st26" d="M434.9,449.2c0,0-4.4,16.9-2.4,27.4c0,0-5.4,4.7-14-0.1c0,0,2.5-4.5,6.4-4.6c0,0-5.4-25.5-1.9-39.5
		C422.9,432.3,432.6,441.6,434.9,449.2z"/>
	<path class="st29" d="M425.3,399.9c5.1-5.1,6.2-7.1,10.3-6.4c4.1,0.8,4.6,3.2,8.1,6.5c1.9,1.9,4.6,4,3.4,7.5
		c-1.3,3.6-7.2,5.1-9-0.2c-4.9,5.6-7.1,1.8-8.5-0.2c-1.2,2.9-2.7,3.7-5.5,2.7C424,409.9,419.7,405.5,425.3,399.9z"/>
	<path class="st30" d="M436.4,397c0,0-2.3-2.2-4.4-0.2c-2.3,2.2,2.1,2.9,2.1,2.9S437.6,399.1,436.4,397z"/>
	<path class="st27" d="M424.3,418.7c0,0,11.8,14.1,25.7,0.2C450,418.9,436.7,425.2,424.3,418.7z"/>
	<path class="st27" d="M411.1,388.2c29.1-26,60.9,8.9,60.9,8.9l3.2-3.1c-0.2-1.2-0.4-2.3-0.7-3.4c-0.7-2.9-1.7-5.6-2.8-8l-30.9-13.3
		l-24.7,6.3C413.9,380.5,411.7,384.2,411.1,388.2z"/>
	<path class="st27" d="M463.1,388.3c0,0-4.5,13.8-3,15.8c1.4,2,6.9,3.3,10.9-0.9C475.1,399,463.1,388.3,463.1,388.3z"/>
	<path class="st27" d="M462.3,459.7l-8,12.7c-0.8,1.2-0.2,2.9,1.2,3.4c20,6.3,30.7,0.6,36.2-5.7c3-3.5,4.9-7.8,5.6-12.4
		c4.3-25.8-16.5-48.4-20.7-52.5c-0.5-0.4-0.8-0.5-0.8-1.1c0.2-4.4-0.2-8.5-1.1-12.2c-0.2-0.7-0.7-1.4-1.4-1.6l-1.6-0.6
		c-1.8-0.7-3.5,1-3,2.8c1.2,3.9,2.2,9.7-0.4,15.3c-1.1,2.3,1.7,4.3,3.6,2.6c0,0,0.1-0.1,0.1-0.1c1-0.9,2.5-0.8,3.3,0.2
		c4.2,5.4,14.6,19.8,14.5,31.2c0,1.8-1.9,2.8-3.4,1.9c-6.1-3.7-20-9.1-23.8,15.3C462.5,459.1,462.4,459.4,462.3,459.7z"/>
	<path class="st25" d="M467.1,382.9c0,0-6.5,17.7-4.3,19.3c2.2,1.6,10.6-0.1,12-6.9C476.1,388.5,467.1,382.9,467.1,382.9z"/>
	<path class="st31" d="M475.1,401c0,0-32.2,28.2-51.7,16.3c0,0,10.1,22.4,52.5-12.9L475.1,401z"/>
	<path class="st31" d="M411,387.5c0.2,0.7,0.3,0.6,0.7,0c2.3-3.8,9.2-9.8,22.3-10.7c12.6-0.9,25.8,5,34,13.6c4.1,4.3,7,9.4,7.8,14.6
		c0,0,5.1-1,1.4-11.9c0,0,0,0,0-0.1c0.2-0.4,1-2.1,1-4.7c0-1.9-0.1-7.6-1.5-10.2c0,0,0,0,0-0.1c0.3-3.3-0.2-6-1.3-8.4
		c0.7-0.4,1.4-0.9,1.9-1.7c0.6-0.9,0.9-2.1,0.5-3.7c-0.8-4.2-9.6-16.4-28.5-13.2c-1.8,0.3-3.7,0.7-5.7,1.3c-0.1-0.1-0.2-0.1-0.3-0.2
		c-3.9-2.1-8.3-2.3-12-1.6c-3.4,0.6-6.3,2-7.9,3.2c-3.2,2.5-2.6,8-2.2,10c-1.8,1.6-3,3.3-3.8,4.9c0,0,0,0,0,0
		c-0.4,0.8-0.7,1.6-1,2.4c0,0.1-0.1,0.2-0.1,0.2c-1.8,1.4-3.3,3.8-4.7,8.2C410.3,383.5,410.3,384.8,411,387.5z"/>
	<path class="st32" d="M426.6,373.7c0,0,12.2-2.8,21,0.4l2-8c0,0-10.6-4.5-21.1,0.4L426.6,373.7z"/>
	<path class="st26" d="M448.2,445c0,0,5.1,19.8,1.9,25.8c0,0-4.7,1.8-5.4,6.5c0,0,8.4,2.6,13.6-1.6c0,0,6.4-14.6,4-27.2L448.2,445z"
		/>
	<path class="st26" d="M466.4,478c0,0,7,1.4,14.1-0.2c0,0,0.1,0,0.1,0c5-1.1,10-3.7,12.7-9.3c0.6-1.2,1-2.4,1.3-3.6
		c2.6-11.7-9.8-20.5-9.8-20.5s-2.5-1.3-5.8-1.6c-4.2-0.4-9.8,1-12.7,9.2c-5,14.1,8.3,18.4,9,18.6C474.7,470.5,466.2,469.8,466.4,478
		z"/>
	<path class="st27" d="M421.5,427.2c4.1,2.8,8.3,3.2,8.3,3.2c-4.7-1.6-7.3-6.2-7.3-6.2l0,0c0.1,0.1,0.1,0.2,0.1,0.2
		C422.2,425.4,421.8,426.3,421.5,427.2z"/>
	<path class="st33" d="M464.9,368.5c0,0,7.3,10.5,3.1,21.9c4.1,4.3,7,9.4,7.8,14.6c0,0,5.1-1,1.4-11.9c0,0,0,0,0-0.1
		c0.2-0.4,1-2.1,1-4.7c0-1.9-0.1-7.6-1.5-10.2c0,0,0,0,0-0.1c0.3-3.3-0.2-6-1.3-8.4c0.7-0.4,1.4-0.9,1.9-1.7
		c0.6-0.9,0.9-2.1,0.5-3.7c-0.8-4.2-9.6-16.4-28.5-13.2C454.9,353.4,473.2,362,464.9,368.5z"/>
	<path class="st34" d="M448.2,445c0,0,5.1,19.8,1.9,25.8c0,0-4.7,1.8-5.4,6.5"/>
	<path class="st35" d="M462.3,377.6c10.7,5.2,14.8,15.3,14.8,15.3l0.2,0.1c0.2-0.4,1-2.1,1-4.7C469.9,379.4,462.6,377.6,462.3,377.6
		z"/>
	<path class="st36" d="M476.5,378.3c0,0-21.4-27-55.2-14.1"/>
	<path class="st37" d="M438,407.4c0,0-3.8-0.3-4-7.5c0,0-0.5,6.6-4.5,7.3"/>
	<path class="st35" d="M416.2,371.1c0.8-0.5,3.4-2.1,6.6-2.8c0.8-0.2,1.7-0.3,2.6-0.3c0,0-0.6,0-1.7,0c-1.4,0-3.7,0.2-6.5,0.7
		c0,0,0,0,0,0C416.8,369.6,416.5,370.4,416.2,371.1z"/>
	<path class="st35" d="M454.6,359.7c10,2,16,6.6,19.5,10.5c0.8-0.2,2.2-0.9,3.1-2.2C467.6,359.3,454.6,359.7,454.6,359.7z"/>
	<path class="st38" d="M480.4,477.7l0.1,0.1c0,0,0.1,0,0.1,0c5-1.1,10-3.7,12.7-9.3c0.6-1.2,1-2.4,1.3-3.6l-6.4-4.5
		C488.2,460.3,476.5,459.3,480.4,477.7z"/>
	<path class="st38" d="M480.6,477.7c5-1.1,10-3.7,12.7-9.3c6.5-13.5-8.6-24.1-8.6-24.1s-2.5-1.3-5.8-1.6
		C484,448.7,493.1,463,480.6,477.7z"/>
	<path class="st26" d="M485.1,475c0.6,0.6,1.3,1.1,2,1.5c5.3,2.6,12.9-0.8,13.8-6.2c0.5-2.7-0.4-5.7-1.4-8.3l-1.1,1.3l-3.6,4.3
		c0.1-0.8,0.1-1.6-0.5-2.5c-0.4-0.6-0.9-1.2-1.8-1.8C486.8,459.3,480,470,485.1,475z"/>
	<path class="st34" d="M489.8,470c0,0,5.8,1.7,4.7-4.2c-0.8-4.3-6.7-3.7-9.2-1.1c-2.7,2.8-3.1,7,0.6,11.2"/>
	<path class="st27" d="M487.1,476.5c5.3,2.6,12.9-0.8,13.8-6.2c0.5-2.7-0.4-5.7-1.4-8.3c-1.3-3.1-3-5.5-3-5.5l-0.4,0.6
		c0.6,1.2,1.7,3.5,2.3,6.3C499.4,468.8,498.4,475.5,487.1,476.5z"/>
	<path class="st35" d="M431.2,350.6c9.4,2,16.4,6.7,16.4,6.7c0-1.4-1.8-3.2-4.3-5.1C439.3,350.1,434.9,350,431.2,350.6z"/>
	<g>
		<path class="st29" d="M444.5,379.6c0.6,0.1,1.1,0.2,1.6,0.3c0.5,0.1,1,0.3,1.4,0.5c0.9,0.3,1.8,0.8,2.7,1.3
			c0.6,0.4,0.8,1.3,0.4,1.9c-0.4,0.6-1.1,0.8-1.7,0.5l0,0c-0.7-0.3-1.5-0.6-2.3-0.8c-0.4-0.1-0.8-0.2-1.2-0.2
			c-0.4,0-0.8-0.1-1.1-0.1c-0.9,0-1.8-0.7-1.8-1.6c0-0.9,0.7-1.8,1.6-1.8C444.3,379.6,444.4,379.6,444.5,379.6L444.5,379.6z"/>
	</g>
	<g>
		<path class="st29" d="M425,383.4c-0.3,0-0.7,0.1-1.1,0.1c-0.4,0.1-0.8,0.2-1.1,0.3c-0.8,0.2-1.5,0.6-2.2,0.9l0,0
			c-0.7,0.4-1.5,0.1-1.9-0.5c-0.3-0.6-0.2-1.4,0.4-1.8c0.8-0.6,1.7-1.1,2.6-1.5c0.5-0.2,0.9-0.4,1.4-0.6c0.5-0.2,0.9-0.3,1.6-0.4
			l0,0c0.9-0.2,1.8,0.4,2,1.4c0.2,0.9-0.4,1.8-1.4,2C425.2,383.4,425.1,383.4,425,383.4z"/>
	</g>
	<g>
		<path class="st25" d="M439.2,392c0.9,3.6,5.1,7,8.9,6.1c3.8-0.9,6.3-4.6,5.4-8.2c-0.9-3.6-4.7-5.8-8.5-4.8
			C441.2,386,438.4,388.4,439.2,392z"/>
		
			<ellipse transform="matrix(0.972 -0.2349 0.2349 0.972 -79.3425 115.6514)" class="st6" cx="445.9" cy="390.9" rx="5.2" ry="4.9"/>
		
			<ellipse transform="matrix(0.972 -0.2349 0.2349 0.972 -79.311 115.3509)" class="st30" cx="444.6" cy="390.6" rx="4.2" ry="3.9"/>
		<ellipse transform="matrix(0.972 -0.2349 0.2349 0.972 -78.8346 115.005)" class="st6" cx="443.4" cy="388.5" rx="1.5" ry="1.4"/>
	</g>
	<g>
		<path class="st25" d="M429.2,390.9c-0.3,3.6-3.5,7.5-7.1,7.2c-3.6-0.3-6.2-3.4-6-6.9s3.4-6.2,6.9-6S429.5,387.3,429.2,390.9z"/>
		
			<ellipse transform="matrix(7.376784e-02 -0.9973 0.9973 7.376784e-02 1.5363 783.5366)" class="st6" cx="422.6" cy="390.9" rx="4.7" ry="4.7"/>
		
			<ellipse transform="matrix(7.376784e-02 -0.9973 0.9973 7.376784e-02 1.6787 781.8251)" class="st30" cx="421.7" cy="390" rx="3.8" ry="3.8"/>
		
			<ellipse transform="matrix(7.376784e-02 -0.9973 0.9973 7.376784e-02 2.1364 778.623)" class="st6" cx="420.2" cy="388.2" rx="1.4" ry="1.4"/>
	</g>
	<g>
		
			<ellipse transform="matrix(0.9986 -5.296864e-02 5.296864e-02 0.9986 -22.096 23.6192)" class="st32" cx="434.5" cy="428.7" rx="2.5" ry="2.5"/>
		<line class="st39" x1="434.2" y1="423.7" x2="434.3" y2="426.2"/>
	</g>
</g>
<line class="st13" x1="72" y1="477.9" x2="707.5" y2="477.9"/>
</svg>
