<?xml version="1.0" encoding="utf-8"?>
<!-- Generator: Adobe Illustrator 21.1.0, SVG Export Plug-In . SVG Version: 6.00 Build 0)  -->
<svg version="1.1" id="Слой_1" xmlns="http://www.w3.org/2000/svg" xmlns:xlink="http://www.w3.org/1999/xlink" x="0px" y="0px"
	 viewBox="0 0 800 600" style="enable-background:new 0 0 800 600;" xml:space="preserve">
<style type="text/css">
	.st0{fill:#F5F6F8;}
	.st1{fill:none;stroke:#D2D5D8;stroke-width:1.6568;stroke-linecap:round;stroke-linejoin:round;stroke-miterlimit:10;}
	.st2{fill:#FFFFFF;}
	.st3{fill:none;stroke:#FFFFFF;stroke-width:1.6568;stroke-miterlimit:10;}
	.st4{fill:#ECEDF2;}
	.st5{fill:none;stroke:#D2D5D8;stroke-width:1.6568;stroke-linecap:round;stroke-miterlimit:10;}
	.st6{fill:none;stroke:#F5F6F8;stroke-width:2.209;stroke-miterlimit:10;}
	.st7{fill:#0E1B5F;}
	.st8{fill:#010F50;}
	.st9{fill:#000D4E;}
	.st10{fill:#303D8B;}
	.st11{fill:#000C50;}
	.st12{fill:#FCF9F2;}
	.st13{fill:#FFB502;}
	.st14{fill:#2F3C8A;}
	.st15{fill:#394AA4;}
	.st16{fill:#F2B0A5;}
	.st17{fill:#FFBEAE;}
	.st18{fill:#2D2D7F;}
	.st19{fill:#24246B;}
	.st20{fill:#599CD8;}
	.st21{fill:#70B2ED;}
	.st22{fill:#E5A69E;}
	.st23{fill:#418CC4;}
	.st24{fill:none;stroke:#01004E;stroke-width:0.7919;stroke-miterlimit:10;}
	.st25{fill:#01004E;}
	.st26{fill:none;stroke:#01004E;stroke-width:0.7919;stroke-linecap:round;stroke-linejoin:round;stroke-miterlimit:10;}
	.st27{fill:none;stroke:#DB8282;stroke-width:0.7919;stroke-linecap:round;stroke-miterlimit:10;}
	.st28{fill:#9DA8B2;}
	.st29{fill:#FFEFE1;}
	.st30{fill:#EADACE;}
	.st31{fill:none;stroke:#01004E;stroke-width:2.3757;stroke-linecap:round;stroke-miterlimit:10;}
	.st32{fill:#F2E5DA;}
	.st33{fill:none;stroke:#DDCEC5;stroke-width:0.5523;stroke-miterlimit:10;}
	.st34{fill:none;stroke:#01004E;stroke-width:0.7689;stroke-linecap:round;stroke-linejoin:round;stroke-miterlimit:10;}
	.st35{fill:none;stroke:#01004E;stroke-width:0.7621;stroke-miterlimit:10;}
	.st36{fill:#CECCD6;}
	.st37{fill:#9ACAE8;}
	.st38{fill:none;stroke:#01004E;stroke-width:1.1045;stroke-miterlimit:10;}
	.st39{fill:#5784DD;}
	.st40{fill:#88C1ED;}
	.st41{fill:#020235;}
	.st42{fill:none;stroke:#212175;stroke-width:0.7919;stroke-miterlimit:10;}
	.st43{fill:none;stroke:#FFFFFF;stroke-width:0.6683;stroke-miterlimit:10;}
	.st44{fill:none;stroke:#FFFFFF;stroke-width:0.6682;stroke-linecap:round;stroke-miterlimit:10;}
	.st45{fill:none;stroke:#030038;stroke-width:1.269;stroke-miterlimit:10;}
	.st46{fill:none;stroke:#EAE9EE;stroke-width:1.9035;stroke-miterlimit:10;}
	.st47{fill:#030038;}
</style>
<g>
	<g>
		<rect x="53.5" y="41.8" class="st0" width="698" height="519.7"/>
		<line class="st1" x1="741.6" y1="412.4" x2="92.2" y2="412.4"/>
		<line class="st1" x1="625.1" y1="442.8" x2="694.7" y2="442.8"/>
		<line class="st1" x1="630.1" y1="466" x2="658.8" y2="466"/>
		<polygon class="st2" points="197.6,387 194.3,421 193.5,429.2 163.1,429.2 159,387 		"/>
		<line class="st1" x1="531.8" y1="313" x2="698" y2="313"/>
		<line class="st1" x1="653" y1="312.7" x2="653" y2="412.1"/>
		<line class="st1" x1="694.4" y1="312.7" x2="694.4" y2="412.7"/>
		<polyline class="st1" points="660.2,313.3 660.2,401.9 687.5,401.9 687.5,314.1 		"/>
		<line class="st1" x1="660.7" y1="337" x2="687.2" y2="337"/>
		<line class="st1" x1="660.7" y1="367.4" x2="687.2" y2="367.4"/>
		<line class="st1" x1="666.8" y1="401.1" x2="667.6" y2="375.4"/>
		<line class="st1" x1="673.4" y1="401.1" x2="672" y2="373.2"/>
		<line class="st1" x1="680.9" y1="400.2" x2="677.5" y2="374.3"/>
		<line class="st1" x1="687.5" y1="401.9" x2="683.6" y2="372.1"/>
		<line class="st1" x1="664" y1="366.8" x2="668.2" y2="344.5"/>
		<line class="st1" x1="669.8" y1="366" x2="674.2" y2="345.6"/>
		<line class="st1" x1="679.2" y1="366" x2="677.5" y2="342.8"/>
		<line class="st1" x1="684.2" y1="365.4" x2="682" y2="341.7"/>
		<rect x="292.1" y="105.9" class="st3" width="44.7" height="13.8"/>
		<rect x="265" y="119.7" class="st3" width="44.7" height="13.8"/>
		<rect x="292.1" y="133.5" class="st3" width="44.7" height="13.8"/>
		<rect x="265" y="147.3" class="st3" width="44.7" height="13.8"/>
		<rect x="292.1" y="161.1" class="st3" width="44.7" height="13.8"/>
		<rect x="265" y="174.9" class="st3" width="44.7" height="13.8"/>
		<rect x="292.1" y="188.7" class="st3" width="44.7" height="13.8"/>
		<rect x="160.6" y="167.7" class="st3" width="44.7" height="13.8"/>
		<rect x="183.3" y="181.5" class="st3" width="44.7" height="13.8"/>
		<line class="st1" x1="666.2" y1="336.5" x2="666.5" y2="320.2"/>
		<line class="st1" x1="670.9" y1="335.6" x2="670.9" y2="320.7"/>
		<line class="st1" x1="675.9" y1="335.1" x2="675.9" y2="319.1"/>
		<line class="st1" x1="681.4" y1="335.6" x2="681.4" y2="320.7"/>
		<g>
			<line class="st1" x1="642.8" y1="237.9" x2="628.4" y2="192.6"/>
			<line class="st1" x1="643.3" y1="246.2" x2="648.8" y2="180.4"/>
			<line class="st1" x1="644.4" y1="252.2" x2="664.8" y2="185.4"/>
			<line class="st1" x1="625.6" y1="198.1" x2="631.2" y2="201.4"/>
			<line class="st1" x1="633.9" y1="198.7" x2="633.1" y2="206.7"/>
			<line class="st1" x1="628.4" y1="206.4" x2="633.6" y2="210"/>
			<line class="st1" x1="637.2" y1="209.7" x2="636.1" y2="215"/>
			<line class="st1" x1="632.3" y1="217.4" x2="636.4" y2="219.7"/>
			<line class="st1" x1="640.5" y1="219.7" x2="639.2" y2="225.5"/>
			<line class="st1" x1="634.5" y1="227.4" x2="640.3" y2="230.7"/>
			<line class="st1" x1="642.2" y1="214.1" x2="645.2" y2="221.9"/>
			<line class="st1" x1="649.9" y1="208.6" x2="646.1" y2="214.7"/>
			<line class="st1" x1="646.3" y1="206.4" x2="642.8" y2="200.9"/>
			<line class="st1" x1="647.4" y1="198.9" x2="651" y2="194.8"/>
			<line class="st1" x1="647.4" y1="192.3" x2="645" y2="187.6"/>
			<line class="st1" x1="648.6" y1="184.9" x2="652.1" y2="181.5"/>
			<line class="st1" x1="649.9" y1="233.5" x2="648.3" y2="226.8"/>
			<line class="st1" x1="651.9" y1="228.2" x2="656.6" y2="226.3"/>
			<line class="st1" x1="653.2" y1="222.4" x2="651.6" y2="215.2"/>
			<line class="st1" x1="655.5" y1="215.5" x2="659.9" y2="212.5"/>
			<line class="st1" x1="657.4" y1="208.3" x2="655.5" y2="202.5"/>
			<line class="st1" x1="659.3" y1="203.9" x2="664.3" y2="201.4"/>
			<line class="st1" x1="659.9" y1="198.7" x2="658.8" y2="192.6"/>
			<line class="st1" x1="662.1" y1="194.8" x2="666.5" y2="191.5"/>
		</g>
		<path class="st1" d="M679.2,256.1h3.9v12.1c0,0,4.4-1.7,3,17.7l-9.7-0.3c0,0-1.7-16.3,2.8-17.4V256.1z"/>
		<polygon class="st1" points="700.7,274.3 701,285.6 706.3,285.6 706.3,274.3 		"/>
		<path class="st4" d="M525.4,136.8c0,0-1.4,9.4,18.5,8.3c19.9-1.1,34.2,8.8,51.9,7.7c17.7-1.1,30.4-9.4,29.8-15.7L525.4,136.8z"/>
		<polygon class="st1" points="530.6,92.6 530.6,101.5 524.3,130.5 545,130.5 536.7,101.5 536.7,92.6 		"/>
		<path class="st1" d="M534,92.1c0,0-2.8-7.2,8.3-11.6s12.1-11.6,12.1-11.6"/>
		<line class="st1" x1="534" y1="90.4" x2="539.5" y2="88.8"/>
		<line class="st5" x1="536.4" y1="83.8" x2="536.7" y2="77.7"/>
		<line class="st1" x1="539.5" y1="81.9" x2="546.1" y2="82.7"/>
		<line class="st1" x1="544.5" y1="78.8" x2="543.9" y2="72.8"/>
		<line class="st1" x1="550.3" y1="75.2" x2="555.5" y2="74.4"/>
		<line class="st1" x1="551.9" y1="73" x2="551.1" y2="67.8"/>
		<path class="st1" d="M551.6,111.4h24.3c0,0,7.7,9.4,0,19.1h-23.7C552.2,130.5,542.8,122.5,551.6,111.4z"/>
		<line class="st1" x1="549.7" y1="114.7" x2="577.3" y2="114.7"/>
		<path class="st1" d="M563.8,110.9c0,0-4.4-7.2,1.7-13.3C565.4,97.6,571.5,105.3,563.8,110.9z"/>
		<path class="st1" d="M563.8,110.9c0,0,4.4-6.6,9.9-5.5C573.7,105.3,573.2,112.5,563.8,110.9z"/>
		<path class="st1" d="M563.8,110.9c0,0-2.8-7.2-7.7-6.6C556.1,104.2,554.4,112,563.8,110.9z"/>
		<polygon class="st1" points="582.6,130.2 587,115.8 596.9,115.8 603,130.2 		"/>
		<line class="st1" x1="587.5" y1="118" x2="597.7" y2="118"/>
		<line class="st1" x1="593.6" y1="121.9" x2="599.1" y2="121.9"/>
		<line class="st1" x1="592.5" y1="126.9" x2="601.3" y2="126.9"/>
		<polyline class="st1" points="613.5,130.2 613.5,99.3 622.3,99.3 622.3,130.2 		"/>
		<polyline class="st1" points="622.9,115.3 628.4,115.3 628.4,130.2 		"/>
		<polyline class="st1" points="633.9,129.6 633.9,102 657.1,102 657.1,130.5 		"/>
		<path class="st1" d="M642.8,118.6c0,0-3.3-6.1,3.3-5.5c6.6,0.6,2.2,6.1,2.2,6.1s7.2,3.9,2.5,11.3h-11
			C639.7,130.5,634.5,121.9,642.8,118.6z"/>
		<path class="st1" d="M642.8,118.6c0,0,2.2,2.2,5.5,0.6"/>
		<path class="st1" d="M646.1,120c0,0,1.7,1.4,1.1,5.2"/>
		<path class="st1" d="M643.6,113.1l2.5-7.2l2.5,7.5C648.6,113.3,647.2,111.4,643.6,113.1z"/>
		<rect x="473.8" y="68.3" class="st3" width="45.3" height="13.8"/>
		<rect x="351.2" y="80.5" class="st2" width="91.7" height="117.6"/>
		<rect x="351.2" y="207.5" class="st2" width="91.7" height="117.6"/>
		<line class="st6" x1="368.6" y1="80.8" x2="368.6" y2="325.2"/>
		<line class="st6" x1="424.5" y1="80.8" x2="424.5" y2="324.5"/>
		<line class="st6" x1="351.6" y1="95.9" x2="442.6" y2="95.9"/>
		<line class="st6" x1="350.9" y1="180.5" x2="442.6" y2="180.5"/>
		<line class="st6" x1="351.3" y1="225.5" x2="442.2" y2="225.5"/>
		<line class="st6" x1="351.3" y1="309.4" x2="442.9" y2="309.4"/>
		<line class="st3" x1="456.6" y1="49" x2="456.6" y2="325.1"/>
		<line class="st3" x1="337.4" y1="71.1" x2="337.4" y2="325.1"/>
		<line class="st3" x1="365" y1="68.9" x2="429.6" y2="68.9"/>
		<line class="st3" x1="146.8" y1="55.6" x2="403.6" y2="55.6"/>
		<rect x="309.7" y="119.7" class="st3" width="27.1" height="13.8"/>
		<rect x="309.7" y="147.3" class="st3" width="27.1" height="13.8"/>
		<rect x="309.7" y="174.9" class="st3" width="27.1" height="13.8"/>
		<line class="st1" x1="520.7" y1="136.8" x2="626.7" y2="136.8"/>
		<line class="st1" x1="520.2" y1="130.7" x2="666.5" y2="130.7"/>
		<path class="st4" d="M94.4,167.7c-13.9,3.2-24.3,20.4-6.6,49.2s34.8,35.9,32,65.7c-2.8,29.8,12.1,36.4,25.4,50.8
			c13.3,14.4,12.7,39.8,31.8,30.1c19.1-9.7,13-38.4-0.3-72.1c-13.3-33.7,6.1-38.1-23.7-64.1S137.4,157.8,94.4,167.7z"/>
		<path class="st4" d="M188.3,358.3c0,0-9.9,0-6.6-13.3s-8.3-28.2,3.9-43.6s17.1-9.4,16.6-48.6c-0.6-39.2,0.6-61.9,38.1-74.6
			c32.3-10.9,37.2-23.1,47.5-10.4c3.5,4.3,8.1,7.5,13.2,9.7c4,1.8,7.7,5.6,5.1,14c-5,16-29.8,20.4-29.3,40.9s-0.6,19.9-14.9,44.7
			c-14.4,24.9,3.9,30.4-27.1,46.4C198.5,342.2,213.7,366.6,188.3,358.3z"/>
		<path class="st4" d="M194.9,378.2c-7.7-4.5-5-19.3,4.4-25.4c9.4-6.1,13.8-1.7,23.2-11.6c9.4-9.9,17.1-26.5,26-21.5
			c8.8,5,1.1,11.6,4.4,21c3.3,9.4,0,17.7-15.5,20.4C221.9,363.8,216.4,390.9,194.9,378.2z"/>
		<path class="st3" d="M177.2,389.7c0,0,29.8-132,104.9-207.6"/>
		<path class="st3" d="M99.9,187.6c0,0,83.4,112.7,77,200.2"/>
		<path class="st3" d="M231.9,351.1c0,0-36.4,12.7-49.2,37.6"/>
		<line class="st1" x1="536.4" y1="312.7" x2="536.4" y2="412.1"/>
		<line class="st1" x1="577.9" y1="312.7" x2="577.9" y2="412.7"/>
		<polyline class="st1" points="543.6,313.3 543.6,401.9 571,401.9 571,314.1 		"/>
		<line class="st1" x1="544.2" y1="337" x2="570.7" y2="337"/>
		<line class="st1" x1="544.2" y1="367.4" x2="570.7" y2="367.4"/>
		<line class="st1" x1="550.3" y1="401.1" x2="551.1" y2="375.4"/>
		<line class="st1" x1="556.9" y1="401.1" x2="555.5" y2="373.2"/>
		<line class="st1" x1="564.3" y1="400.2" x2="561" y2="374.3"/>
		<line class="st1" x1="571" y1="401.9" x2="567.1" y2="372.1"/>
		<line class="st1" x1="547.5" y1="366.8" x2="551.6" y2="344.5"/>
		<line class="st1" x1="553.3" y1="366" x2="557.7" y2="345.6"/>
		<line class="st1" x1="562.7" y1="366" x2="561" y2="342.8"/>
		<line class="st1" x1="567.6" y1="365.4" x2="565.4" y2="341.7"/>
		<line class="st1" x1="549.7" y1="336.5" x2="550" y2="320.2"/>
		<line class="st1" x1="554.4" y1="335.6" x2="554.4" y2="320.7"/>
		<line class="st1" x1="559.4" y1="335.1" x2="559.4" y2="319.1"/>
		<line class="st1" x1="564.9" y1="335.6" x2="564.9" y2="320.7"/>
		<rect x="631.7" y="235.1" class="st4" width="24.3" height="50.5"/>
		<line class="st3" x1="638.6" y1="234.3" x2="639.2" y2="285.1"/>
		<line class="st3" x1="648.6" y1="234.8" x2="649.1" y2="285.1"/>
		<line class="st1" x1="457.8" y1="285.9" x2="740" y2="285.9"/>
		<path class="st4" d="M194.3,421l-0.8,8.2h-30.4L159,387h6.8C166.5,396.2,170.7,418.7,194.3,421z"/>
		<line class="st1" x1="353.4" y1="429.5" x2="126.9" y2="429.5"/>
	</g>
	<g>
		<path class="st7" d="M182.4,453.6c-4.6-1.7-7.3-5.9-9-11.1c-0.7-2.2-1.2-4.6-1.6-7.1c-0.9-5.8-1.1-12.1-1.3-17.5
			c-0.1-3-0.3-5.6-0.6-7.8c-0.1-0.6-0.2-1.2-0.3-1.8c-0.6-2.7-1.6-5-3.1-7.1c-1.5-2-3.4-3.8-5.8-5.5c-4.6-3.2-10.9-6-19-9.3
			c-0.2-0.1-0.3-0.1-0.5-0.2c-1.9-0.8-3.6-1.6-5-2.4c-2.1-1.2-3.6-2.3-4.8-3.5c-4.7-4.5-3.1-8.6-2.6-11.3c0.3-1.6,2.8-4.4,6.5-6.5
			c5.2-3,13.1-4.7,21.4-0.3c3,1.6,5.8,4,8.4,7c1.5,1.7,2.9,3.7,4.3,5.8c2.6,4.1,4.8,8.9,6.5,14.1c0.9,2.9,1.7,5.9,2.3,9
			c0.6,3.5,1,7.1,1.1,10.8c0.1,2.3,0,4.7-0.2,7c-0.1,1.5-0.3,3-0.5,4.4c-0.6,3.8-0.9,7-1,9.7c-0.1,3.1,0.1,5.6,0.5,7.5
			c1.4,7.4,5,7.7,5,7.7S196.7,458.9,182.4,453.6z"/>
		<path class="st8" d="M251.8,384.2c0,0-12.8,3-24.9,21.1H242L251.8,384.2z"/>
		<path class="st9" d="M273.7,449.1c0,0-4.5,24.9-13.6,36.2c0,0,4.5-0.8,4.5,3h-11.3c0,0,3.8-11.3,3.8-21.9S273.7,449.1,273.7,449.1
			z"/>
		<path class="st9" d="M209.5,477c0,0,0.8,3.8,2.3,7.5c0,0,3.8-0.8,4.5,3H208c0,0-6.8-8.3-5.3-13.6S209.5,477,209.5,477z"/>
		<path class="st10" d="M273.7,453.6c-18.1,46-77.7,21.9-77.7,21.9c0,3,2.3,9.1,2.3,9.1c5.3,0.8,5.3,3.8,5.3,3.8l-9.1-0.8
			c-3.3-3.7-6-7.9-8-12.5c-6.1-13.4-7-29.2-2.5-38.8c3.1-6.5,8.5-9.4,15.3-11.1c4.1-1.1,8.7-1.8,13.5-2.7c2.9-0.6,5.9-1.2,8.9-2
			c3.9-1.1,7-3.3,9.6-6.2c9.9-11,13.1-31.4,27.4-33.8C282,376.5,290.6,410.5,273.7,453.6z"/>
		<path class="st10" d="M247.3,476.3l-2.3,8.3c0,0,2.3,0,2.3,3h-9.1l-1.5-10.6L247.3,476.3z"/>
		<g>
			<path class="st11" d="M266.3,396.6l-29.6,4.2l29.2-6.4c0.6-0.1,1.2,0.3,1.3,0.9S267,396.5,266.3,396.6
				C266.4,396.6,266.4,396.6,266.3,396.6z"/>
		</g>
		<g>
			<path class="st11" d="M265.1,399.6l-16.3,5.8l15.4-7.8c0.6-0.3,1.2-0.1,1.5,0.5s0.1,1.2-0.5,1.5
				C265.2,399.5,265.1,399.6,265.1,399.6z"/>
		</g>
		<g>
			<path class="st11" d="M273.6,393.6l28-1.9l-27.8,4.1c-0.6,0.1-1.2-0.3-1.3-1C272.4,394.3,272.9,393.7,273.6,393.6
				C273.5,393.6,273.5,393.6,273.6,393.6z"/>
		</g>
		<g>
			<path class="st11" d="M276.9,395.9l14.9,3.4l-15.3-1.1c-0.6,0-1.1-0.6-1-1.2s0.6-1.1,1.2-1C276.8,395.9,276.8,395.9,276.9,395.9z
				"/>
		</g>
		<path class="st12" d="M269.9,394.8c0,0-2.3-0.8-2.3-2.3s3.8-0.8,3.8,0c0,0.6-1.9,4.9-1.6,7.9c0.1,1,1,1.8,2.1,1.8
			c0.8,0,1.8,0.4,1.8,1.6C273.7,406.1,264.6,406.1,269.9,394.8z"/>
		<path class="st13" d="M282,388c0,0-2,3.3-5.5,3.4c-1.8,0-4-0.8-6.6-3.4c0,0,2.4-3.1,6.2-3C277.8,385,279.8,385.8,282,388z"/>
		<path class="st13" d="M266.9,388c-1.8,2.7-3.8,3.9-5.7,4.3c-4.5,0.9-8.7-2.8-8.7-2.8c2.6-2.8,5.1-3.9,7.2-4.1
			C263.9,385,266.9,388,266.9,388z"/>
		<path d="M266.9,388c-1.8,2.7-3.8,3.9-5.7,4.3c-2-2.2-1.8-5.2-1.4-6.9C263.9,385,266.9,388,266.9,388z"/>
		<path d="M282,388c0,0-2,3.3-5.5,3.4c-1.4-2.3-1-4.8-0.5-6.4C277.8,385,279.8,385.8,282,388z"/>
		<path class="st14" d="M178.1,437.6c-1.4,1.2-3.2,2.9-4.7,4.9c-0.7-2.2-1.2-4.6-1.6-7.1c1.1-1.5,3-3.5,5.9-5.3
			C177.6,433.2,177.7,435.7,178.1,437.6z"/>
		<path class="st14" d="M179.1,416c-3.6,0.3-6.7,1.2-8.7,1.9c-0.1-3-0.3-5.6-0.6-7.8c4.6,0.3,7.6-0.4,9.5-1.2
			C179.4,411.3,179.3,413.6,179.1,416z"/>
		<path class="st14" d="M178.2,398.2c-2.6,1.4-7.4,3.5-11.7,3.1c-1.5-2-3.4-3.8-5.8-5.5c1.3-0.8,3.6-1.7,7.4-2.5
			c3.9-0.8,6.4-2.5,7.8-4.1C176.8,392.1,177.6,395.1,178.2,398.2z"/>
		<path class="st14" d="M169.4,375.1c-1.1,0.5-2.4,1.4-3.7,3.1c-3,3.8-8.3,5.3-15.8,4.5c-4.9-0.5-7.5,1.8-8.8,3.6
			c-1.9-0.8-3.6-1.6-5-2.4c3.6-13.7,13.4-11.7,20.6-11.7c4.4,0,7-1.6,8.4-2.8C166.7,371,168.1,373,169.4,375.1z"/>
		<path class="st14" d="M131.3,380.4c-4.7-4.5-3.1-8.6-2.6-11.3c0.3-1.6,2.8-4.4,6.5-6.5C133.1,365.8,131,371.2,131.3,380.4z"/>
		<path class="st15" d="M196,457.4c-6.7,6.2-8.9,14.1-9.5,17.7c-6.1-13.4-7-29.2-2.5-38.8c3.1-6.5,8.5-9.4,15.3-11.1
			c-0.9,2.7-1.2,6.2,0.5,9.6C203.5,442.3,205,449.1,196,457.4z"/>
		<path class="st15" d="M224.6,427.2c-6.9,2.1-10.4-2.1-11.9-4.8c2.9-0.6,5.9-1.2,8.9-2c3.9-1.1,7-3.3,9.6-6.2
			C231.7,418.1,231.5,425.1,224.6,427.2z"/>
	</g>
	<path class="st16" d="M633.1,114.8l3.8,88.3c0.1,2.3-0.7,4.5-2.3,6.2l-15,16.4l-21.4-16.6l16.6-57.8l1.1-36.4l0.5-15l45.1-9.5
		L633.1,114.8z"/>
	<path class="st17" d="M637.9,184.5c0.8,10.3-28.5,38.8-28.5,38.8L584,186.1l13.5-11.1l-14.4-59.6l-3.8-15.6l44.3-24.5L601.8,108
		l-0.3,0.5C601.5,108.5,637.1,174.2,637.9,184.5z"/>
	<path class="st18" d="M623.6,226.5c0,0-35.8,35-53.4,47.2c-0.2,0.1-0.3,0.2-0.5,0.3c-17.4,11.9-45.9-59.4-45.9-59.4
		s46.7-24.6,60.2-31.7c0,0,8.7,5.5,18.6,15.3C609.9,205.5,617.9,215.1,623.6,226.5z"/>
	<path class="st19" d="M623.6,226.5c0,0-35.8,35-53.4,47.2l-5.1-7.4c0,0,39.1-36.5,37.4-68.1C609.9,205.5,617.9,215.1,623.6,226.5z"
		/>
	<path class="st20" d="M463.4,339.3c0,0,31.2-5.1,70-27.3c38.8-22.2,44.3-21.4,44.3-21.4s-4.8-15-12.7-16.6
		C557.1,272.4,464.7,319.9,463.4,339.3z"/>
	<path class="st21" d="M577.7,278c0,0-15,4-58.6,34.1c-25,17.3-44.1,24.4-55.7,27.3c-8.6,2.1-13.2,2-13.2,2l-54.9-53.1l-8.5-8.2
		l-9.4-9.1l102.9-22.2c5.2-5.6,10-10.5,14.5-14.8c18.2-17.4,29.9-24,29.9-24C546,246.3,577.7,278,577.7,278z"/>
	<path class="st16" d="M420.1,403.1c-8.4,0.6-38.3-12.8-55-20.6c-6.9-3.2-11.5-5.5-11.5-5.5l1.6-13.5l39.6,7.9l22.2,1.2l7.9,0.4
		C424.9,373,432,402.3,420.1,403.1z"/>
	<path class="st22" d="M420.1,403.1c-8.4,0.6-38.3-12.8-55-20.6l1.8-5.2c0,0,42.5,16,50.8,12.7c3.7-1.5,2.1-9.2-0.7-17.4l7.9,0.4
		C424.9,373,432,402.3,420.1,403.1z"/>
	<path class="st20" d="M435.9,371.4c0,0,51.5,0.8,45.1-9.5L470,351.6l-34.1,12.7V371.4z"/>
	<path class="st17" d="M478.7,375.4c-7.8,14.6-39.1,42.4-54.2,55.5c-5.1,4.4-8.3,7.1-8.3,7.1l-12.7-17.4
		c12.7-19,35.6-46.7,35.6-46.7l-3.2-6.3c0,0,23-26.9,32.5-17.4c1.3,1.3,2.5,2.7,3.5,4c4,5.2,6.2,10.5,7.4,13.9
		C480.1,370.4,479.9,373.1,478.7,375.4z"/>
	<polygon class="st20" points="428,380.9 411.5,376.2 394.8,371.4 379.7,327.1 424.9,339.7 425.5,348.1 	"/>
	<path class="st17" d="M405.1,337.4c-7.6-3.1-13.9-4.4-19.1-4.6c-17.7-0.8-23.7,11.2-29.5,12.2c-7.6,1.3-19-8.8-19-8.8l-5.1,5.1
		c0,0-2.5-12.6-7.6-17.7c-2.4-2.4-4.2-5.4-5.5-7.8c-0.3-0.6-0.6-1.1-0.8-1.6c-0.9-1.9-1.3-3.2-1.3-3.2l3.4-1.5l32.9-14.6l9.2-4.1
		l0.9,1L405.1,337.4z"/>
	<path class="st16" d="M319.4,315.6c3.1,0.8,11.5,2.2,23.5-2.1c13.9-5,38.4,15.1,43.1,19.2c5.2,0.2,11.5,1.6,19.1,4.6l-41.4-45.8
		l-10,3.1l-30.6,9.5l-2.3,5.1l-2.1,4.7L319.4,315.6z"/>
	<path class="st16" d="M478.7,375.4c-7.8,14.6-39.1,42.4-54.2,55.5l-4.6-9.4c53.6-38.1,44.7-64.6,44.7-64.6l7.3-2.8
		c4,5.2,6.2,10.5,7.4,13.9C480.1,370.4,479.9,373.1,478.7,375.4z"/>
	<polygon class="st23" points="428,380.9 411.5,376.2 409.4,343.6 425.5,348.1 	"/>
	<path class="st24" d="M396.8,315.6c0,0,28.5,143.3-15.8,127.5"/>
	<path class="st21" d="M480.3,361.1c-4.6-1-9.2-1.1-13.6-0.7c-16.5,1.7-30.7,11-30.7,11c-5-4.5-35.8-34.7-53.7-52.3
		c-3-3-5.2-6.6-6.4-10.4c-2.8-8.9-0.7-19.1,6.7-25.8c1.4-1.3,2.8-2.3,4.2-3c7.1-3.8,14.6-1.5,21.9,2.7c3.9,2.3,7.8,5.1,11.4,7.9
		c9.6,7.3,28.2,29.7,42.2,47.3l0,0c0.3,0.4,0.7,0.9,1,1.3C473.1,351.5,480.3,361.1,480.3,361.1z"/>
	<path class="st20" d="M494.7,233.9c-0.3,23.9-31.8,39.1-42.2,41.3c-6.8,1.4-28,3.1-43.8,7.5c-5.3,1.5-10,3.3-13.4,5.5
		c-2.1,1.4-3.7,2.9-4.6,4.6c-5.2,9.9-12,14.4-14.8,15.9c-2.8-8.9-0.7-19.1,6.7-25.8c1.4-1.3,2.8-2.3,4.2-3l-9.4-9.1l102.9-22.2
		C485.4,243,490.3,238.1,494.7,233.9z"/>
	<path class="st25" d="M427.6,273.6c-49.9,4-35.6,19.8-49.9,30.9c-9.8,7.7-21.2,6.2-27.3,4.6c-2.7-0.7-4.4-1.5-4.4-1.5
		c-0.5,0.3-1,0.7-1.5,1c-21.3,13.5-29.4,3.1-31.3-0.1c-0.3-0.5-0.5-0.9-0.5-0.9s-17.4-26.1,24.6-41.2c33.9-12.2,53.3-20.2,64.9-33.3
		c10.6-11.9,16.3-31.9,26.2-44.5c7.9-10,18.5-15.2,36.4-7.8c22.7,9.4,18.3,34.4,15.1,45c-0.7,2.2,1,4.5,3.3,4.5
		C508.5,230.8,474.8,269.9,427.6,273.6z"/>
	<path class="st26" d="M374.6,246.7c0,0,27.7-2.4,41.2-46.7"/>
	<path class="st26" d="M466.4,174.6c0,0,19,4.8,20.6,22.2s-4.8,30.1,0,30.1"/>
	<path class="st27" d="M345.9,341.6c0,0,1.7-0.7,2.5-3.8"/>
	<path class="st28" d="M372.8,428.3c0,0,13.8,18.1-6.9,12.5L372.8,428.3z"/>
	<path class="st29" d="M369.2,377c-1.6,5.2-5.3,7.1-5.3,7.1l-18.2-10.3c-8.7,8.7-19.8-0.8-19.8-0.8c-1.9,0-4.2-3.9-3.4-8.6
		c0.5-2.9,2.1-6.1,5.8-8.9c9.5-7.1,19.8,5.5,19.8,5.5c4.7,2.4,20.6,2.4,20.6,2.4C370.4,369.5,370.2,373.9,369.2,377z"/>
	<path class="st30" d="M369.2,377c-1.6,5.2-5.3,7.1-5.3,7.1l-18.2-10.3c-8.7,8.7-19.8-0.8-19.8-0.8c-1.9,0-4.2-3.9-3.4-8.6
		c3.4-3,12.6-9.6,19.6-2.6C348.6,368.4,362.5,374.4,369.2,377z"/>
	<line class="st31" x1="325.9" y1="357.2" x2="349.6" y2="375.8"/>
	<path class="st32" d="M322.2,368.1c0,0,6.5-4.5,8.9-9.3c0,0,6.3-1.5,7.1,4.2c0,0,3.3-1.6,3.3,3.3c0,0,3.8,0.6-0.4,10.7
		C341.1,377,326.2,379.9,322.2,368.1z"/>
	<polygon class="st20" points="623.6,75.2 601.8,108 583.1,115.4 579.3,99.8 	"/>
	<polygon class="st20" points="661.6,90.3 633.1,114.8 616,114.8 616.5,99.8 	"/>
	<path class="st33" d="M327.7,369.6c0,0,1.1-0.6,4.4-6.1"/>
	
		<ellipse transform="matrix(0.7774 -0.6291 0.6291 0.7774 -128.9039 280.5974)" class="st2" cx="332" cy="322.4" rx="1.9" ry="4.1"/>
	
		<ellipse transform="matrix(0.7774 -0.6291 0.6291 0.7774 -129.6827 281.2517)" class="st25" cx="332.5" cy="323.8" rx="1" ry="2.7"/>
	<path class="st34" d="M323.9,317.2c0,0,1.6-2.4,4-4"/>
	
		<ellipse transform="matrix(0.7071 -0.7071 0.7071 0.7071 -152.5639 323.6429)" class="st35" cx="314.4" cy="346" rx="5.9" ry="15.4"/>
	<ellipse transform="matrix(0.5 -0.866 0.866 0.5 -192.4641 532.213)" class="st36" cx="364.7" cy="432.8" rx="16.2" ry="5.5"/>
	<ellipse transform="matrix(0.5 -0.866 0.866 0.5 -192.4641 532.213)" class="st28" cx="364.7" cy="432.8" rx="6.7" ry="2.3"/>
	<path class="st29" d="M428,431.6c-5.5,2.4-26.1,19-26.1,19c-15.8,23-27.7,9.5-27.7,9.5c-5.5-0.8-6.3-7.1-6.3-7.1
		c-1.3-2.8-1.9-5-1.9-6.8c-0.1-5.6,5.3-7,8.9-10.5c0,0,0.1-0.1,0.1-0.1c4.7-4.8,17.4-2.4,17.4-2.4c2.2-1.9,5-5.9,7.8-10.1
		c4.3-6.6,8.1-13.7,8.1-13.7c4.9,1.4,8.6,3.4,11.3,5.7C428,422.2,428,431.6,428,431.6z"/>
	<path class="st37" d="M544,286.3c-3.2,11.1-23,14.3-23,14.3s-1-1.4-2.4-3.5c-3.2-4.6-8.8-12.5-11-14.7c0,0,9.5-17.4,21.4-17.4h0
		C540.9,264.9,546.2,278.6,544,286.3z"/>
	<line class="st38" x1="494.5" y1="41.6" x2="494.5" y2="281.2"/>
	<line class="st38" x1="504.4" y1="41" x2="504.4" y2="268.8"/>
	<polygon class="st39" points="487.5,273 511.2,258.5 516.4,268.3 492.6,282.9 	"/>
	<circle class="st25" cx="509.9" cy="263" r="1.1"/>
	<circle class="st25" cx="492.3" cy="274.1" r="1.1"/>
	<circle class="st25" cx="495" cy="277.9" r="1.1"/>
	<circle class="st25" cx="512.1" cy="267.4" r="1.1"/>
	<path class="st30" d="M428,431.6c-5.5,2.4-26.1,19-26.1,19c-15.8,23-27.7,9.5-27.7,9.5c-5.5-0.8-6.3-7.1-6.3-7.1
		c-1.3-2.8-1.9-5-1.9-6.8c2,1.5,6.1,4.3,9.2,5.1c4.4,1.1,2.2,3.9,6.6,5c4.1,1,30.5-26.4,37.8-41.2C428,422.2,428,431.6,428,431.6z"
		/>
	<path class="st30" d="M400.2,423.1c-1.7,4.9-4.7,11.6-9.5,13.3c-7.4,2.6,1.8-4.7-15.8-0.7c0,0,0.1-0.1,0.1-0.1
		c4.7-4.8,17.4-2.4,17.4-2.4C394.6,431.3,397.4,427.3,400.2,423.1z"/>
	<path class="st33" d="M332.9,372.1c0,0,1.7-2.2,5.5-9.4"/>
	<path class="st33" d="M336.8,374.3c0,0,3.9-3.9,5-7.7"/>
	<path class="st29" d="M329.8,354.8c0,0,2.4,7.9,2.4,11.1s8.7,1.2,5.1-11.7C337.4,354.2,334.6,353.2,329.8,354.8z"/>
	<path class="st20" d="M480.3,361.1c-4.6-1-9.2-1.1-13.6-0.7l-38.4-58.2l34.1,35.8l0,0C472.6,350.8,480.3,361.1,480.3,361.1z"/>
	<path class="st40" d="M544,286.3c-3.2,11.1-23,14.3-23,14.3s-1-1.4-2.4-3.5c5.8-1,25.5-6.2,10.3-32.1h0
		C540.9,264.9,546.2,278.6,544,286.3z"/>
	<path class="st41" d="M344.5,308.7c-21.3,13.5-29.4,3.1-31.3-0.1c5.2,4.2,14.8,7.6,29.9-2.5L344.5,308.7z"/>
	<path class="st41" d="M427.6,273.6c-49.9,4-35.6,19.8-49.9,30.9c-9.8,7.7-21.2,6.2-27.3,4.6l-3.4-5.8c0.4,0.1,18.9,5.3,30.9-12.2
		c12.1-17.7,20.4-25.4,43.1-28.7c22.6-3.3,53.6-24.3,43.1-52.5c-7.8-20.9-26.4-22-35.6-21.2c7.9-10,18.5-15.2,36.4-7.8
		c22.7,9.4,18.3,34.4,15.1,45c-0.7,2.2,1,4.5,3.3,4.5C508.5,230.8,474.8,269.9,427.6,273.6z"/>
	<path class="st16" d="M343.7,312.4c0,0-8.7-8.7,0-11.1c8.7-2.4,11.1,11.1,11.1,11.1H343.7z"/>
	<path class="st42" d="M319.7,300.3c0,0-5-16,11-21.5c16-5.5,46.9-8.3,55.8-17.7"/>
	<path class="st42" d="M328,294.8c0,0,0.6-7.2,11.6-9.9c11-2.8,39.6-8.4,53.6-21c11-9.9,13.8-22.1,24.9-26.5"/>
	<path class="st42" d="M332.4,303.3c0,0,2.8-11.9,14.9-10.8c12.1,1.1,32-11,32-11"/>
	<path class="st42" d="M436.2,250c0,0,24.3-12.1,19.9-37.6"/>
	<path class="st42" d="M415.8,255.6c0,0,17.7-2.8,32-28.2"/>
	
		<ellipse transform="matrix(0.8224 -0.5689 0.5689 0.8224 -125.4122 245.7325)" class="st43" cx="330.8" cy="323.7" rx="5.2" ry="10.9"/>
	<line class="st44" x1="333.2" y1="318.5" x2="341.2" y2="310.8"/>
	<g>
		<path class="st45" d="M348.6,306.3c2.6-1.7,6.1-1,7.8,1.6l13.8,21.1c2.4,3.7,3.4,8.5,2.3,12.3c-1.4,4.7-7.9,5.9-10.5,1.7
			c-0.1-0.2-0.2-0.4-0.3-0.6"/>
		<path class="st46" d="M348.6,306.3c2.6-1.7,6.1-1,7.8,1.6l5.5,8.5"/>
		
			<ellipse transform="matrix(0.8372 -0.5469 0.5469 0.8372 -111.6249 240.0068)" class="st47" cx="347.3" cy="307.5" rx="2.2" ry="2.2"/>
		<path class="st45" d="M369.8,344.8c0,0,15.7,25.7,13.7,87.7"/>
	</g>
</g>
</svg>
