<?xml version="1.0" encoding="utf-8"?>
<!-- Generator: Adobe Illustrator 21.1.0, SVG Export Plug-In . SVG Version: 6.00 Build 0)  -->
<svg version="1.1" id="Слой_1" xmlns="http://www.w3.org/2000/svg" xmlns:xlink="http://www.w3.org/1999/xlink" x="0px" y="0px"
	 viewBox="0 0 800 600" style="enable-background:new 0 0 800 600;" xml:space="preserve">
<style type="text/css">
	.st0{fill:#F5F6F8;}
	.st1{fill:none;stroke:#D2D5D8;stroke-width:1.6568;stroke-linecap:round;stroke-linejoin:round;stroke-miterlimit:10;}
	.st2{fill:#FFFFFF;}
	.st3{fill:none;stroke:#D2D5D8;stroke-linecap:round;stroke-linejoin:round;stroke-miterlimit:10;}
	.st4{fill:none;stroke:#FFFFFF;stroke-width:1.6568;stroke-miterlimit:10;}
	.st5{fill:#ECEDF2;}
	.st6{fill:none;stroke:#D2D5D8;stroke-linecap:round;stroke-miterlimit:10;}
	.st7{fill:none;stroke:#F5F6F8;stroke-width:2.209;stroke-miterlimit:10;}
	.st8{clip-path:url(#SVGID_2_);}
	.st9{fill:none;stroke:#FFFFFF;stroke-miterlimit:10;}
	.st10{clip-path:url(#SVGID_4_);}
	.st11{fill:#0E1B5F;}
	.st12{fill:#010F50;}
	.st13{fill:#000D4E;}
	.st14{fill:#303D8B;}
	.st15{fill:#000C50;}
	.st16{fill:#FCF9F2;}
	.st17{fill:#FFB502;}
	.st18{fill:#2F3C8A;}
	.st19{fill:#394AA4;}
	.st20{fill:none;stroke:#000B43;stroke-width:3;stroke-linecap:round;stroke-linejoin:round;stroke-miterlimit:10;}
	.st21{fill:#FE6965;}
	.st22{fill:#000B43;}
	.st23{fill:none;stroke:#070707;stroke-width:0.8692;stroke-linecap:round;stroke-linejoin:round;stroke-miterlimit:10;}
	.st24{fill:#FF7976;}
	.st25{fill:#001065;}
	.st26{fill:#FE635F;}
	.st27{fill:#FFFFFF;stroke:#000B43;stroke-width:1.3038;stroke-miterlimit:10;}
	.st28{fill:#8EACCE;}
	.st29{fill:#C9DBEF;}
	.st30{fill:none;stroke:#000B43;stroke-width:2.1729;stroke-linecap:round;stroke-linejoin:round;stroke-miterlimit:10;}
	.st31{fill:#172472;}
	.st32{fill:none;stroke:#001065;stroke-width:2.1729;stroke-linecap:round;stroke-linejoin:round;stroke-miterlimit:10;}
	.st33{fill:#F2F9FF;}
	.st34{fill:none;stroke:#303D8B;stroke-width:0.8692;stroke-linecap:round;stroke-linejoin:round;stroke-miterlimit:10;}
	.st35{fill:none;stroke:#FFFFFF;stroke-width:0.8692;stroke-linecap:round;stroke-linejoin:round;stroke-miterlimit:10;}
	.st36{fill:none;stroke:#000B43;stroke-width:4.3458;stroke-miterlimit:10;}
	.st37{fill:#01004E;}
	.st38{fill:#67679B;}
</style>
<g>
	<rect x="50.5" y="39.8" class="st0" width="698" height="519.7"/>
	<line class="st1" x1="738.6" y1="410.4" x2="89.2" y2="410.4"/>
	<line class="st1" x1="622.1" y1="440.8" x2="691.7" y2="440.8"/>
	<line class="st1" x1="627.1" y1="464" x2="655.8" y2="464"/>
	<polygon class="st2" points="194.6,385 191.3,419 190.5,427.2 160.1,427.2 156,385 	"/>
	<line class="st3" x1="528.8" y1="311" x2="695" y2="311"/>
	<line class="st3" x1="650" y1="310.7" x2="650" y2="410.1"/>
	<line class="st3" x1="691.4" y1="310.7" x2="691.4" y2="410.7"/>
	<polyline class="st3" points="657.2,311.3 657.2,399.9 684.5,399.9 684.5,312.1 	"/>
	<line class="st3" x1="657.7" y1="335" x2="684.2" y2="335"/>
	<line class="st3" x1="657.7" y1="365.4" x2="684.2" y2="365.4"/>
	<line class="st3" x1="663.8" y1="399.1" x2="664.6" y2="373.4"/>
	<line class="st3" x1="670.4" y1="399.1" x2="669" y2="371.2"/>
	<line class="st3" x1="677.9" y1="398.2" x2="674.5" y2="372.3"/>
	<line class="st3" x1="684.5" y1="399.9" x2="680.6" y2="370.1"/>
	<line class="st3" x1="661" y1="364.8" x2="665.2" y2="342.5"/>
	<line class="st3" x1="666.8" y1="364" x2="671.2" y2="343.6"/>
	<line class="st3" x1="676.2" y1="364" x2="674.5" y2="340.8"/>
	<line class="st3" x1="681.2" y1="363.4" x2="679" y2="339.7"/>
	<rect x="289.1" y="103.9" class="st4" width="44.7" height="13.8"/>
	<rect x="262" y="117.7" class="st4" width="44.7" height="13.8"/>
	<rect x="289.1" y="131.5" class="st4" width="44.7" height="13.8"/>
	<rect x="262" y="145.3" class="st4" width="44.7" height="13.8"/>
	<rect x="289.1" y="159.1" class="st4" width="44.7" height="13.8"/>
	<rect x="262" y="172.9" class="st4" width="44.7" height="13.8"/>
	<rect x="289.1" y="186.7" class="st4" width="44.7" height="13.8"/>
	<rect x="157.6" y="165.7" class="st4" width="44.7" height="13.8"/>
	<rect x="180.3" y="179.5" class="st4" width="44.7" height="13.8"/>
	<line class="st3" x1="663.2" y1="334.5" x2="663.5" y2="318.2"/>
	<line class="st3" x1="667.9" y1="333.6" x2="667.9" y2="318.7"/>
	<line class="st3" x1="672.9" y1="333.1" x2="672.9" y2="317.1"/>
	<line class="st3" x1="678.4" y1="333.6" x2="678.4" y2="318.7"/>
	<g>
		<line class="st1" x1="639.8" y1="235.9" x2="625.4" y2="190.6"/>
		<line class="st1" x1="640.3" y1="244.2" x2="645.8" y2="178.4"/>
		<line class="st1" x1="641.4" y1="250.2" x2="661.8" y2="183.4"/>
		<line class="st1" x1="622.6" y1="196.1" x2="628.2" y2="199.4"/>
		<line class="st1" x1="630.9" y1="196.7" x2="630.1" y2="204.7"/>
		<line class="st1" x1="625.4" y1="204.4" x2="630.6" y2="208"/>
		<line class="st1" x1="634.2" y1="207.7" x2="633.1" y2="213"/>
		<line class="st1" x1="629.3" y1="215.4" x2="633.4" y2="217.7"/>
		<line class="st1" x1="637.5" y1="217.7" x2="636.2" y2="223.5"/>
		<line class="st1" x1="631.5" y1="225.4" x2="637.3" y2="228.7"/>
		<line class="st1" x1="639.2" y1="212.1" x2="642.2" y2="219.9"/>
		<line class="st1" x1="646.9" y1="206.6" x2="643.1" y2="212.7"/>
		<line class="st1" x1="643.3" y1="204.4" x2="639.8" y2="198.9"/>
		<line class="st1" x1="644.4" y1="196.9" x2="648" y2="192.8"/>
		<line class="st1" x1="644.4" y1="190.3" x2="642" y2="185.6"/>
		<line class="st1" x1="645.6" y1="182.9" x2="649.1" y2="179.5"/>
		<line class="st1" x1="646.9" y1="231.5" x2="645.3" y2="224.8"/>
		<line class="st1" x1="648.9" y1="226.2" x2="653.6" y2="224.3"/>
		<line class="st1" x1="650.2" y1="220.4" x2="648.6" y2="213.2"/>
		<line class="st1" x1="652.5" y1="213.5" x2="656.9" y2="210.5"/>
		<line class="st1" x1="654.4" y1="206.3" x2="652.5" y2="200.5"/>
		<line class="st1" x1="656.3" y1="201.9" x2="661.3" y2="199.4"/>
		<line class="st1" x1="656.9" y1="196.7" x2="655.8" y2="190.6"/>
		<line class="st1" x1="659.1" y1="192.8" x2="663.5" y2="189.5"/>
	</g>
	<path class="st3" d="M676.2,254.1h3.9v12.1c0,0,4.4-1.7,3,17.7l-9.7-0.3c0,0-1.7-16.3,2.8-17.4V254.1z"/>
	<polygon class="st3" points="697.7,272.3 698,283.6 703.3,283.6 703.3,272.3 	"/>
	<path class="st5" d="M522.4,134.8c0,0-1.4,9.4,18.5,8.3c19.9-1.1,34.2,8.8,51.9,7.7c17.7-1.1,30.4-9.4,29.8-15.7L522.4,134.8z"/>
	<polygon class="st3" points="527.6,90.6 527.6,99.5 521.3,128.5 542,128.5 533.7,99.5 533.7,90.6 	"/>
	<path class="st3" d="M531,90.1c0,0-2.8-7.2,8.3-11.6s12.1-11.6,12.1-11.6"/>
	<line class="st3" x1="531" y1="88.4" x2="536.5" y2="86.8"/>
	<line class="st6" x1="533.4" y1="81.8" x2="533.7" y2="75.7"/>
	<line class="st3" x1="536.5" y1="79.9" x2="543.1" y2="80.7"/>
	<line class="st3" x1="541.5" y1="76.8" x2="540.9" y2="70.8"/>
	<line class="st3" x1="547.3" y1="73.2" x2="552.5" y2="72.4"/>
	<line class="st1" x1="548.9" y1="71" x2="548.1" y2="65.8"/>
	<path class="st3" d="M548.6,109.4h24.3c0,0,7.7,9.4,0,19.1h-23.7C549.2,128.5,539.8,120.5,548.6,109.4z"/>
	<line class="st3" x1="546.7" y1="112.7" x2="574.3" y2="112.7"/>
	<path class="st3" d="M560.8,108.9c0,0-4.4-7.2,1.7-13.3C562.4,95.6,568.5,103.3,560.8,108.9z"/>
	<path class="st3" d="M560.8,108.9c0,0,4.4-6.6,9.9-5.5C570.7,103.3,570.2,110.5,560.8,108.9z"/>
	<path class="st3" d="M560.8,108.9c0,0-2.8-7.2-7.7-6.6C553.1,102.2,551.4,110,560.8,108.9z"/>
	<polygon class="st3" points="579.6,128.2 584,113.8 593.9,113.8 600,128.2 	"/>
	<line class="st3" x1="584.5" y1="116" x2="594.7" y2="116"/>
	<line class="st1" x1="590.6" y1="119.9" x2="596.1" y2="119.9"/>
	<line class="st1" x1="589.5" y1="124.9" x2="598.3" y2="124.9"/>
	<polyline class="st3" points="610.5,128.2 610.5,97.3 619.3,97.3 619.3,128.2 	"/>
	<polyline class="st3" points="619.9,113.3 625.4,113.3 625.4,128.2 	"/>
	<polyline class="st3" points="630.9,127.6 630.9,100 654.1,100 654.1,128.5 	"/>
	<path class="st3" d="M639.8,116.6c0,0-3.3-6.1,3.3-5.5c6.6,0.6,2.2,6.1,2.2,6.1s7.2,3.9,2.5,11.3h-11
		C636.7,128.5,631.5,119.9,639.8,116.6z"/>
	<path class="st3" d="M639.8,116.6c0,0,2.2,2.2,5.5,0.6"/>
	<path class="st3" d="M643.1,118c0,0,1.7,1.4,1.1,5.2"/>
	<path class="st3" d="M640.6,111.1l2.5-7.2l2.5,7.5C645.6,111.3,644.2,109.4,640.6,111.1z"/>
	<rect x="470.8" y="66.3" class="st4" width="45.3" height="13.8"/>
	<rect x="348.2" y="78.5" class="st2" width="91.7" height="117.6"/>
	<rect x="348.2" y="205.5" class="st2" width="91.7" height="117.6"/>
	<line class="st7" x1="365.6" y1="78.8" x2="365.6" y2="323.2"/>
	<line class="st7" x1="421.5" y1="78.8" x2="421.5" y2="322.5"/>
	<line class="st7" x1="348.6" y1="93.9" x2="439.6" y2="93.9"/>
	<line class="st7" x1="347.9" y1="178.5" x2="439.6" y2="178.5"/>
	<line class="st7" x1="348.3" y1="223.5" x2="439.2" y2="223.5"/>
	<line class="st7" x1="348.3" y1="307.4" x2="439.9" y2="307.4"/>
	<line class="st4" x1="453.6" y1="47" x2="453.6" y2="323.1"/>
	<line class="st4" x1="334.4" y1="69.1" x2="334.4" y2="323.1"/>
	<line class="st4" x1="362" y1="66.9" x2="426.6" y2="66.9"/>
	<line class="st4" x1="143.8" y1="53.6" x2="400.6" y2="53.6"/>
	<rect x="306.7" y="117.7" class="st4" width="27.1" height="13.8"/>
	<rect x="306.7" y="145.3" class="st4" width="27.1" height="13.8"/>
	<rect x="306.7" y="172.9" class="st4" width="27.1" height="13.8"/>
	<line class="st3" x1="517.7" y1="134.8" x2="623.7" y2="134.8"/>
	<line class="st3" x1="517.2" y1="128.7" x2="663.5" y2="128.7"/>
	<path class="st5" d="M91.4,165.7c-13.9,3.2-24.3,20.4-6.6,49.2s34.8,35.9,32,65.7c-2.8,29.8,12.1,36.4,25.4,50.8
		c13.3,14.4,12.7,39.8,31.8,30.1c19.1-9.7,13-38.4-0.3-72.1c-13.3-33.7,6.1-38.1-23.7-64.1S134.4,155.8,91.4,165.7z"/>
	<path class="st5" d="M185.3,356.3c0,0-9.9,0-6.6-13.3s-8.3-28.2,3.9-43.6s17.1-9.4,16.6-48.6c-0.6-39.2,0.6-61.9,38.1-74.6
		c32.3-10.9,37.2-23.1,47.5-10.4c3.5,4.3,8.1,7.5,13.2,9.7c4,1.8,7.7,5.6,5.1,14c-5,16-29.8,20.4-29.3,40.9s-0.6,19.9-14.9,44.7
		c-14.4,24.9,3.9,30.4-27.1,46.4C195.5,340.2,210.7,364.6,185.3,356.3z"/>
	<path class="st5" d="M191.9,376.2c-7.7-4.5-5-19.3,4.4-25.4c9.4-6.1,13.8-1.7,23.2-11.6c9.4-9.9,17.1-26.5,26-21.5
		c8.8,5,1.1,11.6,4.4,21c3.3,9.4,0,17.7-15.5,20.4C218.9,361.8,213.4,388.9,191.9,376.2z"/>
	<path class="st4" d="M174.2,387.7c0,0,29.8-132,104.9-207.6"/>
	<path class="st4" d="M96.9,185.6c0,0,83.4,112.7,77,200.2"/>
	<path class="st4" d="M228.9,349.1c0,0-36.4,12.7-49.2,37.6"/>
	<line class="st3" x1="533.4" y1="310.7" x2="533.4" y2="410.1"/>
	<line class="st3" x1="574.9" y1="310.7" x2="574.9" y2="410.7"/>
	<polyline class="st3" points="540.6,311.3 540.6,399.9 568,399.9 568,312.1 	"/>
	<line class="st3" x1="541.2" y1="335" x2="567.7" y2="335"/>
	<line class="st3" x1="541.2" y1="365.4" x2="567.7" y2="365.4"/>
	<line class="st3" x1="547.3" y1="399.1" x2="548.1" y2="373.4"/>
	<line class="st3" x1="553.9" y1="399.1" x2="552.5" y2="371.2"/>
	<line class="st3" x1="561.3" y1="398.2" x2="558" y2="372.3"/>
	<line class="st3" x1="568" y1="399.9" x2="564.1" y2="370.1"/>
	<line class="st3" x1="544.5" y1="364.8" x2="548.6" y2="342.5"/>
	<line class="st3" x1="550.3" y1="364" x2="554.7" y2="343.6"/>
	<line class="st3" x1="559.7" y1="364" x2="558" y2="340.8"/>
	<line class="st3" x1="564.6" y1="363.4" x2="562.4" y2="339.7"/>
	<line class="st3" x1="546.7" y1="334.5" x2="547" y2="318.2"/>
	<line class="st3" x1="551.4" y1="333.6" x2="551.4" y2="318.7"/>
	<line class="st3" x1="556.4" y1="333.1" x2="556.4" y2="317.1"/>
	<line class="st3" x1="561.9" y1="333.6" x2="561.9" y2="318.7"/>
	<rect x="628.7" y="233.1" class="st5" width="24.3" height="50.5"/>
	<line class="st4" x1="635.6" y1="232.3" x2="636.2" y2="283.1"/>
	<line class="st4" x1="645.6" y1="232.8" x2="646.1" y2="283.1"/>
	<line class="st3" x1="454.8" y1="283.9" x2="737" y2="283.9"/>
	<path class="st5" d="M191.3,419l-0.8,8.2h-30.4L156,385h6.8C163.5,394.2,167.7,416.7,191.3,419z"/>
	<line class="st1" x1="350.4" y1="427.5" x2="123.9" y2="427.5"/>
	<g>
		<defs>
			<path id="SVGID_1_" d="M91.4,165.7c-13.9,3.2-24.3,20.4-6.6,49.2s34.8,35.9,32,65.7c-2.8,29.8,12.1,36.4,25.4,50.8
				c13.3,14.4,12.7,39.8,31.8,30.1c19.1-9.7,13-38.4-0.3-72.1c-13.3-33.7,6.1-38.1-23.7-64.1S134.4,155.8,91.4,165.7z"/>
		</defs>
		<clipPath id="SVGID_2_">
			<use xlink:href="#SVGID_1_"  style="overflow:visible;"/>
		</clipPath>
		<g class="st8">
			<line class="st9" x1="138" y1="253" x2="149.5" y2="217.5"/>
			<line class="st9" x1="142" y1="262.5" x2="155.5" y2="222.5"/>
			<line class="st9" x1="147.5" y1="271.5" x2="162.5" y2="229.5"/>
			<line class="st9" x1="154" y1="286" x2="167.5" y2="245.5"/>
			<line class="st9" x1="82.5" y1="215.5" x2="123" y2="227"/>
			<line class="st9" x1="90.5" y1="227.5" x2="129" y2="237"/>
			<line class="st9" x1="99.5" y1="240.5" x2="134.5" y2="247.5"/>
			<line class="st9" x1="108.5" y1="250.5" x2="140" y2="258"/>
		</g>
	</g>
	<g>
		<defs>
			<path id="SVGID_3_" d="M185.3,356.3c0,0-9.9,0-6.6-13.3s-8.3-28.2,3.9-43.6s17.1-9.4,16.6-48.6c-0.6-39.2,0.6-61.9,38.1-74.6
				c32.3-10.9,37.2-23.1,47.5-10.4c3.5,4.3,8.1,7.5,13.2,9.7c4,1.8,7.7,5.6,5.1,14c-5,16-29.8,20.4-29.3,40.9s-0.6,19.9-14.9,44.7
				c-14.4,24.9,3.9,30.4-27.1,46.4C195.5,340.2,210.7,364.6,185.3,356.3z"/>
		</defs>
		<clipPath id="SVGID_4_">
			<use xlink:href="#SVGID_3_"  style="overflow:visible;"/>
		</clipPath>
		<g class="st10">
			<line class="st9" x1="246.5" y1="166.5" x2="255" y2="208"/>
			<line class="st9" x1="237.5" y1="176.5" x2="247" y2="218.5"/>
			<line class="st9" x1="225.5" y1="179.5" x2="238.5" y2="232"/>
			<line class="st9" x1="255.5" y1="167.5" x2="262" y2="199"/>
			<line class="st9" x1="243.5" y1="225.5" x2="282.5" y2="231.5"/>
			<line class="st9" x1="250" y1="216.5" x2="278.5" y2="220.5"/>
			<line class="st9" x1="253" y1="210.5" x2="288.5" y2="215.5"/>
			<line class="st9" x1="259" y1="203.5" x2="298.5" y2="209.5"/>
			<line class="st9" x1="266" y1="195" x2="307" y2="200"/>
		</g>
	</g>
</g>
<g>
	<path class="st11" d="M179.7,463.3c-4.4-1.6-7-5.6-8.6-10.6c-0.7-2.1-1.2-4.4-1.5-6.7c-0.9-5.5-1-11.5-1.3-16.6
		c-0.1-2.8-0.3-5.3-0.6-7.4c-0.1-0.6-0.2-1.2-0.3-1.7c-0.6-2.6-1.5-4.8-3-6.8c-1.4-1.9-3.2-3.6-5.5-5.2c-4.4-3-10.4-5.7-18-8.8
		c-0.2-0.1-0.3-0.1-0.5-0.2c-1.8-0.8-3.4-1.5-4.7-2.3c-2-1.1-3.5-2.2-4.6-3.3c-4.5-4.3-2.9-8.2-2.4-10.7c0.3-1.5,2.6-4.1,6.2-6.2
		c5-2.8,12.4-4.5,20.3-0.3c2.8,1.5,5.5,3.8,8,6.6c1.4,1.6,2.8,3.5,4.1,5.5c2.5,3.9,4.6,8.5,6.1,13.4c0.9,2.8,1.6,5.6,2.2,8.6
		c0.6,3.4,1,6.8,1.1,10.3c0.1,2.2,0,4.5-0.2,6.7c-0.1,1.4-0.3,2.8-0.5,4.2c-0.6,3.6-0.8,6.6-0.9,9.2c-0.1,2.9,0.1,5.3,0.4,7.2
		c1.3,7,4.8,7.3,4.8,7.3S193.3,468.3,179.7,463.3z"/>
	<path class="st12" d="M245.7,397.3c0,0-12.2,2.9-23.7,20.1h14.3L245.7,397.3z"/>
	<path class="st13" d="M266.5,459c0,0-4.3,23.7-12.9,34.4c0,0,4.3-0.7,4.3,2.9h-10.8c0,0,3.6-10.8,3.6-20.8
		C250.7,465.5,266.5,459,266.5,459z"/>
	<path class="st13" d="M205.5,485.6c0,0,0.7,3.6,2.2,7.2c0,0,3.6-0.7,4.3,2.9h-7.9c0,0-6.5-7.9-5-12.9
		C200.5,477.7,205.5,485.6,205.5,485.6z"/>
	<path class="st14" d="M266.5,463.3c-17.2,43.8-73.9,20.8-73.9,20.8c0,2.9,2.2,8.6,2.2,8.6c5,0.7,5,3.6,5,3.6l-8.6-0.7
		c-3.1-3.5-5.7-7.6-7.6-11.9c-5.8-12.7-6.7-27.8-2.4-36.9c2.9-6.2,8.1-8.9,14.6-10.6c3.9-1,8.2-1.7,12.8-2.6
		c2.7-0.5,5.6-1.1,8.5-1.9c3.7-1,6.6-3.1,9.1-5.9c9.4-10.4,12.4-29.8,26-32.1C274.4,390,282.6,422.4,266.5,463.3z"/>
	<path class="st14" d="M241.4,484.8l-2.2,7.9c0,0,2.2,0,2.2,2.9h-8.6l-1.4-10L241.4,484.8z"/>
	<g>
		<path class="st15" d="M259.5,409.1l-28.2,4l27.8-6.1c0.6-0.1,1.2,0.2,1.3,0.8C260.5,408.4,260.2,409,259.5,409.1
			C259.6,409.1,259.5,409.1,259.5,409.1z"/>
	</g>
	<g>
		<path class="st15" d="M258.3,411.9l-15.5,5.5l14.6-7.4c0.5-0.3,1.2-0.1,1.5,0.5c0.3,0.5,0.1,1.2-0.5,1.5
			C258.4,411.9,258.4,411.9,258.3,411.9z"/>
	</g>
	<g>
		<path class="st15" d="M266.4,406.3l26.7-1.8l-26.4,3.9c-0.6,0.1-1.1-0.3-1.2-0.9C265.3,406.9,265.7,406.4,266.4,406.3
			C266.3,406.3,266.4,406.3,266.4,406.3z"/>
	</g>
	<g>
		<path class="st15" d="M269.5,408.5l14.2,3.2l-14.5-1.1c-0.6,0-1-0.6-1-1.2c0-0.6,0.6-1,1.2-1C269.4,408.4,269.5,408.4,269.5,408.5
			z"/>
	</g>
	<path class="st16" d="M262.9,407.4c0,0-2.2-0.7-2.2-2.2s3.6-0.7,3.6,0c0,0.6-1.8,4.7-1.5,7.5c0.1,1,1,1.7,2,1.7
		c0.8,0,1.7,0.3,1.7,1.5C266.5,418.1,257.9,418.1,262.9,407.4z"/>
	<path class="st17" d="M274.4,400.9c0,0-1.9,3.1-5.2,3.2c-1.7,0-3.8-0.7-6.3-3.2c0,0,2.3-3,5.8-2.9
		C270.4,398.1,272.3,398.8,274.4,400.9z"/>
	<path class="st17" d="M260,400.9c-1.7,2.5-3.6,3.7-5.4,4.1c-4.3,0.9-8.2-2.7-8.2-2.7c2.4-2.7,4.8-3.7,6.9-3.9
		C257.2,398.1,260,400.9,260,400.9z"/>
	<path d="M260,400.9c-1.7,2.5-3.6,3.7-5.4,4.1c-1.9-2.1-1.7-5-1.4-6.5C257.2,398.1,260,400.9,260,400.9z"/>
	<path d="M274.4,400.9c0,0-1.9,3.1-5.2,3.2c-1.4-2.2-0.9-4.6-0.4-6C270.4,398.1,272.3,398.8,274.4,400.9z"/>
	<path class="st18" d="M175.6,448.1c-1.4,1.2-3,2.7-4.5,4.6c-0.7-2.1-1.2-4.4-1.5-6.7c1.1-1.4,2.8-3.3,5.6-5
		C175.1,443.9,175.3,446.3,175.6,448.1z"/>
	<path class="st18" d="M176.6,427.6c-3.4,0.3-6.4,1.1-8.3,1.8c-0.1-2.8-0.3-5.3-0.6-7.4c4.4,0.3,7.2-0.4,9-1.1
		C176.8,423.1,176.8,425.3,176.6,427.6z"/>
	<path class="st18" d="M175.7,410.6c-2.5,1.3-7,3.3-11.2,2.9c-1.4-1.9-3.2-3.6-5.5-5.2c1.2-0.7,3.4-1.6,7.1-2.4
		c3.7-0.7,6-2.4,7.5-3.9C174.4,404.8,175.1,407.7,175.7,410.6z"/>
	<path class="st18" d="M167.4,388.7c-1,0.5-2.2,1.4-3.5,2.9c-2.9,3.6-7.9,5-15.1,4.3c-4.6-0.5-7.2,1.8-8.4,3.4
		c-1.8-0.8-3.4-1.5-4.7-2.3c3.4-13.1,12.8-11.1,19.5-11.1c4.2,0,6.7-1.5,8-2.7C164.8,384.8,166.1,386.7,167.4,388.7z"/>
	<path class="st18" d="M131.2,393.7c-4.5-4.3-2.9-8.2-2.4-10.7c0.3-1.5,2.6-4.1,6.2-6.2C132.8,379.8,130.8,385,131.2,393.7z"/>
	<path class="st19" d="M192.6,466.9c-6.4,5.9-8.5,13.4-9.1,16.8c-5.8-12.7-6.7-27.8-2.4-36.9c2.9-6.2,8.1-8.9,14.6-10.6
		c-0.8,2.6-1.1,5.9,0.5,9.2C199.8,452.6,201.2,459,192.6,466.9z"/>
	<path class="st19" d="M219.9,438.2c-6.6,2-9.9-2-11.3-4.5c2.7-0.5,5.6-1.1,8.5-1.9c3.7-1,6.6-3.1,9.1-5.9
		C226.6,429.6,226.4,436.2,219.9,438.2z"/>
</g>
<line class="st20" x1="154" y1="497" x2="280.7" y2="497"/>
<g>
	<g>
		<polygon class="st21" points="481.9,473 488.4,481.7 463.7,496.1 516.7,496.1 503.6,467.8 		"/>
		<path class="st22" d="M441.9,415.2c0,0,31.7,47.8,33.9,50c0,0-0.9,1.3-0.9,4.3s2.6,5.6,2.6,5.6s28.7-3.9,30-5.2
			c1.3-1.3-0.9-6.1-3.5-7.4c-2.6-1.3-14.3-50.4-17.4-53.5S450.2,407.4,441.9,415.2z"/>
		<line class="st23" x1="479.7" y1="465.6" x2="500.2" y2="462.2"/>
		<path class="st23" d="M463.9,410.1c0,0,18.9,43.8,25,50.8"/>
		<rect x="334.2" y="334.8" class="st22" width="6.5" height="158.2"/>
		<path class="st24" d="M362.8,454.8l-9.6,24.3l-33,17.4h53.9l1.7-15.2c0,0,11.3-10.9,13-13.9C390.7,464.3,362.8,454.8,362.8,454.8z
			"/>
		<path class="st14" d="M362.1,442.9c-1.1,1.4-2.3,3.4-3.5,6.2c-1.3,3.1,0,6.6,3,8.1l25.7,13.1c2.7,1.4,6,0.6,7.7-1.9
			c0.6-0.9,1.3-2,2-3.2c1.5-2.6,0.6-5.9-1.9-7.4l-27-16.1C366,440.6,363.5,441.1,362.1,442.9z"/>
		<path class="st22" d="M438.5,327.9c0,0-24.8,16.5-23.5,26.9c1.3,10.4,5.6,19.1,5.6,19.1l86-31.3l-1.3-30.4L438.5,327.9z"/>
		<path class="st24" d="M536.2,210.1l-2.1,9.2l-2.2,9.5h-20.4c-2.6-16.1-17.4-13-17.4-13c-9.6,10.9-17.4-4.3-17.4-4.3l-7,0.4
			c3-11.7-5.2-23.5-5.2-23.5L468,171l25.6-0.4l8.7,23.9c1,1.1,2,2.2,3,3.1C518.4,209.7,536.2,210.1,536.2,210.1z"/>
		<path class="st25" d="M493.2,187.9c0,0-1.7-5.6-4.8-4.3c-3,1.3-9.1-0.4-11.3-3.5c-2.2-3-7.4-4.3-8.3,0.9
			c-0.9,5.2-1.7,10.9-7.4,9.6c-5.6-1.3-7.4-3-3.5-11.3c3.9-8.3-2.6-8.7-3-15.6s4.3-13.9,11.3-13.9s10.4,1.3,14.8,4.3
			s9.1,4.3,15.2,2.2s10.9,1.7,12.6,4.8c1.7,3-0.9,4.8-0.4,8.7c0.4,3.9,3.5,3.9,4.3,10.9c0.9,7-3.9,7-5.6,10s-0.9,5.6,3.5,6.1
			c0,0-0.9,2.2-4.6,1.5C502.3,197.5,493.2,187.9,493.2,187.9z"/>
		<g>
			<path class="st25" d="M508,192.3c0.4,0.8,0.9,1.3,1.6,1.5c0.3,0.2,0.7,0.2,1.1,0.3c0.4,0.1,0.8,0.2,1.2,0.3
				c-0.4,0.2-0.8,0.3-1.3,0.4c-0.5,0-0.9,0-1.4-0.2c-0.4-0.2-0.9-0.5-1.1-1C507.9,193.2,507.8,192.7,508,192.3z"/>
		</g>
		<path class="st26" d="M536.2,210.1l-2.1,9.2c-4.8,5.2-9.8,10-10,7.3c-0.4-5.2,3-2.6,4.8-7.4c1.7-4.8-0.9-3.9-10.4-9.1
			c-6.5-3.6-10.9-9.3-13.1-12.5C518.4,209.7,536.2,210.1,536.2,210.1z"/>
		<circle class="st26" cx="485.8" cy="208.8" r="4.8"/>
		<path class="st24" d="M491.9,187.9c0,0,3-8.3,9.6-3.5c6.5,4.8,1.3,10.9-1.3,10.4S491.9,187.9,491.9,187.9z"/>
		<rect x="325.9" y="328.8" class="st27" width="23.5" height="11.3"/>
		<rect x="315" y="322.7" class="st28" width="44.8" height="10"/>
		<rect x="245.5" y="318.8" class="st29" width="193.8" height="7.4"/>
		<line class="st30" x1="278.5" y1="258.3" x2="312.9" y2="317.5"/>
		<g>
			<path class="st24" d="M498.9,330.5c-1.8,2.3-4.8,4.7-8,6.8c-5.3,3.5-10.7,6.3-10.7,6.3c-3.9,0.8-9.6,0-16.3-1.7
				c-8.9-2.3-19.6-6.3-30.1-10.6c-4-1.7-8-3.4-11.9-5.1c-6-2.6-11.7-5.2-16.6-7.4c-5.7-2.6-10.4-4.6-13.3-5.7
				c-12.6-4.6-16.2,2.2-16.9,3.9c-0.1,0.2-0.1,0.4-0.1,0.4l-12.9-0.4l-15.7-0.4c8.9-11.6,45.2-16.5,73.9-17.2c1.6,0,3.1-0.1,4.6-0.1
				c2,0,3.9,0,5.8,0h0c0.7,0,1.3,0,1.9,0c0,0,0,0,0,0c1.5,0,3,0.1,4.4,0.1c0.3,0,0.7,0,1,0c0.8,0,1.7,0.1,2.4,0.1
				c0.4,0,0.7,0,1.1,0.1c0.1,0,0.2,0,0.2,0c1.6,0.1,3.2,0.2,4.6,0.2c0.6,0,1.3,0,1.9,0h0.1c1.7,0,3.3-0.1,4.8-0.2
				c0.5,0,1.1-0.1,1.6-0.1h0c1.1-0.1,2.2-0.2,3.2-0.4c0.5-0.1,0.9-0.2,1.3-0.2c11.6-2.2,13.2-7.5,13.2-7.5l0,0
				c0.5,0.6,12.3,13,20.1,23.9C497.3,322,500.7,328.2,498.9,330.5z"/>
			<path class="st26" d="M490.9,337.2c-5.3,3.5-10.7,6.3-10.7,6.3c-3.9,0.8-9.6,0-16.3-1.7c1.2-3.7,4.3-9.3,12.8-10.4
				C483.4,330.5,488,333.8,490.9,337.2z"/>
		</g>
		<path class="st14" d="M609.7,370c-0.9,1.9-1.9,3.7-2.8,5.4c-3.9,6.9-8.4,12.6-13.3,17.3c-9.5,9.2-20.4,14.5-30.7,17.5
			c-19.1,5.5-36.4,3.1-40.1,2.8c-7-0.4-52.6-7-73.4,0c-20.9,7-54.3,49.5-54.3,49.5l-30-14.8l3-7c6.5-14.3,32.2-57.4,45.2-68.7
			c7.3-6.4,33.4-16.3,54.8-23.8c16.6-5.8,30.4-10.1,30.4-10.1l40-6.1L609.7,370z"/>
		<path class="st31" d="M609.7,370c-0.9,1.9-1.9,3.7-2.8,5.4c-0.1,0-0.3,0.1-0.4,0.1c-25.9,8.6-48.7-18.1-77.4-30.6
			c-16.9-7.4-44.9,0.1-61,3.4c16.6-5.8,30.4-10.1,30.4-10.1l40-6.1L609.7,370z"/>
		<g>
			<path class="st25" d="M625.9,343c-0.9,5.4-2.1,10.7-3.7,15.8c-1.6,5.2-3.6,10.3-6.1,15.1c-4.9,9.7-11.6,18.6-20.1,25.6
				c-8.4,7-18.5,11.7-29,14.5c-10.5,2.8-21.4,3.5-32.1,3.2c-0.6,0-1.1-0.5-1.1-1.1c0-0.6,0.5-1.1,1.1-1.1l0,0
				c10.6,0.2,21.2-0.7,31.4-3.5c10.1-2.8,19.7-7.5,27.7-14.3c8-6.7,14.3-15.3,18.9-24.8c2.3-4.7,4.2-9.6,5.7-14.7
				c1.5-5,2.6-10.2,3.4-15.4l0,0c0.2-1.1,1.2-1.8,2.2-1.6C625.3,340.9,626.1,341.9,625.9,343C625.9,343,625.9,343,625.9,343z"/>
		</g>
		<g>
			<path class="st25" d="M627.3,326.1c0,0.8,0,1.5,0,2.3l-0.1,2.3c-0.1,1.5-0.2,3-0.3,4.5c-0.1,1.1-1.1,1.9-2.2,1.8
				c-1.1-0.1-1.9-1.1-1.8-2.2l0,0c0.1-1.4,0.2-2.9,0.3-4.3l0.1-2.2c0-0.7,0-1.5,0-2.1l0,0c0-1.1,0.8-2,1.9-2
				C626.4,324.2,627.3,325,627.3,326.1z"/>
		</g>
		<path class="st32" d="M545.8,416.5l-20.7,67.9c-1.8,6,2.7,12.1,8.9,12.1h87.6c7,0,11.5-7.4,8.3-13.7l-41.3-79.1"/>
		<path class="st2" d="M607.1,373.1c-13.9,1.7-38.5-10.7-59.1-24.3c-18-12-25.5-11.1-36-11.3c-7.9-0.1-13.6,0.8-13.6,0.8l0.4-7.8
			l-26.5-39.1c0,0,20-40.4,30-53.9c10-13.5,13.5-10.9,20-12.6c6.5-1.7,9.1-6.1,9.6-10c0.4-3.9,2.1-7.3,7-5.2
			C649.2,256.2,621,371.3,607.1,373.1z"/>
		<path class="st33" d="M518.4,319.2c-5,6.9-6.1,14.9-6.4,18.3c-7.9-0.1-13.6,0.8-13.6,0.8l0.4-7.8c0,0,7.4-3.5,21.3-19.6
			c13.9-16.1,20.9-16.5,22.6-12.2C544.5,303.1,524.9,310.1,518.4,319.2z"/>
		<line class="st34" x1="479.3" y1="290.5" x2="502.8" y2="323.1"/>
		<path class="st35" d="M565.4,358.3c0,0-11.3,19.1-49.1,26.1s-64.8,1.3-84.7,8.3s-46.1,52.6-46.1,52.6"/>
		<line class="st35" x1="371.1" y1="443.5" x2="393.7" y2="456.5"/>
		<path class="st31" d="M593.6,392.7c-9.5,9.2-20.4,14.5-30.7,17.5c14.7-10.5,19-26.3,19-26.3C584.3,388.6,590.3,391.5,593.6,392.7z
			"/>
		<line class="st36" x1="312.9" y1="317" x2="378" y2="317"/>
	</g>
	<line class="st20" x1="297" y1="497" x2="670" y2="497"/>
	<g>
		<path class="st25" d="M482.5,151c2.2,0.9,4.3,1.7,6.4,2c1.1,0.2,2.2,0.3,3.3,0.3c1.1,0,2.2-0.1,3.4-0.1c-1,0.7-2.1,1.2-3.3,1.4
			c-1.2,0.3-2.4,0.3-3.7,0.1c-1.2-0.2-2.4-0.6-3.4-1.2C484.1,152.8,483.2,152,482.5,151z"/>
	</g>
	<ellipse transform="matrix(0.8792 -0.4765 0.4765 0.8792 -35.0144 248.7048)" class="st2" cx="473" cy="193.4" rx="1.9" ry="4.1"/>
	
		<ellipse transform="matrix(0.8792 -0.4765 0.4765 0.8792 -35.6975 249.0125)" class="st37" cx="473.2" cy="194.9" rx="1" ry="2.7"/>
	<path class="st38" d="M466.8,311.4c-0.2,0.1-0.4,0.1-0.6,0c-0.1-0.1-8.1-7.1-17.6-7.4c0.3,2.1,1.8,9.4,7.6,15.2
		c1.5,1,2.2,1.9,2.3,2c0.1,0.2,0.1,0.5-0.1,0.7c-0.1,0.1-0.2,0.1-0.3,0.1c-0.1,0-0.2,0-0.3-0.1c-0.7-0.6-1.4-1.2-2.1-1.8
		c-2.7-1.8-8.3-4-18.5-2.1c-0.2,0-0.5-0.1-0.6-0.3c-0.1-0.2,0-0.5,0.2-0.6c0.3-0.2,7-4.5,3.3-13.3c-1.2,2.6-4.9,8.7-13.2,6.2
		c-0.2-0.1-0.4-0.3-0.4-0.5c0-0.2,0.2-0.4,0.4-0.5c0,0,3.4-1,4.2-3.1c0.4-0.9,0.2-1.9-0.4-3.1c-0.5-0.3-3.6-2.5-10.4-3.5
		c1.6,0,3.1-0.1,4.6-0.1c4.4,1.2,6.3,2.7,6.5,2.9c0,0,0.1,0.1,0.1,0.1c0.9,1.4,1,2.8,0.5,4c-0.6,1.5-2.1,2.5-3.3,3.1
		c8.2,1.5,10.8-6.7,10.9-7c0.1-0.2,0.2-0.3,0.4-0.4c0.2,0,0.4,0.1,0.5,0.3c3.7,7.5,0.4,12.3-1.7,14.4c7-1.1,11.8-0.1,14.9,1.1
		c-5.3-6.6-6.1-14.2-6.1-14.3c0-0.1,0-0.3,0.1-0.4c0.1-0.1,0.2-0.2,0.4-0.2c7.6,0,14.2,4.1,17.2,6.3c-2.4-5-5-8.2-7.4-10.2
		c0.5-0.1,0.9-0.2,1.3-0.2c2.5,2.4,5.3,6.1,7.9,11.9C467,311,467,311.3,466.8,311.4z"/>
	<path class="st38" d="M437,299.4c0.3,0,0.7,0,1,0c-0.1,2.2-0.8,4.5-2.8,5.5c-0.2,0.1-0.4,0.1-0.5-0.1c-0.2-0.1-0.2-0.3-0.2-0.5
		c0,0,0.5-2.6-3.9-5.1c0.7,0,1.3,0,1.9,0c0,0,0,0,0,0c2.2,1.6,2.8,3.2,3,4.3C436.5,302.6,436.9,301,437,299.4z"/>
	<path class="st38" d="M457.4,302.8c-0.1,0.2-0.4,0.2-0.6,0.1c-0.1,0-6.6-2.8-11.3-2c-0.1,1.6-0.4,8.1,2.9,12.3
		c0.1,0.1,0.1,0.3,0.1,0.5c-0.1,0.2-0.3,0.3-0.5,0.3h-5c-0.2,0-0.3-0.1-0.4-0.2c-0.1-0.1-0.1-0.3-0.1-0.5c0-0.1,2.8-7.8-1.9-13.5
		l-0.2-0.3c0.4,0,0.7,0,1.1,0.1c0.1,0,0.2,0,0.2,0c3.9,5.1,2.5,11.3,2,13.4h3.3c-3.4-5.1-2.6-12.2-2.5-12.6c0-0.2,0.2-0.4,0.4-0.4
		c0.5-0.1,0.9-0.2,1.4-0.2c0.6,0,1.2,0,1.9,0h0.1c2.7,0.2,5.3,0.9,7,1.5c-0.7-0.6-1.5-1.2-2.3-1.7c0.5,0,1.1-0.1,1.6-0.1h0
		c1.1,0.8,2.1,1.7,2.8,2.7C457.5,302.4,457.5,302.6,457.4,302.8z"/>
</g>
</svg>
