<?xml version="1.0" encoding="utf-8"?>
<!-- Generator: Adobe Illustrator 21.1.0, SVG Export Plug-In . SVG Version: 6.00 Build 0)  -->
<svg version="1.1" id="Слой_1" xmlns="http://www.w3.org/2000/svg" xmlns:xlink="http://www.w3.org/1999/xlink" x="0px" y="0px"
	 viewBox="0 0 800 600" style="enable-background:new 0 0 800 600;" xml:space="preserve">
<style type="text/css">
	.st0{fill:#EAF0FF;}
	.st1{fill:#D7E0FF;}
	.st2{fill:#FFFFFF;}
	.st3{fill:none;stroke:#D7E0FF;stroke-width:1.2353;stroke-miterlimit:10;}
	.st4{fill:none;stroke:#D7E0FF;stroke-width:1.2353;stroke-linecap:round;stroke-miterlimit:10;}
	.st5{fill:none;stroke:#FFFFFF;stroke-width:1.353;stroke-miterlimit:10;}
	.st6{fill:#FFFFFF;stroke:#FFFFFF;stroke-width:0.3383;stroke-miterlimit:10;}
	.st7{font-family:'ArialMT';}
	.st8{font-size:19.0827px;}
	.st9{fill:#B2C3FB;}
	.st10{font-size:13.7528px;}
	.st11{fill:#BDCDF9;}
	.st12{fill:#C6D3FF;}
	.st13{fill:#E3E4E5;}
	.st14{fill:#0A9170;}
	.st15{fill:#097053;}
	.st16{fill:#06B37E;}
	.st17{fill:#0A7F61;}
	.st18{fill:#314790;}
	.st19{fill:#283D77;}
	.st20{fill:#12122C;}
	.st21{fill:#1D2C67;}
	.st22{fill:#098F6E;}
	.st23{fill:#01604A;}
	.st24{fill:#088F6E;}
	.st25{fill:none;stroke:#E1290F;stroke-width:0.9509;stroke-miterlimit:10;}
	.st26{fill:#FCC2C0;}
	.st27{fill:#E04C4C;}
	.st28{fill:#FFA9A8;}
	.st29{fill:#D73435;}
	.st30{fill:#000D3A;}
	.st31{fill:#FFA7A6;}
	.st32{fill:#E1290F;}
	.st33{fill:#FE908F;}
	.st34{fill:#FFC1C2;}
	.st35{fill:#324893;}
	.st36{fill:#3451B7;}
	.st37{fill:#114DBD;}
	.st38{fill:#0A469E;}
	.st39{fill:#0D1F61;}
	.st40{fill:none;stroke:#073D93;stroke-width:2.0884;stroke-miterlimit:10;}
	.st41{fill:#00369A;}
	.st42{fill:#F05831;}
	.st43{fill:none;stroke:#FEB101;stroke-width:1.5663;stroke-miterlimit:10;}
	.st44{fill:#FEBAB9;}
	.st45{fill:none;stroke:#073D93;stroke-width:2.0884;stroke-linecap:round;stroke-miterlimit:10;}
	.st46{fill:#1FD3A4;}
	.st47{fill:none;stroke:#1D2C67;stroke-width:3.1327;stroke-miterlimit:10;}
	.st48{fill:none;stroke:#EBF1FF;stroke-width:2.6106;stroke-linecap:round;stroke-linejoin:round;stroke-miterlimit:10;}
	.st49{fill:none;stroke:#097053;stroke-width:1.5663;stroke-linecap:round;stroke-miterlimit:10;}
	.st50{fill:none;stroke:#FE908F;stroke-width:1.0442;stroke-linecap:round;stroke-miterlimit:10;}
	.st51{fill:none;stroke:#E1290F;stroke-width:0.9508;stroke-linecap:round;stroke-miterlimit:10;}
	.st52{fill:#FFAB00;}
	.st53{fill:#334DAA;}
	.st54{fill:#067A5B;}
	.st55{fill:#091D58;}
	.st56{fill:#35478F;}
	.st57{fill:#3F5398;}
	.st58{fill:#2F4784;}
	.st59{fill:#324884;}
	.st60{fill:#2B3F86;}
	.st61{fill:#2E4289;}
	.st62{fill:#112973;}
</style>
<rect x="50.5" y="42" class="st0" width="698.6" height="519.5"/>
<g>
	<path class="st1" d="M550.4,105.7v279.1c0,7.5-6,13.6-13.3,13.6H113.9c-7.3,0-13.3-6.1-13.3-13.6V105.7c0-7.5,6-13.6,13.3-13.6
		h423.2C544.5,92.1,550.4,98.2,550.4,105.7z"/>
	<path class="st2" d="M474,140H202.5c-8.2,0-14.9-6.7-14.9-14.9v-0.3c0-8.2,6.7-14.9,14.9-14.9H474c8.2,0,14.9,6.7,14.9,14.9v0.3
		C488.8,133.3,482.1,140,474,140z"/>
	<g>
		<g>
			<ellipse class="st3" cx="467.5" cy="123.8" rx="6.1" ry="6.2"/>
			<line class="st4" x1="471.8" y1="128.8" x2="475.5" y2="133.1"/>
		</g>
	</g>
	<rect x="434" y="118.8" class="st1" width="18.1" height="11.6"/>
	<line class="st5" x1="108.7" y1="163.2" x2="542.4" y2="163.2"/>
	<text transform="matrix(0.979 0 0 1 115.3477 131.0527)" class="st6 st7 st8">Google</text>
	<g>
		<text transform="matrix(0.979 0 0 1 201.6934 129.9063)" class="st9 st7 st10">Ветеринар на дом киев</text>
	</g>
	<path class="st2" d="M486.8,191.3v207.2H189.6V191.3c0-9,7.2-16.4,16.1-16.4h265.1C479.6,174.9,486.8,182.2,486.8,191.3z"/>
	<path class="st11" d="M486.8,191.3v90.9H189.6v-90.9c0-9,7.2-16.4,16.1-16.4h265.1C479.6,174.9,486.8,182.2,486.8,191.3z"/>
	<path class="st12" d="M419.9,305.4H204.4c-1.9,0-3.4-1.5-3.4-3.4V302c0-1.9,1.5-3.4,3.4-3.4h215.5c1.9,0,3.4,1.5,3.4,3.4v0.1
		C423.2,303.9,421.7,305.4,419.9,305.4z"/>
	<path class="st12" d="M341.8,319.1H203.5c-1.3,0-2.4-1.1-2.4-2.4v-0.6c0-1.3,1.1-2.4,2.4-2.4h138.4c1.3,0,2.4,1.1,2.4,2.4v0.6
		C344.3,318,343.2,319.1,341.8,319.1z"/>
	<path class="st12" d="M401.3,343.7h-197c-1.8,0-3.2-1.5-3.2-3.2v-0.4c0-1.8,1.5-3.2,3.2-3.2h197c1.8,0,3.2,1.5,3.2,3.2v0.4
		C404.5,342.3,403,343.7,401.3,343.7z"/>
	<path class="st2" d="M262.6,211.1c0,6.4-11.4,21.9-11.4,21.9s-11.4-15.4-11.4-21.9c0-6.4,5.1-11.6,11.4-11.6
		C257.5,199.5,262.6,204.7,262.6,211.1z"/>
	<ellipse class="st13" cx="251.2" cy="210.4" rx="4.7" ry="4.8"/>
	<path class="st12" d="M341.8,357.4H203.5c-1.3,0-2.4-1.1-2.4-2.4v-0.6c0-1.3,1.1-2.4,2.4-2.4h138.4c1.3,0,2.4,1.1,2.4,2.4v0.6
		C344.3,356.3,343.2,357.4,341.8,357.4z"/>
</g>
<rect x="361.2" y="350" class="st14" width="7.8" height="176.5"/>
<rect x="365.6" y="350" class="st15" width="3.4" height="176.5"/>
<rect x="361.2" y="350.3" class="st15" width="7.8" height="7.8"/>
<rect x="349.1" y="344.8" class="st16" width="31.8" height="7.3"/>
<path class="st17" d="M381,344.8v5.4c-4.8-2.7-26.3-3.4-31.8-3.5v-1.9H381z"/>
<rect x="334.5" y="338.6" class="st18" width="61.1" height="7.3"/>
<path class="st19" d="M395.6,338.6v4.9c-10.5-2.9-50.9-2.7-61.1-2.5v-2.3H395.6z"/>
<rect x="285.4" y="333.9" class="st20" width="156.1" height="5.7"/>
<rect x="367.9" y="329.2" class="st21" width="64.7" height="4.7"/>
<rect x="515.2" y="490.5" class="st22" width="35" height="3.7"/>
<rect x="515.2" y="491.8" class="st23" width="35" height="2.3"/>
<rect x="504.7" y="400.7" class="st24" width="4.2" height="126.9"/>
<rect x="513.1" y="400.7" class="st24" width="4.2" height="126.9"/>
<rect x="549.1" y="400.7" class="st24" width="4.2" height="126.9"/>
<rect x="504.7" y="475.6" class="st23" width="4.2" height="52"/>
<rect x="513.1" y="475.6" class="st23" width="4.2" height="52"/>
<rect x="549.1" y="475.6" class="st23" width="4.2" height="52"/>
<rect x="504.7" y="401.5" class="st23" width="4.2" height="12.5"/>
<rect x="513.1" y="401.5" class="st23" width="4.2" height="12.5"/>
<rect x="549.1" y="401.5" class="st23" width="4.2" height="12.5"/>
<ellipse transform="matrix(0.9631 -0.269 0.269 0.9631 -38.6209 136.5767)" class="st25" cx="479" cy="209.2" rx="2.2" ry="6"/>
<path class="st26" d="M458.9,516.1l8.3-23l-19-19.9l-2.5-2.6l21.9-15.7l11.4,24.5l6.4,13.8l1.6,3.4l-26.8,20.6
	c-0.7,0.5-1.7-0.2-1.4-1L458.9,516.1z"/>
<path class="st27" d="M479,479.5c-13-13.1-26-8.7-30.8-6.3l-2.5-2.6l21.9-15.7L479,479.5z"/>
<path class="st28" d="M513.6,457.6l-5.1,12.5l-5.3,13.1c-0.3,0.7-1.3,0.6-1.4-0.2l-2.2-16.6l-17-13.3l-2.3-1.8l17.2-16.2
	C502.6,450.8,513.6,457.6,513.6,457.6z"/>
<path class="st29" d="M513.6,457.6l-5.1,12.5c-1.5-3.9-3.7-7.5-6.9-10.5c-9.8-9.1-16.4-7.7-19.1-6.5l-2.3-1.8l17.2-16.2
	C502.6,450.8,513.6,457.6,513.6,457.6z"/>
<path class="st30" d="M460.9,435.1l15.1,13.1c0,0-2.1,0-0.5,2.6c0.3,0.5,0.7,1,1,1.4c1.2,1.4,3.4,1.5,4.7,0.2l17.8-17.4
	c1.3-1.2,0.2-3.4-1.5-3.1c0,0-0.1,0-0.1,0c0,0,1-3.7-2.6-4.7c-3.7-1-5.7-20.4-21.9-36c-16.2-15.7-37.6,0-37.6,0L460.9,435.1z"/>
<path class="st31" d="M402.9,351.1c0,0-13.6,6.8-16.7,13.6c-3.1,6.8,6.8,28.2,6.8,28.2l13.1-7.3L402.9,351.1z"/>
<path class="st32" d="M502.1,239.9c0,0-26.1,21.4-27.7,26.1c-1.6,4.7,2.1,38.1,2.1,38.1l29.8-61.1L502.1,239.9z"/>
<path class="st31" d="M491.2,234.7c-0.8,1.3-1.8,2.2-2.6,2.8c-1.3,0.9-2.5,1.2-3.1,0.9c-0.9-0.5,2.2-3,3.3-4.6
	c0.1-0.2,0.3-0.4,0.3-0.6c0.1-0.4,0-0.9-0.3-1.1c-0.8-0.8-2.6-0.5-3.4,3.2c-1,5.2-4.2,3.7-4.2,3.7s-4.2,19.3-3.1,34.5
	c0.1,1.2,0.2,2.6,0.2,4.1c0.1,2.3,0.2,4.7,0.2,7.3c0.3,16.4-0.4,37.7-0.4,37.7s-45.9,14.6-47-5.2c-0.3-5.2,0.7-10.8,2.5-16.4
	c5-16,16.2-32.2,22-38.4c7.8-8.4,19.3-21.4,20.4-27.1c0.7-3.7,3.1-7.4,4.7-9.6c0.9-1.2,2.5-1.7,3.9-1.2
	C494.6,227.9,493.1,231.7,491.2,234.7z"/>
<path class="st33" d="M486.2,230.7c-3.1,0.5-1,5.7-5.7,7.3c0,0-4.4,20.5-3.7,38.5c0.3,7.3-0.8,14.7-3.5,21.5
	c-2.6,6.6-6.1,11.7-10.9,13.3c-15.1,5-26.5-2.7-28.8-10.7c-1.8,5.6-2.8,11.3-2.5,16.4c1,19.8,47,5.2,47,5.2s0.9-28.6,0.2-45
	c-0.1-1.5-0.1-2.8-0.2-4.1c-1-15.1,3.1-34.5,3.1-34.5s3.1,1.6,4.2-3.7c0.8-3.8,2.6-4,3.4-3.2C488.6,231.2,488.1,230.4,486.2,230.7z"
	/>
<path class="st34" d="M499.5,249.3c3.7-8.4-3.1-24-3.1-24c-11.5,3.1-14.6-6.3-14.6-6.3c-2,0.7-3.9,0.7-4.9,0.6
	c-0.4,0-0.6-0.4-0.4-0.8c2.9-5.2-0.5-22.3-0.5-22.3c19.8-13.7,28.1,2.8,30.2,13.3c0.4,1.9,0.6,3.7,0.6,5c0,8.4,11.5,14.6,11.5,14.6
	c0.1,0.5,0.3,1,0.3,1.5C520.2,243,499.5,249.3,499.5,249.3z"/>
<path class="st33" d="M518.6,231c-11-1-20.7-20.5-20.7-20.5l8.3-0.7c0.4,1.9,0.6,3.7,0.6,5c0,8.4,11.5,14.6,11.5,14.6
	C518.5,230,518.6,230.5,518.6,231z"/>
<path class="st35" d="M684.3,179.8c0,0-4.2,3.1-17.8,5.7c-3.9,0.7-6.8,2.6-9.5,4.9l0,0c-1.3,1.2-2.6,2.4-3.8,3.8l0,0
	c-4.9,5.2-9.6,10.8-18.5,11.7c-14.1,1.4-22.7-5.2-43.3,8.7c-2.3,1.5-4.7,3.3-7.3,5.4c-0.5,0.4-1,0.8-1.5,1.1
	c-2.3,1.6-4.7,2.9-7.2,3.9c-4.6,1.8-9.5,2.6-14.4,2.8c-24.2,0.7-50.8-14.8-53.9-11.7c-0.8,0.8-4.5,0.1-6.1-1.5
	c-0.6-0.6-1.3-1.3-1.9-2.1c-0.6-0.8-1.2-1.7-1.8-2.6c-2.6-4-4.5-8.2-4.5-8.2s-3.9,1.4-8.4,0.7h0c-0.5-0.1-1.1-0.2-1.6-0.3
	c-4.8-1.3-9.9-5.5-11.4-16.6c-2.4-17.8,5.5-27.1,17.2-31.4c1.7-0.6,3.5-1.1,5.4-1.6c1.8-0.4,3.7-0.7,5.6-1
	c17.2-2.1,25.6-6.8,29.2-24.5c3.7-17.8,31.3-27.7,50.1-20.9c18.8,6.8,24,19.8,38.1,18.3s28.7-3.1,30.8,10.4c0.2,1.3,0.3,2.8,0.5,4.3
	l0.2,2.8c1,14.3,2.8,34.1,35.8,37.7C684.3,179.8,684.3,179.8,684.3,179.8z"/>
<g>
	<path class="st35" d="M652,148.5c1.2,2.9,2.5,5.6,4,8.3c1.5,2.6,3.2,5.2,5.1,7.4c0.9,1.2,2,2.2,3.1,3.2c1.1,1,2.3,1.9,3.5,2.8
		c2.5,1.7,5.3,2.9,8.2,3.9c-3.1-0.1-6.3-1-9.1-2.5c-2.8-1.5-5.3-3.6-7.4-6c-2-2.4-3.7-5.2-5-8C653.3,154.6,652.3,151.6,652,148.5z"
		/>
</g>
<g>
	<path class="st35" d="M601.3,214.8c0.7-1.3,1.7-2.3,2.8-3.2c1.2-0.9,2.5-1.5,3.9-2c1.4-0.4,2.8-0.7,4.3-0.6c1.4,0,2.9,0.4,4.2,1
		c-1.4,0.2-2.8,0.3-4,0.6c-1.3,0.2-2.5,0.5-3.8,0.9C606.2,212.4,603.8,213.5,601.3,214.8z"/>
</g>
<g>
	<path class="st35" d="M605,116.1c1.7,0.6,3,1.5,4.3,2.3l1.9,1.2c0.7,0.4,1.3,0.8,2.1,1.2c-0.8,0.4-1.8,0.5-2.7,0.3
		c-0.9-0.2-1.7-0.5-2.5-1c-0.7-0.5-1.4-1-2-1.7C605.7,117.8,605.2,117,605,116.1z"/>
</g>
<path class="st36" d="M484.3,202.5L484.3,202.5l1.1-0.2c-0.1-0.4-7.2-39.2,8.6-49.6l-0.1-0.1l-5.4,1.6c-11.2,13.5-6.6,43.1-5.8,48
	L484.3,202.5z"/>
<path class="st37" d="M543.4,384c-1.8,1.6-3.4,3-5,4.2c-7.7,6-14.4,8-34.7,8.8c-24.5,1-52.7-9.4-58-4.2c-5.2,5.2,1,19.3,9.9,29.2
	c3.1,3.4,5.3,7.6,7,11.5c3.1,7.4,4,14.1,4,14.1c6.3-1,3.7,6.3,3.7,6.3c3.1,1.6,0.5,4.2,0.5,4.2L444,473.7c-1.2,0.7-2.7,0.6-3.8-0.3
	c-5.8-4.4-2.7-7-2.7-7c-0.8-0.9-1.6-1.8-2.4-2.7c-24.9-28.9-40.1-62.4-43.7-70.9c-0.4-0.9,0.2-2,1.2-2.1c6-1,4.2-8.7,3.2-13
	c-1-4.7-1-4.7,3.7-8.9c4.7-4.2-2.1-9.9,1.6-17.2c2.1-4.2,16-8.1,27.3-10.6c8.2-1.8,15-2.9,15-2.9l11.7-2l44.7-7.4l25,19.7l12.1,9.5
	C536.6,357.9,553.8,374.6,543.4,384z"/>
<path class="st38" d="M470.8,458.1L444,473.7c-1.2,0.7-2.7,0.6-3.8-0.3c-5.8-4.4-2.7-7-2.7-7c-0.8-0.9-1.6-1.8-2.4-2.7
	c19.2-7.4,25.8-24,27.6-30.2c3.1,7.4,4,14.1,4,14.1c6.3-1,3.7,6.3,3.7,6.3C473.4,455.5,470.8,458.1,470.8,458.1z"/>
<path class="st39" d="M684.3,179.8c0,0-4.2,3.1-17.8,5.7c-3.9,0.7-6.8,2.6-9.5,4.9l0,0c-1.3,1.2-2.6,2.4-3.8,3.8l0,0
	c-4.9,5.2-9.6,10.8-18.5,11.7c-14.1,1.4-22.7-5.2-43.3,8.7c3-2.9,6.3-6.6,9.4-10.8c8.4-11.5,28.2,3.1,37.6-3.1
	c9.4-6.3,10.4-18.8,28.2-19.3c8.1-0.2,13.8-0.9,17.6-1.6C684.3,179.8,684.3,179.8,684.3,179.8z"/>
<path class="st40" d="M527.2,371.2c0,0-3.1,4.4-13.1,7c-9.9,2.6-21.9-0.5-30.3-4.7c-8.4-4.2-26.6,0.5-41.2-1.6
	c-14.6-2.1-22.5-2.6-24,3.7c-1.6,6.3-3.7,12-1,16.2c2.6,4.2,8.4,10.4,8.9,19.3c0.5,8.9,12.5,19.3,15.7,29.2s6.8,15.1,9.4,16.2
	c2.6,1,5.7,1,4.2,4.7"/>
<path class="st36" d="M648.5,142.1c-8.7,4.6-51,26.5-73,26.5c-0.5,0-0.9,0-1.4,0c-8.9-0.4-15.3-2.6-21.4-4.7
	c-10.2-3.5-18.9-6.5-36.6-0.1c-11.5,4.2-18.7,11.6-21.6,22c-2.1,7.8-0.8,14.3-0.8,14.4l-2.6,0.5c-0.1-0.3-1.4-7.3,0.9-15.6
	c2.1-7.7,7.8-18.1,23.2-23.7c18.5-6.7,28.1-3.4,38.3,0.1c6,2.1,12.1,4.2,20.7,4.6c0.4,0,0.8,0,1.3,0c22.2,0,67.6-24,72.8-26.8
	L648.5,142.1z"/>
<path class="st36" d="M657.1,190.5c-28,8.5-51.9,2.4-73.1-3.1c-11.7-3-22.8-5.9-33.8-6.2c-16.8-0.6-30.2,5.4-38.5,10.5
	c-9,5.5-14,11.1-14.2,11.3l2,1.7c0.2-0.2,19.8-22,50.7-21c10.7,0.3,21.7,3.2,33.3,6.2c20.3,5.2,43.2,11.1,69.9,4.3L657.1,190.5z"/>
<path class="st39" d="M561,227.8c-24.2,0.7-50.8-14.8-53.9-11.7c-0.8,0.8-4.5,0.1-6.1-1.5c-0.6-0.6-1.3-1.3-1.9-2.1
	c-0.6-0.8-1.2-1.7-1.8-2.6l1.5-1.2c0,0,2.1,3.7,14.6,3.1C525.2,211.5,536.5,225.4,561,227.8z"/>
<path class="st41" d="M543.4,384c-1.8,1.6-3.4,3-5,4.2c-8.6-2.8-20.6-12.9-28.1-19.8c-4.5-4.2-10.2-6.8-16.3-7.7
	c-27.6-4.3-59-16.8-66-19.7c8.2-1.8,15-2.9,15-2.9l11.7-2l47.5,4.3l22.1,8l12.1,9.5C536.6,357.9,553.8,374.6,543.4,384z"/>
<path class="st36" d="M499.1,212.6c3.7-1.5,15.3-5.2,31.7,1c15.9,6,37.1,11.8,51.8,7.6c-2.3,1.6-4.7,2.9-7.2,3.9
	c-1.4,0.1-2.9,0.2-4.4,0.2c-13.5,0-28.9-4.5-41.2-9.2c-14.3-5.4-24.8-2.8-28.9-1.4L499.1,212.6z"/>
<path class="st42" d="M570.5,318.7c-3.9,42-20,59.3-25.4,63.9c-1.1,1-1.7,1.4-1.7,1.4l-30.8-24.2l-5.8-4.5c0,0-0.3-0.4-1-1
	c-4.8-5.2-26.4-28.3-31.9-33.4c-1.2-1.1-1.8-2.7-1.9-4.5c-0.5-7.9,7.2-21.1,9.7-25.7c3.1-5.7-1.6-11.5,0-17.2
	c1.6-5.7,13.6-24,21.9-29.8c8.4-5.7,7.3-6.3,8.9-11c1.6-4.7,5.2-4.7,5.2-4.7C540.2,235.2,575.2,268.1,570.5,318.7z"/>
<path class="st32" d="M545.1,382.6c-1.1,1-1.7,1.4-1.7,1.4l-30.8-24.2l-5.8-4.5c0,0-0.3-0.4-1-1l24.2-19.1
	C529.8,335.6,513,362.1,545.1,382.6z"/>
<path class="st43" d="M513.6,353.2c0,0,27.1,23.5,34.5,26.4"/>
<path class="st32" d="M536.8,324.2c-12.1,25.1-18,33.6-24.3,35.6l-5.8-4.5c0,0-26.6-28.7-32.9-34.5c-1.2-1.1-1.8-2.7-1.9-4.5
	c3.7-1.4,8-8.1,13.6-33.8c7.8-35.5,37.1-39.2,48.6-24C545.7,273.6,550.4,296,536.8,324.2z"/>
<path class="st44" d="M542.3,304.6c-2.5,7.5-5,13.9-7.5,19.5c-5.4,11.9-10.6,19.7-14.7,24.7c-4.5,5.5-7.5,7.5-7.5,7.5
	c-3.2,0.4-6.8,0.5-10.7,0.2c-34.2-2.3-89.2-28.6-94.8-30.5c-6.3-2.1-11.5,6.3-14.1,6.3c-2.6,0-0.5-3.1-0.5-3.1
	c10.4-13.6,21.9-16.2,45.9-12s28.7,4.7,36,2.6s8.9-9.9,9.9-16.7c0.8-5.2,3.4-17.2,4.6-22.8c0.4-1.7,0.6-2.8,0.6-2.8
	C514.1,278,542.3,304.6,542.3,304.6z"/>
<path class="st33" d="M542.3,304.6c-2.5,7.5-5,13.9-7.5,19.5c-5-27.3-41.9-42.3-45.8-43.8c0.4-1.7,0.6-2.8,0.6-2.8
	C514.1,278,542.3,304.6,542.3,304.6z"/>
<path class="st42" d="M489.6,277.5c0,0,7.3-30.3,27.7-28.2c20.4,2.1,29.2,30.8,25.1,55.3L489.6,277.5z"/>
<line class="st43" x1="490.6" y1="274.3" x2="542.8" y2="300.5"/>
<path class="st33" d="M520.1,348.8c-4.5,5.5-7.5,7.5-7.5,7.5c-3.2,0.4-6.8,0.5-10.7,0.2c0.6-2.9,2.5-8.1,8.1-9.6
	C514.5,345.7,518,347.3,520.1,348.8z"/>
<path class="st45" d="M445.2,468c0,0,11.5-8.4,18.8-12"/>
<rect x="489.6" y="394.4" class="st46" width="77.8" height="8.4"/>
<line class="st47" x1="343.4" y1="274.9" x2="367.9" y2="333.3"/>
<path class="st12" d="M622.7,461.8c0,0-1.6-11.5-6.3-14.1c0,0-26.1,12-25.6-2.6c0.5-14.6,20.9-4.7,20.9-4.7l-3.7-8.4
	c0,0-33.4,6.8-26.1-9.9c7.3-16.7,24,3.1,24,3.1l-3.7-12c0,0-31.8-9.4-17.2-21.9c14.6-12.5,19.3,21.9,19.3,21.9s2.6-12,9.4-11
	c0,0,17.2,4.7-6.8,16.2l2.1,6.3c0,0-1-11.5,7.3-9.9c8.4,1.6,5.7,10.4-3.1,18.3c0,0,4.7,11.5,10.4,18.3c0,0-7.8-31.3-2.6-45.9
	c0,0-12,0-10.4-12.5c0,0,7.3-2.6,11,4.2l0.5-4.7c0,0-16.2-12,2.6-24c0,0,16.2,12,0,23.5l-0.5,8.9c0,0,12.5-18.3,20.9-12
	c8.4,6.3,6.3,21.9-21.4,20.9c0,0-1.6,14.1,1,26.6c2.6,12.5,4.2,23.8,4.2,23.8s13.1-12.8,14.1-18.5c0,0-22.5-1-16.7-16.7
	c5.7-15.7,19.3,11,19.3,11s3.1-5.7,3.1-13.6c0,0-20.9-5.7-13.1-16.2c7.8-10.4,14.6,10.4,14.6,10.4l1-6.8c0,0-8.9-27.1,9.4-32.4
	c0,0,12,21.4-6.8,32.9c0,0-2.6,9.4-1.6,15.7c0,0,17.8-20.4,23-5.2c5.2,15.1-25.6,14.1-25.6,14.1l-3.7,9.4c0,0,17.2-11.5,21.4,1.6
	c4.2,13.1-21.9,12.5-31.3,11l-4.2,5.7L622.7,461.8z"/>
<path class="st2" d="M644.7,527.6h-33.4c-3.4,0-6.3-2.8-6.3-6.3v-54.8c0-3.4,2.8-6.3,6.3-6.3h33.4c3.4,0,6.3,2.8,6.3,6.3v54.8
	C650.9,524.7,648.1,527.6,644.7,527.6z"/>
<line class="st48" x1="609.7" y1="467" x2="645.7" y2="467"/>
<line class="st48" x1="626.6" y1="467" x2="626.6" y2="505.6"/>
<line class="st48" x1="638.7" y1="467" x2="638.7" y2="505.6"/>
<line class="st48" x1="615.2" y1="467" x2="615.2" y2="505.6"/>
<line class="st49" x1="175.3" y1="527" x2="191.5" y2="527"/>
<path class="st34" d="M489.1,203.9c0,0,2.1-5.2,6.3-4.2s5.7,2.6,5.2,6.8c-0.5,4.2-6.3,5.2-6.3,5.2L489.1,203.9z"/>
<path class="st50" d="M493.8,207c0,0-1-2.6,2.1-3.7"/>
<circle class="st33" cx="489.1" cy="218.5" r="3.4"/>
<ellipse transform="matrix(0.9631 -0.269 0.269 0.9631 -38.4227 136.9788)" class="st25" cx="480.6" cy="208.7" rx="2.2" ry="6"/>
<line class="st51" x1="482" y1="206" x2="489.3" y2="202.2"/>
<circle class="st52" cx="521.2" cy="239.1" r="1.6"/>
<circle class="st52" cx="540.2" cy="252.4" r="1.3"/>
<circle class="st52" cx="523.5" cy="261.8" r="1.3"/>
<circle class="st52" cx="505.3" cy="267" r="1.3"/>
<circle class="st52" cx="530.1" cy="281.4" r="1.6"/>
<circle class="st52" cx="555.1" cy="275.1" r="2.1"/>
<circle class="st52" cx="552.8" cy="297.3" r="1.3"/>
<circle class="st52" cx="560.3" cy="317.4" r="2.1"/>
<circle class="st52" cx="545.7" cy="326.3" r="1.6"/>
<circle class="st52" cx="549.4" cy="348.2" r="1"/>
<circle class="st52" cx="534.2" cy="344" r="1"/>
<circle class="st52" cx="541.3" cy="362.6" r="1.3"/>
<circle class="st52" cx="487.2" cy="268.9" r="1"/>
<circle class="st52" cx="498.5" cy="251.9" r="0.8"/>
<circle class="st52" cx="511.8" cy="244.8" r="1.6"/>
<circle class="st53" cx="476.3" cy="186.4" r="1"/>
<circle class="st53" cx="476.3" cy="172.8" r="1"/>
<circle class="st53" cx="495.9" cy="161.6" r="1.3"/>
<circle class="st53" cx="489.9" cy="175.9" r="1"/>
<circle class="st53" cx="517.8" cy="154.3" r="1.8"/>
<circle class="st53" cx="538.2" cy="151.6" r="1.8"/>
<circle class="st53" cx="537.6" cy="132.8" r="1.8"/>
<circle class="st53" cx="556.7" cy="142.5" r="2.1"/>
<circle class="st53" cx="576" cy="157.1" r="1.6"/>
<circle class="st53" cx="570.3" cy="122.7" r="1"/>
<circle class="st53" cx="551.5" cy="111.7" r="1.6"/>
<circle class="st53" cx="592.2" cy="131.5" r="1"/>
<circle class="st53" cx="609.2" cy="144.9" r="1.8"/>
<circle class="st53" cx="629" cy="132.3" r="2.3"/>
<circle class="st53" cx="599.8" cy="179.8" r="1.8"/>
<circle class="st53" cx="618.3" cy="166" r="0.5"/>
<circle class="st53" cx="622" cy="181.7" r="1.6"/>
<circle class="st53" cx="639.7" cy="163.4" r="1"/>
<circle class="st53" cx="559.6" cy="174.6" r="0.8"/>
<circle class="st53" cx="531.6" cy="170.2" r="2.6"/>
<circle class="st53" cx="516.2" cy="183.5" r="1.3"/>
<circle class="st53" cx="504.7" cy="176.7" r="0.8"/>
<circle class="st53" cx="524.8" cy="201.5" r="1"/>
<circle class="st53" cx="554.1" cy="196.3" r="1.6"/>
<circle class="st53" cx="554.3" cy="213.8" r="1.3"/>
<circle class="st53" cx="577" cy="201" r="2.1"/>
<circle class="st53" cx="577" cy="212.5" r="1"/>
<circle class="st53" cx="525.1" cy="218.5" r="1.3"/>
<path class="st54" d="M567.4,394.4v8.4h-77.8V401c6.2,0.3,33.2,1.3,50.8-6.6H567.4z"/>
<path class="st27" d="M487,496.8l-26.8,20.6c-0.7,0.5-1.7-0.2-1.4-1l0,0c0.1-0.2,0.2-0.3,0.3-0.4c6.4-5.1,21-16.8,26.3-22.6
	L487,496.8z"/>
<g>
	<path class="st55" d="M233.8,494.7c0,0-6.3-10.4,5.7-24.5l1.6,7.8L233.8,494.7z"/>
	<polygon class="st2" points="229.6,456.6 241.6,451.9 249.4,471.7 239,480.1 	"/>
	<path class="st56" d="M248.9,463.9c0,0-2.1-3.1-5.2-0.5c-3.1,2.6-2.1,7.8,1.6,8.9S248.9,463.9,248.9,463.9z"/>
	<path class="st57" d="M308.9,502c-1.6,7.9-6.7,13.3-12.8,16.9c0,0,0,0,0,0c-12.1,7.2-27.9,7.6-27.9,7.6h-21.4c0,0-0.8-0.7-2-2
		c-0.2-0.3-0.5-0.5-0.8-0.8c-5.6-6.3-16.9-22.4-7.6-41c2.2-4.4,5.5-9,10.4-13.6c0,0,0.5-9.4,6.8-14.1c0,0-4.7-5.7-1-12
		c1.7-3,3.6-7.4,5.1-11.2c1.6-4.2,2.8-7.6,2.8-7.6l4.2,6.3c0,0,8.4-1.6,13.6,2.1l4.7-4.2c0,0-1.6,9.9-0.5,12s1.6,7.8,1.6,10.4
		c0,0.6,0.3,1,0.7,1.5c1.4,1.4,4.6,2.9,6.6,11.9c0,0.1,0,0.1,0,0.2c0,0,5.8,3.6,10.8,10.2C307,481.1,311.3,490.4,308.9,502z"/>
	<path class="st58" d="M308.9,502c-1.3,6.7-6.3,12.3-12.8,16.9c0,0,0,0,0,0c-12.1,7.2-27.9,7.6-27.9,7.6h-21.4c0,0-0.8-0.7-2-2
		c-0.2-0.3-0.5-0.5-0.8-0.8c70.7-0.3,46.9-59.6,46.9-59.6l0.2,0.1c0,0.1,0,0.1,0,0.2c0,0,5.8,3.6,10.8,10.2
		C307,481.1,311.3,490.4,308.9,502z"/>
	<path class="st58" d="M328.9,496.1c-1.1,1.2-2.5,2.4-3.8,3.3c-1.8,1.2-3.3,2.3-4.7,3.6c0,0,0,0,0,0c-1.9,1.7-3.3,3.6-4.3,6.4
		c-0.4,1.2-0.7,2.5-0.9,4.1c-0.3,2.1-1.2,4-2.4,5.7c-2,2.8-5,4.9-7.9,6.1c-1.8,0.8-3.5,1.2-4.9,1.2c-1.4,0-4.3,0-7.9,0.1
		c-3,0.1-6.3,0.1-9.5,0.2c-6.3,0.1-11.8,0.2-11.8,0.2s-0.5-6.3,14.6-12.5c0,0,0.3,0.1,0.9,0.3c0.9,0.3,2.5,0.6,4.5,0.6
		c2.2,0,4.9-0.4,7.6-1.7c0.9-0.5,1.8-1,2.7-1.7c1.1-0.8,2.1-1.9,3.1-3.2c0.8-1,1.5-2,2.2-3.1c0.7-1,1.3-2.1,2-3.2
		c1.8-3,3.4-6.2,5.1-9c3.5-5.7,7.2-9.9,12.6-8.2C333.6,487.6,332.2,492.3,328.9,496.1z"/>
	<path class="st59" d="M256.7,505.6c-2.6,7.8-5.7,4.2-5.2,11.5c0.3,4.8-3.8,6.7-6.7,7.4c-5.2-5.6-18.1-22.3-8.4-41.8
		c2.9-2.5,7.7-5.3,11.4-1.6c5.7,5.7-2.1,8.4,3.7,13.6C257.3,499.9,259.3,497.8,256.7,505.6z"/>
	<path class="st60" d="M283.9,450.8c-6.6-5.1-9.7,3.2-9.9,3.6c0.1-0.4,0.8-6.3-4.7-7.8c-5.7-1.6-8.9-2.6-9.4-8.4
		c-0.3-2.8-1.3-5-2.2-6.5c1.6-4.2,2.8-7.6,2.8-7.6l4.2,6.3c0,0,8.4-1.6,13.6,2.1l4.7-4.2c0,0-1.6,9.9-0.5,12
		S283.9,448.2,283.9,450.8z"/>
	<path class="st61" d="M302,474.6c-6.1,0.8-7.8,8.8-11.9,10.1c-4.7,1.6-8.9-4.7-12.5-9.4c-3.7-4.7,4.2-9.9,2.6-12
		c-1.6-2.1-4.2,0-3.7-5.2c0.4-3.5,5-5.2,8-5.8c1.4,1.4,4.6,3,6.6,12.1C291.2,464.4,297,468,302,474.6z"/>
	<path class="st62" d="M292.1,526.6c-3,0.1-6.3,0.1-9.5,0.2c-1.1-5.3,1.9-9.9,3.7-12c0.9,0.3,2.5,0.6,4.5,0.6
		c-0.8,2.3-1.2,4.9-0.1,7C291.4,523.9,291.9,525.3,292.1,526.6z"/>
	<path class="st62" d="M312.8,519.2c-2,2.8-5,4.9-7.9,6.1c-4.9-4-6.3-8.6-6.5-11.7c0.9-0.5,1.8-1,2.7-1.7
		C303.7,514.9,309.1,517.6,312.8,519.2z"/>
	<path class="st62" d="M320.4,502.9c-1.9,1.7-3.3,3.6-4.3,6.4c-4.6-0.2-8-2.4-9.7-3.7c0.7-1,1.3-2.1,2-3.2
		C313,503.7,317.4,503.4,320.4,502.9z"/>
	<path class="st62" d="M328.9,496.1c-4.8-4.7-11.9-3.5-15.3-2.6c3.5-5.7,7.2-9.9,12.6-8.2C333.6,487.6,332.2,492.3,328.9,496.1z"/>
	<circle class="st57" cx="235.3" cy="460.2" r="1.3"/>
	<circle class="st57" cx="240.5" cy="458.1" r="1.3"/>
	<circle class="st57" cx="237.4" cy="466" r="1.3"/>
</g>
<line class="st49" x1="198.5" y1="527" x2="678.6" y2="527"/>
</svg>
