<?xml version="1.0" encoding="utf-8"?>
<!-- Generator: Adobe Illustrator 21.1.0, SVG Export Plug-In . SVG Version: 6.00 Build 0)  -->
<svg version="1.1" id="Слой_1" xmlns="http://www.w3.org/2000/svg" xmlns:xlink="http://www.w3.org/1999/xlink" x="0px" y="0px"
	 viewBox="0 0 800 600" style="enable-background:new 0 0 800 600;" xml:space="preserve">
<style type="text/css">
	.st0{fill:#F2F6F9;}
	.st1{fill:none;stroke:#8BA4AF;stroke-width:5;stroke-linecap:round;stroke-miterlimit:10;}
	.st2{fill:#8BA4AF;}
	.st3{fill:#FFB0AC;}
	.st4{fill:#CCDEEA;}
	.st5{fill:#404A56;}
	.st6{fill:#F9988C;}
	.st7{fill:#2B82CF;}
	.st8{fill:#1D78BC;}
	.st9{fill:none;stroke:#030038;stroke-width:0.7877;stroke-linecap:round;stroke-miterlimit:10;}
	.st10{fill:#EAE9EE;}
	.st11{fill:#BAC3CC;}
	.st12{fill:none;stroke:#030038;stroke-width:0.7877;stroke-miterlimit:10;}
	.st13{fill:none;stroke:#EAE9EE;stroke-width:1.1816;stroke-miterlimit:10;}
	.st14{fill:#030038;}
	.st15{fill:#399EC6;}
	.st16{fill:#D7E9FD;}
	.st17{fill:#DEEEFB;}
	.st18{fill:#FFAFAD;}
	.st19{fill:#F4A4A2;}
	.st20{fill:#F4A39D;}
	.st21{fill:#ED8880;}
	.st22{fill:#FEB0AC;}
	.st23{fill:#22205B;}
	.st24{fill:none;stroke:#22205B;stroke-width:0.3735;stroke-miterlimit:10;}
	.st25{fill:#762522;}
	.st26{fill:#332B78;}
	.st27{fill:#342D7A;}
	.st28{fill:#FFFFFF;}
	.st29{fill:#01004E;}
	.st30{fill:#539CD3;}
	.st31{fill:#3394DD;}
	.st32{fill:#1A2A43;}
	.st33{fill:#70B2ED;}
	.st34{fill:#FFF2DF;}
	.st35{fill:#FEAC00;}
	.st36{fill:none;stroke:#BAC3CC;stroke-width:0.3939;stroke-linecap:round;stroke-miterlimit:10;}
	.st37{fill:none;stroke:#DD9387;stroke-width:0.9615;stroke-linecap:round;stroke-miterlimit:10;}
	.st38{fill:#FEB0AD;}
	.st39{fill:none;stroke:#01004E;stroke-width:0.351;stroke-miterlimit:10;}
	.st40{fill:none;stroke:#F59895;stroke-width:0.3027;stroke-miterlimit:10;}
	.st41{fill:#BAD2E2;}
	.st42{fill:#D0E1EA;}
	.st43{fill:#AEC6D3;}
	.st44{fill:#E8EDEF;}
	.st45{display:none;fill:#4886D1;}
	.st46{fill:#626D81;}
	.st47{fill:none;stroke:#FFFFFF;stroke-width:0.4351;stroke-miterlimit:10;}
	.st48{fill:none;stroke:#FFFFFF;stroke-width:0.4351;stroke-linecap:round;stroke-miterlimit:10;}
	.st49{display:none;fill:#FFFFFF;stroke:#FFFFFF;stroke-width:0.5711;stroke-miterlimit:10;}
	.st50{font-family:'MyriadPro-Regular';}
	.st51{font-size:22.3962px;}
	.st52{fill:#EAEEF4;}
	.st53{display:none;}
	.st54{display:inline;opacity:0.8;fill:#1857C5;}
	.st55{display:inline;opacity:0.8;fill:#1351AA;}
	.st56{display:inline;fill:#AEC6D3;}
	.st57{display:inline;opacity:0.75;fill:#AEC6D3;}
	.st58{display:inline;opacity:0.83;fill:#AEC6D3;}
	.st59{fill:#A9CAFF;}
	.st60{fill:#89B1E0;}
	.st61{fill:none;stroke:#1857C5;stroke-width:3;stroke-linecap:round;stroke-miterlimit:10;}
	.st62{opacity:0.59;}
	.st63{fill:#00AADD;}
	.st64{fill:#EE5500;}
	.st65{fill:#FFCC00;}
	.st66{fill:#77BB22;}
	.st67{fill:none;stroke:#FFFFFF;stroke-width:2.8654;stroke-linecap:round;}
	.st68{fill:none;stroke:#22205B;stroke-miterlimit:10;}
	.st69{opacity:0.17;fill:#FFFFFF;}
	.st70{fill:none;stroke:#9A9D9E;stroke-width:5;stroke-miterlimit:10;}
	.st71{fill:#9A9D9E;}
	.st72{fill:#D9E0E2;}
	.st73{fill:#C3CFD1;}
	.st74{fill:#FFFFFF;stroke:#D8342B;stroke-width:6;stroke-linecap:round;stroke-miterlimit:10;}
</style>
<path class="st0" d="M81.8,508c0,0-68.3-343.4,276.9-389.5c326-43.6,154.8,97.2,344.7,228.1c51.8,35.7,64.8,107.1,27.3,157.7
	c-0.9,1.2-1.8,2.5-2.8,3.7H81.8z"/>
<line class="st1" x1="656.5" y1="352.5" x2="666.5" y2="352.5"/>
<path class="st2" d="M678,362h-1c-6.6,0-12-5.4-12-12v-14c0-6.6,5.4-12,12-12h1c6.6,0,12,5.4,12,12v14C690,356.6,684.6,362,678,362z
	"/>
<path class="st3" d="M451.2,237.7l18.9,19.5l12.8-17c-1.7-0.7-2.5-2.4-2.9-4.2c-0.6-2.9,0-6.1,0-6.1l-12.9-4.2l-8.9-2.9
	c-0.2,1.5-0.5,2.8-0.8,4c-0.5,2-1,3.6-1.6,4.9C453.6,236.8,451.2,237.7,451.2,237.7z"/>
<path class="st4" d="M273.6,379.2c0,0-30.8-97.6-14.9-108.7s74-20.7,79.8-15.4c5.8,5.3,20.2,119,20.2,119L273.6,379.2z"/>
<path class="st3" d="M371.7,244.5l-43.9,8.8c0,0-18.1,3.7-19.1,16.2c-1,12.5,64.4-9.6,64.4-9.6L371.7,244.5z"/>
<ellipse class="st5" cx="671.2" cy="466.4" rx="15.1" ry="40.4"/>
<path class="st6" d="M354.7,255.6c0,0-16.6,3.4-22.1,7.2l20.7,1L354.7,255.6z"/>
<path class="st7" d="M413.3,374.1l100.5-2.4l1.2-111.3c0,0,1.9-10.1-23.8-17.1L471,267.9L441.7,240c0,0-26.2-2.2-46.4,5.5
	c-11.1,4.2,3.4,41.5,3.4,41.5L413.3,374.1z"/>
<polygon class="st8" points="494.4,244.3 470.8,273.9 436.6,239.7 437,239.8 442.1,239.9 442.1,239.9 471.2,267.6 471.2,267.6 
	491.4,243.6 491.8,243.5 "/>
<path class="st8" d="M416.6,265.2l18.1,1.4c0,0-1.4,62.5,9.6,72.1c11.1,9.6,48.1,1,48.1,1l-0.8,31.6l-69.9-7.5l-6.4-98.6H416.6z"/>
<polygon class="st7" points="491.3,243.5 471.1,267.8 441.2,239.9 442.1,239.9 452.4,236.6 470,257.3 482.1,239.7 "/>
<g>
	<path class="st9" d="M484.6,259.3c0,0-0.4-16.9-3.2-20.9"/>
	<g>
		<circle class="st10" cx="484.6" cy="263.2" r="4.7"/>
		<circle class="st11" cx="484.6" cy="263.2" r="2.2"/>
	</g>
	<path class="st12" d="M456.5,230.1c0,0-3.5,0-5.5,26"/>
	<path class="st12" d="M445.2,282.7c-1.9-0.1-3.4-1.7-3.3-3.6l0.8-15.6c0.2-4.2,3.8-7.5,8-7.3h0c4.2,0.2,7.5,3.8,7.3,8l-0.8,15.6
		c-0.1,1.9-1.7,3.4-3.6,3.3"/>
	<path class="st13" d="M457.5,273.6l-0.3,6.2c-0.1,1.9-1.7,3.4-3.6,3.3"/>
	<path class="st13" d="M445.2,282.7c-1.9-0.1-3.4-1.7-3.3-3.6l0.3-6.3"/>
	
		<ellipse transform="matrix(4.847723e-02 -0.9988 0.9988 4.847723e-02 148.0689 721.1517)" class="st14" cx="452.5" cy="282.9" rx="1.4" ry="1.4"/>
	
		<ellipse transform="matrix(4.847723e-02 -0.9988 0.9988 4.847723e-02 142.3652 714.5917)" class="st14" cx="446.2" cy="282.6" rx="1.4" ry="1.4"/>
</g>
<path class="st15" d="M449.1,334.9c0,0,3.8,4.3,6.7-7.2c2.9-11.5-11.1-13.5-11.1-13.5S442.9,331.6,449.1,334.9z"/>
<path class="st3" d="M507.1,262.6c0,0-4.3,1.7-9.3,4.9c-0.4,0.3-0.9,0.6-1.3,0.8c-2.2,1.5-4.6,3.2-6.7,5.2c-2.7,2.4-5,5.2-6.7,8.3
	c-6.2,12-21.2,46.6-25.5,49c-4.3,2.4-13-1.9-13-1.9s0-0.1-0.1-0.4c-0.6-2.6-3.4-17.5,5.4-28c0,0,24-36.5,37.5-39.9
	C500.8,257.3,507.1,262.6,507.1,262.6z"/>
<path class="st16" d="M488.8,370.7c0,0-16.8-102.9,10.6-108.7c27.4-5.8,88.9-10.1,97.1,0c8.2,10.1,22.1,114.4,22.1,114.4
	L488.8,370.7z"/>
<path class="st2" d="M225.3,219.8c0,0,34.1-37.5,201-40.4c166.8-2.9,163,5.3,171.1,20.2c8.2,14.9,12.5,91.3,12.5,91.3l14.4,21.2
	l-18.3-145.2c0,0-57.7-23.6-174-12.5s-188.2,23.3-188.2,23.3S222,206.8,225.3,219.8z"/>
<path class="st17" d="M322.4,374.6c0,0-26.4-101.9-9.6-107.7c16.8-5.8,85.6-12.5,85.6-12.5s24.5,38.9,31.7,116.3L322.4,374.6z"/>
<g>
	<path class="st18" d="M575,237.2c-0.6,0.1-1.4,0.1-2.1,0l0.4-10.9c0,0,3.2-2.8,5.6-0.7l0,0C581,227.6,582,236.5,575,237.2z"/>
	<path class="st18" d="M544.4,237.9c-0.4,0.5-0.9,0.7-1.6,0.8c-3,0.3-7.7-4.1-6.4-8.5c0.4-1.2,0.9-2,1.6-2.5
		c2.2-1.6,5.4,0.2,5.4,0.2L544.4,237.9z"/>
	<polygon class="st19" points="573.3,258.9 561.6,283.4 548.1,261.4 547.9,245.9 570.8,241.5 571.6,247.6 571.9,250.3 572,250.9 
		572.4,253.5 	"/>
	<path class="st20" d="M578.9,225.6c-1,0.4-3.6,2.4-3.9,11.6c-0.6,0.1-1.4,0.1-2.1,0l0.4-10.9C573.3,226.3,576.5,223.5,578.9,225.6
		L578.9,225.6z"/>
	<path class="st20" d="M544.4,237.9c-0.4,0.5-0.9,0.7-1.6,0.8c-0.7-8.5-3.1-10.6-4.8-11c2.2-1.6,5.4,0.2,5.4,0.2L544.4,237.9z"/>
	<path class="st21" d="M572,250.9c-2.5,2.8-6.6,6.2-12.4,6.5c-5.2,0.3-9.4-3.6-11.4-6.1l-0.2-4c4.7-0.2,18.6-0.9,23.6,0.2l0.3,2.7
		L572,250.9z"/>
	<path class="st22" d="M542.2,225.6c0,0,1.2,30.6,17.6,30c16.1-0.6,15.2-25.6,14.5-32.3s-5.6-17.6-5.6-17.6l-26.1,0.9L542.2,225.6z"
		/>
	<path class="st23" d="M539,211.2c0,0-1.2,11.3,4.4,16.6c0,0-1.3-2.9,0.8-5.7s1.8-8,1.8-8L539,211.2z"/>
	<path class="st24" d="M553.7,218.9c0,0-3.8-0.5-5.5,1.8"/>
	<path class="st24" d="M562.3,218.4c0,0,3.3-0.6,5.7,0.8"/>
	<g>
		<path class="st25" d="M553.8,244c1,0.4,2,0.7,3,0.9c1,0.2,2.1,0.3,3.1,0.2c1,0,2.1-0.3,3-0.6c1-0.3,1.8-1,2.7-1.6
			c-0.7,0.8-1.6,1.5-2.6,1.9c-1,0.4-2.1,0.7-3.1,0.8c-1.1,0-2.2-0.1-3.2-0.3C555.7,244.9,554.7,244.6,553.8,244z"/>
	</g>
	<path class="st24" d="M557.7,240c0,0,2.3,1,3.7-0.2"/>
	<g>
		<path class="st26" d="M576.6,214.3c0.2,2.9,0.2,9.9-2.5,11.4c0,0-1.6-10.2-4.4-13c-0.1-0.1-0.2-0.2-0.3-0.4c-2.2-2.7,1.5-5,1.5-5
			l5.6,5.6C576.6,213,576.6,213.5,576.6,214.3z"/>
		<path class="st27" d="M575.6,209.7c0,0,1.9,2.9,1,4.6c-0.3,0.5-0.8,0.9-1.8,1.1c-4.1,0.6-5.1-3.4-5.1-3.4s-0.1,0.2-0.3,0.4
			c-0.9,1.2-3.8,4.5-8.3,2.2c-0.9-0.5-1.9-1.2-3-2.2c0,0-9.9,10-20.1,2c-10.2-8,0.2-20.6,11.8-20.2c3.7,0.1,7.1,1.2,10,2.5
			c6.2,2.8,10.1,7.1,10.1,7.1s3.2-3.2,5.9-1.5C578.6,203.9,579,209.5,575.6,209.7z"/>
	</g>
	<g>
		
			<ellipse transform="matrix(0.9981 -6.190958e-02 6.190958e-02 0.9981 -13.1886 34.54)" class="st28" cx="550.8" cy="230.1" rx="1.9" ry="3"/>
		
			<ellipse transform="matrix(0.9981 -6.190958e-02 6.190958e-02 0.9981 -13.2345 34.5405)" class="st29" cx="550.8" cy="230.8" rx="1.3" ry="2.2"/>
	</g>
	<g>
		
			<ellipse transform="matrix(0.9981 -6.190958e-02 6.190958e-02 0.9981 -13.0993 35.4986)" class="st28" cx="566.3" cy="229.1" rx="1.9" ry="3"/>
		
			<ellipse transform="matrix(0.9981 -6.190958e-02 6.190958e-02 0.9981 -13.1451 35.4991)" class="st29" cx="566.3" cy="229.9" rx="1.3" ry="2.2"/>
	</g>
	
		<ellipse transform="matrix(0.9981 -6.190958e-02 6.190958e-02 0.9981 -13.932 34.4884)" class="st20" cx="549.6" cy="242.1" rx="3.9" ry="4.3"/>
	
		<ellipse transform="matrix(0.9981 -6.190958e-02 6.190958e-02 0.9981 -13.8179 35.7133)" class="st20" cx="569.4" cy="240.8" rx="3.9" ry="4.3"/>
	<path class="st23" d="M575.6,209.7c0,0,5.3,9.6-1.4,16c0,0-1.6-10.2-4.4-13c-0.1-0.1-0.2-0.2-0.3-0.4c-0.9,1.2-3.8,4.5-8.3,2.2
		c8.8-3.5-0.8-10.3-0.8-10.3c3-2.2,1.5-5.3-0.5-7.7c6.2,2.8,10.1,7.1,10.1,7.1s3.2-3.2,5.9-1.5C578.6,203.9,579,209.5,575.6,209.7z"
		/>
</g>
<path class="st30" d="M320.3,342.1c0,0-1,9.6,18.3,1c19.2-8.7-3.4-21.6-3.4-21.6S328.5,323.4,320.3,342.1z"/>
<path class="st31" d="M643.6,358.7l-125.4,1.2l-25.1,0.2c-0.5-1.8-0.4-5.9,0-11.4c1.9-21.6,10.2-64.3,16.3-70.8
	c4.5-4.7,16.8-9.6,26.4-12.9c0.8-0.3,1.6-0.5,2.3-0.8c2.5-0.8,4.7-1.5,6.4-2c2.3-0.7,3.7-1.1,3.7-1.1l13,22.1l12-24.5c0,0,0,0,0,0
	c2.2,0.2,4.3,0.5,6.3,0.8c1.1,0.2,2.2,0.3,3.3,0.5c1.2,0.2,2.4,0.4,3.6,0.7c19.6,4,29.6,11,29.6,11
	C632.1,298.1,643.6,358.7,643.6,358.7z"/>
<path class="st8" d="M586.6,260.7l-24,37.7L535.9,265c0.8-0.3,1.6-0.5,2.3-0.8c2.5-0.8,4.7-1.5,6.4-2l17,23.7l18.1-26.4
	c1.1,0.2,2.2,0.3,3.3,0.5C584.2,260.3,585.4,260.5,586.6,260.7z"/>
<path class="st29" d="M378.7,222.2c0,0,1,7.2-6.7,11.5c-7.7,4.3-17.3,10.6-16.3,15.9c1,5.3-3.4,11.1-7.7,13.9
	c-4.3,2.9-5.8,13.9-1.4,15.9c4.3,1.9,61.5-5.8,63.9-23.1c2.4-17.3-4.3-4.3-3.8-37.5S378.7,222.2,378.7,222.2z"/>
<polygon class="st8" points="561.6,286.9 565,358 570.8,357.5 "/>
<polygon class="st8" points="607.8,304.2 628,364.7 615,360.4 "/>
<polygon class="st8" points="524.6,306.1 522.7,337.8 518.8,358.5 526,360.9 "/>
<path class="st32" d="M531.1,342.4c0,0-4.8,8.7-4.3,14.9l6.2,0.5c0,0,1.4-8.2,3.4-11.1S531.1,342.4,531.1,342.4z"/>
<path class="st19" d="M550.3,331.3c0,0-3.8,30.3-21.2,11.5l-10.1,15.9l-0.9,1.2l-25.1,0.2c-0.2-0.8-0.3-2-0.3-3.6
	c0-2.1,0.1-4.7,0.4-7.8c3.8-2.3,10.8-6.4,17.9-10.2c7.9-4.3,15.9-8.3,19.6-9.2c8.7-1.9,11.1-1.4,11.1-1.4S541.7,331.8,550.3,331.3z"
	/>
<path class="st3" d="M489.7,273.5c-1.4,1-2.7,2.2-4,3.7c-3.1,3.8-3.9,2.4-2.9-0.6c1-3.2,4-8.3,7.9-10.7c0,0,4.2,0.7,7,1.5
	c1.2,0.4,2.1,0.7,2.5,1.1c0.1,0.1,0.1,0.1,0.1,0.2C500.7,270,495.2,269.6,489.7,273.5z"/>
<path class="st33" d="M449.4,335.2c-0.3-0.2-14.5-8.7-24.9-20.4c-3.9-4.4-7.3-9.2-9.2-14.2c-0.4-1-0.7-1.9-0.9-2.9
	c-5.3-19.7-1.4-33.7,4.8-34.6c0,0,1.5,1.4,3.9,3.7c6.7,6.6,20.5,21,26.8,33.7c0,0-2.4,9.4-2.7,19.2
	C447,325.3,447.5,330.9,449.4,335.2z"/>
<path class="st6" d="M489.7,273.5c-2.7,2.4-5,5.2-6.7,8.3c-6.2,12-21.2,46.6-25.5,49c-4.3,2.4-13-1.9-13-1.9s0-0.1-0.1-0.4l1.3-4.2
	c0,0,5.8,6.7,13.9-4.8c5.5-7.8,12.6-30.5,23.1-42.9c4-4.8,8.5-8,13.6-8.4c1.2-0.1,2.4,0,3.7,0.3c0,0,0.1,0,0.1,0
	c0.1,0.1,0.1,0.1,0.1,0.2C500.7,270,495.2,269.6,489.7,273.5z"/>
<path class="st33" d="M431.3,368.6l-86.3,0.2l0.8-17.8l0.5-12.2l2.1-48.8l25.5-18.3l41.1,7.9c0,0,13.5,20.9,14.4,51
	c0,1.4,0.1,2.8,0.1,4.2c0.1,2.6,0.2,5.1,0.3,7.4C430.6,363.2,431.3,368.6,431.3,368.6z"/>
<path class="st30" d="M449.4,335.2c-0.3-0.2-14.5-8.7-24.9-20.4l-7.2-13.4c1.1,0.8,17.5,12.8,29.9,18.5
	C447,325.3,447.5,330.9,449.4,335.2z"/>
<path class="st30" d="M423.6,342.1l-25.4,12.1l-11.1-19.2c-10.8,9.3-32.1,14.3-41.3,16l0.5-12.2l9.1-24l51.7-9.9l16.2,29.9
	C423.4,337.4,423.5,339.8,423.6,342.1z"/>
<path class="st3" d="M416.2,227c0,0,0.5,12.5-3.4,14.4c-3.8,1.9-8.7,1-8.7,1s-2.4,13.9,2.4,15.9c0,0,1.3,28.1-10.1,28.4
	c-2.5,0.1-4.9-1.5-7.1-3.9c-8-8.6-14-28.3-14-28.3s10.6-4.8,12-19.7c0.1-0.6,0.1-1.2,0.1-1.8c0.7-13.8-5.9-21.3-5.9-21.3l32.2-6.7
	c0,0-1.4,13,7.2,18.7L416.2,227z"/>
<path class="st6" d="M403.5,277.5l-14.1,5.3c-8-8.6-14-28.3-14-28.3s10.6-4.8,12-19.7c0.1-0.6,0.1-1.2,0.1-1.8l5.2-5.9
	c0,0-5,23.8-9.4,31.5C383.3,258.5,382.8,279.2,403.5,277.5z"/>
<path class="st28" d="M383.5,275.6c0,0,12.5,7.7,23.1-1.4l-4.8,39.2L383.5,275.6z"/>
<path class="st30" d="M357.3,285.4c0,0-9.6,18.7-6.7,35.6c2.9,16.8,42.8-7.2,42.8-7.2S368.8,281.1,357.3,285.4z"/>
<path class="st30" d="M388.6,309.4L364.1,288l-3-2.6l-8.8-21.2c4-3.2,6.7-4.5,6.7-4.5l15.8,10.4l1.6,4.6L388.6,309.4z"/>
<path class="st30" d="M425.6,279.6l-10.4,20.9c-0.4-1-0.7-1.9-0.9-2.9c-5.3-19.7-1.4-33.7,4.8-34.6c0,0,1.5,1.4,3.9,3.7L425.6,279.6
	z"/>
<polygon class="st33" points="375.3,254.4 400.3,307.8 406.6,258.2 419.1,263.1 420.5,275.6 414.8,276.5 419.6,280.8 402.3,318.3 
	371.2,280.1 375.3,274.6 365.7,273.1 359,259.7 "/>
<path class="st19" d="M640.7,355.4c0,0-18.7-23.1-26-26s-12.5,7.7-13,9.6s2.4,2.4,2.4,2.4s-1,2.4,2.4,2.4c0,0-1.9,1.4,1,1.9
	c0,0-1,0.5,2.4,1.9c3.4,1.4,11.1-1.9,11.1-1.9l2.9,10.6L640.7,355.4z"/>
<g>
	<polygon class="st34" points="376.1,298.5 377.1,300.6 385.4,318.6 391.8,332.5 395.5,340.4 399.3,348.6 433.5,332.9 428.1,321 
		424.3,312.6 410.4,282.1 	"/>
	<polygon class="st28" points="381,301.8 383.3,306.8 390.1,321.3 400.3,343.3 428.7,330.4 424.5,321.1 420.9,313.1 409.5,288.1 	
		"/>
	<path class="st35" d="M403.6,289.5l-17.9,8.8l-0.7-1.5l5.8-3.2c0,0-4.3-5.6,0.1-7.6c4.4-2.1,5.8,4.9,5.8,4.9l6.3-2.8L403.6,289.5z"
		/>
	<g>
		<line class="st36" x1="415.8" y1="309.4" x2="393.4" y2="320.2"/>
		<line class="st36" x1="417.3" y1="313.1" x2="395" y2="323.9"/>
		<line class="st36" x1="413.9" y1="305.7" x2="391.5" y2="316.6"/>
		<line class="st36" x1="408.9" y1="294.7" x2="386.5" y2="305.5"/>
		<line class="st36" x1="410.4" y1="298.4" x2="388.1" y2="309.2"/>
		<line class="st36" x1="412.3" y1="302" x2="390" y2="312.9"/>
		<line class="st36" x1="422.5" y1="323.8" x2="400.2" y2="334.6"/>
		<line class="st36" x1="424.1" y1="327.5" x2="401.7" y2="338.3"/>
		<line class="st36" x1="420.6" y1="320.1" x2="398.2" y2="331"/>
		<line class="st36" x1="419.1" y1="316.4" x2="396.7" y2="327.3"/>
	</g>
</g>
<path class="st3" d="M425,315.2c-0.3,0.1-0.5,0.1-0.6,0.1c0.1,0,0.3,0,0.4,0h0c0.6,0,1.6,0.3,1.3,1.6c-0.3,1.9-11.5,6.7-23.1,3.6
	c0,0-30.2,20.9-53.3,24.5c-23.1,3.6-27.8-0.2-27.5-9.9c0.1-2.4,1.2-5.8,2.9-9.4c5.3-10.7,16.7-22.2,23.6-7.7c0,0,45.8-7.4,53.8-10.9
	c8-3.4,20.9-4.5,21.9-2.4c1,1.9-1.4,2.8-1.9,3c0.5-0.1,3.1-0.7,3.7,0.7c0.4,1-0.7,2-1.6,2.5c0.6-0.1,1.3,0,1.9,1.5
	c0.3,0.9,0.2,1.5-0.1,1.9C426,314.9,425.4,315.1,425,315.2z"/>
<path class="st6" d="M426.1,316.9c-0.3,1.9-11.5,6.7-23.1,3.6c0,0-30.2,20.9-53.3,24.5c-23.1,3.6-27.8-0.2-27.5-9.9
	c0.1-2.4,1.2-5.8,2.9-9.4l16.9-6.2c0,0-19.2,16.3-12,21.2c7.2,4.8,71.6-23.6,71.6-23.6s15.6,2.7,23.2-1.8h0
	C425.4,315.4,426.3,315.7,426.1,316.9z"/>
<path class="st33" d="M378.7,272.7c0,0-0.8,0.6-2.3,2.1c-2.1,2-5.8,5.7-10.9,11.6c-0.5,0.5-0.9,1.1-1.3,1.7
	c-8,10.7-11.9,29.3-11.9,29.3c-19.7,4.8-32.2,24.5-32.2,24.5c2.8-48.2,22-69.4,32.3-77.7c4-3.2,6.7-4.5,6.7-4.5l15.8,10.4
	L378.7,272.7z"/>
<path class="st19" d="M612.8,328.2c0,0-7.7-4.6-9.1-6c0,0-4.3,1.4,5.8,7.2C619.6,335.2,612.8,328.2,612.8,328.2z"/>
<path class="st32" d="M541.7,328c0,0,12-11.5,32.7-12c20.7-0.5,35.6,13.5,35.6,13.5l-1.4,5.3h-3.4c0,0-10.1-12-31.7-11.5
	c-21.6,0.5-27.9,13.5-27.9,13.5S540.2,337.6,541.7,328z"/>
<path class="st31" d="M583,260l-21.1,34.3l-23.6-30.1c5.8-1.9,10.1-3.1,10.1-3.1l13,22.1l12.1-24.5C576.8,259.1,580,259.5,583,260z"
	/>
<path class="st29" d="M414.8,203.4c0,0-2.9,17.3-20.7,14.9c0,0-1.4,15.9-6.7,16.3s-20-20-8.4-34.4
	C390.5,185.9,418.1,194.8,414.8,203.4z"/>
<path class="st37" d="M415.7,232.8c0,0-0.7,0.7-4.1-0.2"/>
<path class="st38" d="M453.2,216.9c0.8,0.3,1.7,0.5,2.8,0.5c0.3,0,0.7,0,1-0.1c9.4-1.2,0-13.3,0-13.3s-0.2-0.4-0.6-0.9
	c-0.9-1.2-2.8-2.9-5.2-0.9c-0.1,0.1-0.2,0.2-0.3,0.2C448.4,205.1,448,214.6,453.2,216.9z"/>
<path class="st6" d="M455.8,231.9c9.3,11.9,20.9,6.2,24.2,4.2c-0.6-2.9,0-6.1,0-6.1l-12.9-4.2l-9.7,1.1
	C456.9,229,456.4,230.6,455.8,231.9z"/>
<path class="st6" d="M451,202.5c0.8,1.4,2.3,5.2,2.2,14.5c0.8,0.3,1.7,0.5,2.8,0.5l0.4-14.3c-0.9-1.2-2.8-2.9-5.2-0.9
	C451.2,202.3,451.1,202.4,451,202.5z"/>
<path class="st38" d="M485.2,218.7c0.2,0.8,0.7,1.5,1.4,1.7c0.6,0.2,1.3,0.1,2-0.3c3.9-2.1,8.1-12.1,5.5-15.7
	c-0.1-0.1-0.2-0.2-0.3-0.3c-3.1-3.3-5.5-0.2-6.2,0.9c-0.1,0.2-0.2,0.3-0.2,0.3S484,214.6,485.2,218.7z"/>
<path class="st6" d="M485.2,218.7c0.2,0.8,0.7,1.5,1.4,1.7c0.6,0.2,1.3,0.1,2-0.3c0.4-9.4,3.6-13.9,5.5-15.7
	c-0.1-0.1-0.2-0.2-0.3-0.3c-3.1-3.3-5.5-0.2-6.2,0.9L485.2,218.7z"/>
<path class="st3" d="M470.4,234.3c9.8,0.5,18.3-10.5,19.1-24.8c0.1-1.8,0.2-3.6,0.2-5.3c0-0.8-0.1-1.6-0.1-2.4
	c1.2-10.9-4.3-21.3-16.7-21.4c-12.8,0-18.4,10-18.2,21.1c0,0.4-0.1,0.9-0.2,1.3c-0.2,1.5-0.3,3.1-0.4,4.8
	C453.3,221.8,460.6,233.7,470.4,234.3z"/>
<g>
	
		<ellipse transform="matrix(0.1611 -0.9869 0.9869 0.1611 197.4443 649.1997)" class="st28" cx="480.6" cy="208.5" rx="3.7" ry="2.4"/>
	
		<ellipse transform="matrix(0.1611 -0.9869 0.9869 0.1611 196.2263 649.5948)" class="st29" cx="480.2" cy="209.4" rx="2.8" ry="1.6"/>
</g>
<path class="st6" d="M455,202.8c0.1,0,0.2-0.1,0.2-0.1c0.1-0.1,0.3-0.2,0.4-0.2c3.8,1.5,7.5-2.1,7.5-2.1c6.3,4.3,9-2.1,9-2.1
	c4.2,4.8,8.9-0.2,8.9-0.2c2.9,1.9,5.4,3.1,7.4,3.7c0,1,0.1,2.5,1.4,2.5c0.1,0,0.2,0,0.2,0c0-0.8,0-1.6-0.1-2.4
	c-0.5-10.7-3.9-18.9-16.4-19c-12.8,0-17.1,7.6-18.5,18.7C455.1,201.9,455.1,202.3,455,202.8z"/>
<g>
	
		<ellipse transform="matrix(6.272148e-02 -0.998 0.998 6.272148e-02 229.9604 659.9745)" class="st28" cx="466.4" cy="207.6" rx="3.7" ry="2.4"/>
	
		<ellipse transform="matrix(6.272148e-02 -0.998 0.998 6.272148e-02 228.7775 660.5486)" class="st29" cx="466.1" cy="208.5" rx="2.8" ry="1.6"/>
</g>
<path class="st39" d="M477.8,212.8l5.9,0.5c2.3,0.2,4.4-1.5,4.6-3.8l0.1-1c0.2-2.3-1.5-4.4-3.8-4.6l-5.9-0.5
	c-2.3-0.2-4.4,1.5-4.6,3.8l-0.1,1C473.8,210.6,475.5,212.6,477.8,212.8z"/>
<path class="st39" d="M461.5,211.6l5.9,0.5c2.3,0.2,4.4-1.5,4.6-3.8l0.1-1c0.2-2.3-1.5-4.4-3.8-4.6l-5.9-0.5
	c-2.3-0.2-4.4,1.5-4.6,3.8l-0.1,1C457.5,209.4,459.2,211.4,461.5,211.6z"/>
<line class="st39" x1="473.9" y1="208.3" x2="472.1" y2="208.3"/>
<path class="st27" d="M451.4,196.8c0.7,1.3,1.4,2.3,2.2,3c-0.2,0.9-0.4,2.8,1.6,1.6c0.1-0.1,0.3-0.2,0.4-0.2
	c3.8,1.5,7.5-2.1,7.5-2.1c4.4,3,7.1,0.8,8.3-0.9c0.5-0.7,0.8-1.3,0.8-1.3c4.2,4.8,8.9-0.2,8.9-0.2c2.9,1.9,5.4,3.1,7.4,3.7
	c0,1,0.1,2.5,1.4,2.5c1.3,0,2.1-1.3,2.5-2.2c5.2-0.7,6-6.7,4.4-10.1c-2.3-4.7-7.8-3.4-8.7-3.1c11.7-3.7,2.7-9.1,2.7-9.1
	c-1-0.5-2-1-3-1.3c-11.7-3.8-24.6,5.5-24.6,5.5c-11.6-5.3-9.2,9.3-9.2,9.3S448.6,191.4,451.4,196.8z"/>
<path class="st40" d="M474.7,218.1c0,0-2.4,1.8-4.5-0.3"/>
<path class="st27" d="M454.2,213.6c0.2,7.7,2.5,22.4,15.8,22.8c5,0.2,8.6-1.6,11.2-4.3c6.5-6.6,6.9-18.4,6.9-18.4s-3,8.2-6.2,8.6
	c-2.6,0.4-1.1-3.2-3.8-3.2s-3.9,2.4-12.4-0.9c0,0-1.8-0.9-2.7,0.9c-0.9,1.8-5.1,3.3-8.8-10.3C454.3,208.9,454.1,210.8,454.2,213.6z"
	/>
<g>
	<path class="st28" d="M477.1,223.7c-0.6,0.9-1.5,1.6-2.5,2.2c-1,0.5-2.2,0.7-3.4,0.6c-1.1-0.2-2.2-0.7-3.1-1.4
		c-0.4-0.3-0.8-0.8-1.2-1.2c-0.3-0.4-0.6-0.9-0.9-1.4c0.4,0.3,0.8,0.7,1.2,1.1c0.4,0.3,0.8,0.6,1.3,0.9c0.9,0.6,1.8,1,2.8,1.1
		c1,0.2,2,0,3-0.3C475.3,224.9,476.3,224.4,477.1,223.7z"/>
</g>
<path class="st23" d="M454.2,213.6c0.2,7.7,2.5,22.4,15.8,22.8c5,0.2,8.6-1.6,11.2-4.3C476,234,459.6,237.7,454.2,213.6z"/>
<path class="st23" d="M473.5,179C473.5,179,473.5,179,473.5,179C473.5,179,473.5,179,473.5,179z"/>
<path class="st23" d="M451.4,196.8c0.7,1.3,1.4,2.3,2.2,3c-0.2,0.9-0.4,2.8,1.6,1.6c0.1-0.1,0.3-0.2,0.4-0.2
	c3.8,1.5,7.5-2.1,7.5-2.1c4.4,3,7.1,0.8,8.3-0.9c-1.8,0.2-6.2,0.2-7.4-3.1c-1.5-4.1,9.3-6.8,10-7c-5.7,0.9-4.5-2.7-4.5-2.7
	c4.3-7.8,13.5-8.5,18.3-8.2c-11.7-3.8-24.6,5.5-24.6,5.5c-11.6-5.3-9.2,9.3-9.2,9.3S448.6,191.4,451.4,196.8z"/>
<path class="st32" d="M615.2,347.9c0,0,4.1-0.5,5.5-2.4c0,0,3.4,4.8,4.8,11.1l-7.2,0.5C618.4,357,617.9,352.2,615.2,347.9z"/>
<path class="st3" d="M396.5,217.9c0,0-2.4-3.8-6.7-0.5c-4.3,3.4-1.9,8.2,1.4,9.1S397.9,225.6,396.5,217.9z"/>
<path class="st41" d="M614.7,163.1c-54.8-32.7-271.1-10.6-271.1-10.6s28.8,144.7,26,217.3l291.3-5.8
	C660.9,364,669.6,195.7,614.7,163.1z M652.2,354.4l-275,4.8c-1.4-85.1-24-192.3-24-192.3s211.5-23.1,257.7,7.7
	S652.2,354.4,652.2,354.4z"/>
<path class="st42" d="M712.8,477.5c-0.2,4.2-12.4,7.1-31.2,9.1c-30.4,3.2-78.1,3.9-120.2,3.8c-47.6-0.1-88.1-1.4-88.1-1.4
	l-17.2-19.8l-86.6-99.4l291.3-5.8C660.9,364,718.1,360.2,712.8,477.5z"/>
<path class="st43" d="M449.5,418.9L449.5,418.9c-0.1-0.2-0.2-0.3-0.3-0.4c-5.7-9.9-12.6-19.4-21-27.3l0,0c-2.9-2.7-5.9-5.2-9.1-7.5
	c-13.2-9.5-29.6-15.1-49.6-13.9c0,0,3.8-82.7-26-217.3c0,0-92.3,11.1-106.7,28.8c-11.9,14.7-33.4,56.1-17.9,201.2
	c0.3,2.3,0.5,4.6,0.8,7c1,8.8,2.1,18,3.4,27.5c0,0,0,0,0,0c2.9,21.6,6.4,45.2,10.9,70.9l239.4,1C473.4,489,468.3,451.8,449.5,418.9z
	 M275.3,182.3c14.4-7.2,62.5-13.5,62.5-13.5c27.9,124,22.1,197.1,22.1,197.1h-67.3C266.2,253.9,275.3,182.3,275.3,182.3z M233,207.3
	c4.8-13.9,31.7-22.1,31.7-22.1c-7.2,72.1,16.3,182.7,16.3,182.7h-46.2C214.3,245.3,228.2,221.2,233,207.3z"/>
<circle class="st44" cx="681.6" cy="413.5" r="16.3"/>
<path class="st43" d="M695.5,422.1c-2.9,4.6-8,7.7-13.9,7.7c-9,0-16.3-7.3-16.3-16.3c0-5.1,2.4-9.7,6.1-12.7
	c-1.6,2.5-2.5,5.5-2.5,8.6c0,9,7.3,16.3,16.3,16.3C689.1,425.8,692.7,424.4,695.5,422.1z"/>
<circle class="st44" cx="533.3" cy="419.1" r="18"/>
<path class="st43" d="M547.6,430c-3.3,4.3-8.5,7.1-14.3,7.1c-10,0-18-8.1-18-18c0-7,3.9-13,9.7-16c-2.3,3-3.7,6.8-3.7,11
	c0,10,8.1,18,18,18C542.3,432,545.1,431.3,547.6,430z"/>
<path class="st43" d="M681.6,486.6c-30.4,3.2-78.1,3.9-120.2,3.8c4.1-6.4,13.2-22.8,17.2-47c5.3-31.7,63.2-25.2,70.7-13.5
	C654.9,438.6,662.3,474.8,681.6,486.6z"/>
<path class="st45" d="M449.3,418.4l-226.2-1.3c0,0,0,0,0,0c-1.3-9.6-2.4-18.7-3.4-27.5c-0.3-2.4-0.5-4.7-0.8-7l200.2,1.1
	c3.2,2.3,6.2,4.8,9.1,7.5l0,0C436.7,399.1,443.6,408.5,449.3,418.4z"/>
<ellipse class="st5" cx="258.7" cy="466.4" rx="15.1" ry="40.4"/>
<ellipse class="st46" cx="258.7" cy="465.7" rx="8.9" ry="32.5"/>
<ellipse class="st5" cx="258.7" cy="465.7" rx="4.6" ry="16.7"/>
<ellipse class="st5" cx="400.1" cy="466.4" rx="15.1" ry="40.4"/>
<ellipse class="st46" cx="400.1" cy="465.7" rx="8.9" ry="32.5"/>
<ellipse class="st5" cx="400.1" cy="465.7" rx="4.6" ry="16.7"/>
<path class="st30" d="M416.7,300.3l0.5,1c0,0-0.1,0-0.1,0L416.7,300.3z"/>
<path class="st3" d="M509.9,260.9c-0.8-2.1,0.2-4.4,2.3-5.1c3.4-1.1,8.5-2.2,10.9-0.7c3.8,2.4,3.8,11.1,3.8,11.1s-3.4,1-4.8-7.2
	c0,0,2.4,7.7,0,8.2s-3.4-8.2-3.4-8.2s1.9,8.7,0,8.7s-3.6-7.2-3.6-7.2s4.1,5.3,1.7,7.2C515,269.1,511.7,265.4,509.9,260.9z"/>
<path class="st3" d="M333.7,260.9c0,0-7.7,13.9-11.1,14.4c-3.4,0.5,2.9-15.4,2.9-15.4L333.7,260.9z"/>
<polygon class="st8" points="577,299.4 597.7,297.4 598.2,299.4 577,301.3 "/>
<ellipse transform="matrix(2.597886e-02 -0.9997 0.9997 2.597886e-02 184.1468 624.4326)" class="st28" cx="412.5" cy="217.7" rx="2.7" ry="1.3"/>
<ellipse transform="matrix(2.597886e-02 -0.9997 0.9997 2.597886e-02 183.4796 625.6464)" class="st29" cx="412.8" cy="218.7" rx="1.7" ry="0.6"/>
<ellipse transform="matrix(0.9988 -4.911874e-02 4.911874e-02 0.9988 -10.2326 20.4848)" class="st47" cx="411.7" cy="218.4" rx="3.4" ry="7.1"/>
<line class="st48" x1="407.5" y1="218.8" x2="396.4" y2="218.3"/>
<path class="st6" d="M425,315.2c0.1-0.1,0.2-0.1,0.3-0.2c0.4-0.3,0.7-0.4,1-0.5C426,314.9,425.4,315.1,425,315.2z"/>
<path class="st6" d="M403.9,242.1c0,0-10.1-2.4-12-12.3l-2.4,6C389.5,235.9,393.8,244.1,403.9,242.1z"/>
<path class="st21" d="M511,338.6c-9.7,6.7-16.3,15.3-18.3,18.1c0-2.1,0.1-4.7,0.4-7.8C497,346.5,504,342.4,511,338.6z"/>
<text transform="matrix(1.2493 9.769761e-03 -7.820000e-03 1 233.2119 407.0132)" class="st49 st50 st51">ВЕТДОКТОР 24</text>
<path class="st52" d="M449.4,375.6c0,0,207.7-8.2,217.8-5.3c10.1,2.9,17.8,13.5,17.8,13.5s-14.4-11.5-31.2-9.6
	C636.9,376,458.5,384.2,449.4,375.6z"/>
<g class="st53">
	<path class="st54" d="M394.3,144.8l-19.2,1.2c-3.2,0.2-6-1.6-6.2-4l-2.5-23.1c-0.3-2.4,2.1-4.5,5.3-4.7l19.2-1.2
		c3.2-0.2,6,1.6,6.2,4l2.5,23.1C399.9,142.5,397.5,144.6,394.3,144.8z"/>
	<polygon class="st55" points="373.2,142.7 371.7,119.5 377.5,119.2 384.2,140.6 	"/>
	<path class="st56" d="M360.9,151.3c0,0-0.5-8.4,10.1-12.3c10.6-3.8,30.3-4.8,35.1,0.5c4.8,5.3,4.8,10.1,4.8,10.1L360.9,151.3z"/>
	<path class="st57" d="M382.8,116.6c0,0,8.2-2.5,9.6,0c1.4,2.5,1.9,6.5,1.9,6.5S391,115.9,382.8,116.6z"/>
</g>
<g class="st53">
	<path class="st54" d="M534.9,144.3h-21c-2.7,0-4.9-2.2-4.9-4.9v-20.5c0-2.7,2.2-4.9,4.9-4.9h21c2.7,0,4.9,2.2,4.9,4.9v20.5
		C539.7,142.1,537.6,144.3,534.9,144.3z"/>
	<polygon class="st55" points="513.6,143.4 516.4,121.4 522.2,121.6 524.9,142.4 	"/>
	<path class="st56" d="M501.8,146.2c0,0-1.9-8.2,15.4-9.6c17.3-1.4,25.5,1,27.9,6.2c2.4,5.3,0,8.2,0,8.2L501.8,146.2z"/>
	<path class="st58" d="M529.4,116.2c0,0,7.7-0.7,7.7,6.2C537.1,122.4,532.8,116.9,529.4,116.2z"/>
</g>
<rect x="94.8" y="348.4" class="st59" width="24.6" height="157.6"/>
<polygon class="st59" points="33.5,348.9 178.9,348.9 201,321.8 178.9,296.3 33.5,296.3 "/>
<rect x="94.8" y="348.4" class="st60" width="24.6" height="12"/>
<line class="st61" x1="60" y1="507.5" x2="743.6" y2="507.5"/>
<g class="st62">
	<path class="st63" d="M68.7,306.7c3.2,0,13.7,8.5,13.7,17.1c0,7.5-6.1,13.5-13.7,13.5s-13.7-6-13.7-13.5
		C55,315.2,65.5,306.7,68.7,306.7z"/>
	<path class="st64" d="M143.6,311.6c4.1,0,6-2.3,11.3-2.3c3.3,0,5.4,2.4,5.4,6.1c0,7.5-7.7,20.9-16.7,20.9s-16.7-13.4-16.7-20.9
		c0-3.7,2.1-6.1,5.4-6.1C137.6,309.4,139.5,311.6,143.6,311.6z"/>
	<path class="st65" d="M118.9,305.4c2.7,0,5.7,4.2,8.4,6c6.1,3.8,8.4,9.3,8.4,13.7c0,6.6-7.5,11.9-16.7,11.9s-16.7-5.3-16.7-11.9
		c0-4.4,2.3-10,8.4-13.7C113.1,309.7,116.2,305.4,118.9,305.4z"/>
	<path class="st66" d="M93.4,304c0.7,0,0.3,3.9,3.2,4.6c2.9,0.6,4.5-3,5.1-2.7c0.6,0.3-1.5,3.6,0.8,5.4c2.3,1.8,5.4-0.9,5.9-0.4
		c0.4,0.6-3.1,2.7-1.8,5.2c1.3,2.5,5.3,1.4,5.4,2.1c0.2,0.7-4,1.1-4,4c0,2.8,4.2,3.3,4,4c-0.2,0.7-4.2-0.5-5.4,2.1
		c-1.2,2.5,2.3,4.6,1.8,5.2c-0.4,0.6-3.5-2.1-5.9-0.4c-2.3,1.8-0.1,5.1-0.8,5.4c-0.6,0.3-2.2-3.3-5.1-2.7c-2.9,0.7-2.5,4.6-3.2,4.6
		c-0.7,0-0.3-3.9-3.2-4.6c-2.9-0.6-4.5,3-5.1,2.7c-0.6-0.3,1.5-3.6-0.8-5.4c-2.3-1.8-5.4,0.9-5.9,0.4c-0.4-0.6,3.1-2.7,1.8-5.2
		c-1.3-2.5-5.3-1.4-5.4-2.1s4-1.1,4-4c0-2.8-4.2-3.3-4-4s4.2,0.5,5.4-2.1c1.2-2.5-2.3-4.6-1.8-5.2c0.4-0.6,3.5,2.1,5.9,0.4
		c2.3-1.8,0.1-5.1,0.8-5.4c0.6-0.3,2.2,3.3,5.1,2.7C93.2,307.9,92.7,304,93.4,304L93.4,304z"/>
	<g>
		<path class="st67" d="M64.8,328.5V317 M72.4,317.1l-5.7,5.3 M72.7,328.6l-5.7-5.5"/>
		<path class="st67" d="M97.7,328.6v-11.5 M89.1,328.6v-11.5 M89.1,328.6l8.6-11.5"/>
		<path class="st67" d="M118.8,328.6v-11.5"/>
		<circle class="st28" cx="116.6" cy="312.6" r="1.4"/>
		<circle class="st28" cx="120.9" cy="312.6" r="1.4"/>
		<path class="st67" d="M140.7,328.6v-11.5 M140.7,317.1h4.3c1.3,0,2.4,1.2,2.4,2.7s-1.1,2.7-2.4,2.7h-4.3 M140.7,328.6h3.8
			c1.8,0,3.3-1.3,3.3-3c0-1.6-1.5-3-3.3-3h-3.8"/>
	</g>
</g>
<path class="st2" d="M342,377h-1c-6.6,0-12-5.4-12-12v-14c0-6.6,5.4-12,12-12h1c6.6,0,12,5.4,12,12v14C354,371.6,348.6,377,342,377z
	"/>
<line class="st1" x1="352" y1="364" x2="362" y2="364"/>
<path class="st23" d="M550.4,236.8c-0.2,0-0.4,0-0.5,0.1c-1.7,0.1-3.1-0.1-4.3-0.6c-0.6-0.3-1.2-0.6-1.7-1c-0.9-0.7-1.6-1.5-2.1-2.4
	c-1.5-2.6-1.5-5.5-1.5-5.5l5-0.4l3.6-0.3l2.3-0.2l4.8-0.4h0l1-0.1C557.2,225.9,560.2,235.6,550.4,236.8z"/>
<path class="st23" d="M568.6,235.4c-0.1,0-0.3,0-0.4,0c-1.6,0.1-2.8-0.1-3.9-0.5c-0.7-0.3-1.3-0.6-1.8-1c-0.9-0.7-1.5-1.6-2-2.6
	c-1.2-2.6-0.8-5.5-0.8-5.5l4.2-0.4l3.6-0.3l2.5-0.2l4.8-0.4l1.7-0.1C576.5,224.4,577.9,234.6,568.6,235.4z"/>
<line class="st68" x1="554" y1="228" x2="561.5" y2="227.5"/>
<path class="st69" d="M549,226.6l-5,8.6c-0.9-0.7-1.6-1.5-2.1-2.4l3.4-5.9L549,226.6z"/>
<path class="st69" d="M556.2,226l-6.2,10.8c-1.7,0.1-3.1-0.1-4.3-0.6l5.7-9.8L556.2,226z"/>
<path class="st69" d="M574.8,224.6l-6.3,10.8c-0.1,0-0.3,0-0.4,0c-1.6,0.1-2.8-0.1-3.9-0.5l5.7-9.9L574.8,224.6z"/>
<path class="st69" d="M567.5,225.2l-5,8.7c-0.9-0.7-1.5-1.6-2-2.6l3.4-5.9L567.5,225.2z"/>
<line class="st70" x1="472.5" y1="139.5" x2="472.5" y2="145"/>
<path class="st71" d="M484,122.5c0,9.7-5.4,17.5-13.1,17.5s-14.9-7.8-14.9-17.5s7.1-17.5,14.9-17.5S484,112.8,484,122.5z"/>
<path class="st72" d="M488.4,122.5c0,9.7-5.7,17.5-13.8,17.5s-15.6-7.8-15.6-17.5s7.5-17.5,15.6-17.5S488.4,112.8,488.4,122.5z"/>
<path class="st73" d="M483.8,135.9c-2.4,2.6-5.5,4.1-9.1,4.1c-8.1,0-15.6-7.8-15.6-17.5c0-7,3.9-13,9.2-15.8
	c-3.1,3.2-5.2,7.8-5.2,12.8c0,9.7,7.5,17.5,15.6,17.5C480.5,137,482.2,136.6,483.8,135.9z"/>
<g>
	<line class="st74" x1="475.1" y1="112" x2="475.1" y2="132.5"/>
	<line class="st74" x1="465.5" y1="122.3" x2="483" y2="122.3"/>
</g>
</svg>
