<?xml version="1.0" encoding="utf-8"?>
<!-- Generator: Adobe Illustrator 21.1.0, SVG Export Plug-In . SVG Version: 6.00 Build 0)  -->
<svg version="1.1" id="Слой_1" xmlns="http://www.w3.org/2000/svg" xmlns:xlink="http://www.w3.org/1999/xlink" x="0px" y="0px"
	 viewBox="0 0 800 600" style="enable-background:new 0 0 800 600;" xml:space="preserve">
<style type="text/css">
	.st0{fill:#D8E6EF;}
	.st1{fill:#A9CAFF;}
	.st2{fill:#FFFFFF;}
	.st3{font-family:'MyriadPro-Regular';}
	.st4{font-size:29.0809px;}
	.st5{fill:#010F50;}
	.st6{fill:#000D4E;}
	.st7{fill:none;stroke:#FFFFFF;stroke-width:2.325;stroke-linecap:round;stroke-linejoin:round;stroke-miterlimit:10;}
	.st8{fill:#FEB101;}
	.st9{fill:#0438A6;}
	.st10{fill:#1F2E81;}
	.st11{fill:#111935;}
	.st12{fill:#FF5102;}
	.st13{fill:#D83902;}
	.st14{fill:#202F84;}
	.st15{fill:none;stroke:#111935;stroke-width:0.93;stroke-linecap:round;stroke-linejoin:round;stroke-miterlimit:10;}
	.st16{fill:#FF8403;}
	.st17{fill:#FF9201;}
	.st18{fill:#CD3D01;}
	.st19{fill:#F57900;}
	.st20{fill:#F4ECAE;}
	.st21{fill:#EFC648;}
	.st22{fill:#FDAC03;}
	.st23{fill:#FB8988;}
	.st24{fill:#FE6D70;}
	.st25{fill:#FEAC00;}
	.st26{fill:#134CBD;}
	.st27{fill:none;stroke:#F57900;stroke-width:0.93;stroke-linecap:round;stroke-linejoin:round;stroke-miterlimit:10;}
	.st28{fill:#002B8A;}
	.st29{fill:none;stroke:#FFFFFF;stroke-width:0.93;stroke-linecap:round;stroke-linejoin:round;stroke-miterlimit:10;}
	.st30{fill:none;stroke:#000000;stroke-width:0.93;stroke-miterlimit:10;}
	.st31{fill:#F9CE19;}
	.st32{fill:none;stroke:#8E3209;stroke-width:1.86;stroke-miterlimit:10;}
	.st33{fill:#FD8000;}
	.st34{fill:#33479E;}
	.st35{fill:#0438A6;stroke:#000000;stroke-width:0.4192;stroke-miterlimit:10;}
	.st36{fill:none;stroke:#F4ECAE;stroke-width:0.93;stroke-linecap:round;stroke-linejoin:round;stroke-miterlimit:10;}
	.st37{fill:#FF676A;}
	.st38{fill:#00338F;}
	.st39{fill:#EFEDE4;}
	.st40{fill:#0E1B5F;}
	.st41{fill:#303D8B;}
	.st42{fill:#000C50;}
	.st43{fill:#FFB502;}
	.st44{fill:#2F3C8A;}
	.st45{fill:#394AA4;}
	.st46{fill:none;stroke:#010F50;stroke-width:0.93;stroke-linecap:round;stroke-miterlimit:10;}
	.st47{fill:#89B1E0;}
</style>
<path class="st0" d="M114.2,527.5c0,0-61.6-306.1,232.8-352.5c260-41,150.4,93.1,319,209.3c46,31.7,57.5,95.1,24.2,140
	c-0.8,1.1-1.6,2.2-2.5,3.3H114.2z"/>
<rect x="489.5" y="309.6" class="st1" width="34.2" height="218.4"/>
<polygon class="st1" points="608.7,310.2 407.2,310.2 376.5,272.7 407.2,237.4 608.7,237.4 "/>
<text transform="matrix(1 0 0 1 417.5996 281.646)" class="st2 st3 st4">ВЕТКЛИНИКА   </text>
<path class="st5" d="M592.9,431.7c0,0-8.4-11.4-5.7-34.7l12.4,10.5L592.9,431.7z"/>
<path class="st6" d="M643.9,481.7c0,0-10.9,25-9.5,40.6c0,0-3.6-3.4-5.9,0l10.1,6.8c0,0,3.4-12.4,9.7-21.9S643.9,481.7,643.9,481.7z
	"/>
<ellipse transform="matrix(0.5354 -0.8446 0.8446 0.5354 5.1954 299.619)" class="st7" cx="274.9" cy="145.1" rx="9.8" ry="3.6"/>
<path class="st8" d="M193.1,527.3l-55.8-0.5l17.3-29.2l0.4-0.6l20,11.6l-6,5.1c21.1,2.5,24.1,8.9,24.3,11.9
	C193.3,526.7,193.1,527.3,193.1,527.3z"/>
<path class="st9" d="M394,355.7c-1.4,0.9-4.2,2.3-7.9-0.9c0,0-3.3,3.7-7-0.9c0,0-1.9,3.3-5.6,0.9c0,0-7.4,2.8-7.9-2.3
	c-0.2-2.7-1.3-6.4-2.8-9.2c-1.3-2.5-3-4.4-4.9-4.5c-4-0.2,8.1-12.8,8.1-12.8s1.3,0.8,3.4,2.1c5.6,3.6,16.7,11,19.4,16.1
	C392.6,351.1,395.4,354.8,394,355.7z"/>
<polygon class="st10" points="315.4,491.5 291.7,501.3 270.2,478.6 237.7,444.5 254,331.1 262.4,353 271.4,376.4 314.6,489.4 "/>
<path class="st11" d="M369.4,328c-1.7,2.3-4.6,7.1-6.6,15.2c-1.3-2.5-3-4.4-4.9-4.5c-4-0.2,8.1-12.8,8.1-12.8S367.4,326.7,369.4,328
	z"/>
<polygon class="st12" points="370.3,324.6 356.8,340.8 355.3,340.2 347,336.6 365.4,319.5 366.5,320.7 "/>
<path class="st11" d="M270.2,478.6l-32.4-34.1L254,331.1l8.4,22C265.7,377.9,273.3,441.8,270.2,478.6z"/>
<path class="st13" d="M366.5,320.7c-8.1,6.7-10.6,16.6-11.2,19.5l-8.3-3.6l18.4-17.1L366.5,320.7z"/>
<path class="st14" d="M253.8,388.6c-0.9,30.1-3.6,39.7-7.7,55c-3.1,11.5-20.3,26.6-36.4,38.7c-15.1,11.4-29.2,19.9-29.2,19.9
	l-11.4-8.7l-8.2-6.2c31.2-50.7,27.9-70.7,27.9-70.7c-1.6-7.4-7.4-17.7-14.5-28.1c-8.7-12.8-19.3-25.8-26-33.7
	c-3.9-4.6-6.5-7.5-6.5-7.5L254,331.1c0,0.5,0,0.9,0,1.4C254.3,357,254.2,375,253.8,388.6z"/>
<path class="st15" d="M188.4,339c0,0,31.2,55.8,24.2,89.7s-42.3,64.2-42.3,64.2"/>
<path class="st15" d="M209.8,336.2c0,0,0,14-12.6,19.1"/>
<path class="st11" d="M254,332.4c-47.4,5.1-91.3,17.9-105.6,22.4c-3.9-4.6-6.5-7.5-6.5-7.5L254,331.1C254,331.5,254,332,254,332.4z"
	/>
<polygon class="st16" points="254,331.1 188,340.7 141.9,347.3 136,341.2 128,332.9 179.1,323.2 252.6,322.2 "/>
<path class="st17" d="M366.5,318.5L355,332.2l-6.1,7.2c0,0-43.2-13-55.8-29.3c-4.6-5.9-13.8-13.4-23.6-20.4
	c-7.8-5.6-16-10.9-22.6-15.1c-7.8-4.9-13.4-8.2-13.4-8.2l8-73.7l0.1-0.9c0,0,3.8,3,10.2,8.4c0.6,0.5,1.2,1,1.8,1.5
	C279,222.8,337.5,274.1,366.5,318.5z"/>
<path class="st18" d="M254,331.1l-66,9.6c-14.6-0.9-21.4-4.9-21.4-4.9c-11.3,7.4-23.3,6.9-30.6,5.5l-8-8.3l51.2-9.8l73.5-0.9
	L254,331.1z"/>
<path class="st19" d="M355,332.2l-6.1,7.2c0,0-43.2-13-55.8-29.3c-4.6-5.9-13.8-13.4-23.6-20.4c-7.8-5.6-16-10.9-22.6-15.1
	c-7.8-4.9-13.4-8.2-13.4-8.2l8-73.7l0.1-0.9c0,0,3.8,3,10.2,8.4c0.6,0.5,1.2,1,1.8,1.5c2,7.1,5.1,19.5,4.4,26.1
	c-0.9,9.8,7.4,7.4,9.8,33c0,0,15.8,9.8,19.1,19.1s25.1,11.6,34.9,26C330.3,318.4,349.7,329.4,355,332.2z"/>
<path class="st20" d="M204.5,133.4l-14.6,24.2c0,0-2.6,1.7-7,4.2c-3.8,2.1-8.9,4.9-14.8,7.7c-0.3,0.1-0.6,0.3-0.9,0.4
	c-4.6,2.2-9.7,4.4-15,6.3c-0.3,0.1-0.7,0.2-1,0.4c-4.6,1.7-9.3,3.2-14.1,4.3c-0.4,0.1-0.7,0.2-1.1,0.3c-5.3,1.2-10.6,2.1-15.6,2.2
	c-0.3,0-0.6,0-0.9,0c-2.3,0-4.6-0.1-6.8-0.3c-3.3-0.4-6.4-1-9.3-1.7c-0.3-0.1-0.6-0.1-0.9-0.2c-6-1.6-11.1-3.8-15.4-6.2
	c-0.3-0.2-0.5-0.3-0.8-0.5c-4-2.3-7.2-4.8-9.7-7.2c-0.2-0.2-0.5-0.4-0.7-0.6c-4.8-4.5-6.9-8.2-6.9-8.2l20-30.7c0,0,1.1,4.2,4.4,9.2
	c0.2,0.3,0.4,0.6,0.6,0.9c1.6,2.3,3.6,4.6,6.2,6.8c0.2,0.2,0.5,0.4,0.7,0.6c2.9,2.3,6.4,4.3,10.7,5.6c0.3,0.1,0.6,0.2,0.9,0.3
	c1.4,0.4,2.9,0.7,4.4,0.9c2.7,0.4,5.6,0.4,8.6,0c0.3,0,0.6-0.1,1-0.1c3.9-0.6,8-1.6,12.3-3c0.3-0.1,0.7-0.2,1-0.3
	c3.3-1.1,6.8-2.4,10.3-3.7c0.3-0.1,0.6-0.2,1-0.4c3.5-1.3,7-2.6,10.6-3.9c0.3-0.1,0.6-0.2,0.9-0.3c3.7-1.3,7.4-2.6,11.1-3.6
	c0.3-0.1,0.6-0.2,0.9-0.3c8.2-2.3,16.5-3.8,24.8-3.4C201,133,202.7,133.2,204.5,133.4z"/>
<path class="st9" d="M326.5,323.6c0,0,0,1.3-1.4,1.7c-0.5,0.1-1.2,0.1-2.2-0.1c-0.2,0-0.4-0.1-0.6-0.2c0,0,0,0-0.1,0.1
	c-0.4,0.6-2.6,3.2-4.7,1.2c0,0-5.1,5.3-14.7-6.6c-0.1-0.1-0.1-0.1-0.2-0.2c-9.7-12.2,4.3-20.1,4.3-20.1s17.7,2.3,20.9,11.6
	S329.3,324.6,326.5,323.6z"/>
<path class="st21" d="M204.5,133.4l-14.6,24.2c0,0-2.6,1.7-7,4.2l-19.5,6.7c0.5-0.2,15.2-8,18-15.3c2.8-7.4,6-7.4,9.3-11.6
	c2.1-2.7,6.1-6.4,8.7-8.6C201,133,202.7,133.2,204.5,133.4z"/>
<g>
	<g>
		<path class="st21" d="M93.9,137.9l-17.4,29.5c-0.2-0.2-0.5-0.4-0.7-0.6L93.3,137C93.5,137.3,93.7,137.6,93.9,137.9z"/>
		<path class="st21" d="M100.8,145.3L87,175c-0.3-0.2-0.5-0.3-0.8-0.5l13.9-29.9C100.3,144.9,100.6,145.1,100.8,145.3z"/>
		<path class="st21" d="M112.4,151.1l-9.1,30.4c-0.3-0.1-0.6-0.1-0.9-0.2l9.1-30.4C111.8,151,112.1,151,112.4,151.1z"/>
		<path class="st21" d="M126.4,151.9l-6,31.6c-0.3,0-0.6,0-0.9,0l6-31.5C125.7,152,126,151.9,126.4,151.9z"/>
		<path class="st21" d="M138.2,170.1c0.4,4.5-0.2,8.1-1.1,10.9c-0.4,0.1-0.7,0.2-1.1,0.3c1-2.7,1.7-6.4,1.3-11.1
			c-0.7-8.4,0.6-17.2,1.4-21.3c0.3-0.1,0.7-0.2,1-0.3C138.9,152.5,137.5,161.5,138.2,170.1z"/>
		<path class="st21" d="M152.1,176.3c-0.3,0.1-0.7,0.2-1,0.4c0.4-3,0.9-8.9-0.4-15.7c-1.2-6.5-1.1-12.6-0.8-16.1
			c0.3-0.1,0.6-0.2,1-0.4c-0.3,3.4-0.5,9.5,0.7,16.3C152.9,167.4,152.5,173.1,152.1,176.3z"/>
		<path class="st21" d="M168.1,170.1c0,0.3-0.2,0.5-0.5,0.5c0,0,0,0,0,0c-0.3,0-0.5-0.2-0.5-0.5c0,0,0-0.1,0-0.2
			c-0.1-0.8-0.4-5-2.8-13.1c-2.1-6.9-2.6-13.4-2.8-16.2c0.3-0.1,0.6-0.2,0.9-0.3c0.1,2.7,0.6,9.2,2.7,16.3c2.2,7.4,2.7,11.6,2.9,13
			C168,169.9,168.1,170.1,168.1,170.1z"/>
		<path class="st21" d="M181,158.5c0,0.3-0.2,0.5-0.4,0.5c0,0,0,0-0.1,0c-0.2,0-0.4-0.2-0.5-0.4c0-0.1-0.9-8.3-2.8-12.4
			c-1.2-2.7-2.8-6.9-3.7-9.6c0.3-0.1,0.6-0.2,0.9-0.3c1,2.7,2.5,6.8,3.7,9.4C180,150,181,158.2,181,158.5z"/>
	</g>
</g>
<path class="st11" d="M304,316.9c0,0,8,7,18.3,8.2c-0.4,0.6-2.6,3.2-4.7,1.2c0,0-5.1,5.3-14.7-6.6L304,316.9z"/>
<path class="st22" d="M305.2,318.8c-0.6,1.1-1.2,2.1-1.9,3l-7-2.8l4.7-24.6l1,0.3l7.3,2C309.3,296.7,309.7,310.2,305.2,318.8z"/>
<path class="st23" d="M277.3,133.4c0,0-6,13.5-2.3,20c0,0-6-1.4-7.9,1.9c-1.9,3.3-6,11.6-14.9,6.5c-8.8-5.1-25.6-17.7-25.6-17.7
	l7.9-32.1l36.7,5.6L277.3,133.4z"/>
<path class="st19" d="M305.2,318.8c-0.6,1.1-1.2,2.1-1.9,3l-7-2.8l4.7-24.6l1,0.3c0.4,4.2,0.7,12.3-1.3,19.5
	C299.4,318.8,302.1,319.5,305.2,318.8z"/>
<path class="st24" d="M235.2,138.8c0,0,7,13.5,20,26.5l-25.1-6l-7.4-16.7L235.2,138.8z"/>
<path class="st25" d="M261,271.5c0,0-14.4,33.9-42.3,53.9s-52.1,5.6-52.1,5.6c-5.6,4.7-20,11.6-38.1,4.2
	c-12.6-5.2-30.6-20.7-32.6-51c0-0.3,0-0.7-0.1-1c-0.7-13.1,1.6-29,8.5-47.9c5.6-15.4,13.4-28,22-38.1c0.2-0.2,0.4-0.5,0.6-0.7
	c10.2-11.9,21.5-20.4,31.5-26.3c16.2-9.6,29.1-12.6,29.1-12.6c6.2-0.7,12,0.3,17.4,2.4c18,7,31.3,26.4,38.8,33.9
	c9.8,9.8,8.4,33.9,8.4,33.9C268.9,253.4,261,271.5,261,271.5z"/>
<path class="st19" d="M159.1,210.7c0,0.2-0.2,0.4-0.5,0.4h0c-15.3-1.1-27.5-9.8-32.4-13.9c0.2-0.2,0.4-0.5,0.6-0.7
	c4.8,4,16.8,12.6,31.8,13.7C159,210.2,159.2,210.4,159.1,210.7z"/>
<path class="st19" d="M148.9,289.2c0,0.3-0.1,0.5-0.4,0.5c-6,0.8-11.6,1.1-16.7,1.1c-17,0-29.1-3.7-36-6.6c0-0.3,0-0.7-0.1-1
	c8.7,3.7,26.4,9,52.6,5.6C148.6,288.7,148.9,288.9,148.9,289.2z"/>
<path class="st19" d="M219.4,172.7c-26-12.2-48.8-7.1-60.9-2.5c16.2-9.6,29.1-12.6,29.1-12.6c6.2-0.7,12,0.3,17.4,2.4L219.4,172.7z"
	/>
<path class="st26" d="M292.6,119.5c0.5,4.7-4.7,5.6-4.7,5.6c0.3,1.2,0.4,2.8,0,4.3c-0.7,2.6-2.7,5.2-7,6.4c-7,1.9-10.2-5.6-10.2-5.6
	c-6.5,4.7-11.2-3.7-11.2-3.7c-7.4,11.6-14,0.9-14,0.9l-1.1,3.1l-1.6,4.7l-1,2.9c0,0-3.7,5.6-11.6,5.6c-7.9,0-6-10.2-6-10.2
	s-2.3,2.8-6.5,0s0.5-7.9,0.5-7.9s-7.9,1.4-7.9-6c0-7.4,6.5-7.4,6.5-7.4s-3.3-0.5-3.3-7c0-1.8,0.6-3.1,1.4-3.9c2.2-2.1,6-1.7,6-1.7
	s-4.7-2.8-0.9-7.9c3.6-4.9,8.4-0.8,8.8-0.5c-0.3-0.3-3.5-4.3,1.9-7.9c5.3-3.5,8.1,2.2,8.4,2.7c-0.2-0.6-2.4-7.5,5.1-8.8
	c7.2-1.3,9,4.8,9.3,5.9c-0.1-0.9-0.5-5.4,7-5.4c8.4,0,8.8,5.6,8.8,5.6s1.4-5.6,7.9-2.3c6.4,3.2,2.9,9.6,2.8,9.8
	c0.2-0.1,7.5-4.5,9.8,2.3c2.3,6.7-3.3,10-3.7,10.2c0.3-0.1,5.6-1.7,7,3.7c1.4,5.6-4.7,6.5-4.7,6.5S292.1,114.8,292.6,119.5z"/>
<path class="st27" d="M216.8,238.1c0,0,11.6,3.7,35.3-10.2"/>
<path class="st19" d="M163.2,195.5c0,0-32,53.2-31.5,78.4s19.8,48.1,85.5,52.2L163.2,195.5z"/>
<path class="st28" d="M288,129.4c-0.7,2.6-2.7,5.2-7,6.4c-7,1.9-10.2-5.6-10.2-5.6c-6.5,4.7-11.2-3.7-11.2-3.7
	c-7.4,11.6-14,0.9-14,0.9l-1.1,3.1l0.4-4.3c0,0,3.3,5.1,14.9-2.3c0,0,4.7,6,12.1,2.8C271.9,126.7,276.1,136.3,288,129.4z"/>
<path class="st28" d="M242.9,135.2l-1,2.9c0,0-3.7,5.6-11.6,5.6c-7.9,0-6-10.2-6-10.2s-2.3,2.8-6.5,0s0.5-7.9,0.5-7.9
	s-7.9,1.4-7.9-6c0-7.4,6.5-7.4,6.5-7.4s-3.3-0.5-3.3-7c0-1.8,0.6-3.1,1.4-3.9c-0.1,3.7,0.5,10.5,6.2,11.1c0,0-4.2,6.5,1.4,8.8
	c0,0-1.9,9.9,7.9,9.6C236.6,130.5,240.7,133.2,242.9,135.2z"/>
<path class="st20" d="M261.9,182.3c-0.9,9-13.6,11.9-19,8.7c-0.2-0.1-0.3-0.2-0.5-0.3c-0.2-0.1-0.4-0.3-0.6-0.5
	c-7.1-6-44.5-46.5-44.5-46.5l7.4-11.6c0,0,2.5,0.1,6.8,1.4c0.3,0.1,0.6,0.2,0.9,0.3c2.1,0.7,4.6,1.7,7.5,3c0.3,0.1,0.6,0.3,0.9,0.4
	c2.3,1.1,4.8,2.5,7.4,4.3c0.3,0.2,0.5,0.3,0.8,0.5c2.7,1.8,5.5,3.9,8.5,6.4c0.3,0.2,0.5,0.4,0.8,0.7c0.4,0.4,0.9,0.8,1.3,1.2
	c3,2.7,5.7,5.1,8,7.2c0.2,0.2,0.5,0.5,0.7,0.7c2.4,2.3,4.5,4.4,6.2,6.2c0.3,0.3,0.6,0.6,0.8,0.9c0,0,0,0,0,0
	c2.2,2.5,3.8,4.7,4.9,6.7c0.3,0.6,0.5,1.1,0.8,1.7c0,0,0,0,0,0C262.1,176.4,262.2,179.1,261.9,182.3z"/>
<path class="st19" d="M223.5,207.6c0,0,0.5,6.5,0.9,14.4c0.5,7.9-3.7,19.1,5.1,29.8c8.8,10.7,37.2,15.3,41.9,23.7
	s-66.5-5.6-66.5-5.6l1.4-42.8L223.5,207.6z"/>
<path class="st20" d="M243.8,193.9c0,0-1.1-1.2-3.1-3.2c-2.8-2.7-7.3-6.9-13.5-11.6c-0.3-0.2-0.6-0.5-0.9-0.7
	c-2.4-1.8-5-3.7-7.8-5.5c-0.3-0.2-0.7-0.4-1-0.7c-2.4-1.5-4.8-3-7.5-4.5c-0.3-0.2-0.6-0.4-1-0.5c-2.4-1.3-4.8-2.6-7.4-3.8
	c-0.3-0.2-0.6-0.3-1-0.5c-2.5-1.1-5-2.3-7.6-3.3c-0.3-0.1-0.7-0.3-1-0.4c-1.5-0.6-3-1.1-4.5-1.6c0,0,0.8-7.1,4.5-11.2
	c1.3-1.5,3.1-2.5,5.2-2.8C205.6,142.7,243.3,174.8,243.8,193.9z"/>
<g>
	<path class="st2" d="M212.4,133.7l-9.1,13.1c-0.1,0.1-0.2,0.2-0.4,0.2c-0.1,0-0.2,0-0.3-0.1c-0.2-0.1-0.3-0.4-0.1-0.6l8.9-12.9
		C211.8,133.5,212.1,133.6,212.4,133.7z"/>
	<path class="st2" d="M220.8,137.2c-1.7,1.2-6.9,9.3-9.9,14.4c-0.1,0.1-0.2,0.2-0.4,0.2c-0.1,0-0.2,0-0.2-0.1
		c-0.2-0.1-0.3-0.4-0.2-0.6c1.2-2.1,7-11.8,9.8-14.4C220.2,136.9,220.5,137,220.8,137.2z"/>
	<path class="st2" d="M229,142c-2.4,4.6-8.1,15.1-10.8,16.3c-0.1,0-0.1,0-0.2,0c-0.2,0-0.4-0.1-0.4-0.3c-0.1-0.2,0-0.5,0.2-0.6
		c2.2-1,7.6-10.6,10.4-16C228.4,141.6,228.7,141.8,229,142z"/>
	<path class="st2" d="M238.3,149c-1.4,4.5-5.3,14.7-12.7,17.6c-0.1,0-0.1,0-0.2,0c-0.2,0-0.4-0.1-0.4-0.3c-0.1-0.2,0-0.5,0.3-0.6
		c7.1-2.9,11-13.2,12.2-17.4C237.7,148.6,238,148.8,238.3,149z"/>
	<path class="st2" d="M248.3,158.1c-2.3,4.7-7.5,13.8-14.8,16.9c-0.1,0-0.1,0-0.2,0c-0.2,0-0.4-0.1-0.4-0.3c-0.1-0.2,0-0.5,0.2-0.6
		c7.1-3,12.3-12.3,14.4-16.8C247.8,157.6,248,157.9,248.3,158.1z"/>
	<path class="st2" d="M255.3,165.2C255.3,165.2,255.3,165.2,255.3,165.2c-0.6,4.4-3.2,14.2-14.4,19c-0.1,0-0.1,0-0.2,0
		c-0.2,0-0.4-0.1-0.4-0.3c-0.1-0.2,0-0.5,0.2-0.6c11.4-4.9,13.5-15.4,13.9-19C254.7,164.6,255,164.9,255.3,165.2z"/>
	<path class="st2" d="M260.9,173.6C260.9,173.6,260.9,173.6,260.9,173.6c-0.6,4.2-2.1,10.4-6.4,14.2c-2.5,2.2-5.7,3.3-9.4,3.3
		c-0.7,0-1.4,0-2.2-0.1c-0.3,0-0.5-0.1-0.8-0.1c-0.3,0-0.4-0.3-0.4-0.5c0-0.1,0-0.1,0.1-0.2c0.1-0.1,0.3-0.2,0.5-0.2
		c4.7,0.7,8.7-0.3,11.6-2.9c4.6-4.1,5.9-11.2,6.3-15.2C260.4,172.5,260.7,173,260.9,173.6z"/>
</g>
<path class="st25" d="M301.3,299.7c0.1,12.8-5,19.3-5,19.3s-27.4,14.4-64.6,9.3c-37.2-5.1-78.1-17.2-89.3-40.9
	c-11.2-23.7,1.4-52.1,13.5-79.1c7.5-16.7,17.5-26,27.4-29.9c6.1-2.4,12.2-2.8,17.7-1.7c29.4,6.1,21.5,48.8,20.6,68.3
	c-0.2,4.3-0.1,7.4,0.8,8.9c3.6,5.6,8.9,8.8,21.9,12.1c5.4,1.3,12.2,2.7,20.8,4.2c29.3,5.1,35.8,24.2,35.8,24.2
	C301.2,296.2,301.3,298,301.3,299.7z"/>
<g>
	<path class="st2" d="M194.7,147c0,0.1-2.7,7-1.7,12.6c-0.3-0.1-0.7-0.3-1-0.4c-0.8-5.8,1.7-12.2,1.8-12.6c0.1-0.2,0.4-0.4,0.6-0.3
		C194.7,146.5,194.8,146.8,194.7,147z"/>
	<path class="st2" d="M203.1,150.4c0,0.1-1.9,6.5-1.5,13c-0.3-0.2-0.6-0.3-1-0.5c-0.3-6.4,1.5-12.5,1.6-12.8
		c0.1-0.2,0.3-0.4,0.6-0.3C203,149.9,203.1,150.1,203.1,150.4z"/>
	<path class="st2" d="M214.1,157.3c-0.2,0.2-4.7,4.2-4.1,10.4c-0.3-0.2-0.6-0.4-1-0.5c-0.3-6.4,4.4-10.5,4.5-10.6
		c0.2-0.2,0.5-0.1,0.7,0C214.3,156.8,214.3,157.1,214.1,157.3z"/>
	<path class="st2" d="M221.5,164.3c-0.2,0.1-4,3.4-3.1,8.6c-0.3-0.2-0.7-0.4-1-0.7c-0.5-5.3,3.5-8.6,3.5-8.7
		c0.2-0.2,0.5-0.1,0.7,0.1C221.7,163.8,221.7,164.1,221.5,164.3z"/>
	<path class="st2" d="M229.5,171.2c0,0-2.4,2.6-2.2,7.9c-0.3-0.2-0.6-0.5-0.9-0.7c0.1-5.2,2.4-7.7,2.5-7.8c0.2-0.2,0.5-0.2,0.7,0
		C229.6,170.7,229.6,171,229.5,171.2z"/>
</g>
<path class="st8" d="M360.5,526.4l-50.2,0.9L299,510.1l-0.3-0.5l-0.5-1.4c0,0,17.2-16.7,19.1-8.8c1.9,7.9,8.4,12.6,8.4,12.6
	c24.9,2.1,32.2,7.5,34.2,11C361,525,360.5,526.4,360.5,526.4z"/>
<path class="st11" d="M171,491.9c-0.6,0.6-1.2,1.2-1.8,1.6l-8.2-6.2c31.2-50.7,27.9-70.7,27.9-70.7c-1.6-7.4-7.4-17.7-14.5-28.1
	c6.4,5.2,18,16.5,18.7,30C194,437.1,185.6,476.9,171,491.9z"/>
<ellipse transform="matrix(0.5354 -0.8446 0.8446 0.5354 4.6452 295.8287)" class="st7" cx="271.2" cy="143.7" rx="9.8" ry="3.6"/>
<line class="st7" x1="269" y1="140" x2="248.2" y2="127.9"/>
<path class="st29" d="M185.2,196.7c0,0-32.1,47-17.7,79.1s79.5,33,120,33.5"/>
<path class="st29" d="M167,209.7c0,0,13.5,6.5,22.3,5.6"/>
<line class="st30" x1="391.9" y1="355" x2="568.6" y2="446.2"/>
<line class="st30" x1="322.1" y1="310.8" x2="377.3" y2="345.4"/>
<path class="st23" d="M248.9,129.7c0,0-0.9-6-7-6s-8.8,7.4-6.5,10.2s6.5,4.2,6.5,4.2S249.4,135.3,248.9,129.7z"/>
<path class="st31" d="M221.5,245c-0.8-11.5,0.1-38.3-9.2-54.6c-5.8-10.2-20.5-11.4-29.1-12c6.1-2.4,12.2-2.8,17.7-1.7
	C230.4,182.8,222.5,225.5,221.5,245z"/>
<path class="st31" d="M301.3,299.7c-0.6,0.5-1.1,0.2-1.5-1.4c-1.9-7.4-16.3-19.5-33.9-24.6c-8.5-2.5-16-5.3-21.5-7.7
	c5.4,1.3,12.2,2.7,20.8,4.2c29.3,5.1,35.8,24.2,35.8,24.2C301.2,296.2,301.3,298,301.3,299.7z"/>
<line class="st32" x1="137.1" y1="528" x2="192.9" y2="528.5"/>
<line class="st32" x1="310" y1="527.5" x2="360.3" y2="526.6"/>
<path class="st33" d="M193.1,527.3l-55.8-0.5l17.3-29.2l3.4,2.4c0,0-9.8,16.3-3.7,21.4c4.5,3.8,27.7,4.3,39,4.3
	C193.3,526.7,193.1,527.3,193.1,527.3z"/>
<path class="st2" d="M182.9,510.1c0,0-0.5,0.5-1.4,1c-1.9,1.3-5.4,2.7-7-1.5c0,0-7,1.9-8.4-5.6c0,0-6.5,3.7-8.8-1.9
	c0,0-7.4-0.9-5.1-7.4c0,0-4.4-4.7,0.1-7.9c0.8-0.5,1.8-1,3.2-1.4c0,0,7-5.1,9.8,1.4c0,0,6-0.9,7,5.6c0,0,6.5-1.4,7.4,4.7
	c0,0,7,1.4,5.1,7C184.7,504.1,189.4,509.2,182.9,510.1z"/>
<path class="st33" d="M360.5,526.4l-50.2,0.9L299,510.1l6.4-2.6c0,0,4.2,15.8,19.5,15.8c10.6,0,26.2-0.2,34.9-0.4
	C361,525,360.5,526.4,360.5,526.4z"/>
<path class="st34" d="M253.8,388.6c-0.9,30.1-3.6,39.7-7.7,55c-3.1,11.5-20.3,26.6-36.4,38.7c5.3-5.5,19.5-18.3,30.6-34.2
	C246.8,438.5,251.8,410.8,253.8,388.6z"/>
<polygon class="st34" points="314.6,489.4 311.9,491.3 271.4,376.4 "/>
<path class="st2" d="M324.2,497.5c0.5,1.8,0.2,3.1-0.5,4c-1.9,2.5-6.5,2.5-6.5,2.5c-2.3,6.5-10.2,3.7-10.2,3.7
	c-2.8,6.5-10.2,3.7-10.2,3.7s-1.9,2.3-6.5,1.9c-3.2-0.3-3.7-3.7-3.8-5.8c0-1,0.1-1.7,0.1-1.7c-4.7-6,1.9-6.5,1.9-6.5
	c3.3-7.9,11.6-5.6,11.6-5.6c2.8-8.8,10.7-4.7,10.7-4.7c1.9-6,10.2-0.9,10.2-0.9C327.5,491,324.2,497.5,324.2,497.5z"/>
<path class="st11" d="M325.2,325.3c-0.5,0.1-1.2,0.1-2.2-0.1C323.7,325.3,324.4,325.3,325.2,325.3z"/>
<path class="st35" d="M392.5,355.8c0,0-5-3.8-6-6.6c-0.9-2.8-4.2-2.3-4.2-2.3"/>
<path class="st35" d="M386.1,354.8c0,0-1.9-9.8-8.8-9.3"/>
<path class="st35" d="M379.1,353.9c0,0,0.9-5.6-2.3-7.9c-3.3-2.3-3.7,0.5-3.7,0.5"/>
<path class="st35" d="M373.5,354.8c0,0,1.9-3.7,1.4-6s-1.4-3.7-3.3-3.3c-1.9,0.5-1.4,2.3-0.5,3.3"/>
<line class="st36" x1="68.7" y1="158.3" x2="58" y2="143.9"/>
<line class="st36" x1="72" y1="156" x2="62.2" y2="140.2"/>
<line class="st36" x1="74.9" y1="148.7" x2="67.8" y2="136.5"/>
<line class="st36" x1="78.9" y1="143.7" x2="72" y2="131.3"/>
<line class="st36" x1="83.1" y1="138.8" x2="74.7" y2="127.6"/>
<line class="st36" x1="86.8" y1="134.1" x2="78.5" y2="123.4"/>
<line class="st36" x1="88.7" y1="130.9" x2="85" y2="119.7"/>
<path class="st21" d="M243.8,193.9c0,0-1.1-1.2-3.1-3.2c-15.3-31.5-40.8-41.8-48.7-44.3c1.3-1.5,3.1-2.5,5.2-2.8
	C205.6,142.7,243.3,174.8,243.8,193.9z"/>
<g>
	<path class="st37" d="M245.1,128.9c-0.7-0.1-1.4-0.2-2.1-0.3c-0.7,0-1.3,0-1.8,0.3c-0.5,0.2-1,0.7-1.3,1.2
		c-0.2,0.3-0.3,0.6-0.4,0.9c-0.1,0.3-0.2,0.7-0.4,1c-0.1-0.4-0.1-0.7-0.1-1.1c0.1-0.4,0.1-0.7,0.2-1.1c0.2-0.7,0.8-1.4,1.5-1.8
		c0.8-0.3,1.6-0.4,2.3-0.2C243.9,128.1,244.5,128.4,245.1,128.9z"/>
</g>
<circle class="st24" cx="257.7" cy="148.3" r="6"/>
<g>
	<path class="st38" d="M240.7,99.3c0-1.6,0.6-3.2,1.7-4.5c0.6-0.7,1.3-1.2,2.1-1.6c0.8-0.4,1.8-0.4,2.7-0.4c1.7,0.1,3.5,1,4.5,2.4
		c1.1,1.3,1.6,3,1.5,4.6c-0.7-1.4-1.5-2.7-2.6-3.6c-0.5-0.5-1.1-0.8-1.7-1.1c-0.6-0.3-1.3-0.4-1.9-0.5c-1.3-0.1-2.5,0.3-3.6,1.1
		C242.4,96.6,241.5,97.9,240.7,99.3z"/>
</g>
<g>
	<path class="st38" d="M272.4,98.3c1.1,0,2.2,0.3,3.2,0.8c1,0.5,2,1.3,2.5,2.5c0.3,0.6,0.4,1.4,0.2,2c-0.1,0.7-0.4,1.2-0.8,1.7
		c-0.8,0.9-1.7,1.5-2.8,1.8c0.6-0.9,1.2-1.8,1.6-2.6c0.4-0.8,0.4-1.5,0.1-2.2c-0.3-0.7-0.9-1.4-1.6-2C274,99.7,273.2,99,272.4,98.3z
		"/>
</g>
<g>
	<path class="st38" d="M276.6,125.8c0.7-0.1,1.3-0.1,1.8-0.2c0.5-0.1,1-0.1,1.4-0.3c0.4-0.1,0.7-0.3,1.1-0.6
		c0.4-0.3,0.7-0.7,1.3-1.2c0.2,0.7,0.2,1.4-0.1,2.1c-0.3,0.7-0.9,1.3-1.7,1.5c-0.8,0.2-1.5,0.2-2.2-0.1
		C277.5,126.8,276.9,126.4,276.6,125.8z"/>
</g>
<g>
	<path class="st38" d="M253.8,116c0.4,0.9,0.7,1.7,1.1,2.4c0.4,0.7,0.9,1.2,1.5,1.4c0.6,0.3,1.3,0.4,2.1,0.4c0.4,0,0.8,0,1.3,0
		c0.4,0,0.9-0.1,1.4,0c-0.3,0.3-0.7,0.6-1.1,0.9c-0.4,0.2-0.9,0.4-1.3,0.6c-1,0.2-2.1,0.3-3.2-0.2c-1.1-0.5-1.8-1.6-2-2.6
		C253.3,117.9,253.4,116.9,253.8,116z"/>
</g>
<g>
	<path class="st38" d="M227.7,114.1c0.1,0.9,0.1,1.8,0.2,2.6c0.1,0.8,0.2,1.6,0.4,2.2c0.2,0.6,0.5,0.9,1.2,1.2
		c0.3,0.2,0.7,0.2,1.1,0.3c0.4,0.1,0.8,0.1,1.3,0.2c-0.4,0.3-0.8,0.5-1.2,0.7c-0.5,0.1-0.9,0.3-1.5,0.2c-0.3,0-0.5,0-0.8-0.2
		c-0.3-0.1-0.6-0.2-0.8-0.4c-0.5-0.4-0.8-0.9-1-1.4c-0.4-1-0.3-2.1-0.1-3C226.7,115.7,227.1,114.9,227.7,114.1z"/>
</g>
<path class="st39" d="M181.5,510.5l-0.1,0.7c-1.9,1.3-5.4,2.7-7-1.5c0,0-7,1.9-8.4-5.6c0,0-6.5,3.7-8.8-1.9c0,0-7.4-0.9-5.1-7.4
	c0,0-4.4-4.7,0.1-7.9c-0.5,2.9,0.2,5.8,4.3,6.7c0,0-2.3,5.1,4.2,5.1c0,0,1.4,4.2,8.8,2.3C169.6,501,172.5,512,181.5,510.5z"/>
<path class="st39" d="M323.7,501.6c-1.9,2.5-6.5,2.5-6.5,2.5c-2.3,6.5-10.2,3.7-10.2,3.7c-2.8,6.5-10.2,3.7-10.2,3.7
	s-1.9,2.3-6.5,1.9c-3.2-0.3-3.7-3.7-3.8-5.8c2.1,0.4,4.4,0.1,6.8-1.9c0,0,4.5,5.6,9.5-0.5c0,0,4,2.8,7.3-2.3c0,0,4.7,4.7,7.4-3.7
	C317.5,499.2,320.1,501.6,323.7,501.6z"/>
<path class="st40" d="M672.4,486.3c5-1.8,7.9-6.3,9.7-12c0.8-2.4,1.3-4.9,1.7-7.6c1-6.3,1.2-13.1,1.4-18.8c0.1-3.2,0.3-6.1,0.6-8.4
	c0.1-0.7,0.2-1.3,0.3-1.9c0.6-2.9,1.7-5.4,3.4-7.6c1.6-2.2,3.7-4.1,6.3-5.9c4.9-3.4,11.7-6.4,20.5-10c0.2-0.1,0.4-0.2,0.5-0.2
	c2.1-0.9,3.8-1.7,5.3-2.6c2.2-1.3,3.9-2.5,5.2-3.7c5.1-4.9,3.3-9.3,2.7-12.2c-0.3-1.7-3-4.7-7-7c-5.6-3.2-14.1-5-23-0.3
	c-3.2,1.7-6.3,4.3-9.1,7.5c-1.6,1.9-3.2,4-4.6,6.3c-2.8,4.4-5.2,9.6-7,15.2c-1,3.1-1.8,6.4-2.5,9.7c-0.7,3.8-1.1,7.7-1.2,11.6
	c-0.1,2.5,0,5.1,0.2,7.6c0.1,1.6,0.3,3.2,0.6,4.8c0.6,4.1,1,7.5,1,10.4c0.1,3.3-0.1,6-0.5,8.1c-1.5,7.9-5.4,8.3-5.4,8.3
	S657,492,672.4,486.3z"/>
<path class="st5" d="M589.2,418.3c0,0,10.1-10,33.5-10.7l-8.6,13.8L589.2,418.3z"/>
<path class="st6" d="M588.9,481.5c0,0-12.6,24.2-12.4,39.8c0,0-3.3-3.6-5.8-0.4l9.6,7.5c0,0,4.3-12.1,11.3-21.1
	C598.5,498.2,588.9,481.5,588.9,481.5z"/>
<path class="st41" d="M668,509.4c-2.2,4.9-9,15.2-12.5,19.1l-12.1-4.7c0,0,2.3-1.9,8.2-1.4c0,0,6.2-9.3,6.2-12.5
	c0,0-64.2,26-83.7-23.6c-5-12.7-6.7-25.4-5.9-36.7v0c0.2-2.4,0.4-4.8,0.8-7.2l0,0c4.1-26.2,20.9-43.6,36.4-36.6
	c12.7,5.8,6,21.9,11.6,33.7c0.7,1.6,1.7,3,2.9,4.4c0.2,0.2,0.3,0.4,0.5,0.5c2.7,2.9,5.9,5.1,9.8,6.1c3.3,0.9,6.5,1.6,9.6,2.2
	c5.2,1,10.2,1.7,14.5,2.9c7.3,1.9,13.2,4.9,16.5,12C675.6,477.9,674.6,495,668,509.4z"/>
<g>
	<path class="st42" d="M593.7,426.2l32.1,3.1l-32.2-0.7c-0.7,0-1.2-0.6-1.2-1.2S592.9,426.2,593.7,426.2
		C593.6,426.2,593.6,426.2,593.7,426.2z"/>
</g>
<g>
	<path class="st42" d="M596.4,430.5l16.6,8.4l-17.5-6.2c-0.6-0.2-1-0.9-0.7-1.6s0.9-1,1.6-0.7C596.3,430.4,596.3,430.5,596.4,430.5z
		"/>
</g>
<g>
	<path class="st42" d="M578.6,424.6l-24-18.5l25.4,16.5c0.6,0.4,0.7,1.1,0.4,1.7C580,424.8,579.3,425,578.6,424.6
		C578.7,424.6,578.6,424.6,578.6,424.6z"/>
</g>
<g>
	<path class="st42" d="M576.1,427.2l-16.3-2.3l16.5-0.1c0.7,0,1.2,0.5,1.2,1.2c0,0.7-0.5,1.2-1.2,1.2
		C576.3,427.2,576.2,427.2,576.1,427.2z"/>
</g>
<g>
	<path class="st43" d="M593.9,418.5c2.1,2.7,4.4,3.9,6.4,4.2c5,0.7,9.1-3.7,9.1-3.7c-3-2.8-5.7-3.8-8.1-3.8
		C596.8,415.1,593.9,418.5,593.9,418.5z"/>
	<path d="M593.9,418.5c2.1,2.7,4.4,3.9,6.4,4.2c2-2.5,1.5-5.8,1-7.5C596.8,415.1,593.9,418.5,593.9,418.5z"/>
</g>
<g>
	<path class="st43" d="M577.9,410.6c0,0-0.2,4.1,2.9,6.2c1.6,1.1,4.1,1.7,7.9,0.9c0,0-0.3-4.3-3.8-6.4
		C583.4,410.5,581.1,410,577.9,410.6z"/>
	<path d="M577.9,410.6c0,0-0.2,4.1,2.9,6.2c2.6-1.2,3.7-3.7,4.2-5.5C583.4,410.5,581.1,410,577.9,410.6z"/>
</g>
<path class="st44" d="M677,469.1c1.5,1.3,3.4,3.1,5.1,5.2c0.8-2.4,1.3-4.9,1.7-7.6c-1.2-1.6-3.2-3.7-6.3-5.7
	C677.6,464.3,677.4,467,677,469.1z"/>
<path class="st44" d="M675.9,445.8c3.9,0.3,7.2,1.3,9.4,2.1c0.1-3.2,0.3-6.1,0.6-8.4c-4.9,0.3-8.2-0.4-10.2-1.3
	C675.6,440.7,675.7,443.2,675.9,445.8z"/>
<path class="st44" d="M676.9,426.6c2.8,1.5,7.9,3.8,12.6,3.3c1.6-2.2,3.7-4.1,6.3-5.9c-1.4-0.8-3.9-1.9-8-2.7
	c-4.2-0.8-6.8-2.7-8.5-4.4C678.4,420,677.6,423.2,676.9,426.6z"/>
<path class="st44" d="M686.3,401.7c1.1,0.6,2.5,1.6,3.9,3.3c3.3,4.1,8.9,5.7,17.1,4.9c5.2-0.5,8.1,2,9.5,3.8
	c2.1-0.9,3.8-1.7,5.3-2.6c-3.9-14.8-14.5-12.6-22.1-12.6c-4.8,0-7.6-1.7-9.1-3.1C689.3,397.3,687.8,399.4,686.3,401.7z"/>
<path class="st44" d="M727.4,407.4c5.1-4.9,3.3-9.3,2.7-12.2c-0.3-1.7-3-4.7-7-7C725.5,391.7,727.8,397.5,727.4,407.4z"/>
<path class="st45" d="M657.8,490.4c7.3,6.7,9.6,15.1,10.3,19c6.6-14.4,7.6-31.5,2.7-41.8c-3.3-7-9.2-10.1-16.5-12
	c0.9,2.9,1.3,6.7-0.6,10.4C649.6,474.1,648,481.4,657.8,490.4z"/>
<path class="st45" d="M626.9,457.8c7.4,2.3,11.2-2.3,12.9-5.2c-3.1-0.6-6.3-1.3-9.6-2.2c-4.2-1.1-7.5-3.6-10.3-6.7
	C619.3,448.1,619.5,455.6,626.9,457.8z"/>
<path class="st41" d="M605.6,481.9c0,0-12.6,24.2-12.4,39.8c0,0-3.3-3.6-5.8-0.4l9.6,7.5c0,0,4.3-12.1,11.3-21.1
	C615.2,498.7,605.6,481.9,605.6,481.9z"/>
<path class="st25" d="M620.3,444.4c-5.6,4.3-23.2,14.8-52.2,5.2v0l0.8-7.2l0,0c6,2.3,22.9,6.8,48-2.9c0.7,1.6,1.7,3,2.9,4.4
	C620,444,620.1,444.2,620.3,444.4z"/>
<path class="st40" d="M592.3,432.6c-0.6,0.5-1.7,1.4-2.8,2.4c-1.6,1.3-3.3,2.8-4.4,3.4c-1.8,1.2-4.3-1-3.8-2
	c0.1-0.2,0.2-0.5,0.2-0.9c0.2-1.3,0.1-3.7-0.2-5.9c-0.1-0.6-0.2-1.2-0.3-1.8c-0.1-0.5-0.2-0.9-0.3-1.3c0,0,0.2,0,0.5-0.1
	c0.1,0,0.2,0,0.3-0.1c1.3-0.3,4-0.9,4.8-1.2c0,0,1.1,1.8,2.6,3.3c0,0,0.1,0.1,0.1,0.1c1.1,1.1,2.4,2.1,3.6,2.3
	C592.5,431,593.8,431.3,592.3,432.6z"/>
<path class="st2" d="M581,437.1l0.4-2.6l0.9,1.8l1.4,0.2l1.2-1.1l0.4,3C585.3,438.4,583.5,439.3,581,437.1z"/>
<path class="st2" d="M588.8,428.6C588.8,428.6,588.8,428.6,588.8,428.6c-1.3,1.1-1.2,3-1.8,2.9c-0.7-0.1,0.4-3.2,0.4-3.2
	c-4,0-4.4-1.3-4.4-1.3c-0.9,0.1-1.4,2.4-1.4,2.4c-0.6-0.6-0.3-2.1-0.1-3c1.3-0.3,4-0.9,4.8-1.2C586.2,425.2,587.3,427,588.8,428.6z"
	/>
<line class="st46" x1="85.4" y1="528.9" x2="731.8" y2="528.9"/>
<rect x="489.5" y="309.6" class="st47" width="34.2" height="16.6"/>
</svg>
