<?xml version="1.0" encoding="utf-8"?>
<!-- Generator: Adobe Illustrator 21.1.0, SVG Export Plug-In . SVG Version: 6.00 Build 0)  -->
<svg version="1.1" id="Слой_1" xmlns="http://www.w3.org/2000/svg" xmlns:xlink="http://www.w3.org/1999/xlink" x="0px" y="0px"
	 viewBox="0 0 800 600" style="enable-background:new 0 0 800 600;" xml:space="preserve">
<style type="text/css">
	.st0{fill:#F5F6F8;}
	.st1{fill:none;stroke:#D2D5D8;stroke-width:1.6568;stroke-linecap:round;stroke-linejoin:round;stroke-miterlimit:10;}
	.st2{fill:#FFFFFF;}
	.st3{fill:none;stroke:#FFFFFF;stroke-width:1.6568;stroke-miterlimit:10;}
	.st4{fill:#ECEDF2;}
	.st5{fill:none;stroke:#D2D5D8;stroke-width:1.6568;stroke-linecap:round;stroke-miterlimit:10;}
	.st6{fill:none;stroke:#F5F6F8;stroke-width:2.209;stroke-miterlimit:10;}
	.st7{fill:#0E1B5F;}
	.st8{fill:#010F50;}
	.st9{fill:#000D4E;}
	.st10{fill:#303D8B;}
	.st11{fill:#000C50;}
	.st12{fill:#FCF9F2;}
	.st13{fill:#FFB502;}
	.st14{fill:#2F3C8A;}
	.st15{fill:#394AA4;}
	.st16{fill:#F2B0A5;}
	.st17{fill:#FFBEAE;}
	.st18{fill:#2D2D7F;}
	.st19{fill:#24246B;}
	.st20{fill:#599CD8;}
	.st21{fill:#70B2ED;}
	.st22{fill:#E5A69E;}
	.st23{fill:#418CC4;}
	.st24{fill:none;stroke:#01004E;stroke-width:0.6271;stroke-miterlimit:10;}
	.st25{fill:#01004E;}
	.st26{fill:none;stroke:#01004E;stroke-width:0.6271;stroke-linecap:round;stroke-linejoin:round;stroke-miterlimit:10;}
	.st27{fill:none;stroke:#DB8282;stroke-width:0.6271;stroke-linecap:round;stroke-miterlimit:10;}
	.st28{fill:#9DA8B2;}
	.st29{fill:#FFEFE1;}
	.st30{fill:#EADACE;}
	.st31{fill:none;stroke:#01004E;stroke-width:1.8814;stroke-linecap:round;stroke-miterlimit:10;}
	.st32{fill:#F2E5DA;}
	.st33{fill:none;stroke:#DDCEC5;stroke-width:0.4373;stroke-miterlimit:10;}
	.st34{fill:none;stroke:#01004E;stroke-width:0.6089;stroke-linecap:round;stroke-linejoin:round;stroke-miterlimit:10;}
	.st35{fill:none;stroke:#01004E;stroke-width:0.6035;stroke-miterlimit:10;}
	.st36{fill:#CECCD6;}
	.st37{fill:#9ACAE8;}
	.st38{fill:none;stroke:#01004E;stroke-width:0.8747;stroke-miterlimit:10;}
	.st39{fill:#5784DD;}
	.st40{fill:#88C1ED;}
	.st41{fill:#020235;}
	.st42{fill:none;stroke:#212175;stroke-width:0.6271;stroke-miterlimit:10;}
	.st43{fill:none;stroke:#FFFFFF;stroke-width:0.5292;stroke-miterlimit:10;}
	.st44{fill:none;stroke:#FFFFFF;stroke-width:0.5292;stroke-linecap:round;stroke-miterlimit:10;}
	.st45{fill:none;stroke:#030038;stroke-width:1.005;stroke-miterlimit:10;}
	.st46{fill:none;stroke:#EAE9EE;stroke-width:1.5074;stroke-miterlimit:10;}
	.st47{fill:#030038;}
	.st48{fill:#FE6965;}
	.st49{fill:#000B43;}
	.st50{fill:none;stroke:#070707;stroke-width:0.7283;stroke-linecap:round;stroke-linejoin:round;stroke-miterlimit:10;}
	.st51{fill:#FF7976;}
	.st52{fill:#001065;}
	.st53{fill:#FE635F;}
	.st54{fill:#FFFFFF;stroke:#000B43;stroke-width:1.0924;stroke-miterlimit:10;}
	.st55{fill:#8EACCE;}
	.st56{fill:#C9DBEF;}
	.st57{fill:none;stroke:#000B43;stroke-width:1.8207;stroke-linecap:round;stroke-linejoin:round;stroke-miterlimit:10;}
	.st58{fill:#172472;}
	.st59{fill:none;stroke:#001065;stroke-width:1.8207;stroke-linecap:round;stroke-linejoin:round;stroke-miterlimit:10;}
	.st60{fill:#F2F9FF;}
	.st61{fill:none;stroke:#303D8B;stroke-width:0.7283;stroke-linecap:round;stroke-linejoin:round;stroke-miterlimit:10;}
	.st62{fill:none;stroke:#FFFFFF;stroke-width:0.7283;stroke-linecap:round;stroke-linejoin:round;stroke-miterlimit:10;}
	.st63{fill:none;stroke:#000B43;stroke-width:3.6414;stroke-miterlimit:10;}
	.st64{fill:none;stroke:#000B43;stroke-width:2.5137;stroke-linecap:round;stroke-linejoin:round;stroke-miterlimit:10;}
</style>
<g>
	<rect x="54.5" y="30.8" class="st0" width="698" height="519.7"/>
	<line class="st1" x1="742.6" y1="401.4" x2="93.2" y2="401.4"/>
	<line class="st1" x1="626.1" y1="431.8" x2="695.7" y2="431.8"/>
	<line class="st1" x1="631.1" y1="455" x2="659.8" y2="455"/>
	<polygon class="st2" points="198.6,376 195.3,410 194.5,418.2 164.1,418.2 160,376 	"/>
	<line class="st1" x1="532.8" y1="302" x2="699" y2="302"/>
	<line class="st1" x1="654" y1="301.7" x2="654" y2="401.1"/>
	<line class="st1" x1="695.4" y1="301.7" x2="695.4" y2="401.7"/>
	<polyline class="st1" points="661.2,302.3 661.2,390.9 688.5,390.9 688.5,303.1 	"/>
	<line class="st1" x1="661.7" y1="326" x2="688.2" y2="326"/>
	<line class="st1" x1="661.7" y1="356.4" x2="688.2" y2="356.4"/>
	<line class="st1" x1="667.8" y1="390.1" x2="668.6" y2="364.4"/>
	<line class="st1" x1="674.4" y1="390.1" x2="673" y2="362.2"/>
	<line class="st1" x1="681.9" y1="389.2" x2="678.5" y2="363.3"/>
	<line class="st1" x1="688.5" y1="390.9" x2="684.6" y2="361.1"/>
	<line class="st1" x1="665" y1="355.8" x2="669.2" y2="333.5"/>
	<line class="st1" x1="670.8" y1="355" x2="675.2" y2="334.6"/>
	<line class="st1" x1="680.2" y1="355" x2="678.5" y2="331.8"/>
	<line class="st1" x1="685.2" y1="354.4" x2="683" y2="330.7"/>
	<rect x="293.1" y="94.9" class="st3" width="44.7" height="13.8"/>
	<rect x="266" y="108.7" class="st3" width="44.7" height="13.8"/>
	<rect x="293.1" y="122.5" class="st3" width="44.7" height="13.8"/>
	<rect x="266" y="136.3" class="st3" width="44.7" height="13.8"/>
	<rect x="293.1" y="150.1" class="st3" width="44.7" height="13.8"/>
	<rect x="266" y="163.9" class="st3" width="44.7" height="13.8"/>
	<rect x="293.1" y="177.7" class="st3" width="44.7" height="13.8"/>
	<rect x="161.6" y="156.7" class="st3" width="44.7" height="13.8"/>
	<rect x="184.3" y="170.5" class="st3" width="44.7" height="13.8"/>
	<line class="st1" x1="667.2" y1="325.5" x2="667.5" y2="309.2"/>
	<line class="st1" x1="671.9" y1="324.6" x2="671.9" y2="309.7"/>
	<line class="st1" x1="676.9" y1="324.1" x2="676.9" y2="308.1"/>
	<line class="st1" x1="682.4" y1="324.6" x2="682.4" y2="309.7"/>
	<g>
		<line class="st1" x1="643.8" y1="226.9" x2="629.4" y2="181.6"/>
		<line class="st1" x1="644.3" y1="235.2" x2="649.8" y2="169.4"/>
		<line class="st1" x1="645.4" y1="241.2" x2="665.8" y2="174.4"/>
		<line class="st1" x1="626.6" y1="187.1" x2="632.2" y2="190.4"/>
		<line class="st1" x1="634.9" y1="187.7" x2="634.1" y2="195.7"/>
		<line class="st1" x1="629.4" y1="195.4" x2="634.6" y2="199"/>
		<line class="st1" x1="638.2" y1="198.7" x2="637.1" y2="204"/>
		<line class="st1" x1="633.3" y1="206.4" x2="637.4" y2="208.7"/>
		<line class="st1" x1="641.5" y1="208.7" x2="640.2" y2="214.5"/>
		<line class="st1" x1="635.5" y1="216.4" x2="641.3" y2="219.7"/>
		<line class="st1" x1="643.2" y1="203.1" x2="646.2" y2="210.9"/>
		<line class="st1" x1="650.9" y1="197.6" x2="647.1" y2="203.7"/>
		<line class="st1" x1="647.3" y1="195.4" x2="643.8" y2="189.9"/>
		<line class="st1" x1="648.4" y1="187.9" x2="652" y2="183.8"/>
		<line class="st1" x1="648.4" y1="181.3" x2="646" y2="176.6"/>
		<line class="st1" x1="649.6" y1="173.9" x2="653.1" y2="170.5"/>
		<line class="st1" x1="650.9" y1="222.5" x2="649.3" y2="215.8"/>
		<line class="st1" x1="652.9" y1="217.2" x2="657.6" y2="215.3"/>
		<line class="st1" x1="654.2" y1="211.4" x2="652.6" y2="204.2"/>
		<line class="st1" x1="656.5" y1="204.5" x2="660.9" y2="201.5"/>
		<line class="st1" x1="658.4" y1="197.3" x2="656.5" y2="191.5"/>
		<line class="st1" x1="660.3" y1="192.9" x2="665.3" y2="190.4"/>
		<line class="st1" x1="660.9" y1="187.7" x2="659.8" y2="181.6"/>
		<line class="st1" x1="663.1" y1="183.8" x2="667.5" y2="180.5"/>
	</g>
	<path class="st1" d="M680.2,245.1h3.9v12.1c0,0,4.4-1.7,3,17.7l-9.7-0.3c0,0-1.7-16.3,2.8-17.4V245.1z"/>
	<polygon class="st1" points="701.7,263.3 702,274.6 707.3,274.6 707.3,263.3 	"/>
	<path class="st4" d="M526.4,125.8c0,0-1.4,9.4,18.5,8.3c19.9-1.1,34.2,8.8,51.9,7.7c17.7-1.1,30.4-9.4,29.8-15.7L526.4,125.8z"/>
	<polygon class="st1" points="531.6,81.6 531.6,90.5 525.3,119.5 546,119.5 537.7,90.5 537.7,81.6 	"/>
	<path class="st1" d="M535,81.1c0,0-2.8-7.2,8.3-11.6s12.1-11.6,12.1-11.6"/>
	<line class="st1" x1="535" y1="79.4" x2="540.5" y2="77.8"/>
	<line class="st5" x1="537.4" y1="72.8" x2="537.7" y2="66.7"/>
	<line class="st1" x1="540.5" y1="70.9" x2="547.1" y2="71.7"/>
	<line class="st1" x1="545.5" y1="67.8" x2="544.9" y2="61.8"/>
	<line class="st1" x1="551.3" y1="64.2" x2="556.5" y2="63.4"/>
	<line class="st1" x1="552.9" y1="62" x2="552.1" y2="56.8"/>
	<path class="st1" d="M552.6,100.4h24.3c0,0,7.7,9.4,0,19.1h-23.7C553.2,119.5,543.8,111.5,552.6,100.4z"/>
	<line class="st1" x1="550.7" y1="103.7" x2="578.3" y2="103.7"/>
	<path class="st1" d="M564.8,99.9c0,0-4.4-7.2,1.7-13.3C566.4,86.6,572.5,94.3,564.8,99.9z"/>
	<path class="st1" d="M564.8,99.9c0,0,4.4-6.6,9.9-5.5C574.7,94.3,574.2,101.5,564.8,99.9z"/>
	<path class="st1" d="M564.8,99.9c0,0-2.8-7.2-7.7-6.6C557.1,93.2,555.4,101,564.8,99.9z"/>
	<polygon class="st1" points="583.6,119.2 588,104.8 597.9,104.8 604,119.2 	"/>
	<line class="st1" x1="588.5" y1="107" x2="598.7" y2="107"/>
	<line class="st1" x1="594.6" y1="110.9" x2="600.1" y2="110.9"/>
	<line class="st1" x1="593.5" y1="115.9" x2="602.3" y2="115.9"/>
	<polyline class="st1" points="614.5,119.2 614.5,88.3 623.3,88.3 623.3,119.2 	"/>
	<polyline class="st1" points="623.9,104.3 629.4,104.3 629.4,119.2 	"/>
	<polyline class="st1" points="634.9,118.6 634.9,91 658.1,91 658.1,119.5 	"/>
	<path class="st1" d="M643.8,107.6c0,0-3.3-6.1,3.3-5.5c6.6,0.6,2.2,6.1,2.2,6.1s7.2,3.9,2.5,11.3h-11
		C640.7,119.5,635.5,110.9,643.8,107.6z"/>
	<path class="st1" d="M643.8,107.6c0,0,2.2,2.2,5.5,0.6"/>
	<path class="st1" d="M647.1,109c0,0,1.7,1.4,1.1,5.2"/>
	<path class="st1" d="M644.6,102.1l2.5-7.2l2.5,7.5C649.6,102.3,648.2,100.4,644.6,102.1z"/>
	<rect x="474.8" y="57.3" class="st3" width="45.3" height="13.8"/>
	<rect x="352.2" y="69.5" class="st2" width="91.7" height="117.6"/>
	<rect x="352.2" y="196.5" class="st2" width="91.7" height="117.6"/>
	<line class="st6" x1="369.6" y1="69.8" x2="369.6" y2="314.2"/>
	<line class="st6" x1="425.5" y1="69.8" x2="425.5" y2="313.5"/>
	<line class="st6" x1="352.6" y1="84.9" x2="443.6" y2="84.9"/>
	<line class="st6" x1="351.9" y1="169.5" x2="443.6" y2="169.5"/>
	<line class="st6" x1="352.3" y1="214.5" x2="443.2" y2="214.5"/>
	<line class="st6" x1="352.3" y1="298.4" x2="443.9" y2="298.4"/>
	<line class="st3" x1="457.6" y1="38" x2="457.6" y2="314.1"/>
	<line class="st3" x1="338.4" y1="60.1" x2="338.4" y2="314.1"/>
	<line class="st3" x1="366" y1="57.9" x2="430.6" y2="57.9"/>
	<line class="st3" x1="147.8" y1="44.6" x2="404.6" y2="44.6"/>
	<rect x="310.7" y="108.7" class="st3" width="27.1" height="13.8"/>
	<rect x="310.7" y="136.3" class="st3" width="27.1" height="13.8"/>
	<rect x="310.7" y="163.9" class="st3" width="27.1" height="13.8"/>
	<line class="st1" x1="521.7" y1="125.8" x2="627.7" y2="125.8"/>
	<line class="st1" x1="521.2" y1="119.7" x2="667.5" y2="119.7"/>
	<path class="st4" d="M95.4,156.7c-13.9,3.2-24.3,20.4-6.6,49.2s34.8,35.9,32,65.7c-2.8,29.8,12.1,36.4,25.4,50.8
		c13.3,14.4,12.7,39.8,31.8,30.1c19.1-9.7,13-38.4-0.3-72.1c-13.3-33.7,6.1-38.1-23.7-64.1S138.4,146.8,95.4,156.7z"/>
	<path class="st4" d="M189.3,347.3c0,0-9.9,0-6.6-13.3s-8.3-28.2,3.9-43.6s17.1-9.4,16.6-48.6c-0.6-39.2,0.6-61.9,38.1-74.6
		c32.3-10.9,37.2-23.1,47.5-10.4c3.5,4.3,8.1,7.5,13.2,9.7c4,1.8,7.7,5.6,5.1,14c-5,16-29.8,20.4-29.3,40.9s-0.6,19.9-14.9,44.7
		c-14.4,24.9,3.9,30.4-27.1,46.4C199.5,331.2,214.7,355.6,189.3,347.3z"/>
	<path class="st4" d="M195.9,367.2c-7.7-4.5-5-19.3,4.4-25.4c9.4-6.1,13.8-1.7,23.2-11.6c9.4-9.9,17.1-26.5,26-21.5
		c8.8,5,1.1,11.6,4.4,21c3.3,9.4,0,17.7-15.5,20.4C222.9,352.8,217.4,379.9,195.9,367.2z"/>
	<path class="st3" d="M178.2,378.7c0,0,29.8-132,104.9-207.6"/>
	<path class="st3" d="M100.9,176.6c0,0,83.4,112.7,77,200.2"/>
	<path class="st3" d="M232.9,340.1c0,0-36.4,12.7-49.2,37.6"/>
	<line class="st1" x1="537.4" y1="301.7" x2="537.4" y2="401.1"/>
	<line class="st1" x1="578.9" y1="301.7" x2="578.9" y2="401.7"/>
	<polyline class="st1" points="544.6,302.3 544.6,390.9 572,390.9 572,303.1 	"/>
	<line class="st1" x1="545.2" y1="326" x2="571.7" y2="326"/>
	<line class="st1" x1="545.2" y1="356.4" x2="571.7" y2="356.4"/>
	<line class="st1" x1="551.3" y1="390.1" x2="552.1" y2="364.4"/>
	<line class="st1" x1="557.9" y1="390.1" x2="556.5" y2="362.2"/>
	<line class="st1" x1="565.3" y1="389.2" x2="562" y2="363.3"/>
	<line class="st1" x1="572" y1="390.9" x2="568.1" y2="361.1"/>
	<line class="st1" x1="548.5" y1="355.8" x2="552.6" y2="333.5"/>
	<line class="st1" x1="554.3" y1="355" x2="558.7" y2="334.6"/>
	<line class="st1" x1="563.7" y1="355" x2="562" y2="331.8"/>
	<line class="st1" x1="568.6" y1="354.4" x2="566.4" y2="330.7"/>
	<line class="st1" x1="550.7" y1="325.5" x2="551" y2="309.2"/>
	<line class="st1" x1="555.4" y1="324.6" x2="555.4" y2="309.7"/>
	<line class="st1" x1="560.4" y1="324.1" x2="560.4" y2="308.1"/>
	<line class="st1" x1="565.9" y1="324.6" x2="565.9" y2="309.7"/>
	<rect x="632.7" y="224.1" class="st4" width="24.3" height="50.5"/>
	<line class="st3" x1="639.6" y1="223.3" x2="640.2" y2="274.1"/>
	<line class="st3" x1="649.6" y1="223.8" x2="650.1" y2="274.1"/>
	<line class="st1" x1="458.8" y1="274.9" x2="741" y2="274.9"/>
	<path class="st4" d="M195.3,410l-0.8,8.2h-30.4L160,376h6.8C167.5,385.2,171.7,407.7,195.3,410z"/>
	<line class="st1" x1="354.4" y1="418.5" x2="127.9" y2="418.5"/>
</g>
<g>
	<path class="st7" d="M413.5,462.9c-3.8-1.4-6-4.8-7.4-9.1c-0.6-1.8-1-3.8-1.3-5.8c-0.7-4.8-0.9-9.9-1.1-14.3
		c-0.1-2.4-0.2-4.6-0.5-6.4c-0.1-0.5-0.1-1-0.2-1.5c-0.5-2.2-1.3-4.1-2.6-5.8c-1.2-1.7-2.8-3.1-4.8-4.5c-3.8-2.6-8.9-4.9-15.5-7.6
		c-0.1-0.1-0.3-0.1-0.4-0.2c-1.6-0.7-2.9-1.3-4.1-2c-1.7-1-3-1.9-3.9-2.8c-3.9-3.7-2.5-7.1-2.1-9.2c0.3-1.3,2.3-3.6,5.3-5.3
		c4.3-2.4,10.7-3.8,17.5-0.2c2.4,1.3,4.8,3.2,6.9,5.7c1.2,1.4,2.4,3,3.5,4.8c2.1,3.4,3.9,7.3,5.3,11.5c0.8,2.4,1.4,4.8,1.9,7.4
		c0.5,2.9,0.9,5.8,0.9,8.8c0.1,1.9,0,3.8-0.1,5.8c-0.1,1.2-0.2,2.4-0.4,3.6c-0.5,3.1-0.7,5.7-0.8,7.9c-0.1,2.5,0.1,4.6,0.4,6.2
		c1.1,6,4.1,6.3,4.1,6.3S425.3,467.2,413.5,462.9z"/>
	<path class="st8" d="M470.4,406.1c0,0-10.5,2.5-20.4,17.3h12.4L470.4,406.1z"/>
	<path class="st9" d="M488.3,459.2c0,0-3.7,20.4-11.1,29.6c0,0,3.7-0.6,3.7,2.5h-9.3c0,0,3.1-9.3,3.1-17.9
		C474.7,464.8,488.3,459.2,488.3,459.2z"/>
	<path class="st9" d="M435.8,482.1c0,0,0.6,3.1,1.9,6.2c0,0,3.1-0.6,3.7,2.5h-6.8c0,0-5.6-6.8-4.3-11.1S435.8,482.1,435.8,482.1z"/>
	<path class="st10" d="M488.3,462.9c-14.8,37.7-63.6,17.9-63.6,17.9c0,2.5,1.9,7.4,1.9,7.4c4.3,0.6,4.3,3.1,4.3,3.1l-7.4-0.6
		c-2.7-3-4.9-6.5-6.6-10.3c-5-11-5.8-23.9-2.1-31.7c2.5-5.4,7-7.7,12.5-9.1c3.3-0.9,7.1-1.5,11.1-2.2c2.4-0.5,4.8-1,7.3-1.6
		c3.2-0.9,5.7-2.7,7.9-5.1c8.1-9,10.7-25.7,22.4-27.6C495,399.8,502.1,427.6,488.3,462.9z"/>
	<path class="st10" d="M466.6,481.4l-1.9,6.8c0,0,1.9,0,1.9,2.5h-7.4l-1.2-8.6L466.6,481.4z"/>
	<g>
		<path class="st11" d="M482.3,416.3l-24.3,3.4l23.9-5.2c0.5-0.1,1,0.2,1.1,0.7S482.8,416.1,482.3,416.3
			C482.3,416.3,482.3,416.3,482.3,416.3z"/>
	</g>
	<g>
		<path class="st11" d="M481.2,418.7l-13.3,4.7l12.6-6.4c0.5-0.2,1-0.1,1.2,0.4s0.1,1-0.4,1.2C481.3,418.6,481.3,418.7,481.2,418.7z
			"/>
	</g>
	<g>
		<path class="st11" d="M488.2,413.8l23-1.5l-22.8,3.4c-0.5,0.1-1-0.3-1.1-0.8S487.6,413.9,488.2,413.8
			C488.1,413.8,488.1,413.8,488.2,413.8z"/>
	</g>
	<g>
		<path class="st11" d="M490.9,415.7l12.2,2.8l-12.5-0.9c-0.5,0-0.9-0.5-0.9-1c0-0.5,0.5-0.9,1-0.9
			C490.8,415.7,490.8,415.7,490.9,415.7z"/>
	</g>
	<path class="st12" d="M485.2,414.7c0,0-1.9-0.6-1.9-1.9s3.1-0.6,3.1,0c0,0.5-1.5,4-1.3,6.4c0.1,0.8,0.8,1.5,1.7,1.5
		c0.7,0,1.4,0.3,1.4,1.3C488.3,424,480.9,424,485.2,414.7z"/>
	<path class="st13" d="M492.5,407c0,0-0.9,3-3.6,3.8c-1.4,0.4-3.4,0.3-5.9-1.2c0,0,1.3-3,4.2-3.7C488.5,405.6,490.3,405.8,492.5,407
		z"/>
	<path class="st13" d="M480.6,410.3c-0.8,2.5-2.1,3.9-3.6,4.6c-3.4,1.7-7.4-0.3-7.4-0.3c1.4-2.8,3.2-4.2,4.8-4.8
		C477.6,408.6,480.6,410.3,480.6,410.3z"/>
	<path d="M480.6,410.3c-0.8,2.5-2.1,3.9-3.6,4.6c-2.1-1.3-2.5-3.8-2.6-5.1C477.6,408.6,480.6,410.3,480.6,410.3z"/>
	<path d="M492.5,407c0,0-0.9,3-3.6,3.8c-1.6-1.5-1.8-3.6-1.7-4.9C488.5,405.6,490.3,405.8,492.5,407z"/>
	<path class="st14" d="M410,449.8c-1.2,1-2.6,2.4-3.9,4c-0.6-1.8-1-3.8-1.3-5.8c0.9-1.2,2.4-2.8,4.8-4.3
		C409.6,446.2,409.7,448.2,410,449.8z"/>
	<path class="st14" d="M410.9,432.1c-3,0.3-5.5,1-7.1,1.6c-0.1-2.4-0.2-4.6-0.5-6.4c3.7,0.3,6.2-0.3,7.7-1
		C411.1,428.3,411,430.2,410.9,432.1z"/>
	<path class="st14" d="M410.1,417.5c-2.1,1.1-6,2.9-9.6,2.5c-1.2-1.7-2.8-3.1-4.8-4.5c1.1-0.6,2.9-1.4,6.1-2
		c3.2-0.6,5.2-2.1,6.4-3.3C409,412.5,409.6,415,410.1,417.5z"/>
	<path class="st14" d="M402.9,398.6c-0.9,0.4-1.9,1.2-3,2.5c-2.5,3.1-6.8,4.3-13,3.7c-4-0.4-6.2,1.5-7.2,2.9c-1.6-0.7-2.9-1.3-4.1-2
		c3-11.2,11-9.6,16.8-9.6c3.6,0,5.8-1.3,6.9-2.3C400.7,395.3,401.8,396.9,402.9,398.6z"/>
	<path class="st14" d="M371.8,404c-3.9-3.7-2.5-7.1-2.1-9.2c0.3-1.3,2.3-3.6,5.3-5.3C373.2,392,371.4,396.4,371.8,404z"/>
	<path class="st15" d="M424.6,466c-5.5,5.1-7.3,11.5-7.8,14.4c-5-11-5.8-23.9-2.1-31.7c2.5-5.4,7-7.7,12.5-9.1
		c-0.7,2.2-1,5.1,0.4,7.9C430.8,453.6,432.1,459.2,424.6,466z"/>
	<path class="st15" d="M448.1,441.3c-5.6,1.7-8.5-1.7-9.8-3.9c2.4-0.5,4.8-1,7.3-1.6c3.2-0.9,5.7-2.7,7.9-5.1
		C453.9,433.9,453.7,439.6,448.1,441.3z"/>
</g>
<g>
	<path class="st16" d="M714.1,125l12.7,68.8c0.3,1.8-0.1,3.6-1.1,5.1l-10,14.5l-18.6-10.7l6.7-47.2l-3.1-28.7l-1.3-11.9l34.4-12.4
		L714.1,125z"/>
	<path class="st17" d="M725.5,179.1c1.8,8-18.1,33.6-18.1,33.6l-24-26.4l9.3-10.2l-17.9-45.2l-4.7-11.8l32.1-24.1l-13.6,28.1
		l-0.2,0.4C688.6,123.5,723.7,171.1,725.5,179.1z"/>
	<path class="st18" d="M718.9,213.6c0,0-24.2,31.4-36.7,42.9c-0.1,0.1-0.2,0.2-0.3,0.3c-12.4,11.2-42.5-41.5-42.5-41.5
		s34-24.4,43.7-31.4c0,0,7.4,3.4,16.2,10C705.8,198.6,713.2,205.2,718.9,213.6z"/>
	<path class="st19" d="M718.9,213.6c0,0-24.2,31.4-36.7,42.9l-4.8-5.2c0,0,26.7-32.9,21.9-57.5C705.8,198.6,713.2,205.2,718.9,213.6
		z"/>
	<path class="st20" d="M605.6,319.6c0,0,23.9-7.4,51.9-29.1c28-21.6,32.4-21.6,32.4-21.6s-5.4-11.3-11.8-11.7
		C671.8,256.9,604.5,304.3,605.6,319.6z"/>
	<path class="st21" d="M688.5,259c0,0-11.4,4.8-42.2,33.1c-17.7,16.3-31.9,24-40.7,27.5c-6.5,2.6-10.1,3-10.1,3L546.6,287l-7.6-5.5
		l-8.4-6.1l78.3-28.7c3.4-5,6.7-9.4,9.7-13.2c12.3-15.6,20.8-22.1,20.8-22.1C660.2,237.6,688.5,259,688.5,259z"/>
	<path class="st16" d="M578.7,374.4c-6.5,1.4-31.4-5.8-45.4-10.1c-5.8-1.8-9.6-3.1-9.6-3.1l-0.2-10.7l31.9,1.9l17.6-1.5l6.2-0.5
		C579.1,350.3,587.9,372.5,578.7,374.4z"/>
	<path class="st22" d="M578.7,374.4c-6.5,1.4-31.4-5.8-45.4-10.1l0.8-4.2c0,0,35.1,7.9,41.2,4.4c2.7-1.6,0.7-7.5-2.5-13.6l6.2-0.5
		C579.1,350.3,587.9,372.5,578.7,374.4z"/>
	<path class="st20" d="M587.6,347.8c0,0,40.5-5,34.4-12.4l-9.8-6.9l-25.3,13.7L587.6,347.8z"/>
	<path class="st17" d="M621.6,346.2c-4.6,12.3-26,37.6-36.4,49.5c-3.5,4-5.8,6.5-5.8,6.5l-11.8-12.3c7.8-16.3,22.8-40.6,22.8-40.6
		l-3.2-4.6c0,0,15.1-23.6,23.6-17.2c1.2,0.9,2.2,1.8,3.2,2.8c3.7,3.6,6.1,7.6,7.3,10.1C622.2,342.2,622.3,344.3,621.6,346.2z"/>
	<polygon class="st20" points="582.5,356.1 569,354.3 555.3,352.3 538.7,319.2 575.5,324.2 576.9,330.6 	"/>
	<path class="st17" d="M559.7,324.5c-6.3-1.6-11.3-1.9-15.5-1.5c-14,1.3-17.3,11.4-21.8,12.8c-5.8,1.8-15.8-4.9-15.8-4.9l-3.4,4.5
		c0,0-3.4-9.6-7.9-13c-2.1-1.6-3.9-3.7-5.2-5.5c-0.3-0.4-0.6-0.8-0.8-1.2c-0.9-1.4-1.4-2.4-1.4-2.4l2.5-1.6l24.2-15.1l6.7-4.2
		l0.8,0.7L559.7,324.5z"/>
	<path class="st16" d="M490.1,316.9c2.5,0.3,9.2,0.5,18.2-4.2c10.4-5.4,31.8,7.7,35.9,10.3c4.1-0.4,9.2,0,15.5,1.5l-37.5-31.4
		l-7.5,3.5l-23,10.8l-1.2,4.3l-1.1,3.9L490.1,316.9z"/>
	<path class="st16" d="M621.6,346.2c-4.6,12.3-26,37.6-36.4,49.5l-4.6-6.8c37.8-35.8,28-55.6,28-55.6l5.4-3
		c3.7,3.6,6.1,7.6,7.3,10.1C622.2,342.2,622.3,344.3,621.6,346.2z"/>
	<polygon class="st23" points="582.5,356.1 569,354.3 563.8,328.9 576.9,330.6 	"/>
	<path class="st24" d="M550.8,308.3c0,0,38.1,109.3,1.6,101.7"/>
	<path class="st21" d="M621.3,334.9c-3.7-0.3-7.3,0.1-10.8,1c-12.7,3.1-22.9,12-22.9,12c-4.4-2.9-31.9-23.3-47.8-35.1
		c-2.7-2-4.8-4.6-6.2-7.4c-3.2-6.7-2.6-14.9,2.4-21c0.9-1.1,1.9-2.1,3-2.8c5.1-3.7,11.3-2.8,17.5-0.3c3.3,1.4,6.6,3.2,9.8,5
		c8.3,4.7,25.4,20.2,38.3,32.5l0,0c0.3,0.3,0.6,0.6,1,0.9C614.6,328.2,621.3,334.9,621.3,334.9z"/>
	<path class="st20" d="M618.6,233.5c2.4,18.8-20.7,34.2-28.6,37c-5.2,1.9-21.6,5.5-33.6,10.7c-4,1.7-7.5,3.7-9.9,5.8
		c-1.5,1.3-2.6,2.7-3.1,4.1c-3,8.3-7.8,12.6-9.8,14.1c-3.2-6.7-2.6-14.9,2.4-21c0.9-1.1,1.9-2.1,3-2.8l-8.4-6.1l78.3-28.7
		C612.4,241.7,615.6,237.3,618.6,233.5z"/>
	<path class="st25" d="M570.4,272c-38.7,8.6-25.8,19.4-35.7,29.7c-6.9,7.1-15.9,7.2-20.9,6.6c-2.2-0.3-3.6-0.7-3.6-0.7
		c-0.4,0.3-0.7,0.7-1.1,1c-15.2,12.9-22.7,5.7-24.5,3.3c-0.3-0.4-0.5-0.6-0.5-0.6s-16.5-18.6,14.7-35c25.3-13.3,39.6-21.7,47.3-33.2
		c7-10.5,9.2-26.8,15.7-37.7c5.1-8.7,12.8-13.9,27.7-10.1c18.9,4.8,18.1,24.9,16.8,33.6c-0.3,1.8,1.3,3.4,3.1,3.2
		C629.1,229.6,606.9,263.9,570.4,272z"/>
	<path class="st26" d="M525.8,256.7c0,0,21.5-4.9,27.2-41.2"/>
	<path class="st26" d="M589.9,190.1c0,0,15.4,1.6,18.6,15.1c3.2,13.5-0.4,24.1,3.3,23.6"/>
	<path class="st27" d="M513.7,334.3c0,0,1.3-0.7,1.6-3.3"/>
	<path class="st28" d="M544.4,399.4c0,0,12.8,12.7-4,10.5L544.4,399.4z"/>
	<path class="st29" d="M535.9,359.5c-0.7,4.3-3.4,6.1-3.4,6.1l-15.4-6.1c-5.9,7.8-15.6,1.6-15.6,1.6c-1.5,0.2-3.7-2.6-3.6-6.3
		c0.1-2.3,1-5,3.6-7.6c6.7-6.6,16.1,2.2,16.1,2.2c4,1.3,16.4-0.4,16.4-0.4C536,353.5,536.3,357,535.9,359.5z"/>
	<path class="st30" d="M535.9,359.5c-0.7,4.3-3.4,6.1-3.4,6.1l-15.4-6.1c-5.9,7.8-15.6,1.6-15.6,1.6c-1.5,0.2-3.7-2.6-3.6-6.3
		c2.4-2.7,8.8-8.9,15.1-4.2C518.8,355.1,530.4,358.2,535.9,359.5z"/>
	<line class="st31" x1="499.7" y1="348.7" x2="520.4" y2="360.7"/>
	<path class="st32" d="M498,357.7c0,0,4.6-4.2,6-8.3c0,0,4.7-1.8,6,2.5c0,0,2.4-1.6,3,2.2c0,0,3.1,0,0.8,8.5
		C513.8,362.6,502.5,366.5,498,357.7z"/>
	<polygon class="st20" points="702.3,94.9 688.8,123.1 674.9,130.9 670.2,119.1 	"/>
	<polygon class="st20" points="733.8,102.6 714.1,125 700.7,126.8 699.4,115 	"/>
	<path class="st33" d="M502.5,358.3c0,0,0.8-0.6,2.8-5.2"/>
	
		<ellipse transform="matrix(0.6827 -0.7307 0.7307 0.6827 -75.5343 467.6655)" class="st2" cx="500.7" cy="320.8" rx="1.5" ry="3.2"/>
	
		<ellipse transform="matrix(0.6827 -0.7307 0.7307 0.6827 -76.1265 468.4231)" class="st25" cx="501.3" cy="321.9" rx="0.8" ry="2.1"/>
	<path class="st34" d="M493.8,317.6c0,0,1-2,2.7-3.5"/>
	
		<ellipse transform="matrix(0.6023 -0.7983 0.7983 0.6023 -77.7066 526.4722)" class="st35" cx="489.5" cy="341.2" rx="4.7" ry="12.2"/>
	
		<ellipse transform="matrix(0.3751 -0.927 0.927 0.3751 -37.8235 751.4433)" class="st36" cx="538.5" cy="403.8" rx="12.9" ry="4.4"/>
	
		<ellipse transform="matrix(0.3751 -0.927 0.927 0.3751 -37.8235 751.4433)" class="st28" cx="538.5" cy="403.8" rx="5.3" ry="1.8"/>
	<path class="st29" d="M588,395.9c-4.1,2.5-18.4,17.8-18.4,17.8c-9.9,19.8-20.7,10.5-20.7,10.5c-4.4,0-5.8-4.9-5.8-4.9
		c-1.3-2.1-2-3.7-2.2-5.1c-0.7-4.4,3.4-6.1,5.8-9.2c0,0,0.1-0.1,0.1-0.1c3.2-4.3,13.4-3.8,13.4-3.8c1.5-1.7,3.3-5.2,5-8.8
		c2.6-5.6,4.8-11.6,4.8-11.6c4,0.5,7.1,1.7,9.5,3.2C587,388.5,588,395.9,588,395.9z"/>
	<path class="st37" d="M663.1,269.2c-1.3,9-16.4,13.7-16.4,13.7s-0.9-1-2.3-2.5c-3.1-3.3-8.3-8.9-10.3-10.3c0,0,5.5-14.7,14.8-16
		l0,0C658.2,252.8,663.9,262.9,663.1,269.2z"/>
	<line class="st38" x1="624.5" y1="31" x2="623.6" y2="270.7"/>
	<line class="st38" x1="630.5" y1="31" x2="630.1" y2="259.8"/>
	<polygon class="st39" points="617.2,265 634.3,251 639.4,258.2 622.4,272.2 	"/>
	
		<ellipse transform="matrix(0.9903 -0.1386 0.1386 0.9903 -29.1827 90.2987)" class="st25" cx="633.8" cy="254.7" rx="0.9" ry="0.9"/>
	
		<ellipse transform="matrix(0.9903 -0.1386 0.1386 0.9903 -30.7743 88.6481)" class="st25" cx="621.1" cy="265.3" rx="0.9" ry="0.9"/>
	<ellipse transform="matrix(0.9903 -0.1386 0.1386 0.9903 -31.1275 89.0334)" class="st25" cx="623.7" cy="268" rx="0.9" ry="0.9"/>
	<ellipse transform="matrix(0.9903 -0.1386 0.1386 0.9903 -29.608 90.6372)" class="st25" cx="636" cy="257.9" rx="0.9" ry="0.9"/>
	<path class="st30" d="M588,395.9c-4.1,2.5-18.4,17.8-18.4,17.8c-9.9,19.8-20.7,10.5-20.7,10.5c-4.4,0-5.8-4.9-5.8-4.9
		c-1.3-2.1-2-3.7-2.2-5.1c1.7,1,5.2,2.7,7.8,3c3.6,0.4,2.2,2.8,5.7,3.2c3.3,0.4,21-24.1,25.1-36.4C587,388.5,588,395.9,588,395.9z"
		/>
	<path class="st30" d="M565.2,392.3c-0.8,4-2.4,9.6-6,11.5c-5.5,2.9,0.9-3.9-12.5,1.2c0,0,0.1-0.1,0.1-0.1
		c3.2-4.3,13.4-3.8,13.4-3.8C561.7,399.4,563.6,395.9,565.2,392.3z"/>
	<path class="st33" d="M506.9,359.6c0,0,1.1-1.9,3.3-8"/>
	<path class="st33" d="M510.2,361c0,0,2.6-3.5,3-6.6"/>
	<path class="st29" d="M502.6,346.4c0,0,2.7,5.9,3.1,8.4c0.3,2.5,7,0,2.8-9.7C508.4,345.1,506.1,344.7,502.6,346.4z"/>
	<path class="st20" d="M621.3,334.9c-3.7-0.3-7.3,0.1-10.8,1L574,294.4l30.7,24.3l0,0C614.1,327.7,621.3,334.9,621.3,334.9z"/>
	<path class="st40" d="M663.1,269.2c-1.3,9-16.4,13.7-16.4,13.7s-0.9-1-2.3-2.5c4.5-1.4,19.3-7.7,4.6-26.3l0,0
		C658.2,252.8,663.9,262.9,663.1,269.2z"/>
	<path class="st41" d="M509,308.6c-15.2,12.9-22.7,5.7-24.5,3.3c4.5,2.7,12.4,4.3,23.2-5.2L509,308.6z"/>
	<path class="st41" d="M570.4,272c-38.7,8.6-25.8,19.4-35.7,29.7c-6.9,7.1-15.9,7.2-20.9,6.6l-3.3-4.2c0.4,0,15.4,2.1,22.9-12.9
		c7.6-15.2,13.2-22.2,30.6-27.3c17.4-5.1,39.3-24.9,28-45.9c-8.4-15.5-23.2-14.4-30.3-12.7c5.1-8.7,12.8-13.9,27.7-10.1
		c18.9,4.8,18.1,24.9,16.8,33.6c-0.3,1.8,1.3,3.4,3.1,3.2C629.1,229.6,606.9,263.9,570.4,272z"/>
	<path class="st16" d="M508.8,311.7c0,0-7.8-5.9-1.2-8.7c6.6-2.8,9.9,7.5,9.9,7.5L508.8,311.7z"/>
	<path class="st42" d="M488.6,304.8c0,0-5.7-12,6.3-18.1c12-6.1,35.9-11.6,41.8-20"/>
	<path class="st42" d="M494.5,299.6c0,0-0.4-5.7,8-9.1s30.2-11,39.7-22.3c7.6-9,8.4-18.8,16.6-23.5"/>
	<path class="st42" d="M498.9,305.8c0,0,0.9-9.6,10.5-10.1c9.6-0.5,23.9-12.2,23.9-12.2"/>
	<path class="st42" d="M574.5,252.6c0,0,17.7-12.2,11.5-31.6"/>
	<path class="st42" d="M559.1,259.2c0,0,13.6-4.1,22-25.6"/>
	<ellipse transform="matrix(0.7356 -0.6774 0.6774 0.7356 -85.9043 423.8215)" class="st43" cx="500" cy="322" rx="4.1" ry="8.6"/>
	<line class="st44" x1="501.2" y1="317.6" x2="506.7" y2="310.7"/>
	<g>
		<path class="st45" d="M511.9,306.3c1.8-1.6,4.7-1.4,6.3,0.4l13.1,15c2.3,2.6,3.6,6.3,3.1,9.4c-0.6,3.9-5.5,5.5-8.1,2.5
			c-0.1-0.1-0.2-0.3-0.3-0.4"/>
		<path class="st46" d="M511.9,306.3c1.8-1.6,4.7-1.4,6.3,0.4l5.3,6"/>
		
			<ellipse transform="matrix(0.7533 -0.6577 0.6577 0.7533 -76.0956 411.9685)" class="st47" cx="511.1" cy="307.4" rx="1.8" ry="1.8"/>
		<path class="st45" d="M532.9,334.2c0,0,15.1,18.4,20.3,67.3"/>
	</g>
</g>
<g>
	<g>
		<polygon class="st48" points="235.1,470.9 229.6,478.2 250.4,490.2 206,490.2 216.9,466.5 		"/>
		<path class="st49" d="M268.6,422.5c0,0-26.6,40.1-28.4,41.9c0,0,0.7,1.1,0.7,3.6s-2.2,4.7-2.2,4.7s-24-3.3-25.1-4.4
			c-1.1-1.1,0.7-5.1,2.9-6.2c2.2-1.1,12-42.2,14.6-44.8C233.6,414.8,261.7,415.9,268.6,422.5z"/>
		<line class="st50" x1="236.9" y1="464.7" x2="219.8" y2="461.8"/>
		<path class="st50" d="M250.2,418.2c0,0-15.8,36.7-20.9,42.5"/>
		
			<rect x="353.4" y="355.1" transform="matrix(-1 -4.495838e-11 4.495838e-11 -1 712.3456 842.7902)" class="st49" width="5.5" height="132.5"/>
		<path class="st51" d="M334.9,455.6l8,20.4l27.7,14.6h-45.2l-1.5-12.7c0,0-9.5-9.1-10.9-11.7C311.6,463.6,334.9,455.6,334.9,455.6z
			"/>
		<path class="st10" d="M335.5,445.7c0.9,1.2,1.9,2.9,2.9,5.2c1.1,2.6,0,5.5-2.5,6.8l-21.5,11c-2.3,1.2-5,0.5-6.5-1.6
			c-0.5-0.8-1.1-1.7-1.7-2.7c-1.2-2.2-0.5-4.9,1.6-6.2l22.6-13.5C332.2,443.8,334.3,444.2,335.5,445.7z"/>
		<path class="st49" d="M271.5,349.3c0,0,20.8,13.8,19.7,22.6s-4.7,16-4.7,16l-72.1-26.2l1.1-25.5L271.5,349.3z"/>
		<path class="st51" d="M189.6,250.6l1.8,7.7l1.8,7.9h17.1c2.2-13.5,14.6-10.9,14.6-10.9c8,9.1,14.6-3.6,14.6-3.6l5.8,0.4
			c-2.5-9.8,4.4-19.7,4.4-19.7l-2.9-14.6l-21.5-0.4l-7.3,20c-0.8,0.9-1.7,1.8-2.5,2.6C204.6,250.3,189.6,250.6,189.6,250.6z"/>
		<path class="st52" d="M225.6,232c0,0,1.5-4.7,4-3.6c2.5,1.1,7.6-0.4,9.5-2.9c1.8-2.5,6.2-3.6,6.9,0.7c0.7,4.4,1.5,9.1,6.2,8
			c4.7-1.1,6.2-2.5,2.9-9.5c-3.3-6.9,2.2-7.3,2.5-13.1S254,200,248.2,200s-8.7,1.1-12.4,3.6c-3.6,2.5-7.6,3.6-12.7,1.8
			s-9.1,1.5-10.6,4c-1.5,2.5,0.7,4,0.4,7.3c-0.4,3.3-2.9,3.3-3.6,9.1s3.3,5.8,4.7,8.4c1.5,2.5,0.7,4.7-2.9,5.1c0,0,0.7,1.8,3.8,1.3
			C218,240.1,225.6,232,225.6,232z"/>
		<g>
			<path class="st52" d="M213.2,235.7c0.1,0.4,0.1,0.8-0.1,1.1c-0.2,0.4-0.5,0.6-0.9,0.8c-0.4,0.2-0.8,0.2-1.1,0.2
				c-0.4,0-0.7-0.1-1.1-0.3c0.7-0.2,1.4-0.3,1.9-0.5C212.5,236.7,212.9,236.4,213.2,235.7z"/>
		</g>
		<path class="st53" d="M189.6,250.6l1.8,7.7c4,4.4,8.2,8.4,8.4,6.1c0.4-4.4-2.5-2.2-4-6.2c-1.5-4,0.7-3.3,8.7-7.6
			c5.5-3,9.2-7.8,10.9-10.5C204.6,250.3,189.6,250.6,189.6,250.6z"/>
		<circle class="st53" cx="231.8" cy="249.5" r="4"/>
		<path class="st51" d="M226.7,232c0,0-2.5-6.9-8-2.9c-5.5,4-1.1,9.1,1.1,8.7C222,237.5,226.7,232,226.7,232z"/>
		
			<rect x="346.2" y="350" transform="matrix(-1 -4.495838e-11 4.495838e-11 -1 711.9815 709.5162)" class="st54" width="19.7" height="9.5"/>
		
			<rect x="337.4" y="344.9" transform="matrix(-1 -4.490998e-11 4.490998e-11 -1 712.3456 698.2279)" class="st55" width="37.5" height="8.4"/>
		
			<rect x="270.8" y="341.6" transform="matrix(-1 -4.489088e-11 4.489088e-11 -1 703.9705 689.4886)" class="st56" width="162.4" height="6.2"/>
		<line class="st57" x1="405.5" y1="291" x2="376.7" y2="340.6"/>
		<g>
			<path class="st51" d="M220.9,351.5c1.5,1.9,4,3.9,6.7,5.7c4.4,3,9,5.3,9,5.3c3.3,0.6,8,0,13.6-1.5c20.1-5.2,50.9-20.6,60.3-24
				c12-4.4,14.3,3.6,14.3,3.6l24-0.7c-9.5-12.4-56.4-15.7-79.7-14.2s-25.9-6.9-25.9-6.9S216.9,346.4,220.9,351.5z"/>
			<path class="st53" d="M227.6,357.1c4.4,3,9,5.3,9,5.3c3.3,0.6,8,0,13.6-1.5c-1-3.1-3.6-7.8-10.7-8.7
				C233.9,351.5,230,354.2,227.6,357.1z"/>
		</g>
		<path class="st10" d="M128,384.6c0.8,1.6,1.6,3.1,2.4,4.6c3.3,5.8,7,10.5,11.1,14.5c8,7.7,17.1,12.2,25.8,14.7
			c16,4.6,30.5,2.6,33.6,2.4c5.8-0.4,44.1-5.8,61.5,0c17.5,5.8,45.5,41.5,45.5,41.5l25.1-12.4l-2.5-5.8c-5.5-12-26.9-48.1-37.9-57.5
			c-6.2-5.3-28-13.7-45.9-19.9c-13.9-4.9-25.4-8.5-25.4-8.5l-33.5-5.1L128,384.6z"/>
		<path class="st58" d="M128,384.6c0.8,1.6,1.6,3.1,2.4,4.6c0.1,0,0.2,0.1,0.4,0.1c21.7,7.2,40.8-15.1,64.8-25.6
			c14.2-6.2,37.6,0.1,51.1,2.8c-13.9-4.9-25.4-8.5-25.4-8.5l-33.5-5.1L128,384.6z"/>
		<g>
			<path class="st52" d="M117.7,361.5c0.7,4.4,1.6,8.7,2.9,12.9c1.2,4.2,2.8,8.3,4.7,12.3c3.8,7.9,9.1,15.1,15.8,20.7
				c6.7,5.7,14.7,9.6,23.2,12c8.5,2.4,17.4,3.1,26.3,2.9l0,0c0.5,0,0.9,0.4,0.9,0.9c0,0.5-0.4,0.9-0.9,0.9c-9,0.3-18.1-0.3-26.9-2.6
				c-8.8-2.3-17.2-6.3-24.3-12.1c-7.1-5.8-12.7-13.3-16.8-21.4c-2.1-4.1-3.7-8.3-5.1-12.7c-1.4-4.3-2.4-8.8-3.1-13.3
				c-0.1-0.9,0.5-1.7,1.3-1.9C116.7,359.9,117.5,360.5,117.7,361.5C117.7,361.4,117.7,361.4,117.7,361.5L117.7,361.5z"/>
		</g>
		<g>
			<path class="st52" d="M116.6,347.9c0,0.6,0,1.2,0,1.8l0.1,1.8c0.1,1.2,0.2,2.4,0.3,3.6c0.1,0.9-0.6,1.7-1.5,1.8s-1.7-0.6-1.8-1.5
				l0,0c-0.1-1.3-0.2-2.5-0.2-3.8l-0.1-1.9c0-0.6,0-1.3,0-1.9c0-0.9,0.8-1.6,1.7-1.6C115.9,346.2,116.6,347,116.6,347.9L116.6,347.9
				z"/>
		</g>
		<path class="st59" d="M181.6,423.6l17.3,56.9c1.5,5-2.2,10.1-7.5,10.1H118c-5.9,0-9.7-6.2-6.9-11.4l34.6-66.3"/>
		<path class="st2" d="M130.2,387.2c11.7,1.5,32.3-9,49.5-20.4c15.1-10,21.3-9.3,30.2-9.4c6.6-0.1,11.4,0.7,11.4,0.7l-0.4-6.6
			l22.2-32.8c0,0-16.8-33.9-25.1-45.2c-8.4-11.3-11.3-9.1-16.8-10.6c-5.5-1.5-7.6-5.1-8-8.4s-1.7-6.1-5.8-4.4
			C94.9,289.2,118.6,385.7,130.2,387.2z"/>
		<path class="st60" d="M204.5,342c4.2,5.8,5.1,12.5,5.4,15.3c6.6-0.1,11.4,0.7,11.4,0.7l-0.4-6.6c0,0-6.2-2.9-17.8-16.4
			s-17.5-13.8-18.9-10.2C182.7,328.5,199,334.4,204.5,342z"/>
		<line class="st61" x1="237.3" y1="318" x2="217.6" y2="345.3"/>
		<path class="st62" d="M165.2,374.8c0,0,9.5,16,41.1,21.8c31.7,5.8,54.3,1.1,71,6.9c16.8,5.8,38.6,44.1,38.6,44.1"/>
		<line class="st62" x1="328" y1="446.2" x2="309" y2="457.1"/>
		<path class="st58" d="M141.5,403.6c8,7.7,17.1,12.2,25.8,14.7c-12.3-8.8-15.9-22-15.9-22C149.3,400.2,144.2,402.6,141.5,403.6z"/>
		<line class="st63" x1="376.7" y1="340.2" x2="322.1" y2="340.2"/>
	</g>
	<g>
		<path class="st52" d="M234.6,201.1c-0.6,0.8-1.4,1.5-2.3,2c-0.9,0.5-1.9,0.9-2.9,1c-2,0.3-4.2,0-5.9-1.2c1,0,2,0.1,2.9,0.1
			c0.9,0,1.8-0.1,2.7-0.2C231,202.5,232.8,201.9,234.6,201.1z"/>
	</g>
	
		<ellipse transform="matrix(0.4765 -0.8792 0.8792 0.4765 -81.0171 337.1781)" class="st2" cx="242.6" cy="236.6" rx="3.4" ry="1.6"/>
	
		<ellipse transform="matrix(0.4765 -0.8792 0.8792 0.4765 -82.2392 337.6412)" class="st25" cx="242.4" cy="237.9" rx="2.2" ry="0.8"/>
</g>
<line class="st64" x1="508.5" y1="491" x2="98.5" y2="491"/>
<line class="st64" x1="564.5" y1="491" x2="527.5" y2="491"/>
</svg>
