<?xml version="1.0" encoding="utf-8"?>
<!-- Generator: Adobe Illustrator 21.1.0, SVG Export Plug-In . SVG Version: 6.00 Build 0)  -->
<svg version="1.1" xmlns="http://www.w3.org/2000/svg" xmlns:xlink="http://www.w3.org/1999/xlink" x="0px" y="0px"
	 viewBox="0 0 640 480" style="enable-background:new 0 0 640 480;" xml:space="preserve">
<style type="text/css">
	.st0{fill:#E82F41;}
	.st1{fill:#EEF7FF;}
	.st2{fill:#020263;}
	.st3{fill:#FFBEAE;}
	.st4{fill:#F98F80;}
	.st5{fill:#FE8502;}
	.st6{fill:#00004F;}
	.st7{fill:#FDAF99;}
	.st8{fill:#E85336;}
	.st9{fill:#CC3117;}
	.st10{fill:#F6F6F6;}
	.st11{fill:#4B90DD;}
	.st12{fill:none;stroke:#F98F80;stroke-width:0.813;stroke-linecap:round;stroke-linejoin:round;stroke-miterlimit:10;}
	.st13{fill:none;stroke:#A72626;stroke-width:0.813;stroke-linecap:round;stroke-linejoin:round;stroke-miterlimit:10;}
	.st14{fill:none;stroke:#8D4AF5;stroke-miterlimit:10;}
	.st15{fill:none;stroke:#DD3750;stroke-width:0.813;stroke-linecap:round;stroke-linejoin:round;stroke-miterlimit:10;}
	.st16{fill:none;stroke:#F25767;stroke-linecap:round;stroke-linejoin:round;stroke-miterlimit:10;}
	.st17{fill:#FEB6AA;}
	.st18{fill:none;stroke:#F6F6F6;stroke-linecap:round;stroke-miterlimit:10;}
	.st19{fill:#8DB4FF;}
	.st20{fill:none;stroke:#FFFFFF;stroke-miterlimit:10;}
	.st21{fill:#C4C5D1;}
	.st22{fill:#B5B5CF;}
	.st23{fill:none;stroke:#F25563;stroke-linecap:round;stroke-linejoin:round;stroke-miterlimit:10;}
	.st24{fill:#FFBEAE;stroke:#F98F80;stroke-linecap:round;stroke-linejoin:round;stroke-miterlimit:10;}
	.st25{fill:none;stroke:#F98F80;stroke-linecap:round;stroke-linejoin:round;stroke-miterlimit:10;}
	.st26{fill:#EAE9EE;}
	.st27{fill:#A3653B;}
	.st28{fill:#FFDCA2;}
	.st29{fill:#EAC083;}
	.st30{fill:none;stroke:#F2CA91;stroke-width:0.7393;stroke-linecap:round;stroke-linejoin:round;stroke-miterlimit:10;}
	.st31{fill:#D3915B;}
	.st32{fill:#6F4E2F;}
	.st33{fill:#FEAC00;}
	.st34{fill:none;stroke:#EAC083;stroke-width:1.4785;stroke-linecap:round;stroke-linejoin:round;stroke-miterlimit:10;}
	.st35{fill:#BA2C0F;}
	.st36{fill:none;stroke:#BA2C0F;stroke-width:0.4568;stroke-miterlimit:10;}
	.st37{fill:none;stroke:#6F4E2F;stroke-width:0.4568;stroke-linecap:round;stroke-linejoin:round;stroke-miterlimit:10;}
	.st38{fill:#F2CA91;}
	.st39{fill:#FFFFFF;}
	.st40{fill:none;stroke:#6F4E2F;stroke-width:0.913;stroke-miterlimit:10;}
	.st41{fill:#5699E8;}
	.st42{fill:#3080C1;}
	.st43{fill:#70ABE5;}
	.st44{fill:#3281E1;}
	.st45{fill:none;stroke:#3080C1;stroke-width:2.2872;stroke-linecap:round;stroke-linejoin:round;stroke-miterlimit:10;}
	.st46{fill:#FFFBEA;}
	.st47{fill:#0A4599;}
	.st48{fill:#FC99A6;}
	.st49{fill:none;stroke:#FFFFFF;stroke-width:0.7624;stroke-linecap:round;stroke-linejoin:round;stroke-miterlimit:10;}
	.st50{fill:none;stroke:#FFFFFF;stroke-width:0.7624;stroke-linecap:round;stroke-miterlimit:10;}
	.st51{fill:#EA8193;}
	.st52{fill:none;stroke:#8BB9EF;stroke-width:3.0191;stroke-linecap:round;stroke-linejoin:round;stroke-miterlimit:10;}
</style>
<g id="Слой_1">
</g>
<g id="Слой_2">
	<path class="st0" d="M256.8,127.3c0,0-0.8,13.8,2.3,16.8s6-3,6-3l-3-15L256.8,127.3z"/>
	<path class="st0" d="M319,118c0,0,3,6,2.5,11l-6.5,3l-2.8-17.5L319,118z"/>
	<path class="st1" d="M543.4,324.1c-13.9,33.6-33.6,54.8-65.4,72c-13.2,7.1-24.4,13.7-33,18.9H162.7l-2.2-9c0,0-87-24.1-84-137.4
		c2.9-113.3,71.5-130,106-122.8c25.8,5.4,110.7,20.2,163.7,0c80.4-30.7,125-44.6,136.6-13.2c11.7,31.4-12.4,88.4,11.7,112.5
		C518.5,269.3,557.2,290.5,543.4,324.1z"/>
	<path class="st2" d="M263.4,195.9c0,0-43.8,10.2-47.5,24.8c-3.7,14.6-2.2,38-2.2,38l19,34.3c0,0-4.4,112.5,0.7,122.7l148.3-0.7
		c0,0-9.5-72.3-5.8-97.9s21.2-68,21.2-68S393,228,381,210c-4.2-6.3-12.7-9.2-21.9-9C326.2,201.7,263.4,195.9,263.4,195.9z"/>
	<path class="st3" d="M322.3,142.7c-1,0.8-2.1,1.5-3.3,2c-9.5,4.4-2.2-16.1-2.2-16.1s2.1-1.4,4.4-2.1c1.8-0.5,3.8-0.7,5.1,0.6
		C328.8,129.7,328.6,137.8,322.3,142.7z"/>
	<path class="st4" d="M322.3,142.7c-1,0.8-2.1,1.5-3.3,2c-9.5,4.4-2.2-16.1-2.2-16.1s2.1-1.4,4.4-2.1
		C321.7,130.5,322.4,136.6,322.3,142.7z"/>
	<polygon class="st5" points="274.4,89.9 275.8,98 287.5,98.7 286.1,87.7 	"/>
	<path class="st3" d="M359.1,201c-7.2,21-28.2,32.7-49.7,32.1c-1.1,0-2.1-0.1-3.2-0.2c-0.2,0-0.5,0-0.7-0.1
		c-0.6-0.1-1.1-0.1-1.7-0.2c-1-0.1-2.1-0.3-3.1-0.5c0,0-0.1,0-0.1,0c-0.5-0.1-0.9-0.2-1.4-0.3c-0.5-0.1-0.9-0.2-1.3-0.3
		c-0.3-0.1-0.7-0.2-1-0.3c-0.5-0.1-0.9-0.2-1.4-0.4c-25.6-7.3-32.1-35.1-32.1-35.1c22.7-5.8,20.5-20.5,20.5-20.5l26.1-3.3l3.2-0.4
		c0,0.5,0,1,0.1,1.5c0.2,2.1,0.6,4,1.4,5.8c0,0.1,0.1,0.2,0.2,0.3c0.5,1,1,2,1.7,3C326.9,197.9,359.1,201,359.1,201z"/>
	<g>
		<path class="st6" d="M275.9,217.5C275.9,217.5,275.9,217.5,275.9,217.5c-0.6,0.7-9.3,11.5-15.7,40.7c-6,27.4-11.3,76.7-2.2,157.1
			h-9.1c-17.8-159.3,18.7-202.1,20.3-203.8l3.3,3L275.9,217.5z"/>
		<path class="st6" d="M290.4,229.2c-0.2,0.7-11.8,46.3-5.2,186.1h-9c-6.7-141.9,5-186.6,5.5-188.5l4.3,1.2L290.4,229.2
			C290.4,229.2,290.4,229.2,290.4,229.2z"/>
		<polygon class="st6" points="319.5,415.3 310.5,415.3 304.6,234.1 313.6,233.8 		"/>
		<path class="st6" d="M351.9,415.3h-9c-1.6-135.6-15.6-183.5-15.7-183.9l8.6-2.6C336.4,230.8,350.3,278,351.9,415.3z"/>
		<path class="st6" d="M367.9,260.6c-6.2-24.1-20.2-40-20.3-40.1l6.7-6c0.6,0.7,15.5,17.6,22.3,43.9L367.9,260.6z"/>
	</g>
	<path class="st7" d="M309.4,233.1c-1.1,0-2.1-0.1-3.2-0.2c-0.2,0-0.5,0-0.7-0.1c-0.6-0.1-1.1-0.1-1.7-0.2c-1-0.1-2.1-0.3-3.1-0.5
		c0,0-0.1,0-0.1,0c-0.5-0.1-0.9-0.2-1.4-0.3c-0.5-0.1-0.9-0.2-1.3-0.3c-0.3-0.1-0.7-0.2-1-0.3c-0.5-0.1-0.9-0.2-1.4-0.4
		c-25.6-7.3-32.1-35.1-32.1-35.1c22.7-5.8,20.5-20.5,20.5-20.5l26.1-3.3l3.2,1.1c0.2,2.1,0.6,4,1.4,5.8c0,0.1,0.1,0.2,0.2,0.3
		c0.5,1,1,2,1.7,3C310,188.1,301.2,200.5,309.4,233.1z"/>
	<path class="st4" d="M314.7,179.4c-1.3,1.7-7.5,8.3-21.5,5.9c-3-0.5-6,0.8-7.5,3.5c-1.7,3-4.5,6.7-8.3,9.1c-3.1,2-4.5,5.8-3,9.2
		c3.3,7.4,10.2,18.8,23.8,24.6c-0.9-0.2-1.9-0.5-2.8-0.7c-22.1-6.3-30-28-31.8-33.7c-0.2-0.8,0.2-1.5,1-1.7
		c17.4-5,19.1-15.4,19.1-18.9c0-0.7,0.5-1.3,1.2-1.4l24.8-3.1l1.7-0.2c0.8-0.1,1.5,0.5,1.6,1.3c0,0,0,0,0,0c0.2,2.1,0.6,4,1.4,5.8
		C314.6,179.2,314.7,179.3,314.7,179.4z"/>
	<path class="st3" d="M309,178.2c-3.2,2.6-7.4,3.7-11.5,3.4c-16.5-1.3-25.8-14.6-31-27.5c0,0,0,0,0,0c-2.4-6.2-4-12.2-4.9-16.9
		c-1-5.2-1.3-8.7-1.3-8.7c9-9.5,22-13,33.2-14c5.4-0.5,10.3-0.4,14.2-0.2c5,0.3,8.2,0.9,8.2,0.9c0.7,3.2,1.3,6.3,1.8,9.2
		c0.4,2.2,0.7,4.3,1,6.3C322.7,160.8,315.3,173.1,309,178.2z"/>
	<path class="st7" d="M318.6,130.6c-3.8-8.1-22.3-7.9-39.6-0.6c-11.9,5-13.2,16.4-12.5,24.1c-5.2-13-6.2-25.6-6.2-25.6
		c18.9-20,55.5-13.3,55.5-13.3C317,120.8,317.9,125.9,318.6,130.6z"/>
	<path class="st4" d="M317.6,124.3c-24.9-2-49.6,9.6-56,12.8c-1-5.2-1.3-8.7-1.3-8.7c9-9.5,22-13,33.2-14l14.2-0.2
		c5,0.3,8.2,0.9,8.2,0.9C316.5,118.4,317.1,121.4,317.6,124.3z"/>
	<path class="st8" d="M319.1,118.5c-19.3,0-34.2,3.4-44.5,7.1c-11.7,4.1-17.6,8.5-17.6,8.5s-6.7-34.4,26.6-37.7
		c0.4,0,0.7-0.1,1.1-0.1C316.8,93.5,319.1,118.5,319.1,118.5z"/>
	<path class="st9" d="M274.5,125.5c-11.7,4.1-17.6,8.5-17.6,8.5s-6.7-34.4,26.6-37.7c0.4,0,0.7-0.1,1.1-0.1
		C279.4,99.6,271.6,107.9,274.5,125.5z"/>
	<path class="st3" d="M256.8,134.5c0.1,0.3,0.1,0.6,0.2,0.9c4.5,18.6,3,30.3,1.5,36.1c-0.7,2.5-1.3,3.9-1.6,4.4
		c-0.1,0.1-0.1,0.2-0.1,0.2s-0.5,3.2-1.3,8.4c-1.3,8.6-3.4,22.7-5.6,37.7c-2.3,15.9-4.8,32.7-6.6,44.8c-0.5,3.2-0.9,6-1.2,8.5
		c-3.3,23.3-16.3,27.8-27.4,22.4c-1.1-0.5-2.2-1.2-3.2-1.9c-2.7-1.9-4.8-3.8-6.3-5.9c-4.8-6.9-3-16,4.8-32.8
		c10.2-21.9,29.2-76.7,29.2-80.4c0-3.7-7.3-21.9-8.8-25.6c-1.5-3.7,1.5-4.4,1.5-4.4l0.6-13.9c0.1-1.2,1-2.3,2.2-2.5
		c5.2-0.9,12.8-3.1,16.4-4.2c1.1-0.3,2.3,0,3.1,0.9c2.6,3.1,6.9,5.8,6.9,5.8C259.8,136,256.8,134.5,256.8,134.5z"/>
	<path class="st7" d="M258.5,171.6c-0.7,2.5-1.3,3.9-1.6,4.4c-0.1,0.1-0.1,0.2-0.1,0.2s-0.5,3.2-1.3,8.4
		c-2.8-13.7-12.5-30.5-12.5-30.5l1.9-5.1L258.5,171.6z"/>
	<path class="st4" d="M257,176c-0.9-3.9-1.5-10.1-8-16c-19-17-5-27-5-27s2-1,7-1c3,0,3,4,6.1,3.4C263.5,161.9,257.8,174.3,257,176z"
		/>
	<path class="st3" d="M267,155.4c-0.8,0.1-1.6,0.1-2.4,0c-1.5-0.1-3.1-0.5-4.6-1.1c-4.8-1.7-8.8-5.3-7.5-9.6c1-3.2,3.3-4.3,5.7-4.5
		c0.7-0.1,1.3-0.1,2,0c0.8,0.1,1.6,0.2,2.2,0.3C263.3,145,264.8,150.2,267,155.4z"/>
	<path class="st4" d="M267,155.4c-0.8,0.1-1.6,0.1-2.4,0c-2.5-5.8-3.8-11.6-4.5-15.2c0.8,0.1,1.6,0.2,2.2,0.3
		C263.3,145,264.8,150.2,267,155.4z"/>
	
		<ellipse transform="matrix(0.9701 -0.2425 0.2425 0.9701 -25.232 71.9244)" class="st10" cx="279.5" cy="138.4" rx="3.3" ry="5.5"/>
	
		<ellipse transform="matrix(0.9873 -0.1587 0.1587 0.9873 -17.2061 49.7543)" class="st10" cx="302.9" cy="132.6" rx="3.3" ry="5.5"/>
	<ellipse transform="matrix(0.9588 -0.284 0.284 0.9588 -28.2064 85.1609)" class="st11" cx="279.6" cy="139.9" rx="2.1" ry="3.1"/>
	<ellipse transform="matrix(0.985 -0.1726 0.1726 0.985 -18.5884 54.3552)" class="st11" cx="303.3" cy="134.1" rx="2" ry="3"/>
	<path class="st12" d="M291.2,150.6c0,0,3.7,2.9,5.8-1.5"/>
	<path class="st13" d="M286.8,162.3c0,0,12.4,4.4,19-5.1"/>
	<ellipse class="st14" cx="265.2" cy="168.8" rx="4" ry="13.9"/>
	<ellipse transform="matrix(0.988 -0.1542 0.1542 0.988 -20.2569 51.7545)" class="st14" cx="323.4" cy="156.4" rx="4" ry="13.9"/>
	<path class="st15" d="M269.3,106c0,0-6.6,6.6-5.1,16.8"/>
	<path class="st15" d="M280.9,106c0,0-2.2,8.8,1.5,15.3"/>
	<path class="st15" d="M289.7,103.1c0,0,4.4,5.1,4.4,13.2"/>
	<path class="st15" d="M296.3,100.2c0,0,8,5.8,9.5,16.1"/>
	<path class="st16" d="M286.4,96.3c0,0,19.4-6.4,29.6,9.7"/>
	<path class="st8" d="M294.8,81.9c0,4.4-4.4,11-12.4,12.4c-6.1,1.1-8.4-3.2-9.2-5.4c0.1,1.3-0.7,3.4-4.7,6.1
		c-6.6,4.4-8.8-3.7-8.8-3.7s-7.3,5.1-11.7-3.6c-1.3-2.7-1.5-4.7-1.1-6.3c0.9-3.6,4.8-4.7,4.8-4.7s-10.2,0-8.8-11
		c1.5-11,13.9-8,13.9-8s5.1-7.3,17.5-11.7c4.8-1.7,9.4-1.5,13.5,0c6.5,2.4,11.5,8.4,12.8,16.1C302.9,74.6,294.8,81.9,294.8,81.9z"/>
	<path class="st9" d="M294.8,81.9c0,4.4-4.4,11-12.4,12.4c-6.1,1.1-8.4-3.2-9.2-5.4c0.1,1.3-0.7,3.4-4.7,6.1
		c-6.6,4.4-8.8-3.7-8.8-3.7s-7.3,5.1-11.7-3.6c-1.3-2.7-1.5-4.7-1.1-6.3c2.4,10.1,12.6,5,12.6,5C271,94,275,81,275,81
		c10,4,14-9.3,14-9.3c11.4-11.2,4.1-21.7-1.2-25.7c6.5,2.4,11.5,8.4,12.8,16.1C302.9,74.6,294.8,81.9,294.8,81.9z"/>
	<path class="st16" d="M256.8,57.8c0,0,21.7-30.3,44.6-3.7"/>
	<path class="st15" d="M258.3,65.1c0,0-6.6-1.5-5.1,5.1"/>
	<path class="st15" d="M261.9,79.7c0,0,2.2,5.1,7.3,0"/>
	<path class="st15" d="M275.5,57.9c0,0,13.2-4.4,14.6,2.2s-3.7,11.7-3.7,11.7s7.3-0.7,3.7,6.6"/>
	<path class="st17" d="M399.3,346.4c-8.8,8.8-92.1-1.5-92.1-1.5c-36.5,13.9-40.9-16.1-40.9-16.1l70.1-1.2l50.3-0.8l13.3-0.2
		c0,0.4,0.1,0.8,0.1,1.1c0.3,3.3,0.4,6,0.4,8.2C400.7,345.1,399.3,346.4,399.3,346.4z"/>
	<path class="st18" d="M256.8,197.7c0,0,9.5,42.7,46.8,43.5s53.3-17.5,61-39.5"/>
	<path class="st19" d="M444.2,66.6c-25.6,0-46.4,16.5-46.4,36.9c0,10.8,5.8,20.5,15.1,27.2l-4.2,10.4l13.4-5.2
		c6.6,2.8,14.1,4.4,22,4.4c25.6,0,46.4-16.5,46.4-36.9S469.9,66.6,444.2,66.6z"/>
	<path class="st20" d="M456.9,92.1c-6.9-4.2-12.6,2.9-13.1,3.6c-0.5-0.7-6.2-7.8-13.1-3.6c-7.3,4.4-0.7,19,13.1,24.8h0.1
		C457,111.9,464.2,96.5,456.9,92.1z"/>
	<path class="st4" d="M400.5,336c-7.2,2.5-33.3,8.3-114.5,6l50.4-14.3l50.3-0.8l13.2,0.6l0.1,0.3C400.4,331.1,400.5,333.8,400.5,336
		z"/>
	<polygon class="st21" points="286.8,321.6 282.4,343.5 280.7,342.2 259,325.2 272.7,323.4 	"/>
	<polygon class="st22" points="286.8,321.6 282.4,343.5 280.7,342.2 272.7,323.4 	"/>
	<polygon class="st10" points="407.3,245.6 407.3,246 404.4,333.3 285.3,343.2 282.4,343.5 283.9,257.3 	"/>
	<path class="st7" d="M250,222.3c-3,20.1-6.1,41.7-7.8,53.3c-3.7,25.6-19,28.5-30.7,20.5c-2.7-1.9-4.8-3.8-6.3-5.9
		C213.2,293.8,231.5,292.3,250,222.3z"/>
	<path class="st23" d="M251,136.7l74.5-18.3c0,0-17.5,43.1-36.5,9.5C289,127.9,287.5,163.7,251,136.7z"/>
	<path class="st24" d="M234.2,138.9l3.9-5.6c0.7-1,2-1.4,3.2-0.9l9.7,4.3l2.5,4.8"/>
	<path class="st24" d="M245.5,155.5l-4.7-4.9l3.7-6.1c0,0,0.3,1.3,4,2c0,0,0.3,10.3,3.7,11.4c0.8,0.3,1.6-0.5,1.6-1.3l-0.7-14.8
		l-8.3-4.7c-1.1-0.7-2.6-0.5-3.5,0.5l-9.4,9.4"/>
	<path class="st25" d="M261.5,133.5c0,0-5,4-10.5-1.9l-4.4,1.5"/>
	<path class="st26" d="M407.3,246l-2.9,87.3l-119.2,10C348.2,306.6,407,246,407,246H407.3z"/>
	<path class="st4" d="M243.4,267c-0.5,3.2-0.9,6-1.2,8.5c-3.3,23.3-16.3,27.8-27.4,22.4C222.7,297.7,234.5,292.4,243.4,267z"/>
	<path class="st16" d="M242.5,74.5c0,0,7,3,2,8"/>
	<ellipse class="st7" cx="278" cy="158.5" rx="5.5" ry="5"/>
	<ellipse class="st7" cx="311.5" cy="152" rx="5.5" ry="5"/>
	<g>
		<path class="st27" d="M422.4,312c0,0-10.9,9.1-9.1,18.2c0.6,2.9,11.3,1.8,14-5.1S422.4,312,422.4,312z"/>
		<path class="st28" d="M505.5,407.2c0.2-0.2,0.4-0.4,0.6-0.6c0.6-0.7,1.3-1.7,1.5-2.8l3.9-4.6l1.2-1.4c-1.4-3.4-3.3-5.9-3.3-5.9
			l-0.4,0.6l-3.5,5.4c0.8,1.2,1.3,2.2,1.6,3.2C508,404.2,506.4,406.3,505.5,407.2z"/>
		<path class="st28" d="M505,407.6c0.1-0.1,0.2-0.2,0.4-0.4C505.2,407.5,505.1,407.6,505,407.6z"/>
		<path class="st29" d="M426.7,385.4c0,0-20.5,6.2-1.4,22.6c0,0-6.6-1.9-8.7,5.5c0,0,9.8,1.8,16.1-1.5
			C439.1,408.6,437.4,388.1,426.7,385.4z"/>
		<path class="st28" d="M427.9,361.4c-10,29.1,8.1,43.9,8.1,43.9c17.4,7.7,28,2.1,32.3-1.4c1.5-1.2,2.3-2.2,2.3-2.2
			c0.7,0.3,1.5,0.6,2.2,0.8c35.6,13,35.6-6.3,35.6-6.3c7.4-26.4-10.9-49.8-18.7-58.2c-2-2.2-3.3-3.4-3.3-3.4c0.2-4.3,0-8.3-0.6-11.9
			c-0.2-1.3-0.5-2.5-0.8-3.6c-0.1-0.3-0.2-0.7-0.3-1c-0.7-2.8-1.7-5.4-2.8-7.7c-5.5-12.1-14-18.3-14-18.3
			c-37.8-12.8-41.5,1.9-41.5,1.9c-1.8,3.1-3.3,6.1-4.5,8.9c-2.3,5.3-3.7,10-4.4,14.3c-4.1,23.8,13,32.4,13,32.4
			c-2.2,3.8-1.3,6-0.9,6.6c0.1,0.1,0.2,0.2,0.2,0.2c-0.4,1-0.8,2-1.2,3C428.4,360.2,428.1,360.8,427.9,361.4z"/>
		<g>
			<path class="st30" d="M440.6,323.9c0,0,0.6-13.5-7.6-14.1"/>
			<path class="st30" d="M444.4,323.9c0,0-1.7-10.5,8.6-14.4"/>
		</g>
		<path class="st29" d="M432.5,411.3c17.4,7.7,30.8,0.8,35.1-2.7l-1.5-6.4c0,0-25.9,10.8-38.9-39.3
			C417.2,392.1,432.5,411.3,432.5,411.3z"/>
		<path class="st28" d="M443.1,383.9c0,0-4.7,18.2-2.6,29.6c0,0-5.8,5.1-15.1-0.1c0,0,2.7-4.9,6.9-5c0,0-5.8-27.5-2.1-42.7
			C430.2,365.7,440.6,375.7,443.1,383.9z"/>
		<path class="st31" d="M432.7,330.7c5.5-5.5,6.7-7.7,11.2-6.9c4.4,0.8,4.9,3.4,8.7,7c2.1,2,5,4.3,3.6,8.1c-1.4,3.9-7.8,5.5-9.7-0.2
			c-5.3,6.1-7.7,1.9-9.1-0.2c-1.3,3.1-2.9,4-5.9,2.9C431.4,341.4,426.7,336.7,432.7,330.7z"/>
		<path class="st32" d="M444.7,327.6c0,0-2.5-2.4-4.7-0.2c-2.5,2.4,2.3,3.1,2.3,3.1S446.1,329.8,444.7,327.6z"/>
		<path class="st29" d="M431.6,351c0,0,12.7,15.2,27.8,0.2C459.4,351.2,445.1,358,431.6,351z"/>
		<path class="st29" d="M417.4,318c31.4-28.1,65.7,9.6,65.7,9.6l3.4-3.3c-0.2-1.2-0.5-2.5-0.8-3.6c-0.8-3.2-1.8-6.1-3-8.7
			l-33.4-14.3l-26.6,6.8C420.5,309.7,418.1,313.8,417.4,318z"/>
		<path class="st29" d="M473.6,318.2c0,0-4.8,14.9-3.3,17.1c1.5,2.2,7.5,3.5,11.8-1C486.4,329.7,473.6,318.2,473.6,318.2z"/>
		<path class="st29" d="M472.6,395.2l-8.6,13.7c-0.9,1.3-0.2,3.1,1.3,3.6c21.6,6.8,33.1,0.7,39-6.2c3.3-3.8,5.3-8.4,6.1-13.3
			c4.6-27.9-17.8-52.2-22.4-56.6c-0.5-0.5-0.9-0.5-0.8-1.2c0.2-4.8-0.3-9.2-1.1-13.2c-0.2-0.8-0.7-1.5-1.5-1.8l-1.8-0.7
			c-1.9-0.7-3.8,1.1-3.2,3c1.3,4.2,2.3,10.5-0.5,16.5c-1.1,2.5,1.9,4.7,3.9,2.8c0,0,0.1-0.1,0.1-0.1c1-1,2.7-0.9,3.6,0.2
			c4.5,5.8,15.7,21.3,15.6,33.6c0,1.9-2.1,3.1-3.7,2.1c-6.6-4-21.6-9.9-25.7,16.5C472.9,394.6,472.8,394.9,472.6,395.2z"/>
		<path class="st27" d="M477.9,312.3c0,0-7.1,19.1-4.7,20.8c2.4,1.7,11.5-0.1,12.9-7.4C487.6,318.4,477.9,312.3,477.9,312.3z"/>
		<path class="st8" d="M486.5,331.9c0,0-34.8,30.4-55.8,17.6c0,0,10.9,24.1,56.6-13.9L486.5,331.9z"/>
		<path class="st8" d="M417.3,317.3c0.2,0.7,0.3,0.6,0.7,0c2.5-4.1,9.9-10.6,24-11.6c13.6-0.9,27.8,5.4,36.6,14.7
			c4.4,4.7,7.5,10.1,8.4,15.8c0,0,5.5-1,1.5-12.8c0,0,0,0,0-0.1c0.2-0.4,1.1-2.3,1-5.1c0-2-0.1-8.2-1.6-11.1c0,0,0,0,0-0.1
			c0.4-3.5-0.2-6.5-1.4-9c0.7-0.4,1.5-1,2-1.8c0.6-1,0.9-2.2,0.6-4c-0.9-4.6-10.3-17.7-30.8-14.3c-2,0.3-4,0.8-6.2,1.5
			c-0.1-0.1-0.2-0.1-0.3-0.2c-4.2-2.3-8.9-2.4-13-1.7c-3.7,0.7-6.8,2.1-8.5,3.5c-3.5,2.7-2.8,8.6-2.4,10.8c-1.9,1.7-3.3,3.6-4.1,5.3
			c0,0,0,0,0,0c-0.5,0.9-0.8,1.8-1.1,2.6c0,0.1-0.1,0.2-0.1,0.3c-1.9,1.6-3.5,4.1-5,8.9C416.6,312.9,416.5,314.4,417.3,317.3z"/>
		<path class="st33" d="M434.1,302.4c0,0,13.2-3,22.7,0.4l2.1-8.6c0,0-11.4-4.9-22.7,0.4L434.1,302.4z"/>
		<path class="st28" d="M457.5,379.3c0,0,5.5,21.3,2,27.8c0,0-5.1,1.9-5.9,7c0,0,9.1,2.8,14.7-1.7c0,0,6.9-15.7,4.3-29.3
			L457.5,379.3z"/>
		<path class="st28" d="M477,414.9c0,0,7.6,1.5,15.3-0.3c0,0,0.1,0,0.1,0c5.4-1.2,10.8-4,13.7-10c0.6-1.3,1.1-2.6,1.4-3.9
			c2.8-12.7-10.6-22.1-10.6-22.1s-2.7-1.4-6.2-1.7c-4.6-0.4-10.5,1.1-13.7,10c-5.4,15.3,8.9,19.9,9.7,20.1
			C486,406.9,476.8,406.1,477,414.9z"/>
		<path class="st29" d="M428.6,360.2c4.5,3,9,3.4,9,3.4c-5.1-1.7-7.9-6.7-7.9-6.7l0,0c0.1,0.1,0.1,0.2,0.1,0.2
			C429.4,358.2,429,359.2,428.6,360.2z"/>
		<path class="st9" d="M475.4,296.8c0,0,7.9,11.3,3.3,23.6c4.4,4.7,7.5,10.1,8.4,15.8c0,0,5.5-1,1.5-12.8c0,0,0,0,0-0.1
			c0.2-0.4,1.1-2.3,1-5.1c0-2-0.1-8.2-1.6-11.1c0,0,0,0,0-0.1c0.4-3.5-0.2-6.5-1.4-9c0.7-0.4,1.5-1,2-1.8c0.6-1,0.9-2.2,0.6-4
			c-0.9-4.6-10.3-17.7-30.8-14.3C464.7,280.6,484.5,289.8,475.4,296.8z"/>
		<path class="st34" d="M457.5,379.3c0,0,5.5,21.3,2,27.8c0,0-5.1,1.9-5.9,7"/>
		<path class="st35" d="M472.6,306.6c11.5,5.7,15.9,16.5,15.9,16.5l0.2,0.1c0.2-0.4,1.1-2.3,1-5.1
			C480.9,308.6,473,306.7,472.6,306.6z"/>
		<path class="st36" d="M487.9,307.4c0,0-23.1-29.1-59.5-15.3"/>
		<path class="st37" d="M446.4,338.7c0,0-4.1-0.4-4.3-8.1c0,0-0.5,7.1-4.8,7.9"/>
		<path class="st35" d="M422.9,299.7c0.9-0.6,3.7-2.3,7.1-3c0.9-0.2,1.8-0.3,2.8-0.3c0,0-0.6,0-1.8,0c-1.5,0-4,0.2-7,0.8
			c0,0,0,0,0,0C423.5,298,423.2,298.9,422.9,299.7z"/>
		<path class="st35" d="M464.4,287.3c10.8,2.2,17.3,7.1,21,11.3c0.8-0.3,2.4-0.9,3.3-2.4C478.4,286.8,464.4,287.3,464.4,287.3z"/>
		<path class="st38" d="M492.1,414.6l0.2,0.1c0,0,0.1,0,0.1,0c5.4-1.2,10.8-4,13.7-10c0.6-1.3,1.1-2.6,1.4-3.9l-6.9-4.8
			C500.6,395.9,488,394.7,492.1,414.6z"/>
		<path class="st38" d="M492.4,414.6c5.4-1.2,10.8-4,13.7-10c7-14.6-9.2-26.1-9.2-26.1s-2.7-1.4-6.2-1.7
			C496.1,383.4,505.9,398.8,492.4,414.6z"/>
		<path class="st28" d="M497.2,411.8c0.7,0.7,1.4,1.2,2.2,1.6c5.7,2.8,13.9-0.9,14.9-6.7c0.5-2.9-0.4-6.2-1.6-8.9l-1.2,1.4l-3.9,4.6
			c0.2-0.8,0.1-1.8-0.5-2.7c-0.4-0.7-1-1.3-1.9-2C499.1,394.8,491.8,406.4,497.2,411.8z"/>
		<path class="st34" d="M502.3,406.3c0,0,6.3,1.8,5.1-4.5c-0.9-4.7-7.2-4-9.9-1.2c-2.9,3-3.3,7.5,0.7,12.1"/>
		<path class="st29" d="M499.4,413.3c5.7,2.8,13.9-0.9,14.9-6.7c0.5-2.9-0.4-6.2-1.6-8.9c-1.4-3.4-3.3-5.9-3.3-5.9l-0.4,0.6
			c0.6,1.2,1.8,3.8,2.4,6.8C512.7,405,511.6,412.3,499.4,413.3z"/>
		<path class="st35" d="M439.1,277.5c10.1,2.2,17.7,7.2,17.7,7.2c0-1.5-2-3.5-4.7-5.5C447.8,277,443.1,276.8,439.1,277.5z"/>
		<g>
			<path class="st31" d="M453.5,308.7c0.7,0.1,1.2,0.2,1.7,0.3c0.5,0.1,1,0.3,1.6,0.5c1,0.4,2,0.9,2.9,1.4c0.7,0.4,0.9,1.4,0.5,2
				c-0.4,0.6-1.2,0.9-1.9,0.5l0,0c-0.8-0.4-1.6-0.6-2.4-0.8c-0.4-0.1-0.8-0.2-1.3-0.2c-0.4-0.1-0.9-0.1-1.2-0.1
				c-1,0-1.9-0.7-1.9-1.8c0-1,0.7-1.9,1.8-1.9C453.2,308.7,453.3,308.7,453.5,308.7L453.5,308.7z"/>
		</g>
		<g>
			<path class="st31" d="M432.4,312.9c-0.3,0-0.8,0.1-1.2,0.2c-0.4,0.1-0.8,0.2-1.2,0.3c-0.8,0.3-1.6,0.6-2.4,1l0,0
				c-0.7,0.4-1.6,0.1-2-0.6c-0.4-0.7-0.2-1.5,0.4-1.9c0.9-0.6,1.8-1.2,2.8-1.7c0.5-0.2,1-0.4,1.5-0.6c0.5-0.2,1-0.3,1.7-0.4l0,0
				c1-0.2,2,0.5,2.2,1.5c0.2,1-0.5,2-1.5,2.2C432.6,312.8,432.5,312.9,432.4,312.9z"/>
		</g>
		<g>
			<path class="st27" d="M447.8,322.2c0.9,3.9,5.5,7.6,9.6,6.6c4.1-1,6.7-5,5.8-8.8c-0.9-3.9-5.1-6.2-9.2-5.2
				S446.8,318.3,447.8,322.2z"/>
			
				<ellipse transform="matrix(0.972 -0.2349 0.2349 0.972 -62.6655 115.8227)" class="st39" cx="454.9" cy="321" rx="5.7" ry="5.3"/>
			
				<ellipse transform="matrix(0.972 -0.2349 0.2349 0.972 -62.6315 115.4985)" class="st32" cx="453.6" cy="320.7" rx="4.5" ry="4.2"/>
			
				<ellipse transform="matrix(0.972 -0.2349 0.2349 0.972 -62.1176 115.1254)" class="st39" cx="452.3" cy="318.3" rx="1.7" ry="1.6"/>
		</g>
		<g>
			<path class="st27" d="M436.9,320.9c-0.3,3.8-3.8,8.1-7.6,7.8s-6.7-3.6-6.4-7.5s3.6-6.7,7.5-6.4
				C434.2,315.1,437.2,317.1,436.9,320.9z"/>
			
				<ellipse transform="matrix(7.376784e-02 -0.9973 0.9973 7.376784e-02 77.9594 725.9704)" class="st39" cx="429.8" cy="321" rx="5.1" ry="5.1"/>
			
				<ellipse transform="matrix(7.376784e-02 -0.9973 0.9973 7.376784e-02 78.1131 724.1238)" class="st32" cx="428.9" cy="320" rx="4.1" ry="4.1"/>
			
				<ellipse transform="matrix(7.376784e-02 -0.9973 0.9973 7.376784e-02 78.607 720.669)" class="st39" cx="427.3" cy="318" rx="1.5" ry="1.5"/>
		</g>
		<g>
			
				<ellipse transform="matrix(0.9986 -5.296864e-02 5.296864e-02 0.9986 -18.5385 23.9577)" class="st33" cx="442.7" cy="361.7" rx="2.7" ry="2.7"/>
			<line class="st40" x1="442.4" y1="356.4" x2="442.4" y2="359.1"/>
		</g>
	</g>
	<g>
		<path class="st41" d="M130.5,414c0,0-0.1,0-0.3,0.1c-1,0.2-5.1,0.7-19.5,0.7c-7.3,0-13-0.3-16.8-1.1c-5.2-1.1-6.6-3.3-3.1-7.3
			c3.9-4.4,15.4-4.7,23.1-4.4c0,0,0,0,0,0c4.3,0.2,7.3,0.6,7.3,0.6L130.5,414L130.5,414z"/>
		<path class="st42" d="M194.6,289c0,0-0.8,9.9,3.8,14.1l-9.1-4.2C189.2,298.9,190.8,290.5,194.6,289z"/>
		<path class="st42" d="M203.7,370.6c0,0-0.8,18.3-3,24.4s-1.5,16.8-1.5,16.8s6.1-1.5,7.6,3l-14.5,0.4c0,0-3.8-11.8-3-14.9
			S203.7,370.6,203.7,370.6z"/>
		<path class="st41" d="M125.2,414.8c0,0,12.1,0.5,26.6,0.4c1.4,0,2.8,0,4.2-0.1c3.4-0.1,6.9-0.2,10.4-0.3c5.6-0.3,11.1-0.7,16-1.3
			c9.3-1.2,15.3-13.7,19.2-29.3c1.9-7.9,3.3-16.5,4.3-24.9c0.1-0.7,0.2-1.4,0.2-2c0.1-1.2,0.2-2.4,0.4-3.6
			c1.2-12.4,1.4-23.6,1.1-29.7c-0.8-19.1-15.3-27.4-27.4-29c-1.8-0.2-3.7-0.3-5.5-0.1c-16.6,1.3-32.8,17.6-34.1,44.3
			c-0.7,13.6-5.2,19.5-10.3,23.5c-1.8,1.4-3.7,2.6-5.6,3.8c-4.1,2.7-7.9,5.5-9.3,11.5C111.5,394.2,125.2,414.8,125.2,414.8z"/>
		<path class="st43" d="M174.6,295c-6.8,2.2-17,4.3-24.6,19.6c-8.6,17.1-4.6,45.7-19.8,48.3c5.1-4,9.6-9.9,10.3-23.5
			C141.8,312.6,158,296.3,174.6,295z"/>
		<path class="st44" d="M206,357.3c-2.7,25.4-9.3,54.3-23.7,56.1c-7.9,1-17.4,1.5-26.4,1.7l-0.7-16.7
			C187.2,403.5,200.6,376.2,206,357.3z"/>
		<path class="st42" d="M201.5,384.2c-3.9,15.5-9.9,28.1-19.2,29.3c-4.9,0.6-10.4,1-16,1.3l-3.7-3.7
			C185,411.4,196.1,396.7,201.5,384.2z"/>
		<path class="st41" d="M171.5,414.2c0.6-7.4-10.5-5.1-10.5-5.1c10.7-15.6,1.5-33.2,1.5-33.2l-15.6-0.4l7.2,39.6L171.5,414.2z"/>
		<path class="st41" d="M186.9,390.4l-4.6,21.3c0,0,7.6-3.8,9.1,3l-16.8,1l-1.5-20.8C173.2,395,174.7,383.5,186.9,390.4z"/>
		<path class="st45" d="M162.5,375.9c0,0,9.1,17.5-1.5,33.2c0,0,11.1-2.3,10.5,5.1"/>
		<path class="st42" d="M162.5,290.5c0,0,3,4.6,6.9,6.1l-4.6,2.3C164.8,298.9,161,297.4,162.5,290.5z"/>
		<path class="st41" d="M162.5,290.5c0,0-5,8-4.2,13.3l8.4-3C166.7,300.8,162.5,295.1,162.5,290.5z"/>
		<path class="st44" d="M161.4,309.2c0,0,2.3-6.9,9.1-6.1c6.9,0.8,8.4,5.3,19.1,0.8c10.7-4.6,14.5,6.6,15.2,9.4
			c0.8,2.8-1.9,13.4-10.7,10.4c-6.9-2.3-6.1-6.9-17.5,0.8C167.1,330.8,154.5,317.6,161.4,309.2z"/>
		<path class="st41" d="M194.6,289c0,0-7.6,2.8-8.3,7.6c0,0.2-0.1,0.5-0.1,0.8c0,5.3,6.1,3,6.1,3S190,295.9,194.6,289z"/>
		<ellipse class="st46" cx="170.6" cy="314.5" rx="8.8" ry="9.5"/>
		
			<ellipse transform="matrix(0.9953 -9.729116e-02 9.729116e-02 0.9953 -29.5623 20.528)" class="st46" cx="195.7" cy="313.4" rx="7.2" ry="9.1"/>
		<circle class="st47" cx="175.1" cy="310.6" r="1.9"/>
		<circle class="st47" cx="198.8" cy="308.4" r="1.9"/>
		<path class="st48" d="M183.9,322.5c0,0,3.8-1.5,5.3,0s-2.3,3-2.3,3S183.1,324.8,183.9,322.5z"/>
		<polyline class="st49" points="185.4,327.9 186.9,325.6 189.2,327.9 		"/>
		<path class="st42" d="M130.5,414l-0.2,0.1c-1,0.2-5.1,0.7-19.5,0.7c-7.3,0-13-0.3-16.8-1.1c5.9,0.2,25.6,0.5,26.3-4.6
			c0.4-2.9-2.8-5.4-6.2-7.1c4.3,0.2,7.3,0.6,7.3,0.6L130.5,414z"/>
		<path class="st44" d="M160.7,350.8c0.8,2.5,0.8,6.8,0.8,6.8c7.6,9.3,20.3-3.4,20.3-3.4c6.8,5.1,10.2-0.8,10.2-0.8
			c6,4.5,10.9,5.8,13.8,6c0.1-0.7,0.2-1.4,0.2-2c0.1-1.2,0.2-2.4,0.4-3.6l-2.5-5.5c0,0-37.2-4.2-40.6-5.1
			C159.8,342.3,159.8,348.2,160.7,350.8z"/>
		<path class="st44" d="M151.8,415.2c-14.5,0.1-26.6-0.4-26.6-0.4s-13.7-20.6-9.9-36.6c1.4-6,5.1-8.8,9.3-11.5
			c-1.6,7.3-3.3,19.8,1.4,24.5c6.9,6.9,9.9-7.6,17.5,5.3C149.1,406,145.7,412.6,151.8,415.2z"/>
		<g>
			<path class="st50" d="M192.1,326c0,0,4.9-2.8,6.4-2.4c3.3,1,17.1-3.8,22.4-6.1"/>
			<path class="st50" d="M193.3,329.2c0,0,3.2-1.2,7.5-1.3c4.3-0.1,9.6-1.4,9.6-1.4"/>
			<path class="st50" d="M194.1,331.7c0,0,6.8,0.5,12.2,0.3c5.4-0.2,15.1,1.7,20.5,1.5"/>
			<path class="st50" d="M179.3,328.6c0,0-3.3-2-6.5-0.9c-3.2,1.2-6.5-0.9-10.8-0.7c-4.3,0.1-15.1-2.7-15.1-2.7"/>
			<path class="st50" d="M178.3,330.8c0,0-6.5-0.9-9.7,0.3c-3.2,1.2-6.4,0.2-6.4,0.2"/>
			<path class="st50" d="M177.3,334c0,0-6.4,1.3-12.9,1.5c-6.4,0.2-12.7,4.7-20.3,3.9"/>
		</g>
		<g>
			<path class="st48" d="M162.7,354.7c-0.8,5.9,7.2,6.3,14.7,1.6c1.9-1.2,3.7-2.6,5.4-4.4c8.5-9-0.5-5.4-0.5-5.4s-10.6-5.7-16.4-5.4
				c-1.6,0.1-2.8,0.6-3.4,1.8C159.6,348.6,163.3,350.7,162.7,354.7z"/>
			
				<ellipse transform="matrix(2.396984e-02 -0.9997 0.9997 2.396984e-02 -166.854 526.2443)" class="st51" cx="186.1" cy="348.6" rx="5.6" ry="5.1"/>
			<path class="st48" d="M190.1,350.5c0.4,0.3,0.8,0.7,1.3,1c9.1,6.8,21,6.6,20.5,0.9c0-0.3-0.1-0.7-0.2-1c-1.1-3.6,2.3-6-1.4-10.9
				c-3.6-4.9-19.2,6-19.2,6S182.7,344.5,190.1,350.5z"/>
			<path class="st51" d="M190.1,350.5c0.4,0.3,0.8,0.7,1.3,1c9.1,6.8,21,6.6,20.5,0.9c-2.9,2.1-10.9,5.9-20.7-5.7L190.1,350.5z"/>
			<path class="st48" d="M181.8,348.5c-0.1,3.1,2.1,5.6,4.9,5.7c2.8,0.1,5.1-2.4,5.2-5.5c0-0.5,0-0.9-0.1-1.3
				c-0.2-0.9-0.5-1.7-1-2.4c-0.9-1.2-2.2-2-3.8-2c-1.5,0-2.9,0.7-3.9,1.8c-0.7,0.8-1.2,1.9-1.3,3.1
				C181.9,348.1,181.9,348.3,181.8,348.5z"/>
			<path class="st51" d="M162.7,354.7c-0.8,5.9,7.2,6.3,14.7,1.6c-6.9,2.9-11.1,1.1-11-1.7c0.1-3.4,0.1-3.4-1.5-7.7
				c-1-2.8,0-4.8,0.9-5.8c-1.6,0.1-2.8,0.6-3.4,1.8C159.6,348.6,163.3,350.7,162.7,354.7z"/>
			
				<ellipse transform="matrix(2.396984e-02 -0.9997 0.9997 2.396984e-02 -142.039 543.5372)" class="st1" cx="207.3" cy="344.5" rx="1.7" ry="1.7"/>
			
				<ellipse transform="matrix(2.396984e-02 -0.9997 0.9997 2.396984e-02 -151.3816 547.3848)" class="st1" cx="204.6" cy="351.2" rx="1.7" ry="1.7"/>
			
				<ellipse transform="matrix(2.396984e-02 -0.9997 0.9997 2.396984e-02 -152.6922 537.2968)" class="st1" cx="198.8" cy="346.8" rx="1.7" ry="1.7"/>
			
				<ellipse transform="matrix(2.396984e-02 -0.9997 0.9997 2.396984e-02 -187.0686 515.9782)" class="st1" cx="170.7" cy="353.8" rx="1.7" ry="1.7"/>
			
				<ellipse transform="matrix(2.396984e-02 -0.9997 0.9997 2.396984e-02 -180.0827 507.862)" class="st1" cx="170.1" cy="346.2" rx="1.7" ry="1.7"/>
			
				<ellipse transform="matrix(2.396984e-02 -0.9997 0.9997 2.396984e-02 -177.1007 518.0103)" class="st1" cx="176.7" cy="349.7" rx="1.7" ry="1.7"/>
			
				<ellipse transform="matrix(2.396984e-02 -0.9997 0.9997 2.396984e-02 -168.2992 529.2046)" class="st1" cx="186.9" cy="350.8" rx="1.7" ry="1.7"/>
			<path class="st1" d="M181.9,347.9c0.2,0.1,0.5,0.2,0.8,0.2c0.9,0,1.7-0.7,1.7-1.7c0-0.8-0.5-1.5-1.2-1.7
				C182.5,345.7,182,346.7,181.9,347.9z"/>
			<path class="st1" d="M188.7,346.6c0,0.9,0.7,1.7,1.7,1.7c0.7,0,1.3-0.4,1.6-1c-0.2-0.9-0.5-1.7-1-2.4c-0.1,0-0.3-0.1-0.4-0.1
				C189.5,344.9,188.7,345.7,188.7,346.6z"/>
		</g>
	</g>
	<polyline class="st52" points="532,415.4 439.7,415.4 340.4,415.4 331.3,415.4 307.6,415.4 298.5,415.4 272.9,415.4 263.8,415.4 
		245.3,415.4 236.1,415.4 153.8,415.4 88,415.4 	"/>
</g>
</svg>
