<?xml version="1.0" encoding="utf-8"?>
<!-- Generator: Adobe Illustrator 21.1.0, SVG Export Plug-In . SVG Version: 6.00 Build 0)  -->
<svg version="1.1" id="Слой_2" xmlns="http://www.w3.org/2000/svg" xmlns:xlink="http://www.w3.org/1999/xlink" x="0px" y="0px"
	 viewBox="0 0 800 600" style="enable-background:new 0 0 800 600;" xml:space="preserve">
<style type="text/css">
	.st0{fill:#EEF7FF;}
	.st1{fill:#A9CAFF;}
	.st2{fill:#D3C7A9;}
	.st3{fill:#D47613;}
	.st4{fill:#B6A674;}
	.st5{fill:#070506;}
	.st6{fill:#FAD825;}
	.st7{fill:#FEB801;}
	.st8{fill:#3B3B3B;}
	.st9{fill:#010000;}
	.st10{fill:#FDF7E1;}
	.st11{fill:#CACAC9;}
	.st12{fill:#FCB502;}
	.st13{fill:#EF9C07;}
	.st14{fill:none;stroke:#F19500;stroke-width:0.9151;stroke-miterlimit:10;}
	.st15{fill:none;stroke:#F19500;stroke-width:0.7817;stroke-miterlimit:10;}
	.st16{fill:#F7D58E;}
	.st17{fill:#FBDC01;}
	.st18{fill:#FCB000;}
	.st19{fill:#C92400;}
	.st20{fill:#060501;}
	.st21{fill:#F4E0B2;}
	.st22{fill:#000002;}
	.st23{fill:#021385;}
	.st24{fill:#FED2C9;}
	.st25{fill:#FBCEC3;}
	.st26{fill:none;stroke:#EA7C64;stroke-width:0.9151;stroke-linecap:round;stroke-miterlimit:10;}
	.st27{fill:#FDB7A8;}
	.st28{fill:#C44F38;}
	.st29{fill:#F97255;}
	.st30{fill:none;stroke:#D32503;stroke-width:0.9151;stroke-linecap:round;stroke-miterlimit:10;}
	.st31{fill:#F9B305;}
	.st32{fill:#FA9C01;}
	.st33{fill:#E25206;}
	.st34{fill:#F09E00;}
	.st35{fill:#4D71FB;}
	.st36{fill:#F38D09;}
	.st37{fill:#FD8A01;}
	.st38{fill:#3A57F8;}
	.st39{fill:none;stroke:#F1FAFF;stroke-width:1.8303;stroke-miterlimit:10;}
	.st40{fill:#FFFFFF;}
	.st41{fill:#E8C874;}
	.st42{fill:#EF5E45;}
	.st43{fill:#F87254;}
	.st44{fill:#FFCFC9;}
	.st45{fill:#E53913;}
	.st46{fill:#FEB800;}
	.st47{fill:#F9B504;}
	.st48{fill:#FBE146;}
	.st49{fill:#F4C917;}
	.st50{fill:none;stroke:#F5CF2B;stroke-width:1.8303;stroke-linecap:round;stroke-miterlimit:10;}
	.st51{fill:#FAE1B0;}
	.st52{fill:#D72C05;}
	.st53{fill:none;stroke:#C92500;stroke-width:0.9151;stroke-linecap:round;stroke-miterlimit:10;}
	.st54{fill:#E75231;}
	.st55{fill:#FD6964;}
	.st56{fill:none;stroke:#FCB502;stroke-width:3.6605;stroke-linecap:round;stroke-miterlimit:10;}
	.st57{fill:none;stroke:#FCB502;stroke-width:1.8303;stroke-linecap:round;stroke-miterlimit:10;}
	.st58{fill:none;stroke:#F7C819;stroke-width:9.1514;stroke-linecap:round;stroke-miterlimit:10;}
	.st59{fill:#FDFEF8;}
	.st60{fill:none;stroke:#FA9C01;stroke-width:1.8303;stroke-linecap:round;stroke-linejoin:round;stroke-miterlimit:10;}
	.st61{fill:#FF7900;}
	.st62{fill:#FE7903;}
	.st63{fill:#3F0C0D;}
	.st64{fill:#A01F02;}
	.st65{fill:#F4C33F;}
	.st66{fill:none;stroke:#F1FAFF;stroke-width:1.8303;stroke-linecap:round;stroke-miterlimit:10;}
	.st67{fill:#F67054;}
	.st68{fill:#DA320B;}
	.st69{fill:#A11C05;}
	.st70{fill:#DE4120;}
	.st71{fill:#E8421F;}
	.st72{fill:none;stroke:#D4AD61;stroke-width:0.9151;stroke-miterlimit:10;}
	.st73{fill:#FECA46;}
	.st74{fill:none;stroke:#FFDA71;stroke-width:0.9151;stroke-linecap:round;stroke-miterlimit:10;}
	.st75{fill:none;stroke:#F29586;stroke-width:0.9151;stroke-linecap:round;stroke-miterlimit:10;}
	.st76{fill:#3D1714;}
	.st77{fill:#2B1B12;}
	.st78{fill:#EFE8D5;}
	.st79{fill:#F8C902;}
	.st80{fill:#D4C9AB;}
	.st81{fill:none;stroke:#FFFFFF;stroke-width:0.4795;stroke-linecap:round;stroke-miterlimit:10;}
	.st82{fill:none;stroke:#FFFFFF;stroke-width:0.4795;stroke-linecap:round;stroke-linejoin:round;stroke-miterlimit:10;}
	.st83{fill:none;stroke:#492000;stroke-width:0.9151;stroke-miterlimit:10;}
	.st84{fill:#5D75C9;}
	.st85{fill:#492000;}
	.st86{fill:#8FB4EA;}
	.st87{fill:none;stroke:#4D71FB;stroke-width:4.5757;stroke-linecap:round;stroke-miterlimit:10;}
</style>
<path class="st0" d="M615.3,513H157.7l1-2.8c0,0,37.5-72-2.7-171.1c-50.5-124.3-6.4-194.4,145.5-188.8
	c176.5,6.5,213.2-115.9,337.7-5.6C754.1,246.6,627.7,476.1,615.3,513z"/>
<path class="st1" d="M688.5,512.1c0,0-21,3.7-47.6-0.9c0,0-14.6,4.6-65.9,0c0,0,25.6-21,48.5-21c0,0-6.4-23.8,20.1-27.5
	c0,0,10.9-15.5,23.6-11.2c4.2,1.4,8.6,5,13,12.1l0,0c0.7-0.5,18.2-11.2,29.2-1.1c2.6,2.4,4.9,6,6.5,11.2
	C716,473.7,728.8,518.5,688.5,512.1z"/>
<path class="st2" d="M533.3,145.5c-6.4,4.6-15.5,8.3-28.2,9.9c-4.8,0.6-10.1,0.9-15.9,0.8c-0.4,0-0.7,0-1.1,0l1-1l19.5-18.7
	c0,0,3.1-2,6.9-6.9c0.7-0.8,1.3-1.7,2-2.7c0.7-1,1.3-2,2-3.1c5.5-9.2,15.4-13.3,22-9.2C548,118.5,548.5,134.5,533.3,145.5z"/>
<path class="st3" d="M357.7,293.9c0,0-4.6,9.2,0,30.2l4.6-2.7l-0.9-24.7L357.7,293.9z"/>
<path class="st4" d="M505.1,155.4c-4.8,0.6-10.1,0.9-15.9,0.8c0-0.3,0-0.7,0-1l19.5-18.7c0,0,3.1-2,6.9-6.9
	C516.4,135,516.7,147.5,505.1,155.4z"/>
<path class="st5" d="M357.7,469.1c0,15.7-8.8,29.4-21.8,36.8c-6.5,3.7-14.1,5.8-22.1,5.8c-24.3,0-43.9-19.1-43.9-42.6
	c0-5.8,1.2-11.4,3.4-16.4c1.4-3.1,3.1-6.1,5.1-8.8c8-10.5,20.9-17.4,35.4-17.4c1,0,2,0,3,0.1c7.5,0.5,14.5,2.8,20.5,6.5
	c11.5,7.1,19.4,19.2,20.3,33.1C357.7,467.2,357.7,468.2,357.7,469.1z"/>
<path class="st6" d="M359.5,300.3c0,0-3.4,2.4-3.5,9s3.5,9.3,3.5,9.3V300.3z"/>
<path class="st7" d="M366.8,293.9h-9.2c0,0,2.7,24.7,0,30.2h9.2l10.1-11.9L366.8,293.9z"/>
<path class="st8" d="M335.9,505.9c-6.5,3.7-14.1,5.8-22.1,5.8c-24.3,0-43.9-19.1-43.9-42.6c0-5.8,1.2-11.4,3.4-16.4
	c1.4-3.1,3.1-6.1,5.1-8.8c-4.2,10-10.1,30.9,3.8,49C303.2,520.4,329.8,507.7,335.9,505.9z"/>
<path class="st9" d="M357.6,466.3c-43.1-29.8-75.4-17.9-84.4-13.6c6.6-15.3,22.3-26.1,40.5-26.1c1,0,2,0,3,0.1l20.5,6.5
	C348.8,440.2,356.7,452.3,357.6,466.3z"/>
<path class="st10" d="M351.3,470.9c0,20-16.3,36.1-36.5,36.1c-20.2,0-36.5-16.2-36.5-36.1c0-8.6,3-16.5,8.1-22.7
	c6.7-8.2,16.9-13.5,28.4-13.5c16.8,0,31,11.3,35.2,26.6C350.8,464.4,351.3,467.6,351.3,470.9z"/>
<path class="st11" d="M350,461.4c-27.3-16.3-49.7-16.1-63.6-13.1c6.7-8.2,16.9-13.5,28.4-13.5C331.6,434.8,345.8,446.1,350,461.4z"
	/>
<path class="st12" d="M343,471.4c0,15.2-12.6,27.5-28.2,27.5s-28.2-12.3-28.2-27.5c0-10.9,6.5-20.3,15.9-24.7
	c3.7-1.8,7.9-2.7,12.3-2.7c9.1,0,17.2,4.2,22.4,10.8C340.8,459.3,343,465.1,343,471.4z"/>
<path class="st13" d="M337.2,454.7c-13.2-5.8-24.9-7.9-34.6-8c3.7-1.8,7.9-2.7,12.3-2.7C323.9,444,332,448.2,337.2,454.7z"/>
<g>
	<circle class="st14" cx="314.2" cy="470.9" r="22"/>
	<circle class="st15" cx="314.2" cy="470.9" r="18.8"/>
	<circle class="st14" cx="314.2" cy="470.9" r="10.5"/>
	<line class="st14" x1="303.7" y1="467.7" x2="296.5" y2="466.2"/>
	<line class="st14" x1="304.5" y1="475.5" x2="298.1" y2="480.3"/>
	<line class="st14" x1="311.2" y1="481" x2="308" y2="488.6"/>
	<line class="st14" x1="319.4" y1="480.1" x2="324.6" y2="486.2"/>
	<line class="st14" x1="324.8" y1="474.2" x2="331.9" y2="476"/>
	<line class="st14" x1="324" y1="466.2" x2="331.3" y2="463.6"/>
	<line class="st14" x1="317.6" y1="460.7" x2="320.8" y2="453.6"/>
</g>
<polygon class="st16" points="324.8,438.5 324.6,438.8 313.9,462.8 313.8,463.2 307.4,457.7 316.5,436.6 "/>
<path class="st17" d="M344.4,385.8c0,0-10.5,0.5-12.4,17.8C332.1,403.7,345.3,406.9,344.4,385.8z"/>
<path class="st18" d="M284.5,414.7c0,0,0-10.1,10.1-13.7c10.1-3.7,30.2,3.7,30.2,3.7L284.5,414.7z"/>
<polygon class="st19" points="598.4,411 621.3,411 626.7,418.3 626.7,429.3 607.5,429.3 "/>
<ellipse class="st20" cx="562.2" cy="470.5" rx="41.9" ry="41.2"/>
<path class="st10" d="M598.5,470.5c0,19.7-16.2,35.7-36.3,35.7c-20,0-36.3-16-36.3-35.7c0-2.8,0.3-5.4,0.9-8
	c0.6-2.7,1.6-5.3,2.8-7.7c5.9-11.8,18.3-19.9,32.6-19.9c15.7,0,29.1,9.9,34.2,23.7c0.8,2.2,1.4,4.5,1.7,6.8
	C598.4,467,598.5,468.7,598.5,470.5z"/>
<path class="st12" d="M590.1,470.5c0,15.2-12.5,27.5-27.9,27.5c-15.4,0-27.9-12.3-27.9-27.5c0-2.9,0.4-5.6,1.3-8.2
	c0.8-2.5,2-4.9,3.4-7c5-7.4,13.5-12.2,23.2-12.2c10.8,0,20.2,6,24.8,14.9c1,1.9,1.8,3.9,2.3,6.1
	C589.9,466.1,590.1,468.3,590.1,470.5z"/>
<g>
	<circle class="st14" cx="561.3" cy="470" r="22"/>
	<circle class="st15" cx="561.3" cy="470" r="18.8"/>
	<circle class="st14" cx="561.3" cy="470" r="10.5"/>
	<line class="st14" x1="550.8" y1="466.8" x2="543.6" y2="465.3"/>
	<line class="st14" x1="551.6" y1="474.6" x2="545.1" y2="479.3"/>
	<line class="st14" x1="558.3" y1="480.1" x2="555.1" y2="487.7"/>
	<line class="st14" x1="566.5" y1="479.2" x2="571.7" y2="485.3"/>
	<line class="st14" x1="571.8" y1="473.2" x2="579" y2="475.1"/>
	<line class="st14" x1="571.1" y1="465.3" x2="578.4" y2="462.7"/>
	<line class="st14" x1="564.7" y1="459.8" x2="567.9" y2="452.6"/>
</g>
<path class="st13" d="M578.7,460.9c-2.9,8.7-11.5,15.1-21.7,15.1c-10.4,0-19.2-6.7-21.9-15.8c0.7,0,1.5,0,2.4-0.1
	C547.3,459.9,563.4,459.8,578.7,460.9z"/>
<path class="st21" d="M575.4,462.9c-2.8,6.5-11.1,11.3-20.9,11.3c-10.1,0-18.5-5-21.1-11.8c0.7,0,1.5,0,2.3,0
	C545.1,462.1,560.6,462,575.4,462.9z"/>
<path class="st21" d="M539,455.3l-6.1-0.3c1.9-7.5,10.8-13.3,21.6-13.3c11.9,0,21.5,7,21.9,15.7L539,455.3z"/>
<path class="st11" d="M598.1,465.3c-23.9-4.3-67.1-2.9-71.3-2.8c0.6-2.7,1.6-5.3,2.8-7.7l66.7,3.7
	C597.2,460.6,597.8,462.9,598.1,465.3z"/>
<path class="st11" d="M532.5,457.9c0,1.5,0.3,3,0.8,4.4c-3.3,0.1-5.6,0.1-6.4,0.2c0.6-2.7,1.6-5.3,2.8-7.7l3.2,0.2
	C532.6,455.9,532.5,456.9,532.5,457.9z"/>
<path class="st13" d="M575.4,462.9c0.7-1.6,1.1-3.2,1.1-5c0-0.2,0-0.4,0-0.6l10.7,0.6c1,1.9,1.8,3.9,2.3,6.1
	C584.9,463.5,580.2,463.2,575.4,462.9z"/>
<path class="st22" d="M462.9,468.7c0,0-4.6,6.4,0,10.1c4.6,3.7,54,16.5,60.4,0.9c6.4-15.6,4.6-27.5,4.6-27.5L462.9,468.7z"/>
<path class="st23" d="M381.5,325c0,0-18.3,21,43.9,107.1l-20.1,13.7l33.9,2.7l12.8-11.9L381.5,325z"/>
<path class="st24" d="M387.8,191c-2.2,2.4-4.6,3.8-6,4.5c-0.7,0.3-1.2,0.5-1.2,0.5c-0.2-0.3-0.3-0.6-0.5-0.8
	c-0.4-0.8-0.9-1.5-1.3-2.1c-8.8-13.4-18.9-12.6-26.6-12.6h-0.1c-8.2-0.1-8.2-13.7-9.1-16.5c-0.1-0.4-0.4-0.9-0.8-1.2
	c-2-2-6.5-3.3-6.5-3.3c1.9-1,3.4-2.2,4.6-3.4c3.6-3.6,4.9-7.9,5.3-11.1c0.4-2.8,0.1-4.7,0.1-4.7c10.1-6.4,16.5,2.7,22.9,15.6
	c0.1,0.2,0.2,0.5,0.4,0.7c6.6,12.2,21.6,14,21.6,14c0.8,2.5,1.2,4.7,1.4,6.8C392.6,183.6,390.4,188,387.8,191z"/>
<path class="st25" d="M382,163c-1.6,1.3-3.5,2-5.1,2c0,0-6.1-1.4-7.6-8.5c0,0,10.1-10.5,14.3-5.4c0.2,0.3,0.5,0.6,0.6,1
	C386.6,156.7,384.8,160.7,382,163z"/>
<path class="st26" d="M374.2,159.3c0,0,2.7-2.7,5.5-1.8"/>
<path class="st27" d="M369,156.4c-0.5,0.8-1.1,1.6-2,2.3c-8.5,7.1-9.8-9.8-9.8-9.8c-4.6,1.8-8.2-3.7-8.2-3.7c-1.4,0-2.5-0.1-3.3-0.3
	c0.4-2.8,0.1-4.7,0.1-4.7c10.1-6.4,16.5,2.7,22.9,15.6C368.8,155.9,368.9,156.1,369,156.4z"/>
<path class="st27" d="M382,163c3.8-5.4,0.8-12.4,0.8-12.4l0.7,0.4c0.2,0.3,0.5,0.6,0.6,1C386.6,156.7,384.8,160.7,382,163z"/>
<path class="st27" d="M380.6,195.9c-9.2-16.5-20.1-15.6-28.4-15.6h-0.1l-0.4-0.5c0,0,23.8-8.2,38.4-3.7c0.7,0.2,1.3,0.5,1.9,0.8
	C393.2,191.7,380.6,195.9,380.6,195.9z"/>
<path class="st27" d="M376.5,152.5c0,0-9.2,7.3,0.9,12.8c0,0-11,0-11.9-10.1C364.6,145.2,376.5,152.5,376.5,152.5z"/>
<path class="st28" d="M378.8,193c2.9-3.3,9.3-11.1,11.4-16.7c1.9-5.2-0.7,7.1-2.4,14.7c-2.2,2.4-4.6,3.8-6,4.5l-1.6-0.3L378.8,193z"
	/>
<path class="st26" d="M344.4,170.6c0,0,1.4,0.6,3.2-0.3"/>
<path class="st29" d="M347.6,131.9c0,0-8.2-1.8-7.3,5.5c0.9,7.3,9.2,4.6,9.2,4.6s2.7,7.3,10.1,2.7c0,0-1.8,8.2,4.6,7.3
	c0,0-2.7,11.9,5.5,4.6c8.2-7.3,21-0.9,14.6-9.2c0,0,7.3-1.8,6.4-8.2c-0.9-6.4-7.3-4.6-7.3-4.6s9.2-3.7,2.7-11.9s-11-1.8-11-1.8
	s1.8-7.3-9.2-6.4s-7.3,7.3-7.3,7.3s-5.5-5.5-10.1-0.9C344,125.5,345.8,130.1,347.6,131.9z"/>
<g>
	<path class="st30" d="M353.1,116.3c0,0,2.7,0.9,4.6-1.8"/>
	<path class="st30" d="M369.6,130.1c0,0,6.4,0,3.7,8.2"/>
	<path class="st30" d="M384.2,140.1c0,0,0.9,3.7-2.7,3.7"/>
	<path class="st30" d="M352.2,134.6c0,0-1.8,7.3,4.6,5.5"/>
</g>
<path class="st31" d="M624.9,282.9l-37.1-0.9l-119.4-2.8l-41.2-1c0,0-17.1,1.8-29.4-23.3c-0.3-0.5-0.5-1.1-0.8-1.7
	c-4.9-10.6-8.8-25.6-10.5-46.9l16.9-36.1c0,0,52.1-34.5,129.8-1.9c0.6,0.2,1.1,0.5,1.7,0.7c2.8,1.2,5.7,2.5,8.5,3.9
	c2.4,1.2,4.8,2.4,7,3.6c0.5,0.3,1.1,0.6,1.6,0.9c0.5,0.3,1,0.6,1.6,0.9l1.5,0.9c6.9,4,13.2,8.1,18.8,12.4c0.5,0.4,1,0.8,1.4,1.1
	c0.7,0.5,1.3,1.1,2,1.6c0.5,0.4,1,0.8,1.4,1.2C604.6,217,616,241,621,258.4c2.1,7.4,3.1,13.7,3.6,18
	C625,280.5,624.9,282.9,624.9,282.9z"/>
<path class="st32" d="M432.3,250.4c0,0,10.1,23.8-0.9,27.5L457,276l-8.2-20.1L432.3,250.4z"/>
<path class="st33" d="M424,242.2c0,0,38.7,29,25.3,36.9l22.3,3.4l1.8-18.3L424,242.2z"/>
<path class="st34" d="M395.7,196.9c0,0,3.7-26.1,41.2-29.7c37.5-3.7,83.2,23,83.2,23L395.7,196.9z"/>
<path class="st35" d="M624,291.1c0,0,0,0.6-0.2,1.7c-0.2,1.4-0.6,3.6-1.3,6.3c-4,15.4-18.3,48-69,54.2c-66.8,8.2-102.5,0-102.5,0
	s-14.6,10.1,8.2,71.4l-3.9,0.9l-17.1,3.7c0,0-78.1-70-53.2-122c5.1-10.7,14.3-19,25.1-23.8c8.1-3.6,19.9-7.3,35.6-8.5
	c8.1-0.6,17.2-0.6,27.3,0.5c3.7,0.4,7.7,0.8,11.9,1.3c22.6,2.4,51.1,5.3,76.4,7.9C595.6,288.3,624,291.1,624,291.1z"/>
<g>
	<path class="st36" d="M412.4,239.8c-4.6,10.1-10.6,13.9-14.5,15.3c-0.3-0.5-0.5-1.1-0.8-1.7c1.4-0.5,3.1-1.3,4.9-2.7
		c0.5-0.3,1-0.8,1.4-1.2c2.5-2.2,5.1-5.5,7.3-10.5c0.2-0.5,0.8-0.7,1.2-0.5C412.4,238.8,412.6,239.3,412.4,239.8z"/>
	<path class="st36" d="M403,251.3c-0.2,0-0.4-0.1-0.6-0.2c-8.4-6.6-12.1-30.7-12.2-31.7c-0.1-0.5,0.3-1,0.8-1c0.5-0.1,1,0.3,1,0.8
		c0,0.2,3.7,24.4,11.6,30.5c0.4,0.3,0.5,0.9,0.2,1.3C403.5,251.2,403.3,251.3,403,251.3z"/>
	<path class="st36" d="M406.7,255.9c-0.4,0-0.8-0.3-0.9-0.7c-0.1-0.5,0.2-1,0.7-1.1c3.4-0.7,9.3-8.5,11.3-11.5
		c0.3-0.4,0.8-0.5,1.3-0.3c0.4,0.3,0.5,0.8,0.3,1.3c-0.8,1.2-7.7,11.3-12.5,12.3C406.8,255.9,406.7,255.9,406.7,255.9z"/>
	<path class="st36" d="M437.8,276c-0.4,0-0.7-0.2-0.9-0.6c0-0.1-4.5-13.3-11.3-15.9c-7.5-2.8-12.1-8.9-12.3-9.2
		c-0.3-0.4-0.2-1,0.2-1.3c0.4-0.3,1-0.2,1.3,0.2c0,0.1,4.5,5.9,11.5,8.5c7.6,2.9,12.3,16.5,12.4,17c0.2,0.5-0.1,1-0.6,1.2
		C438,276,437.9,276,437.8,276z"/>
</g>
<path class="st37" d="M624.5,276.4l-52.3-2.2l13.7-18.9c0,0,19.9,10.1,35,3.1C623.1,265.8,624.1,272.1,624.5,276.4z"/>
<path class="st38" d="M623.8,292.8c-0.2,1.4-0.6,3.6-1.3,6.3c-4,15.4-18.3,48-69,54.2c-66.8,8.2-102.5,0-102.5,0
	s-14.6,10.1,8.2,71.4l-3.9,0.9c-43.2-86.4-5.7-84.6-5.7-84.6c150.1,5.5,166.6-45.8,166.6-45.8L623.8,292.8z"/>
<g>
	<path class="st39" d="M433.7,322.2c0,0-44.8,4.6,15.6,105.2"/>
	<circle class="st40" cx="418.1" cy="340.5" r="4.6"/>
	<circle class="st40" cx="424" cy="377.6" r="4.1"/>
</g>
<path class="st38" d="M495.4,293.4L390.2,314c5.4-19.8,38.4-33.2,55.5-38.9c8.1-0.6,17.2-0.6,27.3,0.5c3.7,0.4,7.7,0.8,11.9,1.3
	L495.4,293.4z"/>
<path class="st41" d="M324.6,438.8l-10.7,24l-4.9-4.1c6.3-0.8,13.9-20.3,13.9-20.3L324.6,438.8z"/>
<path class="st29" d="M624.9,462.3c0,0-0.2,0-0.5,0c-0.8,0-2.8-0.1-5.5-0.2c-0.9,0-1.9-0.1-3-0.1c-26.4-1-102.4-3.4-110,0.3
	l-3.2,8.7l-100.2-0.5c0,0-18.3-3.7-25.6-20.1c-7.3-16.5-43.9-45.8-43.9-45.8s9.4-7.7,10.9-18.1c0.1-0.5,0.6-0.8,1.1-0.7
	c0.9,0.3,2.5,0.3,4.4-1.5c0.2-0.2,0.4-0.4,0.6-0.7c0.9-1.1,1.9-2.6,2.8-4.8c0.1-0.3,0.2-0.6,0.4-0.9c0,0,0,0,0,0
	c4.6-11,16.5-31.1,16.5-31.1s0.4-3.9,2-7.9c1.1-2.8,3-5.2,5.5-6.8c2.6-1.7,5.5-5.1-5.7-9l-4.1,0.5c0,0,2.4-9.4,0.5-25.4
	c-0.1-1.3-0.3-2.5-0.5-3.9c0,0,5.9-2.3,11.4,2.3s10.1,12.8,17.4,12.8l-2.7,20.1c0,0-25.6,39.4-22.9,65.9c2.1,20,15.6,36.9,22.1,44
	c0.5,0.5,1,1,1.5,1.5c2,1.8,4.2,3.2,6.7,4.2c11.6,4.6,42.5,14.1,68.5-2c33.9-21-1-54-11.9-59.5c-1.5-0.8-3.9-3.1-4.6-5.2
	c-0.4-1.2-0.3-2.3,0.8-3c0.4-0.2,0.9-0.4,1.6-0.5c2-0.3,5.3,0,10.5,1.4c20.1,5.5,111.6,2.7,111.6,2.7s-3.7,1.9-1.9,6.6
	c0.5,1.2,1.4,2.7,2.8,4.4c0.7,0.9,1.6,1.8,2.7,2.7c5.5,5,15.7,12.8,25,24.1c0,0,0.1,0.1,0.1,0.1c7.1,8.7,13.6,19.5,16.9,32.7
	c0,0.1,0,0.1,0,0.2C623.9,453.7,624.6,457.9,624.9,462.3z"/>
<path class="st38" d="M624,291.1c0,0-0.2,3.1-1.5,8c-6.3-1.3-21.7-3.3-33.8,5.3c-15.6,11-66.8,57.7-166.1,15.1l138.6-34.7
	C595.6,288.3,624,291.1,624,291.1z"/>
<g>
	<path class="st32" d="M534.9,169.2l-13.2,21.7l-0.8,1.4c-0.2,0.3-0.5,0.4-0.8,0.4c-0.2,0-0.3,0-0.5-0.1c-0.4-0.3-0.6-0.8-0.3-1.3
		l0.7-1.2l13.1-21.7C533.8,168.7,534.4,168.9,534.9,169.2z"/>
	<path class="st32" d="M552.1,177.5c0,0.1,0,0.1-0.1,0.2l-13.8,21.6l-0.2,0.3c-0.2,0.3-0.5,0.4-0.8,0.4c-0.2,0-0.3,0-0.5-0.1
		c-0.4-0.3-0.5-0.8-0.3-1.3l0.2-0.2l13.9-21.7c0,0,0,0,0,0C551,176.9,551.6,177.2,552.1,177.5z"/>
	<path class="st32" d="M555.2,179.2c0,0.1,0,0.2-0.1,0.3l-13.4,21.9l-0.1,0.1c-0.2,0.3-0.5,0.4-0.8,0.4c-0.2,0-0.3,0-0.5-0.1
		c-0.4-0.3-0.6-0.8-0.3-1.3l0-0.1l13.4-21.9c0-0.1,0.1-0.1,0.1-0.2L555.2,179.2z"/>
	<path class="st32" d="M575.4,192.8L558.8,213l-0.1,0.1c-0.2,0.2-0.4,0.3-0.7,0.3c-0.2,0-0.4-0.1-0.6-0.2c-0.4-0.3-0.4-0.9-0.1-1.3
		l0.1-0.1l16.7-20.3C574.5,192,575,192.4,575.4,192.8z"/>
	<path class="st32" d="M578.8,195.5l-7,8.8l-1.2,1.4l-7.2,9.1c-0.2,0.2-0.4,0.3-0.7,0.3c-0.2,0-0.4-0.1-0.6-0.2
		c-0.4-0.3-0.5-0.9-0.1-1.3l15.5-19.3C577.9,194.8,578.4,195.2,578.8,195.5z"/>
	<path class="st32" d="M606.8,273.3c-0.5,0-0.9-0.4-0.9-0.9c-1.6-36.3-35.4-66.8-35.7-67.1c-0.4-0.3-0.4-0.9-0.1-1.3
		c0.3-0.4,0.9-0.4,1.3-0.1c0.3,0.3,34.6,31.3,36.3,68.4C607.7,272.8,607.3,273.3,606.8,273.3C606.8,273.3,606.8,273.3,606.8,273.3z"
		/>
</g>
<path class="st42" d="M394.1,440.9l-0.3,1.7c-65-42.1-1.8-126.3-1.8-126.3s-10.1-9.2-14.6-13.7c-2.9-2.9-7-4-9.6-4.4
	c-0.1-1.3-0.3-2.5-0.5-3.9c0,0,5.9-2.3,11.4,2.3s10.1,12.8,17.4,12.8l-2.7,20.1c0,0-25.6,39.4-22.9,65.9c2.1,20,15.6,36.9,22.1,44
	C393.1,440,393.6,440.5,394.1,440.9z"/>
<path class="st42" d="M452.9,378.3c11.2,5.3,51.7,20.8,122.6,7.2c-1.9-4.7,1.9-6.6,1.9-6.6s-91.5,2.7-111.6-2.7
	c-5.2-1.4-8.5-1.7-10.5-1.4l-1.6,0.5L452.9,378.3z"/>
<polygon class="st43" points="629.5,274.7 628.1,289.3 627.7,293.9 581.9,288.4 587.4,270.1 594.8,270.9 "/>
<path class="st44" d="M413.3,317.8c-0.5,3-1.6,5.4-1.6,5.4s-5.5,8.2-11,10.1c-2.5,0.8-5.6,0.1-8.2-1.8c-3.1-2.2-5.5-6.1-5.5-11.1
	c0-9.2,15.6-13.7,15.6-13.7C413.6,305.5,414.3,312.5,413.3,317.8z"/>
<path class="st27" d="M413.3,317.8c-0.5,3-1.6,5.4-1.6,5.4s-5.5,8.2-11,10.1c-2.5,0.8-4.3-0.4-6.9-2.3c-1.2-2.7-2.7-5.1-0.9-8.2
	c6.4-11,17.5-6.1,17.5-6.1L413.3,317.8z"/>
<path class="st45" d="M628.1,289.3l-0.4,4.6l-45.8-5.5l5.5-18.3l7.4,0.8C593.8,275.3,593.3,289.5,628.1,289.3z"/>
<path class="st46" d="M590.1,266.4c0,1.2-0.1,2.4-0.2,3.6c-1.2,16.1-8.5,27.8-19,36.4c-26,21.1-71.5,22.1-90.7,19.6
	c-27.5-3.7-69.6-2.7-69.6-2.7c0.2-1.4,0.3-2.7,0.1-3.9c-0.9-8.4-9.3-12.6-9.3-12.6c11.1-8,35-7.7,51.2-13.4
	c7.8-2.7,13.8-6.9,15.6-14.1c4.6-18.4-51.8-26.5-70.2-50.2c-3.6-4.6-5.7-9.8-5.7-15.7c0-36.6,38.4-41.2,38.4-41.2
	c15.3-2.4,37.2,0.4,60,7.2c38.3,11.4,78.8,34.2,93.5,63.3c2.6,5.1,4.4,10.4,5.2,15.9C590,261.1,590.2,263.7,590.1,266.4z"/>
<path class="st47" d="M438.2,429.3l21-4.6l8.2,21c0,0-35.7,6.4-47.6,2.7l25.6-11L438.2,429.3z"/>
<path class="st48" d="M580.1,382.6c0,0-96.4,8-127-7.7c-0.8-0.4-1.6-0.9-2.3-1.3c-1.6-1-2.9-2.1-4-3.2c-2.9-3.1-3.8-6.9-2.1-11.5
	c9.7-26.4,134.5-4.6,134.5-4.6s1.6,4,2.5,9.6C582.6,369.5,582.8,376.6,580.1,382.6z"/>
<path class="st37" d="M590,270c-1.2,16.1-8.5,27.8-19,36.4c-26,21.1-71.5,22.1-90.7,19.6c-27.5-3.7-69.6-2.7-69.6-2.7
	c0.2-1.4,0.3-2.7,0.1-3.9C433.5,321,564.1,328,590,270z"/>
<path class="st49" d="M581.6,363.8c-122.4-26.3-128.4,6.2-128.6,11.1c0,0.4,0,0.6,0,0.6l-2.3-1.9l-4-3.2c-2.9-3.1-3.8-6.9-2.1-11.5
	c9.7-26.4,134.5-4.6,134.5-4.6S580.7,358.3,581.6,363.8z"/>
<path class="st29" d="M380.6,465.9c0,0-4.8,3.1-14.9-0.1c-6.5-2.1-15.2-6.7-26.3-16.3c-28.4-24.7-35.7,0.9-71.4-21
	c0,0,14.1-25.3,51.2-25.6c4,0,8.3,0.2,12.9,0.9c4.1,0.6,7.9,1.5,11.3,2.8c10.3,3.8,17.8,10.3,23.1,17.7
	C379.8,442.5,380.6,465.9,380.6,465.9z"/>
<path class="st50" d="M458.4,358.8c0,0,13.7,11,29.3,9.2c15.6-1.8,28.4-2.7,39.4-0.9c11,1.8,17.4-8.2,32-5.5
	c14.6,2.7,21.2-3.2,21.2-3.2"/>
<polygon class="st51" points="499.5,471.4 497.7,466.8 527,465 549.9,476.9 548,481.5 527,471.4 "/>
<path class="st52" d="M379.2,454.5c0,0,12.4,11.4,27,11.4c14.6,0,77.8-1.8,77.8-1.8l0.9,4.6l12.8-1.8l1.8,4.6l-97.2-0.9
	c-0.5,0-1.1-0.1-1.6-0.2C397.3,469.4,384.7,465.5,379.2,454.5z"/>
<g>
	<line class="st53" x1="529.7" y1="433" x2="570.9" y2="433"/>
	<line class="st53" x1="530.7" y1="437.5" x2="571.8" y2="437.5"/>
	<line class="st53" x1="532.5" y1="442.1" x2="573.7" y2="442.1"/>
	<line class="st53" x1="534.3" y1="445.8" x2="575.5" y2="445.8"/>
	<line class="st53" x1="536.1" y1="449.4" x2="577.3" y2="449.4"/>
	<line class="st53" x1="538" y1="454" x2="579.2" y2="454"/>
</g>
<path class="st54" d="M354.6,412.1l-0.9,0c0.9-22.4-3.2-26.9-4.5-27.7c0.2-0.2,0.4-0.4,0.6-0.7C351.7,385,355.5,390.4,354.6,412.1z"
	/>
<path class="st54" d="M358.9,415.8l-0.9-0.1c2.8-28.1-3.1-35.2-5.3-36.8c0.1-0.3,0.2-0.6,0.4-0.9c0,0,0,0,0,0
	C355.5,379.6,361.9,386.6,358.9,415.8z"/>
<circle class="st55" cx="403" cy="327.3" r="3.2"/>
<line class="st56" x1="541.6" y1="465" x2="563.6" y2="465"/>
<line class="st57" x1="547.1" y1="469.6" x2="559" y2="469.6"/>
<path class="st58" d="M526.1,348.8c0,0,2.7,17.4-9.2,28.4"/>
<circle class="st59" cx="516.2" cy="378.3" r="5.3"/>
<path class="st42" d="M624.5,461.8l0,0.4c-0.8,0-2.8-0.1-5.5-0.2c-0.9,0-1.9-0.1-3-0.1c-7.4-26.8-22.9-55.4-55.5-60.5
	c-50.5-7.9-64.6,12.6-68.3,21.6c4.4-13.6,10-23.9,22.6-28.9c13.7-5.5,49.4-0.9,49.4-0.9c19.7,5,33,13.9,41.9,23.6
	c0,0,0.1,0.1,0.1,0.1c10.4,11.3,14.9,23.8,16.9,32.7c0,0.1,0,0.1,0,0.2C624.5,457,624.5,461.8,624.5,461.8z"/>
<path class="st60" d="M516.5,242.1c12,10,18.9,21.3,15.1,33.4c-13.7,43-108.9,35.7-108.9,35.7"/>
<path class="st60" d="M422.7,199.6c0,0,29,7.8,57.1,20.7"/>
<path class="st61" d="M590.1,266.4c-0.3,17.9-7.9,30.8-19.1,39.9c-20.1-43.4,5.6-59.9,13.4-63.7
	C588.2,250.2,590.3,258.1,590.1,266.4z"/>
<path class="st62" d="M445.5,188.6c0,0-6.9,24.3-18.3,34.8l12.8,9.2c0,0,17.4-17.4,19.2-36.6L445.5,188.6z"/>
<path class="st60" d="M482.2,210.6c0,0-1.8,20.1-14.6,31.1l11.9,5.5c0,0,16.5-16.5,13.7-26.5C490.4,210.6,482.2,210.6,482.2,210.6z"
	/>
<path class="st60" d="M492.1,216.2c0,0,23-0.2,26.7,7.2c3.7,7.3-1.8,31.1-21,36.6c0,0-11.9-11.9-18.3-12.8"/>
<path class="st60" d="M489,235.8c0,0,13.9,17.8,25,11"/>
<ellipse class="st40" cx="349.9" cy="152" rx="2.3" ry="4.6"/>
<circle class="st63" cx="349" cy="153.4" r="1.4"/>
<path class="st64" d="M391.6,438.5L391.6,438.5c3,3,6.9,5.1,11,6c10.6,2.3,33.1,5.1,66.3-1.9c0,0,2.7,5.5-7.3,10.1
	S385.6,455.4,391.6,438.5z"/>
<g>
	<path class="st32" d="M421.9,323.1c2.5-14.5-4.6-20.3-7.1-21.8l-2,0.5l0,0c0,0.3,0.2,0.5,0.5,0.7c0,0,0.5,0.2,1.2,0.8
		c0.4,0.3,1,0.8,1.6,1.4c0.5,0.5,1,1.2,1.5,1.9c0.3,0.5,0.6,1,1,1.6c0.4,0.7,0.7,1.6,1,2.5c0.2,0.6,0.3,1.1,0.5,1.8
		c0.1,0.6,0.2,1.2,0.3,1.9c0.1,0.6,0.1,1.2,0.2,1.8c0,0.8,0,1.6,0,2.4c0,0.6-0.1,1.2-0.1,1.9c-0.1,0.8-0.2,1.6-0.3,2.4
		c0,0.1,0,0.1,0,0.2L421.9,323.1z"/>
	<path class="st32" d="M403.9,309c-0.4,0-0.7-0.2-0.9-0.6c-0.2-0.5,0.1-1,0.6-1.2l11.9-4.3c0.5-0.2,1,0.1,1.2,0.6
		c0.2,0.5-0.1,1-0.6,1.2l-11.9,4.3C404.1,309,404,309,403.9,309z"/>
	<path class="st32" d="M407.6,311.7c-0.4,0-0.7-0.2-0.9-0.6c-0.2-0.5,0.1-1,0.6-1.2l11.3-3.7c0.5-0.2,1,0.1,1.2,0.6
		c0.2,0.5-0.1,1-0.6,1.2l-11.3,3.7C407.8,311.7,407.7,311.7,407.6,311.7z"/>
	<path class="st32" d="M410,315.4c-0.4,0-0.8-0.3-0.9-0.7c-0.1-0.5,0.1-1,0.6-1.1l10.4-3.1c0.5-0.1,1,0.1,1.1,0.6
		c0.1,0.5-0.1,1-0.6,1.1l-10.4,3.1C410.2,315.4,410.1,315.4,410,315.4z"/>
	<path class="st32" d="M410.6,318.4c-0.4,0-0.8-0.3-0.9-0.7c-0.1-0.5,0.2-1,0.7-1.1l10.7-2.4c0.5-0.1,1,0.2,1.1,0.7
		c0.1,0.5-0.2,1-0.7,1.1l-10.7,2.4C410.8,318.4,410.7,318.4,410.6,318.4z"/>
	<path class="st32" d="M411.7,321.3c-0.5,0-0.9-0.4-0.9-0.8c-0.1-0.5,0.3-1,0.8-1l9.2-0.9c0.5,0,1,0.3,1,0.8c0.1,0.5-0.3,1-0.8,1
		L411.7,321.3C411.7,321.3,411.7,321.3,411.7,321.3z"/>
	<path class="st32" d="M411.7,324.1c-0.5,0-0.9-0.3-0.9-0.8c-1.3-10.9-9.1-15.3-9.2-15.3c-0.4-0.3-0.6-0.8-0.3-1.3
		c0.3-0.4,0.8-0.6,1.3-0.3c0.4,0.2,8.6,4.9,10,16.7c0.1,0.5-0.3,1-0.8,1C411.8,324.1,411.7,324.1,411.7,324.1z"/>
</g>
<path class="st65" d="M589.6,258.5c-21-39.3-72.6-67.1-98.7-79.2c38.3,11.4,78.8,34.2,93.5,63.3C587,247.7,588.7,253,589.6,258.5z"
	/>
<path class="st37" d="M452.8,293.3c7.8-2.7,13.8-6.9,15.6-14.1c4.6-18.4-51.8-26.5-70.2-50.2c-2.7-5.1-4.3-8.3-4.4-8.6
	c0.4,0.4,27.8,26.3,68.6,36.3C501,266.2,477,298.9,452.8,293.3z"/>
<path class="st60" d="M492.7,229.8c0,0,18.3-2.3,24.7,10.5"/>
<path class="st60" d="M503.7,242.2c0,0,6.4,2.7,12.4,1.4"/>
<circle class="st60" cx="487.6" cy="231.6" r="3.2"/>
<path class="st66" d="M590.6,299.8c0,0-7.3,12.8-20.6,17.4"/>
<ellipse transform="matrix(0.1831 -0.9831 0.9831 0.1831 221.6935 826.171)" class="st45" cx="608" cy="279.7" rx="3.7" ry="1.8"/>
<ellipse transform="matrix(0.1831 -0.9831 0.9831 0.1831 226.7742 834.1158)" class="st45" cx="615.3" cy="280.6" rx="3.7" ry="1.8"/>
<ellipse transform="matrix(0.1831 -0.9831 0.9831 0.1831 231.855 842.0606)" class="st45" cx="622.6" cy="281.5" rx="3.7" ry="1.8"/>
<path class="st27" d="M342.2,162.7c-2-2-6.5-3.3-6.5-3.3c1.9-1,3.4-2.2,4.6-3.4C341.4,157.3,343.3,160.5,342.2,162.7z"/>
<circle class="st27" cx="353.6" cy="165.3" r="4.6"/>
<path class="st67" d="M403.5,170.3c-0.3,2.1-0.9,4.3-1.7,6.7c0,0,0,0,0,0c-5.4,16.5-19.3,38.1-19.3,38.1l-7.3-11
	c0.2-0.2,0.3-0.4,0.5-0.7c11.5-15.4,15.1-33.2,15.1-33.2H403.5z"/>
<path class="st68" d="M401.7,177c-5.4,16.5-19.3,38.1-19.3,38.1l-7.3-11c0.2-0.2,0.3-0.4,0.5-0.7C382.2,201.3,394.4,194.9,401.7,177
	z"/>
<path class="st42" d="M380.6,465.9c0,0-4.8,3.1-14.9-0.1c6.1-53.5-47.3-59.8-47.3-59.8l0.8-3.1c4,0,8.3,0.2,12.9,0.9
	c4.1,0.6,7.9,1.5,11.3,2.8l23.1,17.7C379.8,442.5,380.6,465.9,380.6,465.9z"/>
<circle class="st69" cx="381.5" cy="205.1" r="2.7"/>
<circle class="st40" cx="381" cy="204.6" r="0.9"/>
<path class="st70" d="M380.6,465.9c0,0-0.4,0.3-1.3,0.6c-1.5-12.9-9.1-52.8-48.2-58.2c-36.7-5-55.3,13.1-61.5,21.1
	c-0.5-0.3-1.1-0.6-1.6-1c0,0,17.4-31.1,64.1-24.7S380.6,465.9,380.6,465.9z"/>
<path class="st42" d="M490.8,427c0,0,0.2-1.6,1.2-4C491.7,424.3,491.3,425.6,490.8,427z"/>
<path class="st71" d="M598.2,409.9c-28.5-23.9-84-20-98.7,0.2c-3.2,4.5-5.1,9.7-6.1,15.2c-3.4,19,4,40.6,4.3,41.5
	c-0.6-1.1-18.5-34.8-8.5-57.7c2.9-6.7,8.3-12.5,17.2-16.3c1.8-0.8,3.8-1.4,5.9-2c20.4-5.5,37.6-4.2,51.2-0.3
	C585.4,396.8,597.7,409.4,598.2,409.9z"/>
<path class="st73" d="M293.1,450l19.9,25.8c2.2,2.9,6.6,3,8.9,0.1l0,0c2-2.5,1.6-6.2-0.9-8.1L295.1,448
	C293.8,446.9,292.1,448.7,293.1,450z"/>
<path class="st74" d="M297.8,452.6c0,0,16.5,24.7,22,22"/>
<path class="st74" d="M319.3,468.7c0,0,3.7,1.8,1.8,4.6"/>
<path class="st75" d="M400.7,333.2c0,0-11.9,0.9-8.2-13.7"/>
<circle class="st76" cx="403" cy="327.3" r="6.9"/>
<ellipse class="st77" cx="451" cy="157.5" rx="5.5" ry="3.7"/>
<ellipse class="st77" cx="476.7" cy="158.4" rx="4.6" ry="3.7"/>
<path class="st77" d="M446.5,77c0,0,0-6.4,6.4-11c0,0,4.6,3.7,5.5,9.2L446.5,77z"/>
<path class="st77" d="M482.2,76.1c0,0,2.7-5.5,8.2-6.4c0,0,4.6,5.5,0.9,11L482.2,76.1z"/>
<path class="st78" d="M514.5,124.4v0.1c-0.1,26.9-18.3,32.8-39.1,33.7c-2.3,0.1-4.7,0.1-7,0.1c-1.5,0-3.1,0-4.6-0.1h0
	c-3.7-0.1-7.4-0.4-10.8-1l-0.1,0c-2.2-0.3-4.2-0.8-6.3-1.4l0,0l0,0c-2.2-0.6-4.2-1.4-6.1-2.3c-0.4-0.2-0.8-0.4-1.2-0.6
	c-0.5-0.3-1.1-0.6-1.6-0.9c-6.6-3.9-11.5-10.1-13.7-19.6c-1-4.4-1.5-9.4-1.3-15.3c0.9-32.9,19.2-45.8,45.8-44.8
	c16.5,0.6,29.9,9,37.9,21.6c0,0,0,0,0,0c4.3,6.7,7,14.7,7.9,23.2C514.4,119.8,514.6,122.2,514.5,124.4z"/>
<ellipse class="st77" cx="467.5" cy="98" rx="27.5" ry="19.2"/>
<ellipse class="st79" cx="457.4" cy="91.2" rx="3.7" ry="5.9"/>
<ellipse class="st79" cx="473.9" cy="92.1" rx="3.7" ry="5.9"/>
<path class="st80" d="M514.5,124.4v0.1c-0.1,29.9-22.6,33.9-46.1,33.9c-1.5,0-3.1,0-4.6-0.1h0c-3.7-0.1-7.4-0.4-10.8-1l-0.1,0
	l-6.3-1.4l0,0l0,0l-6.1-2.3C507,159,508,110.9,506.3,94c4.3,6.9,7,15,7.9,23.7C514.4,120.1,514.5,122.3,514.5,124.4z"/>
<path class="st81" d="M462,109.9c0,0,2.7,1.8,5.5,0"/>
<path class="st82" d="M461.1,101.7c0,0,3.7,0.9,4.6-2.7c0,0,0.9,3.7,4.6,3.7"/>
<line class="st83" x1="457.4" y1="98.9" x2="413.5" y2="87"/>
<line class="st83" x1="455.6" y1="99.9" x2="419" y2="97.1"/>
<line class="st83" x1="456.5" y1="102.6" x2="417.2" y2="106.3"/>
<line class="st83" x1="472.1" y1="99.9" x2="517.8" y2="95.3"/>
<line class="st83" x1="473.9" y1="101.7" x2="513.3" y2="103.5"/>
<line class="st83" x1="471.2" y1="103.5" x2="510.5" y2="112.7"/>
<circle class="st77" cx="456.1" cy="93" r="1.4"/>
<circle class="st77" cx="473.5" cy="93.9" r="1.4"/>
<ellipse class="st40" cx="465.2" cy="98" rx="2.3" ry="0.9"/>
<rect x="189.7" y="341.5" class="st1" width="26.8" height="171.5"/>
<polygon class="st1" points="283.3,342.4 125.1,342.4 101,312.9 125.1,285.2 283.3,285.2 "/>
<g>
	<path class="st84" d="M128.3,308.6c0.6-0.1,1.6-0.2,2.6-0.2c1.4,0,2.4,0.2,3.1,0.8c0.6,0.4,0.9,1.1,0.9,2c0,1.1-0.7,2-1.9,2.5v0
		c1.1,0.3,2.3,1.1,2.3,2.8c0,1-0.4,1.7-0.9,2.2c-0.8,0.7-2,1-3.9,1c-1,0-1.8-0.1-2.2-0.1V308.6z M129.8,313.2h1.3
		c1.5,0,2.4-0.8,2.4-1.9c0-1.3-1-1.8-2.5-1.8c-0.7,0-1,0-1.3,0.1V313.2z M129.8,318.6c0.3,0,0.7,0.1,1.2,0.1c1.5,0,2.9-0.5,2.9-2.2
		c0-1.5-1.3-2.2-2.9-2.2h-1.2V318.6z"/>
	<path class="st84" d="M143.1,314.4h-4.4v4h4.9v1.2h-6.3v-11.2h6.1v1.2h-4.6v3.5h4.4V314.4z"/>
	<path class="st84" d="M147.7,309.7h-3.4v-1.2h8.3v1.2h-3.4v10h-1.5V309.7z"/>
	<path class="st84" d="M155.3,308.5v5h0.4l3.8-5h1.7l-4.2,5.1c1.8,0.2,2.6,1.4,3.1,2.9c0.4,1.1,0.7,2.2,1.2,3.2h-1.6
		c-0.4-0.8-0.7-1.8-1-2.6c-0.5-1.5-1.2-2.5-3.1-2.5h-0.5v5.1h-1.4v-11.2H155.3z"/>
	<path class="st84" d="M170.8,308.5v11.2h-1.5v-10h-3.7v3.4c0,2.4-0.1,5.1-1.7,6.2c-0.4,0.3-1.1,0.5-1.7,0.5l-0.2-1.2
		c0.4-0.1,0.9-0.3,1.2-0.6c0.9-0.9,1-3.1,1-4.9v-4.7H170.8z"/>
	<path class="st84" d="M174.7,308.5v4.7c0,1.8,0,3.2-0.1,4.7l0,0c0.6-1.2,1.3-2.4,2.1-3.7l3.6-5.8h1.4v11.2h-1.4v-4.8
		c0-1.8,0-3.1,0.1-4.6l0,0c-0.5,1.2-1.3,2.5-2.1,3.8l-3.5,5.6h-1.5v-11.2H174.7z"/>
	<path class="st84" d="M185.8,308.5v4.7h5.4v-4.7h1.5v11.2h-1.5v-5.3h-5.4v5.3h-1.4v-11.2H185.8z"/>
	<path class="st84" d="M196.5,308.5v4.7c0,1.8,0,3.2-0.1,4.7l0,0c0.6-1.2,1.3-2.4,2.1-3.7l3.6-5.8h1.4v11.2h-1.4v-4.8
		c0-1.8,0-3.1,0.1-4.6l0,0c-0.5,1.2-1.3,2.5-2.1,3.8l-3.5,5.6h-1.5v-11.2H196.5z"/>
	<path class="st84" d="M207.5,308.5v5h0.4l3.8-5h1.7l-4.2,5.1c1.8,0.2,2.6,1.4,3.1,2.9c0.4,1.1,0.7,2.2,1.2,3.2h-1.6
		c-0.4-0.8-0.7-1.8-1-2.6c-0.5-1.5-1.2-2.5-3.1-2.5h-0.5v5.1h-1.4v-11.2H207.5z"/>
	<path class="st84" d="M217,316.1l-1.2,3.5h-1.5l3.8-11.2h1.7l3.8,11.2h-1.5l-1.2-3.5H217z M220.7,315l-1.1-3.2
		c-0.2-0.7-0.4-1.4-0.6-2h0c-0.2,0.7-0.3,1.3-0.6,2l-1.1,3.2H220.7z"/>
	<path class="st84" d="M241.9,310.1h-4.1l-0.4,2.8c0.2,0,0.5-0.1,0.9-0.1c0.8,0,1.7,0.2,2.3,0.6c0.8,0.5,1.5,1.4,1.5,2.8
		c0,2.1-1.7,3.7-4,3.7c-1.2,0-2.2-0.3-2.7-0.7l0.4-1.1c0.4,0.3,1.3,0.6,2.3,0.6c1.4,0,2.6-0.9,2.6-2.3c0-1.4-0.9-2.4-3.1-2.4
		c-0.6,0-1.1,0.1-1.5,0.1l0.7-5.2h5.2V310.1z"/>
	<path class="st84" d="M249.5,308.5v5h0.4l3.8-5h1.7l-4.2,5.1c1.8,0.2,2.6,1.4,3.1,2.9c0.4,1.1,0.7,2.2,1.2,3.2h-1.6
		c-0.4-0.8-0.7-1.8-1-2.6c-0.5-1.5-1.2-2.5-3.1-2.5h-0.5v5.1H248v-11.2H249.5z"/>
	<path class="st84" d="M266.5,314.7c-0.1-1.6-0.2-3.4-0.2-4.8h-0.1c-0.4,1.3-0.8,2.7-1.4,4.3l-2,5.4h-1.1l-1.8-5.3
		c-0.5-1.6-1-3-1.3-4.4h0c0,1.4-0.1,3.3-0.2,5l-0.3,4.8h-1.4l0.8-11.2h1.8l1.9,5.4c0.5,1.4,0.8,2.6,1.1,3.8h0
		c0.3-1.1,0.7-2.4,1.2-3.8l2-5.4h1.8l0.7,11.2h-1.4L266.5,314.7z"/>
</g>
<path class="st0" d="M671.1,173.5c0,0,62.2,84.2-6.4,236.1C664.7,409.6,759.9,270.5,671.1,173.5z"/>
<path class="st0" d="M164.1,401.4c0,0-9.2,75-57.7,93.3C106.5,494.7,177.9,532.3,164.1,401.4z"/>
<path class="st85" d="M533.3,145.5c2.1-17.8-9.6-19.2-15.6-18.7c0.7-1,1.3-2,2-3.1c5.5-9.2,15.4-13.3,22-9.2
	C548,118.5,548.5,134.5,533.3,145.5z"/>
<path class="st80" d="M475.5,158.3c-2.3,0.1-4.7,0.1-7,0.1c-1.5,0-3.1,0-4.6-0.1h0c-3.7-0.1-7.4-0.4-10.8-1l-0.1,0
	c-2.2-0.3-4.2-0.8-6.3-1.4l0,0l0,0c-2.2-0.6-4.2-1.4-6.1-2.3c-0.4-0.2-0.8-0.4-1.2-0.6c-0.5-0.3-1.1-0.6-1.6-0.9
	c-6.6-3.9-11.5-10.1-13.7-19.6c5.8,11.2,18.3,25.5,43,20.8C482.4,150.5,481.9,153.6,475.5,158.3z"/>
<path class="st86" d="M709.5,462.5c-19.9-6.9-39.7,12.5-40.2,13c3.7-6.4,11-11.9,11-11.9l0,0C681,463.1,698.5,452.5,709.5,462.5z"/>
<path class="st86" d="M667.3,451.6c-19.7,3.4-29.1,24.9-29.1,24.9c0.9-7.3,5.5-13.7,5.5-13.7S654.5,447.2,667.3,451.6z"/>
<line class="st87" x1="666.6" y1="513" x2="714.1" y2="513"/>
<polyline class="st87" points="648.3,513 638,513 216.6,513 189.7,513 157.7,513 104.7,513 "/>
</svg>
