<?xml version="1.0" encoding="utf-8"?>
<!-- Generator: Adobe Illustrator 21.1.0, SVG Export Plug-In . SVG Version: 6.00 Build 0)  -->
<svg version="1.1" id="Слой_2" xmlns="http://www.w3.org/2000/svg" xmlns:xlink="http://www.w3.org/1999/xlink" x="0px" y="0px"
	 viewBox="0 0 800 600" style="enable-background:new 0 0 800 600;" xml:space="preserve">
<style type="text/css">
	.st0{fill:#B6D4FF;}
	.st1{fill:#0A4599;}
	.st2{fill:#E85336;}
	.st3{fill:#FFDCA2;}
	.st4{fill:#A3653B;}
	.st5{fill:#EAC083;}
	.st6{fill:none;stroke:#EAC083;stroke-width:2;stroke-linecap:round;stroke-linejoin:round;stroke-miterlimit:10;}
	.st7{fill:#6F4E2F;}
	.st8{fill:none;stroke:#CC3117;stroke-width:1.0713;stroke-linecap:round;stroke-miterlimit:10;}
	.st9{fill:none;stroke:#6F4E2F;stroke-width:1.3625;stroke-linecap:round;stroke-linejoin:round;stroke-miterlimit:10;}
	.st10{fill:#FFFFFF;}
	.st11{fill:#8C5631;}
	.st12{fill:#CC3117;}
	.st13{fill:#FEAC00;}
	.st14{fill:none;stroke:#BA2C0F;stroke-width:0.7608;stroke-miterlimit:10;}
	.st15{fill:#BA2C0F;}
	.st16{fill:#3080C1;}
	.st17{fill:#5699E8;}
	.st18{fill:#FC99A6;}
	.st19{fill:#3281E1;}
	.st20{fill:#EA8193;}
	.st21{fill:none;stroke:#FFFFFF;stroke-width:1.5308;stroke-linecap:round;stroke-miterlimit:10;}
	.st22{fill:#EEF7FF;}
	.st23{fill:none;stroke:#EA8193;stroke-width:1.0764;stroke-linecap:round;stroke-miterlimit:10;}
	.st24{fill:none;stroke:#FFFFFF;stroke-width:2;stroke-linecap:round;stroke-linejoin:round;stroke-miterlimit:10;}
	.st25{fill:#FFFBEA;}
	.st26{fill:none;stroke:#6F4E2F;stroke-width:2.2136;stroke-miterlimit:10;}
</style>
<path class="st0" d="M404.7,538C269,538,159,427.6,159,291.5S269,45,404.7,45"/>
<path class="st1" d="M410.2,45.1c-1.3,0-2.6-0.1-3.9-0.1c-0.3,0-0.5,0-0.8,0c-0.3,0-0.5,0-0.8,0v0C337.4,45.8,283,100.7,283,168.3
	s54.4,122.4,121.7,123.2V538c135.7,0,245.7-110.4,245.7-246.5C650.5,157.2,543.4,48,410.2,45.1z"/>
<circle class="st0" cx="406.3" cy="414.8" r="123.3"/>
<path class="st2" d="M465.1,469.2c0,19.3-25.5,35-57.2,35.4c-0.5,0-0.9,0-1.4,0c-14.3,0-27.4-3.1-37.5-8.2
	c-12.9-6.5-21.1-16.3-21.1-27.2c0-0.4,0-0.9,0-1.3c0.3-4.3,1.8-8.4,4.3-12.1c7.7-11.3,24.8-19.7,45.5-21.6c2.8-0.3,5.8-0.4,8.7-0.4
	c2.9,0,5.8,0.1,8.6,0.4c27.6,2.5,48.9,16.5,49.9,33.7C465.1,468.4,465.1,468.8,465.1,469.2z"/>
<path class="st3" d="M478.7,425.6c0,15.8-5.1,30.4-13.7,42.3c-13,18-34.1,29.7-58,29.9c-0.2,0-0.4,0-0.6,0
	c-24.1,0-45.4-11.8-58.5-29.9c-8.6-11.9-13.7-26.5-13.7-42.3c0-2.5,0.1-5,0.4-7.5c0.3-2.8,0.8-5.6,1.4-8.3c0.5-2.4,1.2-4.7,1.9-6.9
	c2.1-6.2,4.9-12,8.5-17.3c3-4.5,6.5-8.6,10.4-12.3c0.1-0.1,0.2-0.2,0.3-0.3c1.5-1.4,3-2.7,4.6-4c3.1-2.5,6.5-4.7,10-6.7
	c10.3-5.7,22.2-8.9,34.8-8.9c6.8,0,13.4,0.9,19.6,2.7c16,4.5,29.7,14.4,39.2,27.5c0.3,0.4,0.6,0.8,0.8,1.2c0.6,0.9,1.2,1.7,1.7,2.6
	c0.2,0.4,0.5,0.8,0.7,1.2c4.8,7.9,8,16.8,9.4,26.3c0.4,2.8,0.7,5.7,0.8,8.6C478.7,424.3,478.7,425,478.7,425.6z"/>
<path class="st4" d="M397,418c0,9.9-8.2,21.5-18.1,21.5s-17.9-8-17.9-17.9s8-17.9,17.9-17.9S397,408.1,397,418z"/>
<path class="st5" d="M478.7,423.6c-8.5-10.1-36.2-39-72.2-40.2c-26.5-0.8-47.9,12.9-60.7,23.8c-5.3,4.5-9.1,8.6-11.2,10.9
	c0.3-2.8,0.8-5.6,1.4-8.3c0.5-2.4,1.2-4.7,1.9-6.9c2.1-6.2,4.9-12,8.5-17.3c3-4.5,6.5-8.6,10.4-12.3c0.1-0.1,0.2-0.2,0.3-0.3
	c1.5-1.4,3-2.7,4.6-4l22.5-5.8l6-1.6l31.2,10.4l43.3,14.4l1.8,0.6l1.4,0.5c0.2,0.4,0.5,0.8,0.7,1.2c4.8,7.9,8,16.8,9.4,26.3
	C478.3,417.8,478.6,420.7,478.7,423.6z"/>
<g>
	<path class="st6" d="M410.2,431.8c0,0,0.3-44.3,29.3-30.3"/>
	<path class="st6" d="M403.8,432.1c0,0,2.7-41.6-29.3-31.6"/>
</g>
<path class="st4" d="M388,441.6c11.2-10.3,9.5-11.4,18.5-11.6c8.7-0.2,15,6.8,22.5,13.7c4.2,3.9,8.2,8.2,5.3,15.5
	c-2.9,7.4-14.5,8.2-18.3-2.8c-9,9.6-14.6,5.2-16,0c-1,3.2-2.4,7-8,8.5c-4.6,1.3-10.9-3.7-11.9-8.1
	C379.2,453.1,381.7,447.3,388,441.6z"/>
<path class="st4" d="M453.8,421.6c0,9.9-8,17.9-17.9,17.9S418,427.9,418,418s8-14.3,17.9-14.3S453.8,411.7,453.8,421.6z"/>
<path class="st7" d="M411.7,438.9c0,0-4.9-4.8-9.5-0.5c-5.1,4.8,4.5,6.3,4.5,6.3S414.3,443.2,411.7,438.9z"/>
<g>
	<path class="st4" d="M433.6,390.6c0.7,0,1.1,0.1,1.7,0.1c0.5,0.1,1,0.2,1.6,0.2c1,0.2,2,0.5,3,0.8c1,0.3,2,0.8,2.9,1.3
		c1,0.5,1.9,1.2,2.7,2c1,0.9,1.1,2.5,0.2,3.5c-0.8,0.9-2.2,1.1-3.2,0.4l-0.2-0.1c-0.6-0.4-1.2-0.8-1.9-1c-0.7-0.3-1.4-0.5-2.1-0.7
		c-0.8-0.2-1.5-0.3-2.3-0.3c-0.4,0-0.8,0-1.2-0.1c-0.4,0-0.8,0-1.1,0c-1.7,0.2-3.2-1-3.4-2.7s1-3.2,2.7-3.4c0.1,0,0.3,0,0.4,0
		L433.6,390.6z"/>
</g>
<path class="st2" d="M400,457c-0.9,0.4,2.3,11,7.5,11c5.2,0,8.5-11,8.5-11s-4.8-0.6-9-9C405,444,408,453,400,457z"/>
<line class="st8" x1="407.5" y1="449.5" x2="407.5" y2="467.5"/>
<g>
	<path class="st4" d="M377.5,395.6c-0.2,0-0.7,0-1,0.1c-0.4,0.1-0.8,0.1-1.1,0.2c-0.8,0.2-1.5,0.4-2.2,0.6c-0.7,0.3-1.4,0.6-2,0.9
		c-0.6,0.4-1.2,0.8-1.7,1.3l-0.2,0.2c-1,0.9-2.6,0.8-3.5-0.2c-0.8-0.9-0.8-2.3,0-3.2c0.7-0.9,1.5-1.6,2.4-2.3
		c0.9-0.7,1.8-1.2,2.7-1.7c0.9-0.5,1.9-0.9,2.9-1.2c0.5-0.2,1-0.3,1.5-0.4c0.5-0.1,1-0.2,1.7-0.3l0.1,0c1.7-0.3,3.3,0.9,3.5,2.6
		c0.3,1.7-0.9,3.3-2.6,3.5C377.8,395.6,377.6,395.6,377.5,395.6z"/>
</g>
<path class="st9" d="M390.5,453.5c0,0,12,12,16.5-8.5c0,0,3.5,18.5,16.5,9.5"/>
<g>
	<circle class="st10" cx="378.9" cy="421.6" r="13.1"/>
	<circle class="st7" cx="378.6" cy="422.8" r="10.5"/>
	<circle class="st10" cx="372.3" cy="416.2" r="3.8"/>
	<circle class="st10" cx="381.9" cy="428.7" r="1"/>
</g>
<path class="st5" d="M407.1,497.8c-0.2,0-0.4,0-0.6,0c-24.1,0-45.4-11.8-58.5-29.9c-8.6-11.9-13.7-26.5-13.7-42.3
	c0-2.5,0.1-5,0.4-7.5c0.3-2.8,0.8-5.6,1.4-8.3c-0.5,0.5-0.7,0.8-0.7,0.8c-1-1.9-1.6-4.3-1.9-6.8l4.5-0.9l6.6-1.4l2.4-0.5
	c0,0-0.6,2.3-1.2,6.2c-1.4,9.7-2.6,29.5,6.5,48.6C360.3,472.7,376.2,489.2,407.1,497.8z"/>
<path class="st4" d="M350.8,441.9c-1.7,2.1-4.8,2.3-8.3,0.8c-4-1.7-8.5-5.9-11.9-12.4c-4.5-8.7,7.6-24.4,14.7-32.6
	c2.8-3.2,4.9-5.3,4.9-5.3s18-12.3,8.4,0C349.1,404.9,354.5,437.5,350.8,441.9z"/>
<path class="st2" d="M480.2,402.7C480.2,402.7,480.2,402.7,480.2,402.7c-0.1,7.9-0.8,14.1-0.8,14.1s-0.5-0.7-1.5-1.8
	c-3.8-4.6-15.2-17-32.3-26c-11-5.9-24.5-10.3-39.8-10.3c-23.5,0-41.7,8.8-53.8,17.1c-2.8,2-5.3,3.9-7.5,5.7
	c-4.4,3.7-7.3,6.9-8.6,8.3c-0.5,0.5-0.7,0.8-0.7,0.8c-1-1.9-1.6-4.3-1.9-6.8c-0.4-3.4-0.3-7.2,0-11.1c0.3-3.4,0.9-6.8,1.5-10
	c0.9-4.8,2-9,2.8-12c0.7-2.6,2.2-4.8,4.3-6.4c0.3-0.2,0.5-0.4,0.8-0.6c0,0,0.1-0.1,0.3-0.2c8.3-5.3,19.2-10.1,31.1-13.5
	c10-2.9,20.7-4.9,31.5-5.4c4.4-0.2,8.9,0.1,13.5,0.8c5.5,0.9,11.2,2.3,16.6,4.2c10.6,3.6,20.5,8.5,27.9,13.2
	c4.4,2.8,7.9,5.5,10.2,7.7c0.3,0.3,0.6,0.7,0.9,1.1c3.9,5.2,5.2,15.5,5.4,25C480.3,398.6,480.3,400.7,480.2,402.7z"/>
<path class="st11" d="M342.6,442.7c-4-1.7-8.5-5.9-11.9-12.4c-4.5-8.7,7.6-24.4,14.7-32.6l2.4-0.9
	C347.4,397.4,325.4,424.5,342.6,442.7z"/>
<path class="st2" d="M437.8,354.8l-82,9.4l-13.4,1.5c0,0-0.1-0.5-0.3-1.4c-1.3-5.9-5-29,14-40.9c1.8-1.1,5.3-2.2,9.8-2.9
	c19.2-2.9,57.4,0.4,70,29C436.6,351.2,437.3,353,437.8,354.8z"/>
<path class="st4" d="M481.2,430.7c-2.9,4.7-6.5,8-9.9,9.9c-4.5,2.5-8.7,2.6-10.7,0.2c-3.4-4.1,3.4-33.9-5.6-45.3
	c-9-11.5,8.4,0.1,8.4,0.1s2.7,2.6,6.1,6.6C476.3,410.2,485.8,423.4,481.2,430.7z"/>
<path class="st11" d="M481.2,430.7c-2.9,4.7-6.5,8-9.9,9.9c13.1-18.2-3.1-38.3-3.1-38.3l1.2,0C476.3,410.2,485.8,423.4,481.2,430.7z
	"/>
<path class="st12" d="M381,349.3c0,0-1,0.4-2.6,1.1c-4.7,2-14.8,6.9-22.5,13.8c-3.9,3.5-7.2,7.5-8.8,11.9c-0.4,1.1-0.7,2.3-0.9,3.5
	c-0.3,1.9-0.2,3.9,0.2,6c0.7,3.3,2.5,6.7,5.6,10.2c-2.8,2-5.3,3.9-7.5,5.7c-4.4,3.7-7.3,6.9-8.6,8.3c-0.5,0.5-0.7,0.8-0.7,0.8
	c-1-1.9-1.6-4.3-1.9-6.8c-0.4-3.4-0.3-7.2,0-11.1c0.3-3.4,0.9-6.8,1.5-10c0.9-4.8,2-9,2.8-12c0.7-2.6,2.2-4.8,4.3-6.4
	c-1.3-5.9-5-29,14-40.9c1.8-1.1,5.3-2.2,9.8-2.9c-7.2,8-25.9,31.7,8.5,29.4C376.4,349.9,378.6,349.7,381,349.3z"/>
<path class="st2" d="M474.9,371.5c-0.1,0.6-0.2,1-0.2,1s-3.2-1-8.3-2.8c-12-4.3-34.1-13.3-47-24.3c-6.1-5.1-10.1-10.7-10.1-16.5
	c0,0,1.9-0.7,4.9-1.7c2.1-0.7,4.9-1.6,7.9-2.4c8.7-2.4,20.4-4.8,30.2-4c4.9,0.4,9.4,1.6,12.8,4C482.2,337.1,476.3,365.9,474.9,371.5
	z"/>
<path class="st12" d="M480.2,402.7C480.2,402.7,480.2,402.7,480.2,402.7c-0.1,7.9-0.8,14.1-0.8,14.1S467,400.2,445.7,389
	c25.5,3.5,23.9-10.6,20.7-19.3c-1.3-3.7-3-6.3-3-6.3c0.1-0.2,0.3-0.4,0.4-0.6c14.9-21.1-4.6-37.2-11.5-42c4.9,0.4,9.4,1.6,12.8,4
	c17.2,12.3,11.2,41.1,9.8,46.7c3.9,5.2,5.2,15.5,5.4,25C480.3,398.6,480.3,400.7,480.2,402.7z"/>
<path class="st13" d="M383.3,373.9c0,0,25.9-6.8,45,0l-1.4-15c0,0-27.9-4.8-42.6,1.7L383.3,373.9z"/>
<path class="st14" d="M343,363.7c0,0,66.9-40.9,131,6.7"/>
<path class="st15" d="M357.8,372.8c-12.7,5.2-20.8,15-24.3,19.9c0.3-3.4,0.9-6.8,1.5-10C344.2,375.5,357.8,372.8,357.8,372.8z"/>
<path class="st15" d="M480.2,402.7c-3.9-6.8-12.4-18.3-27.4-22c0,0,12.2-2.4,27.4,15.8C480.3,398.6,480.3,400.7,480.2,402.7z"/>
<path class="st15" d="M433.8,342.5c-5.8-9.3-16.6-14.1-19.6-15.4c2.1-0.7,4.9-1.6,7.9-2.4C432.6,330.1,433.8,342.5,433.8,342.5z"/>
<g>
	<path class="st16" d="M454.4,80c0,0-25.4,22.6-31.9,20.3l0,8.6l20,7.5C442.5,116.5,454.7,94.2,454.4,80z"/>
	<path class="st16" d="M366.7,80c0,0,25.4,22.6,31.9,20.3l0,8.6l-20,7.5C378.6,116.5,366.4,94.2,366.7,80z"/>
	<path class="st17" d="M479.8,160.1c0,17-3.6,33.2-11.2,46.1c0,0.1-0.1,0.2-0.1,0.2c-10.8,17.9-29.5,29.4-57.7,27.4
		c-23.3-1.6-39.5-8.4-50.4-19c-3.3-3.2-6-6.7-8.4-10.5c-0.2-0.2-0.3-0.5-0.4-0.7c-7-11.9-9.9-26.7-9.9-43.5
		c0-20.1,7.5-38.3,19.7-51.6c12.5-13.6,30-22.1,49.3-22.1C448.8,86.4,479.8,119.4,479.8,160.1z"/>
	<path class="st18" d="M406.2,169.7h7.3c1.9,0,2.9,2.2,1.7,3.7l-3.1,3.7c-1.3,1.6-3.7,1.6-5,0l-2.8-3.4
		C403,172.1,404.2,169.7,406.2,169.7z"/>
	<path class="st19" d="M468.5,206.2c0,0.1-0.1,0.2-0.1,0.2c-10.8,17.9-29.5,29.4-57.7,27.4c-30.3-2.1-48.7-12.9-58.8-29.5
		c-0.2-0.2-0.3-0.5-0.4-0.7c4.4-4.2,15.8-5.8,45.1,16.2c0,0,12-14.2,26.6,0C423.3,219.7,454.6,193.8,468.5,206.2z"/>
	<path class="st19" d="M380.5,213.5l-20.2,1.3c-3.3-3.2-6-6.7-8.4-10.5c-0.2-0.2-0.3-0.5-0.4-0.7c-7-11.9-9.9-26.7-9.9-43.5
		c0-20.1,7.5-38.3,19.7-51.6h0.1C361.5,108.5,337,186,380.5,213.5z"/>
	<path class="st18" d="M402.9,239.4c-0.5,0.2-0.9,0.5-1.3,0.7c-38.9,21.2-48.7,12.7-50.5-1c-0.1-0.4-0.1-0.9-0.2-1.3
		c-1.3-14.6-4-16.3,4-27.7c8-11.4,46.6,17.9,46.6,17.9L402.9,239.4z"/>
	<path class="st20" d="M401.6,240.2c-38.9,21.2-48.7,12.7-50.5-1c5.6,4.8,19.9,12,47.4-3.2L401.6,240.2z"/>
	<ellipse class="st18" cx="410.6" cy="233.4" rx="13.4" ry="14"/>
	<path class="st17" d="M362.3,112c0,0-2.6-14.2,3.9-32.3c0,0,6.5,19.4,16.8,20.7C393.3,101.7,386.9,130.1,362.3,112z"/>
	<path class="st17" d="M458.8,112c0,0,2.6-14.2-3.9-32.3c0,0-6.5,19.4-16.8,20.7C427.7,101.7,434.2,130.1,458.8,112z"/>
	<g>
		<path class="st21" d="M386,172.7c0,0-10.3-5.7-13.2-4.5c-6.3,2.5-34.8-4.4-45.9-8"/>
		<path class="st21" d="M384.2,176.2c0,0-6.6,0.2-15.2,0.8s-19.5-1-19.5-1"/>
		<path class="st21" d="M385.1,180.4c0,0-15.5,5.3-26.3,5.9c-10.8,0.7-29.9,6.1-40.6,6.8"/>
		<path class="st21" d="M433.1,172.4c0,0,6.2-4.7,12.8-2.9c6.6,1.8,12.8-2.9,21.4-3.5c8.6-0.5,29.8-8.3,29.8-8.3"/>
		<path class="st21" d="M433.5,176.6c0,0,14.8-2.9,21.4-1.2c6.6,1.8,12.9-0.8,12.9-0.8"/>
		<path class="st21" d="M434,180.9c0,0,17,3.4,30,2.6s26.4,7,41.3,4"/>
	</g>
	<path class="st18" d="M469.3,237.4c-0.1,0.7-0.1,1.3-0.2,2c-2,12.4-11.9,19.7-49,1c-0.9-0.4-1.8-0.9-2.7-1.4l1.3-10.7
		c0,0,38.7-27.6,46.6-16.9C473.3,222,470.7,223.6,469.3,237.4z"/>
	<path class="st20" d="M424,233.4c0,7.7-6,14-13.4,14c-4.9,0-9.2-2.7-11.5-6.8c1.9,1.1,4,1.7,6.3,1.7c7.4,0,13.4-6.3,13.4-14
		c0-2.6-0.7-5.1-1.9-7.2C421.1,223.4,424,228.1,424,233.4z"/>
	<path class="st20" d="M469.1,239.3c-2,12.4-11.9,19.7-49,1l2.7-3.4C422.7,236.9,446.4,249.5,469.1,239.3z"/>
	
		<ellipse transform="matrix(0.9997 -2.396984e-02 2.396984e-02 0.9997 -5.6387 9.9218)" class="st22" cx="411" cy="240.2" rx="3.4" ry="3.4"/>
	
		<ellipse transform="matrix(0.9997 -2.396984e-02 2.396984e-02 0.9997 -5.3932 9.733)" class="st22" cx="403.3" cy="229.8" rx="3.4" ry="3.4"/>
	
		<ellipse transform="matrix(0.9997 -2.396984e-02 2.396984e-02 0.9997 -5.3887 10.1046)" class="st22" cx="418.8" cy="229.8" rx="3.4" ry="3.4"/>
	
		<ellipse transform="matrix(0.9997 -2.396984e-02 2.396984e-02 0.9997 -5.4454 10.5389)" class="st22" cx="436.9" cy="232.4" rx="3.4" ry="3.4"/>
	
		<ellipse transform="matrix(0.9997 -2.396984e-02 2.396984e-02 0.9997 -5.1925 10.9694)" class="st22" cx="455" cy="222.1" rx="3.4" ry="3.4"/>
	
		<ellipse transform="matrix(0.9997 -2.396984e-02 2.396984e-02 0.9997 -5.6574 10.944)" class="st22" cx="453.7" cy="241.5" rx="3.4" ry="3.4"/>
	
		<ellipse transform="matrix(2.396984e-02 -0.9997 0.9997 2.396984e-02 141.1087 609.3637)" class="st22" cx="382.6" cy="232.4" rx="3.4" ry="3.4"/>
	
		<ellipse transform="matrix(2.396984e-02 -0.9997 0.9997 2.396984e-02 133.7883 581.1964)" class="st22" cx="364.5" cy="222.1" rx="3.4" ry="3.4"/>
	
		<ellipse transform="matrix(2.396984e-02 -0.9997 0.9997 2.396984e-02 115.6773 601.4008)" class="st22" cx="365.8" cy="241.5" rx="3.4" ry="3.4"/>
	<path class="st18" d="M403,188c0,0,1.8,9,7,9s7.1-9.9,7.1-9.9L410,180L403,188z"/>
	<line class="st23" x1="410" y1="181.5" x2="410" y2="196.5"/>
	<path class="st24" d="M409.7,178.7c0,0,7.3,18.3,20.3,3.3"/>
	<path class="st24" d="M409.5,178.7c0,0-6.5,19.3-19.5,3.3"/>
	<g>
		<ellipse class="st25" cx="383.5" cy="145.1" rx="13.9" ry="17.5"/>
		
			<ellipse transform="matrix(9.729116e-02 -0.9953 0.9953 9.729116e-02 249.2264 565.0025)" class="st25" cx="436.1" cy="145.1" rx="17.5" ry="13.9"/>
		<circle class="st1" cx="435.9" cy="148.1" r="8.6"/>
		<circle class="st1" cx="383.7" cy="148.1" r="8.6"/>
		<path class="st25" d="M377.6,145.8L377.6,145.8c-2.1,0-3.8-1.7-3.8-3.8v0c0-2.1,1.7-3.8,3.8-3.8l0,0c2.1,0,3.8,1.7,3.8,3.8v0
			C381.4,144.1,379.7,145.8,377.6,145.8z"/>
		<path class="st25" d="M430.8,144.8L430.8,144.8c-2.1,0-3.8-1.7-3.8-3.8v0c0-2.1,1.7-3.8,3.8-3.8l0,0c2.1,0,3.8,1.7,3.8,3.8v0
			C434.6,143.1,432.9,144.8,430.8,144.8z"/>
		<circle class="st25" cx="387.6" cy="153" r="1.4"/>
		<circle class="st25" cx="438.9" cy="153" r="1.4"/>
	</g>
	<g>
		<path class="st16" d="M388,118.5c-0.2,0-0.6,0-0.9,0c-0.3,0-0.7,0-1,0c-0.7,0-1.4,0.1-2.1,0.1c-1.4,0.1-2.8,0.4-4.2,0.7
			c-1.4,0.3-2.8,0.7-4.1,1.3c-1.3,0.5-2.6,1.2-3.8,1.9l-0.2,0.1c-1.5,0.9-3.4,0.4-4.2-1.1c-0.8-1.3-0.4-3,0.7-3.9
			c1.4-1.1,2.8-2.2,4.4-3.1c1.5-0.9,3.2-1.7,4.8-2.3c1.7-0.7,3.4-1.2,5.1-1.6c0.9-0.2,1.7-0.4,2.6-0.6c0.4-0.1,0.9-0.2,1.4-0.2
			c0.5-0.1,0.9-0.1,1.5-0.2l0.4,0c2.5-0.2,4.7,1.8,4.8,4.3c0.2,2.5-1.8,4.7-4.3,4.8C388.6,118.6,388.3,118.5,388,118.5z"/>
	</g>
	<g>
		<path class="st16" d="M430,109.5c0.6,0,1,0.1,1.5,0.2c0.5,0.1,0.9,0.1,1.4,0.2c0.9,0.2,1.8,0.4,2.6,0.6c1.7,0.4,3.4,1,5.1,1.6
			c1.7,0.6,3.3,1.4,4.8,2.3c1.6,0.9,3,2,4.4,3.1c1.3,1.1,1.5,3,0.4,4.3c-1,1.2-2.6,1.5-3.9,0.7l-0.2-0.1c-1.2-0.7-2.5-1.4-3.8-1.9
			c-1.3-0.5-2.7-1-4.1-1.3c-1.4-0.3-2.8-0.6-4.2-0.7c-0.7-0.1-1.4-0.1-2.1-0.1c-0.4,0-0.7,0-1,0c-0.3,0-0.7,0-0.9,0
			c-2.5,0.4-4.8-1.3-5.2-3.8c-0.4-2.5,1.3-4.8,3.8-5.2c0.3,0,0.6-0.1,0.9,0L430,109.5z"/>
	</g>
</g>
<g>
	<circle class="st10" cx="435.9" cy="422.6" r="13.1"/>
	<circle class="st7" cx="435.6" cy="423.8" r="10.5"/>
	<circle class="st10" cx="429.3" cy="417.2" r="3.8"/>
	<circle class="st10" cx="438.9" cy="429.7" r="1"/>
</g>
<g>
	
		<ellipse transform="matrix(0.9986 -5.296864e-02 5.296864e-02 0.9986 -26.8289 22.2933)" class="st13" cx="407.2" cy="517.3" rx="6.5" ry="6.5"/>
	<line class="st26" x1="406.4" y1="504.3" x2="406.5" y2="511"/>
</g>
</svg>
